<svg xmlns="http://www.w3.org/2000/svg" width="126" height="111" viewBox="0 0 126 111" fill="none">
<g clip-path="url(#clip0_42_163)">
<path d="M124.701 39.3263C123.834 38.5596 123.217 37.9263 122.851 37.4263C122.351 36.3263 121.901 35.5596 121.501 35.1263C121.401 35.0263 121.284 34.9263 121.151 34.8263C121.117 34.393 121.001 34.0096 120.801 33.6763C120.367 32.9763 119.667 32.593 118.701 32.5263C118.667 32.5263 118.634 32.5263 118.601 32.5263C118.267 33.093 117.834 33.7263 117.301 34.4263C115.467 36.7596 113.484 38.3763 111.351 39.2763C110.084 39.8096 108.984 39.9263 108.051 39.6263C107.517 39.4263 107.067 39.0763 106.701 38.5763C106.334 38.0763 106.117 37.543 106.051 36.9763C106.017 36.4096 106.134 35.8596 106.401 35.3263C106.701 34.7596 107.101 34.343 107.601 34.0763C108.101 33.7763 108.917 33.4596 110.051 33.1263C110.951 32.7596 111.784 31.993 112.551 30.8263C112.851 29.7597 112.734 28.543 112.201 27.1763C111.967 26.6097 111.617 25.9097 111.151 25.0763C110.417 23.8097 110.017 23.1263 109.951 23.0263C109.484 22.093 109.134 21.393 108.901 20.9263C108.467 20.093 108.051 19.4263 107.651 18.9263C107.084 18.2597 106.067 17.4263 104.601 16.4263C102.934 15.293 101.667 14.4763 100.801 13.9763C99.0007 12.8763 97.984 12.2263 97.7507 12.0263C96.3507 10.6596 95.234 9.70965 94.4007 9.17632C94.2674 9.07632 94.134 9.00965 94.0007 8.97632C93.9674 8.97632 93.9507 8.99298 93.9507 9.02632C93.7507 9.69298 93.1507 10.493 92.1507 11.4263C90.384 12.993 89.0007 14.1596 88.0007 14.9263C86.3674 16.1596 84.8174 17.093 83.3507 17.7263C81.7174 18.393 80.4507 18.4763 79.5507 17.9763C78.8507 17.6096 78.434 16.9763 78.3007 16.0763C78.1674 15.2097 78.3507 14.443 78.8507 13.7763C79.184 13.3096 79.684 12.8763 80.3507 12.4763C80.4507 12.443 81.0507 12.143 82.1507 11.5763C83.3507 11.0096 84.5174 10.2763 85.6507 9.37632C85.684 9.30965 85.7174 9.22632 85.7507 9.12632C86.1507 8.05965 86.1507 7.09298 85.7507 6.22632C85.484 5.69298 84.9674 5.12632 84.2007 4.52632C83.2007 3.75965 82.584 3.25965 82.3507 3.02632C81.984 2.49298 81.7174 2.10965 81.5507 1.87632C81.2174 1.40965 80.884 1.05965 80.5507 0.826316C80.4507 0.759649 80.3507 0.692982 80.2507 0.626316C80.0174 0.426316 79.7507 0.259649 79.4507 0.126316C78.3507 -0.273684 76.934 0.276316 75.2007 1.77632C69.734 6.50965 57.284 16.093 37.8507 30.5263C22.184 42.1596 10.2174 52.2763 1.95069 60.8763C0.184028 62.7763 -0.382639 64.3263 0.250694 65.5263C0.550694 66.1263 1.08403 66.5263 1.85069 66.7263C1.98403 66.7597 2.13403 66.793 2.30069 66.8263L2.35069 66.8763C3.15069 67.7763 4.48403 68.7096 6.35069 69.6763C7.98403 70.5763 9.36736 71.043 10.5007 71.0763C10.8007 70.9763 11.084 70.8597 11.3507 70.7263C13.2507 69.9597 14.534 68.9763 15.2007 67.7763C15.434 67.4097 15.7507 66.8097 16.1507 65.9763C16.5507 65.4097 17.1007 65.0097 17.8007 64.7763C18.5007 64.543 19.184 64.543 19.8507 64.7763C20.5174 65.043 21.0174 65.5096 21.3507 66.1763C21.684 66.843 21.7674 67.5096 21.6007 68.1763C21.534 68.4096 21.3507 68.793 21.0507 69.3263L19.2507 72.4263C18.5507 73.2596 17.3674 74.1597 15.7007 75.1263C13.934 76.0597 12.2507 76.7597 10.6507 77.2263C9.88403 77.393 9.28403 77.5597 8.85069 77.7263C8.81736 78.0263 8.80069 78.343 8.80069 78.6763C8.73403 80.1763 9.00069 81.4763 9.60069 82.5763C9.96736 83.243 10.5674 83.9597 11.4007 84.7263C11.8674 85.1263 12.584 85.743 13.5507 86.5763C13.984 87.0097 14.6007 87.7096 15.4007 88.6763C16.1674 89.5096 16.8674 90.1097 17.5007 90.4763C17.634 90.5763 18.0674 90.793 18.8007 91.1263C19.334 91.393 19.734 91.6596 20.0007 91.9263C20.434 92.3263 20.8507 92.9597 21.2507 93.8263C21.7507 95.0263 22.0674 95.743 22.2007 95.9763C22.8674 97.1097 23.8674 97.893 25.2007 98.3263C26.534 98.793 27.8007 98.7763 29.0007 98.2763C29.3007 98.143 29.6174 97.993 29.9507 97.8263C30.1174 97.4263 30.3007 97.0097 30.5007 96.5763C31.3007 95.0097 31.984 93.8263 32.5507 93.0263C33.4174 91.8263 34.4007 90.943 35.5007 90.3763C35.534 90.343 35.584 90.3263 35.6507 90.3263C35.8507 90.1597 36.084 89.9763 36.3507 89.7763L37.4007 89.0763C38.234 88.7097 39.0174 88.643 39.7507 88.8763C40.8174 89.143 41.484 89.8263 41.7507 90.9263C42.0507 91.993 41.8174 92.9096 41.0507 93.6763C40.884 93.8763 40.6674 94.093 40.4007 94.3263H40.3507C40.2507 94.4597 40.1507 94.5763 40.0507 94.6763C39.8174 94.9096 39.5007 95.1596 39.1007 95.4263C38.8674 95.5596 38.6674 95.6763 38.5007 95.7763C38.2674 95.943 38.0674 96.0597 37.9007 96.1263C37.8674 96.1263 37.8507 96.143 37.8507 96.1763C36.8507 96.8763 36.184 97.8263 35.8507 99.0263C35.7174 99.5263 35.5674 100.293 35.4007 101.326C35.4674 101.393 35.5507 101.476 35.6507 101.576L38.8507 105.026C39.3174 105.226 39.684 105.543 39.9507 105.976C40.084 106.143 40.2174 106.376 40.3507 106.676C40.4174 106.71 40.484 106.76 40.5507 106.826C40.5174 106.86 40.5007 106.893 40.5007 106.926C40.6007 107.126 40.7007 107.343 40.8007 107.576C41.1007 108.076 41.6674 108.61 42.5007 109.176L43.3007 109.726C44.0674 109.893 44.7507 110.043 45.3507 110.176C49.1507 106.976 54.384 102.226 61.0507 95.9263C68.184 89.1596 73.4507 84.3263 76.8507 81.4263C81.984 77.0263 88.9674 71.593 97.8007 65.1263C109.034 56.8597 116.134 51.5763 119.101 49.2763C119.567 48.9096 119.984 48.543 120.351 48.1763C120.717 48.0096 121.134 47.793 121.601 47.5263C123.534 46.4263 124.784 45.293 125.351 44.1263C125.717 43.3596 125.834 42.5263 125.701 41.6263C125.567 40.7263 125.234 39.9596 124.701 39.3263ZM82.5507 38.4763C81.984 38.9096 81.6007 39.4763 81.4007 40.1763C80.834 41.2763 80.684 42.8096 80.9507 44.7763C81.1174 46.2096 81.2174 47.0263 81.2507 47.2263C81.3174 48.1596 81.2674 48.9596 81.1007 49.6263C80.4674 49.593 79.784 49.4096 79.0507 49.0763C78.7174 48.9096 78.1007 48.543 77.2007 47.9763C75.534 47.043 74.1674 46.8263 73.1007 47.3263C72.734 47.493 72.3674 47.7763 72.0007 48.1763C71.6007 48.643 71.284 48.993 71.0507 49.2263C70.5507 49.793 69.884 50.3596 69.0507 50.9263C68.084 51.593 67.3507 52.093 66.8507 52.4263C65.5174 53.393 63.8507 54.743 61.8507 56.4763C59.984 58.0763 58.884 59.5263 58.5507 60.8263C58.3174 61.8596 58.4174 62.993 58.8507 64.2263C59.1507 65.093 59.7007 66.1763 60.5007 67.4763C58.234 66.2097 56.484 65.4263 55.2507 65.1263C53.1174 64.5597 51.234 64.7097 49.6007 65.5763C48.7674 66.0763 48.1174 66.7597 47.6507 67.6263C47.1507 68.5597 46.984 69.4763 47.1507 70.3763C47.384 71.4097 48.2674 72.6597 49.8007 74.1263C48.9674 73.993 47.8507 73.6597 46.4507 73.1263C44.8507 72.5597 43.7174 72.193 43.0507 72.0263C41.8174 71.7263 40.6507 71.6597 39.5507 71.8263C38.2507 71.993 37.2174 72.4763 36.4507 73.2763L34.6007 71.3263C36.0674 70.793 37.1174 70.243 37.7507 69.6763C38.2174 69.243 38.534 68.743 38.7007 68.1763C38.934 67.5763 38.9507 67.0097 38.7507 66.4763C38.5507 65.9097 38.1507 65.4597 37.5507 65.1263C37.3174 64.993 37.0674 64.8763 36.8007 64.7763C36.7674 64.2763 36.634 63.343 36.4007 61.9763C36.1674 60.7096 36.134 59.6763 36.3007 58.8763C36.9007 59.043 37.6174 59.343 38.4507 59.7763C38.884 60.0096 39.5507 60.3596 40.4507 60.8263C42.1507 61.7263 43.6174 61.9596 44.8507 61.5263C46.484 60.893 47.4674 59.3596 47.8007 56.9263C47.8674 56.4263 47.9007 55.4763 47.9007 54.0763C47.9007 52.843 47.9674 51.8763 48.1007 51.1763C48.934 51.2763 50.134 52.0596 51.7007 53.5263C53.1007 54.793 54.3007 55.3096 55.3007 55.0763C55.7674 54.9763 56.2507 54.693 56.7507 54.2263C56.9507 54.0263 57.334 53.593 57.9007 52.9263C60.434 49.693 63.534 47.1096 67.2007 45.1763C68.434 44.543 69.334 43.9596 69.9007 43.4263C70.7674 42.6263 71.1507 41.7763 71.0507 40.8763C70.984 40.2096 70.434 39.293 69.4007 38.1263C68.434 36.993 67.984 36.0596 68.0507 35.3263C68.884 35.293 69.8007 35.543 70.8007 36.0763C71.4007 36.3763 72.2507 36.8763 73.3507 37.5763C74.3174 38.143 75.2674 38.443 76.2007 38.4763C77.334 38.543 78.184 38.2263 78.7507 37.5263C79.484 36.693 79.634 35.643 79.2007 34.3763C78.9007 33.5096 78.334 32.5596 77.5007 31.5263C79.6007 32.2596 81.684 32.6263 83.7507 32.6263C84.884 32.6263 85.6507 32.7096 86.0507 32.8763C87.384 33.4096 88.1174 35.0096 88.2507 37.6763C85.784 37.1763 83.884 37.443 82.5507 38.4763Z" fill="#A9B5C5"/>
</g>
<defs>
<clipPath id="clip0_42_163">
<rect width="126" height="111" fill="white"/>
</clipPath>
</defs>
</svg>