<svg xmlns="http://www.w3.org/2000/svg" width="222" height="223" viewBox="0 0 222 223" fill="none">
<g clip-path="url(#clip0_42_158)">
<path d="M65.3144 172.179C64.9857 171.8 64.5684 171.382 64.0627 170.927C63.734 170.573 63.3294 170.18 62.8489 169.75C62.2167 169.244 61.7489 168.852 61.4455 168.574C60.7627 167.967 59.8144 166.968 58.6006 165.576C57.4374 164.185 56.5018 163.186 55.7937 162.578C55.819 162.528 55.857 162.49 55.9075 162.465C54.0616 161.351 52.6328 160.415 51.6213 159.657C50.9639 159.125 50.4834 158.645 50.1799 158.215C49.6489 157.81 49.1937 157.392 48.8144 156.962C48.4604 156.482 48.1822 156.127 47.9799 155.9C47.6259 155.495 47.2845 155.204 46.9558 155.027C46.3489 154.698 45.6409 154.647 44.8317 154.875C44.1236 155.078 43.4409 155.444 42.7834 155.976C41.9489 156.633 40.9374 157.721 39.7489 159.239C38.434 160.883 37.4478 161.997 36.7903 162.578C36.1328 163.186 35.2225 163.869 34.0593 164.628C32.4409 165.69 31.4799 166.335 31.1765 166.563C27.965 168.916 25.4616 172.04 23.6662 175.936C21.9466 179.68 21.1248 183.626 21.2006 187.775C21.2512 189.597 21.4662 191.14 21.8455 192.405C22.3006 193.796 23.034 195.137 24.0455 196.427C25.2845 198.072 26.7006 199.412 28.2937 200.45C30.342 201.74 33.0857 202.701 36.5248 203.334C36.8535 203.384 37.1822 203.447 37.511 203.523C37.4604 204.029 37.4351 204.611 37.4351 205.269C37.4098 207.925 37.6121 210.721 38.042 213.655C36.7018 213.731 35.6018 214.262 34.742 215.249C33.8317 216.286 33.5156 217.463 33.7937 218.778C33.9202 219.385 34.1983 219.942 34.6282 220.448C35.0581 220.954 35.5639 221.295 36.1455 221.472C36.5753 221.624 37.0811 221.7 37.6627 221.7C38.0167 221.7 38.5351 221.675 39.2179 221.624C40.2799 221.573 40.9501 221.51 41.2282 221.434C42.0121 221.207 42.5432 220.815 42.8213 220.258C43.0236 219.828 43.0742 219.195 42.973 218.361L42.1765 210.126C41.8983 207.369 41.8983 205.256 42.1765 203.789L44.111 204.093C45.9822 204.118 47.8662 204.042 49.7627 203.865C50.5466 203.789 51.3305 203.7 52.1144 203.599L55.4144 202.688C55.5914 203.852 55.9202 205.307 56.4006 207.052C57.1087 209.683 57.4627 211.695 57.4627 213.086C56.9317 213.035 56.4006 213.137 55.8696 213.39C55.3639 213.617 54.9466 213.959 54.6179 214.414C54.011 215.224 53.6822 216.261 53.6317 217.526C53.5811 218.386 53.6696 219.107 53.8972 219.689C54.2006 220.422 54.6685 220.941 55.3006 221.245C55.7305 221.447 56.4133 221.523 57.3489 221.472L60.2317 221.358C61.0156 221.308 61.5845 221.207 61.9386 221.055C62.3432 220.878 62.6593 220.574 62.8868 220.144C63.1144 219.714 63.2029 219.284 63.1524 218.854C63.1271 218.753 62.9501 218.221 62.6213 217.26C62.4443 216.805 62.3052 216.109 62.2041 215.173C62.0776 213.63 61.9765 212.466 61.9006 211.682C61.7742 210.291 61.5972 209.139 61.3696 208.229C61.2937 207.849 61.0029 206.774 60.4972 205.003C60.1432 203.713 59.9282 202.638 59.8524 201.778C59.8524 201.702 59.8524 201.626 59.8524 201.55C60.2064 201.474 60.5478 201.449 60.8765 201.474C61.4581 201.246 62.0524 201.019 62.6593 200.791C65.1627 199.754 66.9455 198.679 68.0075 197.566C69.2972 196.25 70.2202 194.492 70.7765 192.291C71.4845 189.711 71.5098 187.307 70.8524 185.081C70.8018 184.929 70.7512 184.765 70.7006 184.588C70.5742 182.589 70.1443 180.616 69.411 178.668C68.4501 176.214 67.0845 174.051 65.3144 172.179ZM65.4282 180.907C65.9087 182.374 66.1489 184.056 66.1489 185.954C66.0983 189.243 65.3271 192 63.8351 194.226C63.4811 194.758 63.2282 195.188 63.0765 195.516C62.7731 195.643 62.4443 195.769 62.0903 195.896C59.3087 196.958 56.2868 197.857 53.0248 198.59C51.1282 198.995 49.4466 199.273 47.9799 199.425C46.3868 199.476 44.7937 199.488 43.2006 199.463C41.8604 199.362 40.457 199.197 38.9903 198.97C35.7788 198.464 33.2627 197.717 31.442 196.731C28.8121 195.339 27.0926 193.467 26.2834 191.115C25.9041 190.659 25.6765 190.065 25.6006 189.331C25.5501 188.825 25.6006 188.091 25.7524 187.13L25.7903 187.016C25.7903 186.46 25.8282 185.878 25.9041 185.271C25.9547 184.815 26.0179 184.373 26.0937 183.943C26.0937 183.487 26.1064 183.196 26.1317 183.07L26.3972 182.007C26.4478 181.628 26.511 181.35 26.5868 181.172C26.6627 180.945 26.7639 180.742 26.8903 180.565C27.2443 179.402 27.6742 178.289 28.1799 177.226C29.4696 174.57 31.1512 172.419 33.2248 170.775C33.7052 170.396 34.9443 169.586 36.942 168.346C38.4845 167.385 39.6478 166.487 40.4317 165.652C40.988 165.07 41.7593 164.109 42.7455 162.768C43.6558 161.63 44.5535 160.858 45.4386 160.453C46.8547 161.516 48.3593 162.503 49.9524 163.413C50.2052 163.742 50.5213 164.071 50.9006 164.4C51.4317 164.906 52.2662 165.614 53.4041 166.525C53.657 166.778 54.011 167.183 54.4662 167.739C54.5167 167.916 54.5799 168.093 54.6558 168.27C54.9087 168.776 55.4397 169.384 56.2489 170.092L58.942 172.445C59.8271 173.178 60.6616 173.937 61.4455 174.721C63.3673 176.695 64.6949 178.757 65.4282 180.907ZM44.9455 183.981C44.6926 184.689 44.6167 185.878 44.7179 187.548C44.7937 188.129 44.8317 188.446 44.8317 188.496C44.9328 188.85 45.1098 189.217 45.3627 189.597C45.5144 189.824 45.7673 190.077 46.1213 190.356C46.7029 190.836 47.3098 191.165 47.942 191.342C47.9673 191.342 47.9926 191.355 48.0179 191.38C49.0294 191.962 49.965 192.266 50.8248 192.291C51.9374 192.342 52.8604 192.051 53.5937 191.418C53.8719 191.191 54.2133 190.773 54.6179 190.166C54.9466 189.711 55.1742 189.281 55.3006 188.876C55.4776 188.42 55.5662 187.687 55.5662 186.675C55.5662 185.891 55.5029 185.208 55.3765 184.626C55.3006 184.17 55.0857 183.576 54.7317 182.842C54.4282 182.184 54.0868 181.653 53.7075 181.248C52.7972 180.161 51.6466 179.617 50.2558 179.617C48.9914 179.617 47.9547 180.047 47.1455 180.907C46.8926 181.109 46.5765 181.438 46.1972 181.893C45.565 182.728 45.1478 183.424 44.9455 183.981ZM38.0041 186.447C38.434 184.828 38.2822 183.449 37.5489 182.311C37.4225 182.134 37.296 181.969 37.1696 181.818C36.8662 181.236 36.4616 180.679 35.9558 180.148C35.5006 179.642 35.0202 179.275 34.5144 179.047C33.3512 178.516 32.2259 178.567 31.1386 179.199C30.8098 179.402 30.4937 179.693 30.1903 180.072C30.0386 180.173 29.8868 180.287 29.7351 180.414C29.1535 180.995 28.7616 181.729 28.5593 182.614C28.5087 182.817 28.4708 183.057 28.4455 183.335C28.1673 184.019 27.9903 184.575 27.9144 185.005C27.8639 185.41 27.8386 186.042 27.8386 186.902C27.8386 187.687 27.9018 188.256 28.0282 188.61C28.2811 189.369 28.7363 189.9 29.3937 190.204C29.8236 190.406 30.3041 190.533 30.8351 190.583C30.911 190.583 30.9995 190.596 31.1006 190.621C31.2271 190.621 31.3662 190.634 31.5179 190.659C31.619 190.659 31.7328 190.659 31.8593 190.659C31.9098 190.659 31.973 190.672 32.0489 190.697C32.8834 190.9 33.6799 190.849 34.4386 190.545C34.8432 190.419 35.2604 190.179 35.6903 189.824C36.8029 188.939 37.5742 187.813 38.0041 186.447ZM114.549 165.69C114.22 166.019 113.98 166.398 113.828 166.828C113.651 167.385 113.588 168.258 113.639 169.447C113.689 170.307 113.689 174.899 113.639 183.222C113.588 188.787 113.917 193.341 114.625 196.883C114.878 198.122 115.282 199.994 115.839 202.499C116.268 204.674 116.408 206.559 116.256 208.153C116.18 209.038 115.914 210.518 115.459 212.593C115.029 214.439 114.814 215.907 114.814 216.995C114.865 218.133 115.08 218.98 115.459 219.537C115.712 219.942 116.041 220.233 116.445 220.41C116.875 220.612 117.305 220.663 117.735 220.562C118.494 220.384 119.012 219.79 119.29 218.778C119.391 218.449 119.467 217.627 119.518 216.311C119.568 215.401 119.758 214.161 120.087 212.593C120.466 210.796 120.694 209.544 120.77 208.836C121.022 206.66 120.808 203.953 120.125 200.715C119.063 195.656 118.506 192.936 118.456 192.557C118.203 190.583 118.102 187.876 118.152 184.436L118.228 169.447C118.228 168.157 118.114 167.221 117.887 166.639C117.685 166.183 117.394 165.817 117.014 165.538C116.585 165.235 116.142 165.096 115.687 165.121C115.282 165.146 114.903 165.336 114.549 165.69ZM90.5765 101.939C90.273 101.458 89.6914 100.864 88.8317 100.156C87.9466 99.4725 87.188 99.0298 86.5558 98.8274C86.0248 98.6756 85.1903 98.625 84.0524 98.6756C83.3696 98.6756 82.8259 98.7641 82.4213 98.9412C81.511 99.2954 80.765 100.206 80.1834 101.673C79.5765 103.166 79.311 104.557 79.3868 105.848C79.5133 107.441 80.1455 108.656 81.2834 109.49C82.1179 110.098 83.2811 110.401 84.773 110.401C87.0236 110.401 88.7052 109.756 89.8179 108.466C90.3236 107.859 90.7029 107.062 90.9558 106.075C91.3857 104.481 91.2593 103.103 90.5765 101.939ZM93.4213 109.073C93.5983 109.377 94.1167 109.845 94.9765 110.477C95.3052 110.705 95.8363 111.16 96.5696 111.843C97.2271 112.425 97.7707 112.855 98.2006 113.133C98.8075 113.538 99.5788 113.93 100.514 114.31C101.045 114.537 101.855 114.854 102.942 115.258C103.953 115.689 105.243 116.334 106.811 117.194C107.443 117.523 107.949 117.738 108.328 117.839C108.91 117.991 109.416 117.965 109.845 117.763C110.402 117.51 110.743 117.042 110.87 116.359C110.996 115.701 110.895 115.081 110.566 114.5C110.136 113.766 109.175 113.007 107.683 112.223C106.141 111.464 104.548 110.781 102.904 110.174C101.387 109.592 100.363 109.06 99.8317 108.58C99.6294 108.403 99.3512 108.086 98.9972 107.631C98.6684 107.201 98.3903 106.885 98.1627 106.682C97.6822 106.227 97.1259 105.923 96.4937 105.772C95.8363 105.62 95.2167 105.67 94.6351 105.923C94.0282 106.176 93.5983 106.632 93.3455 107.29C93.0673 107.947 93.0926 108.542 93.4213 109.073ZM13.9937 106.758C13.842 107.34 13.7788 107.808 13.8041 108.162C13.9305 109.174 14.5121 109.946 15.5489 110.477C16.3075 110.882 17.2811 111.059 18.4696 111.008C19.911 110.958 21.0489 110.642 21.8834 110.06C22.996 109.301 23.6914 108.061 23.9696 106.341C24.096 105.531 24.0581 104.836 23.8558 104.254C23.5018 103.318 22.7811 102.546 21.6937 101.939C20.6822 101.382 19.5949 101.142 18.4317 101.218C17.2432 101.294 16.2317 101.686 15.3972 102.394C14.942 102.85 14.6639 103.255 14.5627 103.609C14.411 103.963 14.3225 104.532 14.2972 105.316C14.2719 105.519 14.1708 105.999 13.9937 106.758ZM126.649 149.904C126.345 148.159 125.296 146.666 123.501 145.426C122.085 144.44 120.264 143.655 118.039 143.074C113.866 141.986 108.556 141.214 102.108 140.759C91.4616 140 86.0627 139.608 85.911 139.583C82.3202 139.127 79.6271 138.836 77.8317 138.71C74.7466 138.507 72.0788 138.621 69.8282 139.051C66.996 139.608 64.5432 140.759 62.4696 142.504C60.1685 144.376 58.8156 146.577 58.411 149.107C58.1075 150.853 58.2972 152.383 58.9799 153.699C59.7891 155.267 61.2432 156.431 63.342 157.19C64.7834 157.721 66.7558 158.113 69.2593 158.366L77.111 159.125C78.7041 159.277 79.8673 159.593 80.6006 160.074C81.4604 160.63 82.0673 161.529 82.4213 162.768C82.6742 163.603 82.8386 164.754 82.9144 166.221C83.5466 178.592 83.3822 191.165 82.4213 203.941C82.1937 207.305 82.1685 209.633 82.3455 210.923C82.573 212.922 83.1926 214.857 84.2041 216.729C85.4684 218.98 86.973 220.524 88.7179 221.358C89.7294 221.839 90.7914 222.054 91.9041 222.004C93.0926 221.953 94.1041 221.611 94.9386 220.979C96.2029 220.043 97.0248 218.538 97.4041 216.463C97.4799 215.957 97.6064 214.06 97.7834 210.771C97.834 209.835 97.9478 208.709 98.1248 207.394C98.3524 205.876 98.5167 204.738 98.6179 203.979C99.0983 199.982 99.1868 194.897 98.8834 188.724C98.4029 179.389 98.1627 174.279 98.1627 173.393C98.1627 169.877 98.4535 167.157 99.0351 165.235C99.6673 163.312 100.54 162.009 101.652 161.326C102.386 160.921 103.511 160.643 105.028 160.491L113.714 159.543C115.687 159.315 117.191 159.087 118.228 158.86C119.872 158.505 121.288 157.999 122.476 157.342C123.867 156.557 124.955 155.508 125.739 154.192C126.573 152.775 126.876 151.346 126.649 149.904ZM69.4489 143.984C70.6374 143.655 72.0156 143.491 73.5834 143.491C74.4685 143.491 75.8845 143.554 77.8317 143.681L94.5972 144.971C99.8064 145.35 103.802 145.705 106.583 146.034C111.009 146.565 114.954 147.273 118.418 148.159C120.517 148.715 121.629 149.588 121.756 150.777C121.806 151.258 121.693 151.726 121.414 152.181C121.136 152.611 120.77 152.953 120.314 153.206C119.682 153.56 118.709 153.813 117.394 153.964L105.976 155.444C104.333 155.647 103.056 155.862 102.145 156.089C100.755 156.444 99.5788 156.937 98.6179 157.569C95.7098 159.593 94.1041 163.502 93.8006 169.295C93.6236 172.533 93.7501 178.124 94.1799 186.068C94.5845 193.176 94.5593 198.742 94.1041 202.764C93.9524 204.004 93.6995 205.876 93.3455 208.381C93.0673 210.556 93.0041 212.416 93.1558 213.959C93.2317 214.591 93.1937 215.122 93.042 215.553C92.865 216.109 92.5489 216.4 92.0937 216.425C91.8156 216.425 91.4868 216.286 91.1075 216.008C89.2363 214.718 87.9845 213.288 87.3524 211.72C86.8972 210.506 86.7455 208.709 86.8972 206.331L87.3144 197.755C87.6937 190.495 87.896 184.929 87.9213 181.059C87.9972 174.861 87.7822 169.295 87.2765 164.362C87.0995 162.768 86.8719 161.491 86.5937 160.529C86.1891 159.138 85.5949 158.025 84.811 157.19C83.9006 156.203 82.6236 155.457 80.9799 154.951C79.9179 154.647 78.388 154.382 76.3903 154.154L66.4524 153.13C64.9098 152.978 63.911 152.573 63.4558 151.915C62.9753 151.207 62.9121 150.309 63.2662 149.221C63.6708 147.956 64.4673 146.843 65.6558 145.882C66.7432 144.996 68.0075 144.364 69.4489 143.984ZM104.004 150.056C103.675 149.17 102.714 148.5 101.121 148.045C100.085 147.792 99.3133 147.741 98.8075 147.893C98.2765 148.045 97.7075 148.449 97.1006 149.107C96.4432 149.866 96.0386 150.537 95.8868 151.118C95.7351 151.65 95.7857 152.383 96.0386 153.319C96.165 153.952 96.3926 154.445 96.7213 154.799C97.4294 155.558 98.4788 155.748 99.8696 155.368C101.235 154.989 102.36 154.255 103.245 153.168C104.131 152.029 104.383 150.992 104.004 150.056ZM83.5972 149.752C83.5466 148.842 83.3822 148.146 83.1041 147.665C82.5225 146.729 81.511 146.236 80.0696 146.185C79.2857 146.135 78.6535 146.223 78.1731 146.451C77.111 146.881 76.3271 147.779 75.8213 149.145C75.442 150.182 75.4041 151.043 75.7075 151.726C76.011 152.434 76.719 153.054 77.8317 153.585C79.5006 154.395 80.8409 154.508 81.8524 153.926C82.5351 153.522 83.0156 152.902 83.2937 152.067C83.496 151.511 83.5972 150.739 83.5972 149.752ZM177.097 82.5101C176.44 83.4209 175.365 84.5466 173.873 85.8874C172.103 87.5318 170.75 88.7335 169.814 89.4924C168.272 90.7826 166.818 91.8578 165.452 92.7179C163.657 93.8563 161.558 94.9188 159.156 95.9054C157.411 96.6138 155.173 97.398 152.442 98.2582C150.722 98.7894 149.585 99.4219 149.028 100.156C148.598 100.712 148.421 101.357 148.497 102.091C148.573 102.622 148.763 103.039 149.066 103.343C149.243 104.608 150.609 105.24 153.163 105.24C156.298 105.24 159.32 105.557 162.228 106.189C164.428 106.67 165.68 107.517 165.983 108.732C166.16 109.364 166.059 110.06 165.68 110.819C165.528 111.097 165.111 111.755 164.428 112.792C163.644 113.956 162.962 115.347 162.38 116.966C162.001 118.029 161.571 119.521 161.09 121.444C158.283 132.803 156.728 143.946 156.425 154.875C156.096 166.588 157.209 177.745 159.763 188.344C160.167 189.989 160.622 191.481 161.128 192.822C161.128 192.873 161.128 192.923 161.128 192.974C161.153 193.429 161.432 194.049 161.963 194.833C162.216 195.415 162.494 195.959 162.797 196.465C162.898 196.642 163.012 196.819 163.139 196.996C163.189 197.477 163.353 197.97 163.632 198.476C164.011 199.21 164.82 200.146 166.059 201.284L170.611 205.497C171.193 206.078 171.749 206.508 172.28 206.787C172.887 207.116 173.898 207.331 175.314 207.432C175.365 207.432 175.428 207.445 175.504 207.47C175.555 207.495 175.605 207.52 175.656 207.546C175.656 207.622 175.656 207.697 175.656 207.773C175.58 209.291 175.567 210.999 175.618 212.896C174.935 212.795 174.252 212.858 173.57 213.086C172.862 213.314 172.267 213.668 171.787 214.148C171.231 214.705 170.75 215.451 170.345 216.387C169.789 217.678 169.751 218.664 170.232 219.347C170.687 219.929 171.585 220.22 172.925 220.22L176.604 220.296C177.818 220.347 178.665 220.169 179.145 219.765C179.853 219.208 180.182 218.12 180.132 216.501V208.494C180.132 208.216 180.119 207.95 180.094 207.697C184.747 207.9 189.311 207.95 193.787 207.849C194.065 207.849 194.331 207.837 194.583 207.811C194.71 207.786 194.836 207.773 194.963 207.773V213.541C194.103 213.415 193.256 213.529 192.421 213.883C191.562 214.237 190.891 214.768 190.411 215.477C189.905 216.185 189.678 217.007 189.728 217.943C189.753 218.879 190.057 219.663 190.639 220.296C190.841 220.524 191.106 220.739 191.435 220.941C191.713 220.966 192.004 220.992 192.308 221.017C194.482 220.966 196.252 220.916 197.618 220.865C197.744 220.764 197.858 220.663 197.959 220.562C198.263 220.258 198.667 219.765 199.173 219.082C199.274 218.955 199.375 218.841 199.476 218.74V207.28C200.362 207.229 200.956 207.154 201.259 207.052C201.841 206.825 202.46 206.407 203.118 205.8C204.231 204.864 205.065 203.979 205.621 203.144C205.899 202.688 206.266 202.005 206.721 201.095L210.173 193.847C210.299 193.619 210.401 193.391 210.476 193.164C211.033 191.975 211.551 190.672 212.032 189.255C212.108 189.002 212.196 188.749 212.297 188.496C212.474 188.344 212.626 188.155 212.752 187.927C213.157 187.345 213.422 186.612 213.549 185.726C213.574 185.524 213.637 184.702 213.739 183.26C213.739 183.184 213.751 183.095 213.776 182.994C214.358 180.414 214.826 177.681 215.18 174.797C215.104 174.696 215.054 174.595 215.028 174.494C215.231 172.065 215.268 168.713 215.142 164.438C214.94 155.71 214.573 148.968 214.042 144.212C213.637 140.999 213.17 138.28 212.639 136.053C212.209 134.434 211.526 132.233 210.59 129.451C210.616 129.274 210.641 129.109 210.666 128.957C210.413 128.35 210.148 127.73 209.87 127.098C209.162 125.479 208.605 124.29 208.201 123.531C207.164 121.836 206.418 120.546 205.963 119.66C205.128 118.067 204.395 115.979 203.763 113.399C203.131 110.642 202.612 108.554 202.208 107.138C202.359 107.087 202.511 107.049 202.663 107.024C202.486 106.948 202.309 106.872 202.132 106.796C202.106 106.72 202.081 106.644 202.056 106.569C206.936 104.646 212.006 103.318 217.266 102.584C218.657 102.432 219.681 102.167 220.339 101.787C220.819 101.509 221.198 101.142 221.476 100.687C221.704 100.307 221.818 99.9278 221.818 99.5484C221.843 99.4472 221.856 99.3333 221.856 99.2068C221.881 98.7768 221.742 98.3594 221.439 97.9546C221.16 97.6004 220.794 97.3221 220.339 97.1197C219.732 96.8668 218.834 96.7403 217.645 96.7403C212.487 96.7403 208.428 96.3608 205.47 95.6019C203.497 95.0706 200.893 94.0587 197.656 92.5661C195.178 91.3771 193.395 90.3272 192.308 89.4165C191.347 88.607 190.044 87.165 188.401 85.0905C186.808 83.092 185.48 81.6753 184.418 80.8405C183.634 80.2333 182.837 79.8159 182.028 79.5882C181.067 79.3352 180.22 79.3985 179.487 79.7779C179.032 80.0309 178.576 80.4357 178.121 80.9923C177.666 81.6753 177.325 82.1813 177.097 82.5101ZM173.949 91.8831C175.744 90.3399 178.273 87.9492 181.535 84.7111C182.597 85.4953 183.887 86.8361 185.404 88.7335C187.022 90.7826 188.274 92.174 189.159 92.9076C190.196 93.7678 191.878 94.767 194.204 95.9054C196.834 97.1956 198.794 98.1064 200.083 98.6376C201.828 99.3713 203.485 99.9531 205.052 100.383L203.383 100.763C199.919 101.572 197.883 102.875 197.276 104.671C197.251 104.747 197.226 104.836 197.201 104.937C197.15 105.038 197.099 105.152 197.049 105.278C196.847 105.86 196.885 106.543 197.163 107.328C197.314 107.783 197.605 108.453 198.035 109.339C198.263 109.946 198.617 111.375 199.097 113.627C199.679 116.359 200.564 118.901 201.752 121.254C202.233 122.241 203.004 123.708 204.066 125.656C204.445 126.39 204.837 127.149 205.242 127.933C205.217 128.085 205.217 128.249 205.242 128.426C205.293 129.008 205.634 129.969 206.266 131.31C207.556 134.068 208.504 137.344 209.111 141.138C209.49 143.466 209.832 146.906 210.135 151.46C210.514 157.43 210.717 162.022 210.742 165.235C210.767 170.32 210.476 174.899 209.87 178.972C209.819 179.25 209.781 179.541 209.756 179.844C209.199 182.652 208.517 185.296 207.708 187.775C207.531 188.357 207.341 188.901 207.139 189.407C207.063 189.458 206.999 189.508 206.949 189.559C206.747 189.761 206.506 190.217 206.228 190.925C205.697 192.468 204.989 194.163 204.104 196.01L202.89 198.4C202.637 198.906 202.397 199.362 202.17 199.767C201.765 199.944 200.918 200.348 199.628 200.981C198.516 201.537 197.555 201.892 196.745 202.043L195.266 202.385C195.114 202.461 194.975 202.549 194.849 202.651C192.598 202.828 191.043 202.967 190.183 203.068C185.606 203.119 180.966 202.954 176.263 202.575C176.111 202.549 175.972 202.537 175.845 202.537C172.128 200.589 169.056 197.679 166.628 193.809C166.299 193.101 165.983 192.291 165.68 191.38C162.291 180.73 160.724 169.194 160.976 156.773C161.204 145.616 162.898 133.979 166.059 121.861C166.666 119.509 167.286 117.776 167.918 116.662C168.044 116.41 168.512 115.663 169.321 114.424C169.903 113.513 170.308 112.729 170.535 112.071C171.167 110.199 170.927 108.264 169.814 106.265C168.752 104.393 167.235 103.002 165.263 102.091C163.695 101.357 161.874 100.877 159.801 100.649C161.975 99.7887 163.897 98.878 165.566 97.9166C168.247 96.4241 171.041 94.4129 173.949 91.8831ZM192.839 100.611C192.737 99.776 192.56 99.1942 192.308 98.8653C191.852 98.2835 190.967 97.9925 189.652 97.9925C188.868 97.9925 188.236 98.1064 187.756 98.3341C187.452 98.3341 187.237 98.3594 187.111 98.4099C186.782 98.5364 186.466 98.7515 186.163 99.0551C185.783 99.4345 185.543 99.8013 185.442 100.156C185.442 100.181 185.404 100.434 185.328 100.914V102.053C185.328 102.483 185.379 102.888 185.48 103.267L185.821 103.95C185.948 104.153 186.087 104.342 186.239 104.519C186.441 104.874 186.694 105.19 186.997 105.468C187.882 106.252 188.97 106.556 190.259 106.379C190.917 106.303 191.422 106.113 191.776 105.81C192.535 105.253 192.914 104.203 192.914 102.66L192.839 100.611ZM178.728 101.56C178.602 100.244 178.033 99.3586 177.021 98.9033C176.516 98.6756 175.782 98.587 174.821 98.6376C174.72 98.6376 174.632 98.6503 174.556 98.6756C173.974 98.4985 173.367 98.4985 172.735 98.6756C171.976 98.878 171.408 99.2827 171.028 99.8899C170.75 100.345 170.611 100.927 170.611 101.635C170.611 101.686 170.611 101.724 170.611 101.749C170.333 102.23 170.27 102.761 170.421 103.343C170.497 103.773 170.737 104.304 171.142 104.937C171.799 105.949 172.47 106.581 173.152 106.834C173.608 107.011 174.24 107.075 175.049 107.024C175.883 107.024 176.528 106.872 176.983 106.569C177.388 106.316 177.78 105.734 178.159 104.823C178.64 103.508 178.829 102.42 178.728 101.56ZM167.956 58.1481C167.88 58.5276 167.931 58.9324 168.108 59.3624C168.462 60.0708 169.056 60.5135 169.89 60.6906C170.345 60.7918 170.788 60.7791 171.218 60.6526C171.673 60.5008 172.04 60.2605 172.318 59.9316C172.621 59.6028 172.811 59.2106 172.887 58.7553C172.963 58.2999 172.899 57.8698 172.697 57.4651C172.217 56.6302 171.37 56.2128 170.156 56.2128C170.232 56.3393 170.131 56.4026 169.852 56.4026C169.372 56.4532 168.993 56.5923 168.714 56.82C168.285 57.1742 168.032 57.6169 167.956 58.1481ZM148.801 23.9578C148.194 24.0337 147.41 24.4258 146.449 25.1342C145.817 25.6654 145.387 26.0955 145.159 26.4244C144.603 27.3098 144.476 28.2079 144.78 29.1186C144.957 29.574 145.235 29.9408 145.614 30.2191C146.019 30.5227 146.449 30.6745 146.904 30.6745C147.208 30.6745 147.637 30.5986 148.194 30.4468C148.447 30.3962 148.94 30.3835 149.673 30.4088C150.305 30.4341 150.798 30.3835 151.152 30.257C151.785 30.0294 152.29 29.5993 152.67 28.9668C153.024 28.3344 153.137 27.6766 153.011 26.9936C152.91 26.3358 152.619 25.7413 152.139 25.2101C151.658 24.6788 151.089 24.312 150.432 24.1096C149.926 23.9325 149.382 23.8819 148.801 23.9578ZM133.552 36.1768C133.097 35.5696 132.617 35.1649 132.111 34.9625C131.504 34.7601 130.897 34.836 130.29 35.1902C129.683 35.5443 129.329 36.0376 129.228 36.6701C129.102 37.4543 129.481 38.4789 130.366 39.7438L132.794 43.197C132.971 43.45 133.148 43.665 133.325 43.8421C133.274 43.8674 133.236 43.8927 133.211 43.918C132.25 44.6769 131.593 45.2967 131.239 45.7774C130.859 46.2833 130.619 46.9284 130.518 47.7127C130.493 47.8645 130.48 48.0542 130.48 48.2819C130.227 48.2566 130.012 48.2313 129.835 48.206C128.647 47.953 127.749 47.8012 127.142 47.7506C125.979 47.6494 125.132 47.9024 124.601 48.5096C124.272 48.8637 124.095 49.3065 124.07 49.8377C124.044 50.3437 124.183 50.799 124.487 51.2038C124.639 51.3809 124.917 51.6212 125.321 51.9248C125.953 52.3043 126.662 52.5699 127.445 52.7217C127.774 52.7976 128.293 52.8482 129.001 52.8735C129.076 52.9494 129.152 53.0379 129.228 53.1391C129.304 53.2403 129.696 53.6451 130.404 54.3534C131.921 55.9472 133.072 57.8319 133.856 60.0075C134.008 60.387 134.21 60.9689 134.463 61.7531C134.513 61.8543 134.564 61.9681 134.614 62.0946C131.504 64.7762 129.759 66.3067 129.38 66.6862C127.281 68.8365 124.487 72.7451 120.997 78.4119C120.188 79.7274 119.417 80.9417 118.683 82.0548C118.152 81.2705 117.836 80.7646 117.735 80.5369C117.558 80.1068 117.419 79.7779 117.318 79.5503C117.141 79.1708 116.951 78.8799 116.749 78.6775C116.294 78.2221 115.51 77.9944 114.397 77.9944C113.158 77.9944 112.273 78.2727 111.742 78.8293C111.287 79.2846 111.11 79.8665 111.211 80.5748C111.337 81.2832 111.679 81.7891 112.235 82.0927C112.488 82.2445 112.893 82.4342 113.449 82.6619C113.727 82.839 114.056 83.2817 114.435 83.9901L115.611 86.0013C115.636 86.0519 115.674 86.1025 115.725 86.1531C114.536 87.6709 113.411 88.9232 112.349 89.9098C112.147 90.0869 111.982 90.2513 111.856 90.4031C111.375 90.4284 110.971 90.5929 110.642 90.8964C110.237 91.2506 109.972 91.8072 109.845 92.5661C109.795 92.5155 109.757 92.4776 109.732 92.4523C108.063 90.985 105.521 89.3153 102.108 87.4433C102.108 87.3674 102.108 87.2788 102.108 87.1776L102.07 73.7444C102.044 72.9095 101.956 72.2518 101.804 71.7711C102.108 71.9988 102.462 72.1253 102.866 72.1506C103.498 72.1759 104.32 71.8597 105.332 71.2019L107.759 69.6461C108.922 68.9377 109.643 68.2167 109.921 67.4831C111.363 66.6989 112.602 65.8514 113.639 64.9407C114.397 64.2829 114.814 63.6505 114.89 63.0433C114.941 62.4867 114.739 61.9681 114.283 61.4875C113.853 61.0321 113.335 60.7538 112.728 60.6526C112.551 60.6779 112.222 60.7665 111.742 60.9183C111.388 61.0448 110.756 61.3989 109.845 61.9808L108.139 63.1192C106.824 61.4495 105.572 60.3744 104.383 59.8937C104.282 60.0455 104.004 60.172 103.549 60.2732C103.094 60.3744 102.727 60.6526 102.449 61.108C102.171 61.5381 102.057 62.0061 102.108 62.512C102.209 63.0433 102.563 63.6252 103.17 64.2576C104.08 65.1936 104.573 65.7122 104.649 65.8134C104.649 65.8387 104.687 65.902 104.763 66.0032L102.79 67.3313C102.006 67.8879 101.463 68.4191 101.159 68.9251C100.982 68.748 100.78 68.5456 100.552 68.3179L96.7213 64.9407C95.1029 63.6252 93.7753 62.8409 92.7386 62.5879C92.0558 62.5879 91.4742 62.8915 90.9937 63.4987C90.5386 64.1311 90.3995 64.7762 90.5765 65.434C90.7282 65.9905 91.1202 66.5218 91.7524 67.0277C92.1317 67.306 92.7133 67.6981 93.4972 68.2041C94.0029 68.5583 94.6857 69.1781 95.5455 70.0635C96.4052 70.9489 97.0753 71.5687 97.5558 71.9229C97.6064 71.9735 97.6696 72.0115 97.7455 72.0367C97.5937 72.5427 97.5179 73.1625 97.5179 73.8962L97.5937 85.0146C94.6604 83.3956 92.5236 82.0674 91.1834 81.0302C89.1857 79.4111 87.6811 79.019 86.6696 79.8538C86.265 80.1574 86.0248 80.6001 85.9489 81.182C85.8983 81.7132 85.9995 82.2192 86.2524 82.6999C86.5811 83.4082 87.3018 84.1419 88.4144 84.9008C89.8052 85.8621 92.9535 87.6203 97.8592 90.1754H97.8972C98.1248 90.8838 98.5041 91.3265 99.0351 91.5036C99.4397 91.6554 99.8443 91.6554 100.249 91.5036C103.056 93.0974 105.231 94.6279 106.773 96.0952C107.481 96.7782 108.075 97.2589 108.556 97.5372C109.087 97.7902 109.567 97.904 109.997 97.8787C110.098 98.6376 110.225 99.4345 110.376 100.269C110.553 101.458 110.857 103.242 111.287 105.62C111.439 106.758 111.552 107.846 111.628 108.883C111.729 110.325 111.78 112.501 111.78 115.41L111.704 129.602C111.704 131.323 112.045 132.461 112.728 133.018C113.158 133.347 113.676 133.473 114.283 133.397C114.865 133.321 115.333 133.068 115.687 132.638C115.99 132.183 116.167 131.399 116.218 130.285L116.294 115.676C116.294 113.5 116.268 111.691 116.218 110.249C116.471 110.502 116.799 110.667 117.204 110.743C117.659 110.844 118.102 110.819 118.532 110.667C119.164 110.49 119.91 110.009 120.77 109.225C122.489 107.707 123.981 106.176 125.245 104.633C125.878 103.874 126.763 102.685 127.901 101.066C128.937 99.6496 129.911 98.5491 130.821 97.7649C131.125 97.5119 131.567 97.145 132.149 96.6644C132.402 96.4367 132.629 96.2217 132.832 96.0193C133.843 95.8422 134.956 95.6019 136.17 95.2983C137.763 94.8682 139.014 94.4508 139.925 94.046C140.962 93.5907 141.695 93.0594 142.125 92.4523C142.403 92.0475 142.555 91.6174 142.58 91.1621C142.631 90.6561 142.517 90.226 142.239 89.8719C141.733 89.2141 141.012 88.9358 140.076 89.037C139.621 89.0876 138.85 89.328 137.763 89.758C135.512 90.6688 133.224 91.2253 130.897 91.4277C130.771 90.9976 130.594 90.5423 130.366 90.0616C130.037 89.3027 129.696 88.7461 129.342 88.3919C128.786 87.8607 128.191 87.633 127.559 87.7089C127.559 87.8354 127.42 87.8986 127.142 87.8986C126.712 87.9492 126.32 88.1263 125.966 88.4299C125.637 88.7335 125.435 89.1003 125.359 89.5303C125.334 89.8086 125.359 90.1248 125.435 90.479C125.511 90.8332 125.701 91.3265 126.004 91.959C126.308 92.5914 126.497 93.0721 126.573 93.4009C126.598 93.4768 126.624 93.5654 126.649 93.6666V93.7425C126.699 93.9701 126.763 94.2737 126.839 94.6532V94.6911C126.914 94.8682 126.99 95.02 127.066 95.1465C126.004 96.3608 124.727 97.9293 123.235 99.8519C121.263 102.432 119.657 104.228 118.418 105.24C117.229 106.202 116.496 106.885 116.218 107.29C116.142 107.391 116.091 107.492 116.066 107.593C115.914 106.126 115.636 104.153 115.232 101.673C114.979 100.206 114.814 99.1183 114.739 98.4099C114.562 97.0439 114.435 95.7916 114.359 94.6532C114.435 94.6026 114.498 94.5393 114.549 94.4635C116.774 92.1613 119.063 89.3406 121.414 86.0013C122.097 85.0399 123.109 83.5221 124.449 81.4476C125.031 81.7259 125.84 81.865 126.876 81.865L144.552 81.8271C146.247 81.8271 147.283 81.435 147.663 80.6507C147.916 80.1701 147.916 79.6515 147.663 79.0949C147.587 78.9178 147.498 78.7534 147.397 78.6016C147.549 78.6016 147.713 78.5889 147.89 78.5636C148.447 78.4372 149.117 77.9818 149.901 77.1975C151.241 75.8567 153.125 73.795 155.552 71.0122C156.336 71.4928 157.424 71.9356 158.814 72.3403C160.762 72.8969 161.937 73.2637 162.342 73.4408C163.404 73.8962 164.137 74.0985 164.542 74.0479C164.972 74.0226 165.351 73.8709 165.68 73.5926C166.034 73.289 166.262 72.9348 166.363 72.5301C166.565 71.7964 166.439 71.1134 165.983 70.4809C166.186 69.722 166.337 69.2413 166.439 69.0389C166.641 68.6342 167.045 68.0776 167.652 67.3693C168.335 66.3573 168.575 65.396 168.373 64.4853C168.247 63.954 167.994 63.5113 167.614 63.1571C167.21 62.7777 166.755 62.5753 166.249 62.55C166.224 62.7018 166.021 62.7777 165.642 62.7777C165.187 62.7777 164.795 63.018 164.466 63.4987C164.188 64.0552 163.96 64.46 163.783 64.713C163.278 65.4213 162.911 65.9652 162.683 66.3447C162.38 66.8254 162.114 67.4705 161.887 68.28C161.558 68.2041 161.217 68.1156 160.863 68.0144C159.699 67.7361 158.814 67.4705 158.208 67.2175C157.575 66.9645 157.171 66.8127 156.994 66.7621C156.918 66.6103 156.817 66.4838 156.69 66.3826C157.095 65.9779 157.436 65.3707 157.714 64.5612C158.068 63.4228 158.245 62.1832 158.245 60.8424C158.195 59.7799 157.993 58.983 157.639 58.4517C157.436 58.0722 157.133 57.7813 156.728 57.5789C156.324 57.3765 155.932 57.3133 155.552 57.3892L155.287 57.503C154.705 57.4777 154.187 57.6928 153.732 58.1481C153.276 58.6035 153.074 59.1095 153.125 59.666C153.15 59.8937 153.226 60.2099 153.352 60.6147C153.504 61.0195 153.593 61.323 153.618 61.5254C153.668 61.9049 153.593 62.4488 153.39 63.1571C153.188 63.8655 153.087 64.3967 153.087 64.7509C153.087 65.3075 153.251 65.7755 153.58 66.155C153.555 66.155 153.529 66.1676 153.504 66.1929C153.099 66.4712 152.543 67.1289 151.835 68.1662C150.672 69.9623 149.256 71.6193 147.587 73.1372C146.828 73.8203 146.31 74.3642 146.032 74.7689C145.526 75.4267 145.311 76.0718 145.387 76.7042C145.412 77.0078 145.513 77.2861 145.69 77.5391C145.083 77.3873 144.299 77.3114 143.339 77.3114H127.711C127.509 77.3114 127.319 77.324 127.142 77.3493C127.243 77.1723 127.344 76.9952 127.445 76.8181C129.367 73.8582 130.885 71.7458 131.997 70.4809C132.933 69.4184 134.614 67.774 137.042 65.5478L144.325 58.983C145.058 58.3252 145.64 57.7434 146.07 57.2374C146.424 57.1362 146.917 56.9465 147.549 56.6682C148.131 56.4405 148.978 56.2381 150.09 56.061C151.279 55.884 152.113 55.7195 152.594 55.5677C153.453 55.2894 154.073 54.8973 154.452 54.3914C154.756 53.9613 154.87 53.4553 154.794 52.8735C154.768 52.6458 154.718 52.4434 154.642 52.2663C154.718 52.0892 154.768 51.9122 154.794 51.7351C154.844 51.4821 154.844 51.2165 154.794 50.9382C154.844 50.9129 154.882 50.8876 154.908 50.8623C155.135 50.6852 155.464 50.4322 155.894 50.1034C156.45 49.6986 157.259 49.3191 158.321 48.9649C159.636 48.5096 160.471 48.1933 160.825 48.0163C161.583 47.6368 162.152 47.1688 162.532 46.6122C162.987 45.8533 163.063 45.1449 162.759 44.4872C162.532 44.0318 162.165 43.7029 161.659 43.5006C161.153 43.2982 160.622 43.2349 160.066 43.3108C159.535 43.3867 158.562 43.7662 157.145 44.4492C156.008 44.9299 155.16 45.3094 154.604 45.5876C153.997 45.8659 153.479 46.1695 153.049 46.4984C153.024 46.3213 152.998 46.1189 152.973 45.8912C152.922 45.3094 152.821 44.854 152.67 44.5251C152.29 43.6903 151.658 43.2476 150.773 43.197C150.748 43.2982 150.634 43.3488 150.432 43.3488C149.799 43.3994 149.281 43.7282 148.876 44.3354C148.624 44.7908 148.472 45.3979 148.421 46.1569C148.345 47.8771 148.851 49.5594 149.939 51.2038C148.699 51.4315 147.511 51.773 146.373 52.2284C146.171 52.0513 145.943 51.9122 145.69 51.811C145.083 51.5833 144.527 51.5959 144.021 51.8489C143.591 52.0766 143.111 52.6585 142.58 53.5945C141.644 55.2136 140.216 56.9465 138.294 58.7932C137.839 57.7307 137.308 56.6682 136.701 55.6057C136.043 54.442 135.348 53.3541 134.614 52.3422C134.716 52.1904 134.791 52.026 134.842 51.8489C134.943 51.5453 134.981 51.0647 134.956 50.4069C134.931 49.7492 134.956 49.2559 135.032 48.927C135.183 48.3957 135.563 47.8265 136.17 47.2194L137.839 45.36C138.648 44.5251 139.141 43.8041 139.318 43.197C139.318 43.1717 139.331 43.159 139.356 43.159C139.609 42.9061 139.786 42.5898 139.887 42.2104L140.001 41.5653C140.051 41.287 140.127 41.0846 140.228 40.9581C140.355 40.7557 140.645 40.528 141.101 40.2751C141.809 39.845 142.428 39.3896 142.959 38.909C144.122 37.897 144.628 36.8978 144.476 35.9112C144.401 35.5064 144.224 35.1522 143.945 34.8486C143.642 34.5451 143.301 34.3427 142.921 34.2415C142.087 34.0644 141.063 34.4312 139.849 35.3419C139.065 35.9238 138.218 36.6068 137.308 37.3911C136.549 38.0994 136.081 38.6813 135.904 39.1367C135.879 39.1872 135.866 39.2378 135.866 39.2884C135.335 38.6813 134.931 38.188 134.652 37.8085C134.172 37.0749 133.805 36.531 133.552 36.1768ZM134.273 17.5827C135.613 15.5589 136.612 13.7248 137.27 12.0804C138.104 9.98066 138.483 7.98212 138.408 6.08477C138.306 3.63086 137.459 1.88529 135.866 0.848073C134.678 0.0638335 132.895 -0.176498 130.518 0.127079C125.587 0.734231 119.783 2.60629 113.108 5.74324C105.724 9.48735 100.122 12.1436 96.3041 13.7121L90.0455 16.1407C87.542 17.1274 85.4937 18.0254 83.9006 18.835C81.6753 19.9734 79.2983 21.4533 76.7696 23.2748C75.3282 24.312 73.1029 26.0449 70.0937 28.4735C63.6708 33.6596 58.9673 37.5176 55.9834 40.0474C50.8248 44.4492 46.3489 48.5728 42.5558 52.4181C40.8868 54.1131 39.5845 55.593 38.6489 56.8579C38.5983 56.9085 38.5604 56.9591 38.5351 57.0097C37.473 58.4264 36.6765 59.8304 36.1455 61.2218C35.9937 61.576 35.8673 61.9428 35.7662 62.3223C35.311 63.8655 35.096 66.5597 35.1213 70.405C35.1213 70.658 35.1213 70.911 35.1213 71.164C35.1213 72.4036 35.0834 73.542 35.0075 74.5792C34.8305 76.7548 34.4386 78.4877 33.8317 79.7779C33.4524 80.6381 32.9466 81.4476 32.3144 82.2066V82.6619C31.7328 83.092 31.3029 83.4335 31.0248 83.6865C30.7466 83.9648 30.342 84.4201 29.811 85.0526C29.3305 85.685 28.9259 86.1404 28.5972 86.4187C28.2937 86.6717 27.8639 86.9752 27.3075 87.3294C26.5742 87.7848 26.1317 88.0631 25.9799 88.1642C25.6512 88.3919 25.2845 88.7082 24.8799 89.1129V88.9991C24.096 89.9857 23.1351 90.8964 21.9972 91.7313C20.4041 92.895 18.3558 94.0207 15.8524 95.1086C15.119 95.4374 14.5121 95.7663 14.0317 96.0952C13.5765 96.0193 13.0834 95.9813 12.5524 95.9813C12.0466 96.0066 11.0731 96.1205 9.63167 96.3229C8.03857 96.5252 6.88799 96.7909 6.17995 97.1197C5.09259 97.6004 4.06845 98.4858 3.10753 99.776C2.02018 101.167 1.21098 102.66 0.679949 104.254C0.123627 105.949 -0.0913154 107.631 0.0351213 109.301C0.161558 110.692 0.515581 111.869 1.09719 112.83C1.95696 114.145 3.3857 115.233 5.3834 116.093C6.24317 116.447 6.83742 116.726 7.16615 116.928C7.77305 117.333 8.19029 117.801 8.41788 118.332C8.51903 118.636 8.5696 119.028 8.5696 119.509C8.5696 119.787 8.5696 120.204 8.5696 120.761C8.62018 121.393 8.80983 122.329 9.13857 123.569C9.23972 124.151 9.265 125.023 9.21443 126.187C9.18914 127.376 9.21443 128.249 9.29029 128.806C9.36615 129.489 9.54317 130.488 9.82133 131.803C9.8719 132.284 9.88455 133.536 9.85926 135.56C9.80868 137.078 9.96041 138.28 10.3144 139.165C10.896 140.531 11.9581 141.518 13.5006 142.125C14.9926 142.732 16.4719 142.783 17.9386 142.277C18.9753 141.923 19.7466 141.404 20.2524 140.721C20.7834 140.038 21.1753 138.963 21.4282 137.495C22.2121 133.094 22.4144 128.603 22.0351 124.024C21.8328 122.102 21.6811 120.66 21.5799 119.698C21.3776 118.003 21.2891 116.561 21.3144 115.372C21.3144 114.082 21.4662 112.944 21.7696 111.957L21.8834 111.691C20.2144 112.299 18.811 112.678 17.673 112.83C17.4202 112.88 17.1799 112.906 16.9524 112.906L16.9144 116.625C16.9144 118.775 16.9776 120.394 17.1041 121.482L17.4455 123.531C17.5719 124.391 17.6351 125.947 17.6351 128.198C17.6351 130.298 17.5719 131.917 17.4455 133.056C17.2432 134.826 16.8512 136.37 16.2696 137.685C15.865 137.963 15.4478 137.888 15.0179 137.457C14.7397 137.154 14.5627 136.724 14.4868 136.167C14.3857 135.535 14.3478 134.599 14.3731 133.359C14.4236 132.069 14.411 131.133 14.3351 130.551C14.057 129.337 13.8799 128.413 13.8041 127.781C13.7282 127.224 13.7029 126.326 13.7282 125.087C13.7535 123.898 13.7156 122.987 13.6144 122.355L13.1972 120.419C13.1213 119.18 13.0581 118.244 13.0075 117.611C12.9317 116.523 12.6914 115.663 12.2868 115.031C11.9581 114.5 11.2374 113.867 10.1248 113.133C9.03742 112.501 7.89949 111.894 6.71098 111.312C5.77535 110.882 5.1811 110.464 4.92822 110.06C4.70064 109.68 4.58685 109.174 4.58685 108.542C4.63742 107.024 5.34547 105.152 6.71098 102.926C7.06501 102.369 7.3811 102.002 7.65926 101.825C7.88684 101.673 8.3673 101.509 9.10064 101.332L11.9455 100.801C12.5524 100.699 12.9949 100.699 13.2731 100.801C13.4753 100.877 13.6903 101.028 13.9179 101.256C14.0443 101.357 14.234 101.534 14.4868 101.787C14.5627 101.838 14.6512 101.901 14.7524 101.977C14.8535 101.8 14.9673 101.623 15.0937 101.446C15.5489 100.839 16.042 100.333 16.5731 99.9278C17.1041 99.7507 17.7489 99.5231 18.5075 99.2448C18.8363 99.1942 19.2914 99.1689 19.8731 99.1689C20.4799 99.1689 20.9225 99.1562 21.2006 99.131C21.6558 99.0804 22.1742 98.9412 22.7558 98.7135C22.857 98.7135 22.9708 98.7135 23.0972 98.7135C23.5524 98.6882 24.1087 98.4226 24.7662 97.9166C26.4857 96.6517 27.7248 95.6398 28.4834 94.8809C28.8374 94.552 29.3432 94.0334 30.0006 93.325C30.6328 92.6167 31.1259 92.0981 31.4799 91.7692C31.8845 91.3897 32.4535 90.8964 33.1868 90.2893C33.996 89.9098 34.9822 89.5936 36.1455 89.3406C37.2075 89.1382 38.4213 88.9991 39.7868 88.9232C43.4788 88.6955 45.8052 88.4805 46.7662 88.2781C47.2972 88.1769 47.8535 88.0251 48.4351 87.8227C50.2811 87.2156 52.2914 86.2163 54.4662 84.8249C56.0845 83.813 58.4742 82.2066 61.6351 80.0056C62.7478 79.3226 66.3765 77.4379 72.5213 74.3515C76.9719 72.1253 80.3604 69.937 82.6868 67.7867C83.9259 66.623 85.4937 64.8521 87.3903 62.4741C89.4386 59.8684 90.9558 58.0596 91.942 57.0477C93.4845 55.4792 95.4822 53.8222 97.9351 52.0766C99.3259 51.0647 101.463 49.5847 104.345 47.6368C116.964 38.9343 126.94 28.9162 134.273 17.5827ZM133.211 4.9843C134.147 6.88165 133.616 9.46205 131.618 12.7255C124.285 24.6662 114.903 34.6968 103.473 42.8175C99.5029 45.4991 96.5443 47.5356 94.5972 48.927C91.2087 51.3556 88.5282 53.6957 86.5558 55.9472C85.9742 56.6049 84.9753 57.8445 83.5593 59.666C82.3455 61.2598 81.3213 62.4741 80.4868 63.3089C78.3374 65.5099 75.2524 67.6602 71.2317 69.7599C66.6547 71.9862 63.2662 73.7317 61.0662 74.9966C60.1811 75.5026 58.3604 76.6536 55.6041 78.4498C53.3535 79.9171 51.5075 81.0175 50.0662 81.7512C49.5098 82.0295 48.9661 82.2825 48.4351 82.5101C44.6167 84.1798 41.1271 84.6605 37.9662 83.9521C38.0167 83.6991 38.0673 83.4462 38.1179 83.1932C38.1685 82.8643 38.1811 82.5607 38.1558 82.2825C38.965 79.8032 39.4707 77.2355 39.673 74.5792C39.7489 73.6432 39.7868 72.6945 39.7868 71.7332C39.7616 71.2525 39.7489 70.8098 39.7489 70.405C39.6983 69.3678 39.673 68.5456 39.673 67.9385C39.673 66.4965 39.8121 65.2569 40.0903 64.2197C40.4443 62.8789 41.1144 61.5128 42.1006 60.1214C42.7328 59.2106 43.6305 58.1228 44.7937 56.8579C44.8696 56.7567 44.9581 56.6555 45.0593 56.5543C48.8271 52.532 53.3282 48.2692 58.5627 43.7662C61.6478 41.1099 66.4524 37.1761 72.9765 31.9647C77.3259 28.4735 80.7018 26.0196 83.1041 24.6029C85.5064 23.1862 88.6673 21.681 92.5868 20.0872C98.7822 17.608 102.032 16.2925 102.335 16.1407C105.698 14.6482 110.731 12.2575 117.432 8.96874C123.324 6.38834 128.583 5.0602 133.211 4.9843ZM168.714 36.2147C167.931 36.2147 167.362 36.278 167.008 36.4045C166.476 36.6068 165.87 37.0496 165.187 37.7326C163.973 38.9722 163.391 40.1359 163.442 41.2237C163.467 41.5273 163.581 41.9321 163.783 42.438C163.96 42.9187 164.239 43.3867 164.618 43.8421C165.048 44.348 165.591 44.7402 166.249 45.0184C166.881 45.2714 167.526 45.3726 168.183 45.322C168.841 45.2967 169.473 45.0943 170.08 44.7149C170.662 44.3607 171.129 43.8927 171.483 43.3108C172.09 42.3495 172.368 40.9708 172.318 39.1746C172.318 38.2639 172.166 37.6061 171.863 37.2014C171.357 36.493 170.308 36.1641 168.714 36.2147Z" fill="#A9B5C5"/>
</g>
<defs>
<clipPath id="clip0_42_158">
<rect width="222" height="223" fill="white"/>
</clipPath>
</defs>
</svg>