<svg xmlns="http://www.w3.org/2000/svg" width="88" height="169" viewBox="0 0 88 169" fill="none">
<g clip-path="url(#clip0_42_153)">
<path d="M18.9804 95.1838C18.6367 94.7872 18.2269 94.5228 17.7509 94.3906C17.2486 94.2584 16.7462 94.2716 16.2439 94.4303C15.7415 94.5625 15.3317 94.8401 15.0144 95.2631C14.7236 95.6333 14.5385 96.1885 14.4592 96.9288C14.2212 96.9553 13.97 96.9949 13.7056 97.0478C12.4101 97.2593 11.2071 97.4048 10.0966 97.4841C8.74814 97.5634 7.8624 97.6427 7.43937 97.722C6.43465 97.8807 5.61501 98.1715 4.98045 98.5946C4.16081 99.1234 3.31473 100.168 2.44222 101.728C2.15138 102.23 1.88698 102.706 1.64902 103.155L1.5697 103.354C1.3053 103.962 1.08056 104.742 0.895479 105.694C0.816159 106.222 0.67074 107.016 0.45922 108.073L0.102281 109.541C-0.0827988 111.286 -0.0166989 112.793 0.30058 114.062C0.776499 116.071 2.00596 118.134 3.98895 120.249C5.83975 122.205 7.98138 123.858 10.4139 125.206C11.3657 125.682 12.1325 125.907 12.7141 125.881C13.5602 125.801 14.1816 125.365 14.5781 124.572C14.9483 123.752 14.8822 122.999 14.3799 122.311C14.1155 121.888 13.4545 121.399 12.3969 120.844C10.361 119.76 8.54984 118.345 6.96345 116.6C6.03805 115.569 5.41671 114.63 5.09943 113.784C4.59707 112.357 4.62351 110.294 5.17875 107.597C5.20519 107.597 5.23163 107.611 5.25807 107.637C5.28451 106.95 5.58857 106.024 6.17025 104.861C6.30245 104.676 6.52719 104.398 6.84447 104.028C7.18819 103.605 7.42615 103.235 7.55835 102.917L7.59801 102.878C7.67733 102.799 7.76986 102.732 7.87562 102.68C8.21934 102.494 8.86712 102.375 9.81896 102.323C11.2996 102.243 12.8463 102.071 14.4592 101.807C14.5121 102.309 14.6178 102.706 14.7764 102.997C15.1202 103.605 15.649 104.015 16.3628 104.226C17.1032 104.438 17.7642 104.358 18.3458 103.988C18.6367 103.803 19.0465 103.393 19.5753 102.759C20.2363 101.886 20.5668 101.12 20.5668 100.459C20.5668 100.141 20.4743 99.7315 20.2892 99.2291C20.0248 98.5681 19.8794 98.1583 19.8529 97.9997C19.8 97.3387 19.7339 96.8495 19.6546 96.5322C19.5489 96.0299 19.3241 95.5804 18.9804 95.1838ZM22.5895 95.1441C22.1664 95.858 21.9549 96.8099 21.9549 97.9997C21.9549 99.5067 22.2325 100.749 22.7878 101.728C23.6074 103.076 24.6386 103.764 25.8812 103.79C26.5951 103.816 27.309 103.645 28.0229 103.274H28.0625C28.089 103.274 28.1154 103.288 28.1418 103.314C28.9879 103.684 29.7415 103.671 30.4025 103.274C30.9577 102.904 31.3279 102.309 31.5129 101.49C31.6187 100.908 31.6187 100.194 31.5129 99.3481L31.3543 97.3651C31.2485 96.1224 31.0106 95.2763 30.6404 94.8269C30.2967 94.4038 29.8208 94.1394 29.2127 94.0337C28.8161 93.9808 28.4591 94.0204 28.1418 94.1526C28.0361 94.0998 27.9303 94.0733 27.8246 94.0733C27.0842 94.1262 26.5422 94.1262 26.1985 94.0733C25.6697 93.9147 25.2731 93.8221 25.0087 93.7957C24.5328 93.7428 24.0701 93.8486 23.6206 94.113C23.1711 94.3774 22.8274 94.7211 22.5895 95.1441ZM39.0087 116.243C38.8236 116.798 38.6649 117.221 38.5327 117.512L38.1361 118.266C37.8453 118.848 37.8056 119.442 38.0172 120.051C38.1758 120.659 38.5592 121.108 39.1673 121.399C39.5639 121.558 40.1852 121.637 41.0313 121.637H41.9435C41.9699 122.457 41.9699 122.985 41.9435 123.223C41.2296 123.382 40.3439 123.99 39.2863 125.048C38.969 125.365 38.7443 125.656 38.6121 125.92C38.4799 126.158 38.4138 126.489 38.4138 126.912C38.4138 127.599 38.6253 128.154 39.0483 128.577C39.392 128.921 39.8944 129.159 40.5554 129.291C41.2164 129.45 41.8377 129.516 42.4194 129.49C42.1815 130.441 41.5601 131.274 40.5554 131.988C40.2117 132.226 39.2334 132.702 37.6206 133.416C33.4166 135.24 30.7726 137.62 29.6886 140.555C29.3449 141.507 29.1333 142.551 29.054 143.688C28.8954 145.01 28.935 146.041 29.173 146.781C29.411 147.575 29.9398 148.421 30.7594 149.32C31.2353 149.848 31.9624 150.615 32.9407 151.62C33.5224 152.334 33.8793 152.757 34.0115 152.889C34.4345 153.338 34.8708 153.629 35.3203 153.762C35.426 153.788 35.5186 153.814 35.5979 153.841C35.8887 154.079 36.1664 154.29 36.4308 154.475C36.9596 154.819 37.6206 155.136 38.4138 155.427C38.8897 155.586 39.5903 155.797 40.5157 156.062C42.3401 156.643 43.6092 157.344 44.3231 158.164C44.9841 158.904 45.4336 159.922 45.6715 161.218C45.8037 162.169 45.8037 163.293 45.6715 164.589C45.6186 165.514 45.6451 166.149 45.7508 166.492C46.0152 167.233 46.5044 167.709 47.2183 167.92C47.9586 168.132 48.6328 167.999 49.2409 167.523C49.9812 166.968 50.4043 165.897 50.51 164.311C50.6422 161.879 50.325 159.737 49.5582 157.886C48.6857 155.665 47.3108 154.026 45.4336 152.968C44.7197 152.545 43.2787 152.016 41.1106 151.382C40.053 151.065 39.2863 150.708 38.8104 150.311C38.6253 150.152 38.2287 149.677 37.6206 148.883C37.1446 148.275 36.6952 147.879 36.2721 147.694C36.0606 147.588 35.8359 147.522 35.5979 147.495C35.3864 147.284 35.1881 147.099 35.003 146.94C34.2891 146.279 33.8661 145.737 33.7339 145.314C33.6017 144.917 33.6149 144.362 33.7735 143.648C33.9851 142.749 34.223 142.035 34.4874 141.507C35.0955 140.449 36.1531 139.497 37.6602 138.651C38.5063 138.202 39.8019 137.593 41.5469 136.827C43.2126 136.007 44.561 134.949 45.5922 133.654C46.7027 132.2 47.2447 130.679 47.2183 129.093C47.6413 129.04 47.9982 128.948 48.2891 128.815C48.7914 128.577 49.2013 128.154 49.5185 127.546C49.7829 127.017 49.9151 126.423 49.9151 125.762C49.9151 124.863 49.6904 124.175 49.2409 123.699C48.765 123.223 47.9057 122.959 46.663 122.906C46.663 122.562 46.663 122.272 46.663 122.034C46.901 122.007 47.1654 121.967 47.4562 121.915C48.5667 121.65 49.3202 121.227 49.7168 120.645C50.1663 120.037 50.2985 119.363 50.1134 118.623C50.1928 118.306 50.2192 117.988 50.1928 117.671C50.087 116.957 49.6507 116.389 48.884 115.966C48.3287 115.675 47.6016 115.503 46.7027 115.45C46.2796 114.154 46.0813 112.912 46.1078 111.722C46.1607 110.638 46.1342 109.911 46.0285 109.541C45.8434 108.959 45.4864 108.496 44.9576 108.153C44.4288 107.809 43.8604 107.677 43.2523 107.756C42.6442 107.862 42.1418 108.166 41.7452 108.668C41.3486 109.171 41.1635 109.713 41.19 110.294L41.3883 111.405C41.4411 111.722 41.4544 112.33 41.4279 113.229C41.4015 113.996 41.4676 114.591 41.6262 115.014C40.8859 115.12 40.3968 115.225 40.1588 115.331C39.63 115.516 39.2466 115.82 39.0087 116.243ZM44.6404 85.4275C44.3495 85.1102 43.9794 84.8987 43.5299 84.7929C43.0804 84.6871 42.6442 84.7004 42.2211 84.8326C41.7981 84.9648 41.4411 85.2159 41.1503 85.5861C40.8859 85.9563 40.7273 86.3529 40.6744 86.7759C40.6479 87.0403 40.7273 87.6881 40.9123 88.7192C41.0181 89.3009 41.071 90.1602 41.071 91.2971V95.5011C41.071 96.4529 41.19 97.1271 41.4279 97.5237C41.7981 98.1319 42.4062 98.502 43.2523 98.6342C44.0719 98.6871 44.7461 98.502 45.2749 98.079C45.883 97.6031 46.1607 96.9949 46.1078 96.2546C46.0813 95.9638 45.9888 95.554 45.8302 95.0252C45.7508 94.5757 45.7376 94.0469 45.7905 93.4388C45.8434 91.0856 45.7641 89.2084 45.5525 87.8071C45.3939 86.723 45.0898 85.9298 44.6404 85.4275ZM55.6658 94.3906C55.0841 94.6286 54.6479 94.9987 54.3571 95.5011C54.0662 95.977 53.9076 96.5983 53.8811 97.3651C53.8811 97.8146 53.8944 98.4888 53.9208 99.3878C53.9208 100.472 53.9869 101.172 54.1191 101.49C54.3306 102.045 54.7404 102.508 55.3486 102.878C55.8509 103.195 56.3533 103.38 56.8556 103.433C57.4373 103.486 57.9264 103.367 58.323 103.076C58.799 102.759 59.1427 102.111 59.3542 101.133C59.5922 101.133 59.8566 101.12 60.1474 101.093C60.9406 101.067 62.1304 101.001 63.7168 100.895C63.8754 100.895 64.0341 100.882 64.1927 100.855C64.2191 100.934 64.2324 101.001 64.2324 101.053C64.4174 102.005 64.8537 102.706 65.5411 103.155C66.3079 103.737 67.1011 103.856 67.9207 103.512C68.4231 103.274 68.7536 103.169 68.9122 103.195C69.0973 103.195 69.3088 103.261 69.5468 103.393C69.8376 103.552 70.0492 103.645 70.1814 103.671C70.3664 103.697 70.5912 103.684 70.8556 103.631C70.9878 103.605 71.1993 103.552 71.4901 103.473C71.8074 103.42 72.2701 103.407 72.8782 103.433C73.5392 103.301 74.1473 102.799 74.7026 101.926C75.0992 101.291 75.3239 100.749 75.3768 100.3V100.26C75.509 100.234 75.6412 100.207 75.7734 100.181C76.9103 99.9166 77.9944 99.8901 79.0255 100.102C80.1624 100.34 81.0878 100.829 81.8017 101.569C82.9915 102.785 83.441 104.451 83.1501 106.566C82.9651 107.835 82.3437 109.488 81.2861 111.524C80.6251 112.846 80.0038 113.771 79.4221 114.3C79.0255 114.644 78.5232 114.961 77.915 115.252C77.1747 115.595 76.6195 115.847 76.2493 116.005C74.1341 116.957 72.2172 118.253 70.4986 119.892C69.8376 120.5 69.4146 121.069 69.2295 121.597C69.018 122.364 69.1634 123.065 69.6658 123.699C70.1681 124.307 70.8159 124.585 71.6091 124.532C72.2701 124.479 73.0501 124.056 73.949 123.263C75.5354 121.915 76.5798 121.095 77.0822 120.804C77.4523 120.593 78.4042 120.17 79.9377 119.535C81.1275 119.033 82.0132 118.517 82.5949 117.988C83.2824 117.407 83.9962 116.415 84.7365 115.014C86.1114 112.581 87.0236 110.519 87.4731 108.827C88.1341 106.394 88.1473 104.16 87.5127 102.124C87.0897 100.802 86.4023 99.6125 85.4504 98.5549C84.4986 97.4973 83.3881 96.6777 82.119 96.096C80.8763 95.5407 79.5411 95.2235 78.1133 95.1441C76.7913 95.0648 75.509 95.2102 74.2663 95.5804C74.1341 95.2102 73.949 94.9062 73.7111 94.6682C73.4996 94.4567 73.0237 94.1791 72.2833 93.8354C71.781 93.6238 71.3579 93.4916 71.0142 93.4388C70.7763 93.4388 70.6044 93.4255 70.4986 93.3991C70.2871 93.3991 70.1153 93.3727 69.9831 93.3198L69.2692 93.0818C68.9783 92.9761 68.5289 92.8967 67.9207 92.8439C66.9425 92.7117 66.3079 92.6852 66.0171 92.7645C65.5411 92.8967 65.1445 93.1347 64.8273 93.4784C64.4835 93.9543 64.2588 94.6947 64.1531 95.6994C64.1531 95.7787 64.1531 95.8712 64.1531 95.977C63.4656 96.0563 62.9236 96.1092 62.527 96.1356C61.0464 96.1092 59.9491 96.1621 59.2352 96.2943C59.1559 96.2943 59.0898 96.3075 59.0369 96.3339C58.9047 95.7523 58.8122 95.3953 58.7593 95.2631C58.442 94.7608 57.9661 94.417 57.3315 94.232C56.7763 94.0998 56.2211 94.1526 55.6658 94.3906ZM51.8585 96.5322C51.6205 95.3424 51.1314 94.536 50.3911 94.113C49.7565 93.7164 49.0691 93.6503 48.3287 93.9147C47.6413 94.2055 47.1918 94.7211 46.9803 95.4614C46.8481 95.9638 46.901 96.7173 47.1389 97.722C47.3769 98.7532 47.4562 99.5067 47.3769 99.9827C46.9539 100.009 45.9888 100.036 44.4817 100.062C43.2655 100.062 42.3004 100.128 41.5866 100.26L40.5157 100.498C40.0927 100.578 39.7358 100.617 39.4449 100.617C39.2863 100.617 39.1409 100.578 39.0087 100.498C38.9293 100.419 38.8897 100.273 38.8897 100.062L38.731 96.4133C38.7839 95.5936 38.7575 94.9987 38.6517 94.6286C38.4402 93.8882 38.0039 93.3991 37.3429 93.1611C36.6555 92.8967 35.9945 92.9364 35.3599 93.2801C34.5667 93.756 34.0908 94.6021 33.9322 95.8184C33.9057 96.1356 33.9586 97.1404 34.0908 98.8325C34.1173 99.2556 34.1437 99.8769 34.1701 100.697C34.1966 101.437 34.2759 102.058 34.4081 102.561C34.5667 103.222 34.8444 103.79 35.241 104.266C35.6904 104.795 36.206 105.125 36.7877 105.257C36.9728 105.31 37.5677 105.337 38.5724 105.337C39.1276 105.31 39.9605 105.297 41.071 105.297L42.6177 105.019C43.3845 104.887 44.3231 104.848 45.4336 104.9C46.0681 104.953 47.02 105.019 48.2891 105.099C49.5318 105.152 50.4307 104.94 50.986 104.464C51.5676 103.935 51.9114 103.05 52.0171 101.807C52.0964 101.067 52.1361 100.3 52.1361 99.5067C52.1361 98.2905 52.0436 97.299 51.8585 96.5322ZM11.9606 61.7902C11.9077 61.7637 11.8681 61.7505 11.8416 61.7505V61.1556C11.7887 60.5475 11.5904 60.0451 11.2467 59.6485C10.9559 59.3048 10.5857 59.0668 10.1362 58.9346C9.66032 58.8024 9.21084 58.7892 8.7878 58.895C8.33832 59.0272 7.95494 59.2784 7.63767 59.6485C7.53191 59.7543 7.45259 59.8733 7.39971 60.0055C7.32039 59.979 7.25429 59.9526 7.20141 59.9261C7.20141 60.0583 7.20141 60.2038 7.20141 60.3624C7.14853 60.4946 7.10887 60.6532 7.08243 60.8383V63.6145C7.10887 63.7996 7.16175 63.9714 7.24107 64.1301C7.24107 68.0961 7.25429 72.6305 7.28073 77.7334C7.17497 78.0772 7.09565 78.5002 7.04277 79.0026C6.98989 79.9544 6.97667 80.5625 7.00311 80.8269C7.16175 81.9903 7.75665 83.0214 8.7878 83.9204C9.13152 84.2377 9.67354 84.6343 10.4139 85.1102C11.7359 85.9034 12.4365 86.3264 12.5158 86.3793C13.309 86.8288 14.2609 87.2518 15.3713 87.6484C16.5083 88.045 17.4204 88.1772 18.1079 88.045C20.4082 88.5209 22.8803 88.8382 25.5243 88.9969C27.5337 89.1291 29.7415 89.1423 32.1475 89.0365C32.8614 89.063 33.6414 89.0762 34.4874 89.0762L34.765 89.1555C34.9766 89.2348 35.2542 89.3802 35.5979 89.5918C36.2853 89.909 36.9992 89.8958 37.7395 89.5521C38.4534 89.1819 38.8765 88.6135 39.0087 87.8467C39.0351 87.5823 39.0219 87.1989 38.969 86.6966C38.7575 85.2424 38.2022 84.3434 37.3033 83.9997C36.9331 83.8411 36.3382 83.8146 35.5186 83.9204H35.4789V83.7221C32.0946 83.9865 29.0144 84.0526 26.2382 83.9204C22.5101 83.6824 19.1126 83.0611 16.0456 82.0564C14.6178 81.5804 13.6528 80.9855 13.1504 80.2717C12.7802 79.7429 12.5158 78.8968 12.3572 77.7334C12.2779 76.9402 12.2118 75.4332 12.1589 73.2122C12.106 71.6523 12.0267 70.3699 11.9209 69.3652C11.9209 67.012 11.9342 64.487 11.9606 61.7902ZM19.1787 38.0339C16.6669 37.0291 13.8775 36.9895 10.8105 37.9149C9.17118 38.4172 7.83597 39.0915 6.80481 39.9375C5.53569 40.9423 4.70283 42.1849 4.30623 43.6656C4.25335 43.9035 4.16081 44.4984 4.02861 45.4503L3.83031 47.7505C3.77743 49.522 4.04183 50.9894 4.62351 52.1528C4.99367 52.9724 5.68111 53.8582 6.68583 54.81C7.63767 55.6825 8.49696 56.3039 9.26372 56.674C10.0305 57.0706 10.9691 57.3747 12.0796 57.5862C13.6395 57.9035 15.0408 57.9696 16.2835 57.7845C17.7642 57.5994 19.1655 57.0838 20.4875 56.2378C21.8359 55.4181 22.92 54.387 23.7396 53.1443C24.5592 51.9016 25.088 50.5135 25.326 48.98C25.5639 47.4465 25.4714 45.9526 25.0484 44.4984C24.6253 43.0442 23.885 41.7487 22.8274 40.6118C21.7698 39.4484 20.5536 38.5891 19.1787 38.0339ZM20.5271 46.2831C20.6065 46.7326 20.6461 47.1953 20.6461 47.6712C20.6461 48.2793 20.5932 48.7288 20.4875 49.0197C20.4082 49.3634 20.2099 49.7864 19.8926 50.2888L19.139 51.3199C18.7953 51.6372 18.3987 51.9148 17.9492 52.1528C17.2882 52.5758 16.6801 52.8535 16.1249 52.9857C15.649 53.0914 14.8954 53.0914 13.8643 52.9857C12.8067 52.8799 12.0399 52.708 11.564 52.4701C11.0616 52.2321 10.5989 51.9016 10.1759 51.4786C9.43558 50.8969 8.97288 50.3152 8.7878 49.7335C8.6556 49.3634 8.5895 48.9271 8.5895 48.4248C8.5895 47.5787 8.66882 46.9706 8.82746 46.6004C8.88034 46.4682 8.94644 46.3228 9.02576 46.1641C9.0522 46.0848 9.07864 46.0055 9.10508 45.9262C9.29016 45.3709 9.50168 44.9082 9.73964 44.5381C10.2684 43.7713 10.9823 43.1897 11.8813 42.7931C12.3836 42.5815 12.8992 42.4493 13.428 42.3965C13.4545 42.3436 13.5073 42.2907 13.5867 42.2378L13.9833 42.1982H15.7679C16.1381 42.1982 16.4157 42.2114 16.6008 42.2378C16.9445 42.2643 17.2882 42.37 17.632 42.5551C18.3987 42.8988 19.0333 43.4012 19.5356 44.0622C20.0644 44.7232 20.3949 45.4635 20.5271 46.2831ZM17.5923 45.4899C17.2221 45.014 16.7594 44.6835 16.2042 44.4984C15.7812 44.3927 15.3449 44.353 14.8954 44.3794L13.9436 44.4191C13.2033 44.5777 12.5291 44.8818 11.9209 45.3313C11.6301 45.5692 11.445 45.7675 11.3657 45.9262C11.1277 46.217 10.9691 46.6136 10.8898 47.116C10.784 47.6977 10.8105 48.319 10.9691 48.98C11.1542 49.641 11.4979 50.1434 12.0003 50.4871L12.5952 50.844C13.309 51.1613 14.0758 51.2538 14.8954 51.1216C15.7151 51.0159 16.4157 50.6986 16.9974 50.1698C17.9757 49.3237 18.3855 48.2926 18.2269 47.0763C18.174 46.4946 17.9625 45.9658 17.5923 45.4899ZM70.0624 62.5437C70.0095 61.5919 69.6261 60.9309 68.9122 60.5607C68.4892 60.3492 67.9075 60.2963 67.1672 60.4021C66.3476 60.5607 65.7262 60.6532 65.3032 60.6797H65.2635L60.3457 58.895L55.9434 56.4757C54.4893 55.6825 53.4317 54.9025 52.7707 54.1358C52.612 53.8978 52.4666 53.6599 52.3344 53.4219C52.1758 53.1575 52.0303 52.8667 51.8981 52.5494C51.7131 51.9148 51.5676 51.1084 51.4619 50.1301C51.1975 47.2482 51.1049 45.0801 51.1843 43.6259C51.29 41.2199 51.8056 39.184 52.731 37.5183C53.2334 36.6193 54.0133 35.5882 55.0709 34.4248C55.6526 33.7903 56.1682 33.3408 56.6177 33.0764C56.7763 32.9971 57.3976 32.7062 58.4817 32.2039C59.222 31.8866 59.7508 31.5164 60.0681 31.0934C60.4911 30.5117 60.5837 29.8243 60.3457 29.0311C60.0813 28.2643 59.6054 27.7752 58.9179 27.5636C58.2834 27.3521 57.4373 27.4314 56.3797 27.8016C54.3438 28.4626 52.7971 29.3087 51.7395 30.3398C51.5015 30.5778 51.1182 31.0273 50.5894 31.6883C50.4043 31.9262 50.2456 32.1245 50.1134 32.2832C49.8226 32.0717 49.5318 31.8866 49.2409 31.7279C49.2145 31.1727 49.0955 30.5778 48.884 29.9432C48.1965 27.6165 46.8745 25.6864 44.918 24.1529C44.0719 23.4919 43.2126 23.0028 42.3401 22.6855C40.9652 22.2096 39.0219 22.1567 36.5101 22.5268C35.5847 22.6326 34.7518 22.778 34.0115 22.9631C33.6149 22.9631 33.1787 23.0292 32.7027 23.1614C32.6234 23.1878 31.936 23.4655 30.6404 23.9942C29.5035 24.4173 28.6574 24.7346 28.1022 24.9461C27.1239 25.3162 26.3439 25.7128 25.7622 26.1359C25.3921 26.3738 24.7311 27.0084 23.7793 28.0396C23.6735 28.1718 23.5677 28.2907 23.462 28.3965C23.0654 28.6609 22.7217 28.9517 22.4308 29.269C21.6905 30.0358 21.3071 30.8819 21.2807 31.8073C21.2542 32.4154 21.4261 33.0499 21.7963 33.7109C21.7963 33.7374 21.8095 33.7638 21.8359 33.7902C21.8888 33.8696 21.9417 33.9489 21.9946 34.0282C22.1003 34.557 22.3515 34.98 22.7481 35.2973C22.9861 35.5088 23.4223 35.7336 24.0569 35.9715C24.665 36.2095 25.088 36.4475 25.326 36.6854C25.6168 36.9763 25.9738 37.4786 26.3968 38.1925C26.6876 38.5627 27.1768 39.065 27.8642 39.6996C28.2608 40.1755 28.6178 41.0084 28.935 42.1982C29.9133 46.1906 30.2438 49.5088 29.9265 52.1528C29.7943 53.3426 29.5299 54.4134 29.1333 55.3652C29.1069 55.4446 29.0805 55.5107 29.054 55.5635C28.5252 56.4889 27.9303 57.3482 27.2693 58.1414C27.1636 58.2208 27.071 58.3133 26.9917 58.4191C26.7009 58.4455 26.3439 58.4984 25.9209 58.5777L25.0484 58.6967C24.6253 58.776 24.2155 58.895 23.8189 59.0536C22.9728 59.3973 22.4176 59.8865 22.1532 60.521C22.0474 60.759 21.9946 61.1556 21.9946 61.7108C22.0474 62.1868 22.1003 62.4776 22.1532 62.5834C22.259 62.8478 22.4308 63.1254 22.6688 63.4162C23.0125 63.707 23.3298 63.9186 23.6206 64.0508C23.6471 64.0772 23.6867 64.0904 23.7396 64.0904C23.9511 64.3813 24.2287 64.6589 24.5724 64.9233C25.1012 65.2934 25.6565 65.5711 26.2382 65.7561C26.8463 65.9941 27.3751 66.1263 27.8246 66.1527C28.1683 66.1792 28.4723 66.1527 28.7367 66.0734C30.2438 66.4965 32.3061 66.6287 34.9237 66.47C36.2986 66.4171 37.3033 66.2849 37.9378 66.0734C38.7839 65.8355 39.6697 65.3463 40.5951 64.606C40.9123 64.3945 41.375 64.0375 41.9832 63.5352C42.5648 63.165 43.0936 62.9667 43.5696 62.9403C44.4156 62.8874 45.0898 63.2047 45.5922 63.8921C45.6186 63.9186 45.6451 63.9582 45.6715 64.0111C47.5488 64.2755 49.4128 63.9847 51.2636 63.1386C51.6073 62.9799 51.9246 62.8081 52.2154 62.623L52.2551 62.6627C53.4978 63.6674 54.8065 64.183 56.1814 64.2094C56.8688 64.2094 57.7017 64.064 58.68 63.7731C58.8122 63.7203 58.9708 63.6674 59.1559 63.6145C59.4467 63.7731 59.7376 63.9318 60.0284 64.0904C60.0549 64.1169 60.0945 64.1433 60.1474 64.1697C60.0681 64.5928 59.9491 65.0158 59.7905 65.4389C59.3674 66.6022 58.7461 67.6466 57.9264 68.572C57.7414 68.7835 57.5563 68.995 57.3712 69.2066C57.3448 69.2066 57.3183 69.2066 57.2919 69.2066C55.2824 69.8411 53.5903 70.6211 52.2154 71.5465C51.8981 71.758 50.9199 72.5512 49.2806 73.9261C47.985 74.9308 46.6762 75.7901 45.3542 76.504C44.5875 76.927 44.1512 77.1782 44.0455 77.2575C43.5431 77.5484 43.1862 77.8789 42.9747 78.249C42.6045 78.8836 42.5648 79.5842 42.8557 80.351C43.1465 81.1178 43.6489 81.5805 44.3627 81.7391C45.0237 81.8713 45.9227 81.6465 47.0596 81.0649C48.884 80.113 50.6026 78.9893 52.2154 77.6938C52.3476 77.588 52.5063 77.469 52.6913 77.3368C53.1408 77.2311 53.6432 77.0724 54.1984 76.8609C56.34 75.9884 58.1908 74.8779 59.7508 73.5295C59.8037 73.503 59.8566 73.4898 59.9094 73.4898C60.8348 73.2783 62.2362 72.961 64.1134 72.538C65.3561 72.1943 66.3079 71.7316 66.9689 71.1499C67.8679 70.4096 68.4231 69.3916 68.6346 68.0961C68.6875 67.7788 68.7139 67.4747 68.7139 67.1839C68.7933 66.9988 68.8594 66.8137 68.9122 66.6287C69.0444 66.1792 69.1502 65.69 69.2295 65.1612C69.2824 65.0555 69.3485 64.9365 69.4278 64.8043C69.8773 64.0111 70.0888 63.2576 70.0624 62.5437ZM42.0228 46.3228C42.2872 45.9526 42.6045 45.675 42.9747 45.4899C43.8472 45.0933 44.6536 45.1726 45.3939 45.7279C46.002 46.2038 46.3457 46.8251 46.4251 47.5919C46.5308 48.2529 46.4515 48.98 46.1871 49.7732C46.0549 50.1962 45.883 50.54 45.6715 50.8044C45.5393 50.9894 45.2881 51.2406 44.918 51.5579C43.7811 52.5362 42.8028 53.1311 41.9832 53.3426C41.5337 53.4483 41.0049 53.5012 40.3968 53.5012C38.9426 53.4483 37.8056 53.2104 36.986 52.7874C36.6952 52.6287 36.3118 52.3908 35.8359 52.0735C35.3071 51.5976 34.9898 51.3067 34.884 51.201C34.3023 50.4871 34.0115 49.4163 34.0115 47.9885C34.0644 47.1689 34.1437 46.6268 34.2495 46.3624C34.5667 45.5164 35.1484 44.9876 35.9945 44.776C36.867 44.5645 37.6206 44.7496 38.2551 45.3313C38.9161 45.9394 39.1409 46.6797 38.9293 47.5522C38.8765 47.9488 38.8765 48.1868 38.9293 48.2661C38.9822 48.3719 39.1276 48.4512 39.3656 48.5041C39.9473 48.6363 40.4893 48.6098 40.9917 48.4248C41.2296 48.3719 41.4015 48.2529 41.5072 48.0678L41.6262 47.4729C41.6527 47.0499 41.7849 46.6665 42.0228 46.3228ZM81.8414 58.2604C81.8943 57.2821 81.7885 56.5418 81.5241 56.0395V55.5635C81.4448 55.6164 81.3655 55.6693 81.2861 55.7222C81.0217 55.3785 80.6912 55.1273 80.2946 54.9686C79.8187 54.81 79.3164 54.7703 78.7876 54.8497C78.4967 54.9025 78.2323 54.9819 77.9944 55.0876C77.2805 55.4313 76.8574 55.9998 76.7252 56.793L76.6459 57.4276C76.6459 57.7184 76.6856 57.996 76.7649 58.2604L76.8442 58.4984C76.8178 58.4984 76.8046 58.5116 76.8046 58.538L77.1615 69.0083C77.2408 71.2028 77.2408 72.842 77.1615 73.9261C77.0557 75.7504 76.7252 77.3368 76.17 78.6853C75.8792 79.452 75.4958 80.0205 75.0199 80.3907C74.4911 80.8137 73.526 81.0781 72.1247 81.1838C69.6129 81.3425 66.1757 81.7259 61.8131 82.334C58.8518 82.7306 56.4326 83.0479 54.5554 83.2858C53.4449 83.2858 52.1229 83.3387 50.5894 83.4445C50.1928 83.3123 49.7697 83.2594 49.3202 83.2858C48.9236 83.3123 48.5799 83.4048 48.2891 83.5634C48.104 83.6428 47.9321 83.7353 47.7735 83.8411C47.0596 84.3963 46.7688 85.1498 46.901 86.1017C47.0332 86.9213 47.4562 87.6352 48.1701 88.2433C48.7253 88.6928 49.2938 88.9572 49.8755 89.0365C50.4572 89.0894 50.9727 88.9836 51.4222 88.7192C53.6696 88.5077 57.0539 88.1111 61.5752 87.5294C66.1493 86.9478 69.6658 86.5644 72.1247 86.3793C73.3674 86.3 74.2928 86.2074 74.9009 86.1017C75.932 85.943 76.8046 85.6654 77.5184 85.2688C79.5808 84.1583 80.9556 82.0564 81.6431 78.9629C81.881 77.826 82.0265 76.5172 82.0793 75.0366C82.0793 74.2962 82.0529 72.9875 82 71.1102L81.6431 59.8072L81.8414 58.2604ZM75.3371 35.1783C73.7772 34.1207 72.0189 33.4597 70.0624 33.1953C67.815 32.8781 65.594 33.0764 63.3995 33.7902C63.3731 33.7902 63.3334 33.8035 63.2805 33.8299C62.8311 34.1208 62.289 34.4777 61.6545 34.9007C60.5176 35.5882 59.6847 36.1302 59.1559 36.5268C58.3627 37.082 57.7017 37.6637 57.1729 38.2718C57.12 38.2983 57.0804 38.3115 57.0539 38.3115C56.3136 38.5759 55.8112 39.0782 55.5469 39.8186C55.4675 40.0036 55.4014 40.3209 55.3486 40.7704L55.3882 43.5466C55.4146 43.7317 55.4411 43.9167 55.4675 44.1018C55.4411 44.234 55.4279 44.3662 55.4279 44.4984C55.4543 44.6835 55.4675 44.8818 55.4675 45.0933C55.494 45.6486 55.5336 46.1641 55.5865 46.6401C55.7187 47.3539 55.9434 48.0414 56.2607 48.7024C57.2919 50.7383 58.9047 52.3114 61.0992 53.4219C63.0558 54.3737 65.2635 54.8761 67.7224 54.929C69.3353 54.9819 70.6837 54.8232 71.7678 54.4531C73.1691 54.0036 74.4778 53.1707 75.6941 51.9545C77.0161 50.6325 78.0472 49.0725 78.7876 47.2746C79.898 44.4455 79.9377 41.8148 78.9065 39.3823C78.2191 37.6901 77.0293 36.2888 75.3371 35.1783ZM68.3173 37.4786C68.8197 37.5844 69.2692 37.743 69.6658 37.9545C69.8244 37.9281 70.0359 37.9545 70.3003 38.0339C71.3315 38.3511 72.1776 38.7477 72.8386 39.2237C73.6318 39.7789 74.2135 40.4928 74.5836 41.3653C75.0066 42.5022 74.9405 43.8506 74.3853 45.4106C73.8036 46.9177 72.9708 48.1075 71.8867 48.98C71.3579 49.403 70.8027 49.6939 70.221 49.8525C70.1153 49.879 69.7054 49.9318 68.9916 50.0112C67.1408 50.064 65.8452 49.9979 65.1049 49.8129C64.0737 49.5749 62.9897 49.0461 61.8528 48.2265C61.086 47.6448 60.5969 47.0234 60.3854 46.3624C60.3325 46.098 60.306 45.6882 60.306 45.133C60.2796 44.7364 60.306 44.3133 60.3854 43.8639C60.4647 43.4937 60.663 43.0575 60.9803 42.5551C61.6677 41.3389 62.2494 40.4796 62.7253 39.9772C62.8575 39.845 62.9897 39.726 63.1219 39.6203C63.1748 39.5145 63.2409 39.4087 63.3202 39.303C63.8754 38.5891 64.6158 38.0603 65.5411 37.7166C66.4401 37.3993 67.3655 37.32 68.3173 37.4786ZM71.2918 44.8157C71.6356 43.8639 71.6356 42.9649 71.2918 42.1188C70.9746 41.405 70.4458 40.8365 69.7054 40.4135C69.018 39.9904 68.2512 39.7657 67.4052 39.7392C66.6384 39.7128 65.9245 39.8847 65.2635 40.2548C64.5497 40.625 64.0737 41.1538 63.8358 41.8412C63.6771 42.2643 63.6243 42.8459 63.6771 43.5862C63.7829 44.6967 64.0341 45.5164 64.4307 46.0452C65.0123 46.8648 65.8584 47.3407 66.9689 47.4729C67.8679 47.5522 68.7272 47.3672 69.5468 46.9177C70.34 46.4682 70.9217 45.7675 71.2918 44.8157ZM76.17 7.21811C76.2229 6.76863 76.2493 6.21339 76.2493 5.55239C76.2229 4.81207 76.2097 4.24361 76.2097 3.84701C76.1832 3.02737 76.1303 2.45891 76.051 2.14164C75.9188 1.50708 75.6676 1.01794 75.2975 0.674219C74.848 0.277619 74.0284 0.0793198 72.8386 0.0793198L55.9038 0.0396599C55.4279 -0.01322 54.8726 -0.01322 54.2381 0.0396599H51.0256C50.7877 0.0396599 50.5497 0.0396599 50.3117 0.0396599V0.23796C48.1701 0.317279 46.0285 0.330499 43.8868 0.277619C39.7093 0.11898 36.9067 0.0396599 35.4789 0.0396599C35.1881 0.0396599 34.9501 0.0396599 34.765 0.0396599C31.0106 0.0396599 28.1418 0.0793198 26.1588 0.15864C23.3298 0.264399 20.7254 0.449479 18.3458 0.713878C17.8699 0.660999 17.275 0.647779 16.5611 0.674219L13.1901 0.872518C12.2382 0.925398 11.5376 1.03116 11.0881 1.1898C9.9776 1.5864 9.17118 2.41926 8.66882 3.68837C8.29866 4.56089 8.11358 5.75069 8.11358 7.25776C8.11358 7.9452 8.1929 8.50044 8.35154 8.92348C8.64238 9.74312 9.21084 10.3248 10.0569 10.6685C10.48 10.8272 11.022 10.9197 11.683 10.9461C12.0796 10.9726 12.6613 10.9858 13.428 10.9858C14.089 11.0387 15.0937 11.1709 16.4422 11.3824C16.6801 11.3824 16.9842 11.3956 17.3543 11.4221C17.3015 11.4485 17.2354 11.4749 17.156 11.5014C16.8123 11.6865 16.3761 11.9773 15.8473 12.3739C15.1863 12.8234 14.7368 13.1274 14.4988 13.2861C13.9965 13.6034 12.9785 14.0793 11.445 14.7138C10.123 15.2426 9.13152 15.7846 8.47052 16.3399C7.59801 17.1066 6.93701 18.0585 6.48753 19.1954C6.59329 22.4475 6.69905 25.8583 6.80481 29.4277C6.75193 29.8507 6.65939 30.4324 6.52719 31.1727C6.42143 32.0981 6.40821 32.7855 6.48753 33.235C6.56685 33.9489 6.87091 34.5306 7.39971 34.98C7.82275 35.3238 8.40442 35.5221 9.14474 35.5749C10.2023 35.5749 10.9559 35.1916 11.4054 34.4248C11.5904 34.1075 11.7359 33.6581 11.8416 33.0764C11.8945 32.7062 11.9209 32.3757 11.9209 32.0849H11.9606C11.9342 31.6354 11.9209 31.2256 11.9209 30.8554C11.8945 29.0046 11.7887 27.167 11.6037 25.3427L11.802 24.0339C11.9077 23.4787 12.1192 22.8838 12.4365 22.2492L12.8728 21.6147C13.1636 21.0594 13.5206 20.5438 13.9436 20.0679C14.3138 19.5391 14.6443 19.1293 14.9351 18.8385C14.9615 18.812 14.988 18.7988 15.0144 18.7988C15.0937 18.7459 15.1863 18.7063 15.292 18.6798C16.2439 17.8073 17.3411 17.0934 18.5838 16.5382C20.276 15.8243 22.0078 15.4409 23.7793 15.388C23.9379 15.388 24.0965 15.388 24.2552 15.388C24.7575 15.3352 25.7358 15.3087 27.19 15.3087C29.9398 15.3616 35.3864 15.1633 43.5299 14.7138C50.3514 14.3701 55.7848 14.3701 59.8301 14.7138C61.2579 14.8725 62.3023 15.084 62.9633 15.3484C63.2541 15.4541 63.6639 15.626 64.1927 15.864C64.6686 16.049 65.0917 16.1548 65.4618 16.1812C65.5411 16.1812 65.6072 16.1812 65.6601 16.1812C66.2947 16.3928 67.0747 16.5117 68.0001 16.5382C68.6611 16.5382 69.0577 16.5382 69.1899 16.5382C69.2692 16.5382 69.3617 16.5382 69.4675 16.5382C69.9963 16.7761 70.6176 17.0405 71.3315 17.3314C72.6535 18.0453 73.5524 18.8781 74.0284 19.83C74.3192 20.4116 74.5175 21.1652 74.6233 22.0906C74.6761 22.5929 74.729 23.3729 74.7819 24.4305C74.9141 25.6467 75.1521 26.7969 75.4958 27.8809C75.4693 28.1718 75.4826 28.5023 75.5354 28.8724L75.6941 30.2209C75.8263 30.6439 75.9056 30.8951 75.932 30.9744C75.9849 31.0802 76.051 31.1859 76.1303 31.2917C76.1303 31.4503 76.1568 31.609 76.2097 31.7676C76.2625 31.9791 76.3419 32.1774 76.4476 32.3625C76.6327 32.7062 76.8971 32.9971 77.2408 33.235C77.7961 33.6052 78.3645 33.7374 78.9462 33.6316C78.9991 33.6316 79.0652 33.6184 79.1445 33.5919H79.1842C79.475 33.4862 79.7394 33.354 79.9774 33.1953H80.017C80.1228 33.0896 80.2418 32.9838 80.374 32.8781C80.4797 32.7459 80.5855 32.6005 80.6912 32.4418C80.7177 32.4683 80.7441 32.4947 80.7706 32.5211V32.3625C80.8234 32.2832 80.8631 32.2039 80.8895 32.1245C81.0746 31.7808 81.1936 31.3974 81.2465 30.9744C81.2465 30.948 81.2465 30.9215 81.2465 30.8951C81.2465 30.8686 81.2465 30.8422 81.2465 30.8158C81.2465 30.5514 81.2068 30.3002 81.1275 30.0622C81.0746 29.5863 80.8763 29.15 80.5326 28.7534V28.7138C80.559 28.4229 80.559 28.1321 80.5326 27.8413C80.4797 27.3918 80.3475 26.8101 80.136 26.0962C79.8452 25.2501 79.6733 24.6685 79.6204 24.3512C79.5411 23.9017 79.4882 23.2407 79.4618 22.3682C79.4353 21.4428 79.3957 20.7686 79.3428 20.3455C78.8669 17.0141 76.3154 14.2115 71.6884 11.9376C71.3976 11.779 71.1068 11.6468 70.8159 11.541C70.578 11.356 70.3136 11.1709 70.0227 10.9858C70.5515 10.9065 71.3447 10.8404 72.4023 10.7875C73.3542 10.6817 74.0813 10.4438 74.5836 10.0736C75.4561 9.49194 75.9849 8.5401 76.17 7.21811Z" fill="#A9B5C5"/>
</g>
<defs>
<clipPath id="clip0_42_153">
<rect width="88" height="169" fill="white"/>
</clipPath>
</defs>
</svg>