<?xml version="1.0" encoding="UTF-8"?>
<svg viewBox="0 0 349 366" xmlns="http://www.w3.org/2000/svg">
<path d="m170.88 348.65c-0.276-1.162-0.802-2.906-1.577-5.231s-1.301-4.096-1.578-5.314c-0.166-0.664-0.332-1.384-0.498-2.159l-1.91 2.159c-0.055 0.055-0.083 0.111-0.083 0.166 0.111 1.273 0.139 2.297 0.083 3.072-0.055 1.882-0.415 3.598-1.079 5.148-0.831 1.772-1.965 3.045-3.405 3.82-0.664 0.387-1.522 0.692-2.574 0.913-1.162 0.221-2.048 0.387-2.657 0.498-3.123 0.906-5.614 1.597-7.472 2.076 0.335 0.142 0.667 0.28 0.996 0.415 1.329 0.443 3.321 0.941 5.978 1.495l7.888 1.577c3.156 0.72 5.314 1.301 6.477 1.744 0.611 0.262 1.413 0.622 2.408 1.079 0.022-0.525 0.049-1.106 0.083-1.743 0.11-3.432-0.249-6.671-1.08-9.715zm70.826-3.321c-2.214-0.388-3.847-0.748-4.899-1.08-0.83-0.276-1.743-0.692-2.74-1.245-0.055-0.055-0.11-0.083-0.166-0.083l-11.707-3.155c-0.111-0.056-0.222-0.083-0.332-0.083-1.163-0.111-2.159-0.471-2.989-1.08 0.11 0.664 0.11 1.384 0 2.159-0.277 1.495-0.969 3.155-2.076 4.982-1.439 2.546-2.325 4.151-2.657 4.816l-1.329 3.57c-0.166 0.554-0.498 1.356-0.996 2.408l-0.913 2.076c2.089-0.278 3.638-0.555 4.649-0.831 2.491-0.608 5.896-1.771 10.213-3.487 3.377-1.328 6.311-2.574 8.802-3.736 4.151-1.882 6.753-2.962 7.805-3.239 1.003-0.334 1.833-0.638 2.491-0.913-1.358-0.471-2.409-0.83-3.156-1.079zm-54.136-81.288c-0.941-0.775-2.768-2.851-5.48-6.228-1.495-1.826-2.353-3.21-2.574-4.151-0.166-0.664-0.194-1.384-0.083-2.159-2.381 2.823-4.982 5.176-7.805 7.058-2.27 1.494-5.896 3.293-10.878 5.397l-13.036 5.397c-3.321 1.439-6.033 2.463-8.137 3.072-2.878 0.941-6.255 1.688-10.13 2.242 4.595 3.321 9.438 5.923 14.531 7.805 1.384 0.498 2.38 0.581 2.989 0.249 0.388-0.222 0.747-0.554 1.08-0.997l4.4-4.898c4.041-4.539 7.639-6.505 10.794-5.896 1.163 0.222 2.381 0.831 3.654 1.827 0.775 0.609 1.854 1.522 3.238 2.74 0.83 0.664 3.155 2.104 6.975 4.318 5.646 3.266 11.32 7.528 17.021 12.787 3.488-5.204 7.75-8.276 12.787-9.217 2.712-0.498 5.369-0.221 7.971 0.83 2.712 1.052 4.705 2.713 5.978 4.982 2.381-2.048 4.152-3.708 5.314-4.982 1.772-1.992 3.045-3.985 3.82-5.978l1.162-2.823c0.222-0.387 0.471-0.747 0.748-1.079-1.329 0.11-2.464 0.193-3.405 0.249-3.93 0.221-7.417 0.055-10.462-0.498-1.826-0.333-4.234-0.969-7.223-1.91-3.599-1.218-5.979-1.965-7.141-2.242-3.82-0.83-6.643-1.522-8.469-2.076-3.211-0.996-5.757-2.269-7.639-3.819zm-48.906-22.253 0.249 0.249c1.938 2.048 2.989 4.263 3.155 6.643 0.056 1.162-0.11 2.602-0.498 4.318-0.221 1.051-0.498 1.965-0.83 2.74-0.222 0.498-0.443 0.941-0.664 1.328-1.052 1.771-2.464 2.685-4.235 2.74-0.055 0.443-0.111 0.886-0.166 1.329 0.277 0.553 0.498 1.19 0.664 1.909 0.941-0.276 1.744-0.526 2.408-0.747 2.491-0.886 6.144-2.546 10.96-4.982 2.048-0.83 5.176-2.02 9.383-3.57 3.598-1.439 6.476-2.989 8.635-4.65 2.27-1.716 4.511-4.29 6.726-7.722-1.218-0.221-2.381-0.387-3.488-0.498-0.498-0.111-0.996-0.222-1.494-0.332-4.705-0.166-10.85-0.028-18.433 0.415l-12.372 0.83zm77.801-5.729c-3.1 0.941-7.03 1.91-11.791 2.906-1.605 0.388-2.657 0.83-3.155 1.329-0.664 0.664-1.107 2.02-1.329 4.068-0.885 5.868-3.238 9.577-7.057 11.126 1.273 1.329 3.1 2.298 5.48 2.907 1.384 0.387 3.515 0.83 6.393 1.328 1.55 0.388 3.764 1.107 6.643 2.159 2.934 1.107 5.148 1.827 6.642 2.159 2.934 0.609 6.255 0.802 9.964 0.581 2.436-0.111 5.757-0.526 9.964-1.246 6.034-0.941 10.158-1.771 12.372-2.49 0.885-0.333 1.411-0.692 1.577-1.08 0.111-0.332 0.028-0.886-0.249-1.661-0.498-1.383-0.664-3.044-0.498-4.981 0.055-0.72 0.304-2.436 0.747-5.148 1.107-5.813 1.661-11.597 1.661-17.354 0-0.941-0.083-1.661-0.249-2.159-0.498-1.107-1.412-1.854-2.74-2.242-0.997-0.276-2.242-0.359-3.737-0.249l-19.927 0.581c0 2.491-1.218 4.65-3.654 6.477-1.383 0.996-3.736 1.993-7.057 2.989zm6.725-0.166 0.332-1.578c0.277-1.107 0.941-1.992 1.993-2.657 0.83-0.553 1.91-0.968 3.238-1.245 1.55-0.332 3.903-0.637 7.058-0.913 2.38-0.388 3.93-0.499 4.65-0.333 1.605 0.333 3.127 1.523 4.567 3.571 0.775 1.218 1.328 2.463 1.66 3.736 0.332 1.384 0.277 3.488-0.166 6.311-0.443 2.546-0.886 4.456-1.328 5.729-0.941 2.712-2.574 5.009-4.899 6.891-2.27 1.882-4.816 3.045-7.639 3.488-1.882 0.387-3.515 0.221-4.899-0.498-1.273-0.72-2.38-2.132-3.321-4.235-2.048-4.318-2.934-8.829-2.657-13.534 0-1.273 0.221-2.353 0.664-3.238l0.747-1.495zm37.697-30.971c-0.443-0.443-1.107-0.802-1.993-1.079-0.388-0.166-0.72-0.277-0.996-0.332-2.27 0.664-4.18 1.217-5.73 1.66-7.583 2.159-12.814 3.792-15.693 4.899-2.435 0.997-5.424 2.38-8.967 4.152 0.166-0.056 0.304-0.083 0.415-0.083 3.155-0.443 7.943-0.388 14.365 0.166 7.14 0.664 12.371 1.522 15.693 2.574 1.826 0.553 3.93 1.356 6.31 2.408 0.111-0.775 0.194-1.357 0.249-1.744 0.111-2.436-0.581-5.646-2.076-9.632-0.443-1.384-0.968-2.38-1.577-2.989zm-139.91 41.433c-0.055-0.277-0.11-0.581-0.166-0.913-0.111 0.498-0.304 1.051-0.581 1.66-0.166 0.498-0.498 1.273-0.996 2.325-1.772 4.484-1.965 9.078-0.582 13.783 0.941 0.222 1.799 0.665 2.574 1.329 0.277 0.221 0.526 0.498 0.748 0.83 1.162-0.11 2.629-0.277 4.4-0.498-0.055-0.166-0.138-0.332-0.249-0.498-0.166-0.443-0.277-0.858-0.332-1.246-0.277-0.442-0.498-0.913-0.664-1.411-0.388-2.325-0.692-4.096-0.913-5.314-0.277-1.55-0.858-3.488-1.744-5.812l-1.495-4.235zm7.556-34.873c-0.221 0.443-0.498 0.858-0.83 1.245-0.83 0.886-1.827 1.495-2.989 1.827-1.218 0.332-2.131 0.581-2.74 0.747-1.052 0.388-1.744 0.913-2.076 1.578 2.38-0.332 4.345-0.222 5.895 0.332 0.941 0.332 1.744 0.886 2.408 1.66 0.72 0.831 1.107 1.716 1.162 2.657 0.056 1.052-0.276 2.104-0.996 3.156-0.387 0.609-1.135 1.494-2.242 2.657-0.996 1.162-1.937 2.352-2.823 3.57 1.495-0.664 2.823-1.107 3.986-1.328 1.55-0.277 2.906-0.111 4.068 0.498 0.664 0.277 1.218 0.664 1.661 1.162 1.328-0.277 3.321-0.83 5.978-1.66 0.941-0.222 3.072-0.526 6.394-0.914l5.812-0.498c4.317-0.277 10.794-0.194 19.429 0.249 2.879 0.111 5.037 0.277 6.477 0.498 2.878 0.388 5.286 1.08 7.223 2.076 1.716 0.886 2.99 1.91 3.82 3.072l0.498 0.831c2.325-3.045 4.788-5.48 7.39-7.307 0.941-0.664 1.993-1.301 3.155-1.91-1.882 0.222-3.709 0.305-5.48 0.249-3.598-0.111-5.84-1.218-6.726-3.321-0.83-2.159 0.056-4.539 2.657-7.141 2.049-2.103 4.65-4.151 7.805-6.144 1.772-1.107 4.678-2.74 8.719-4.899 9.521-5.037 17.27-8.774 23.249-11.209-0.609-2.159-1.633-4.069-3.073-5.729-0.221-0.222-0.442-0.416-0.664-0.582-0.277 0.111-0.581 0.222-0.913 0.332-1.052 0.333-2.38 0.582-3.986 0.748-1.771 0.166-3.099 0.304-3.985 0.415-3.488 0.664-6.117 1.024-7.888 1.079-3.1 0.222-5.591-0.498-7.473-2.159-0.443-0.442-0.996-1.107-1.661-1.992-0.775-0.997-1.328-1.661-1.66-1.993-0.332-0.388-1.661-1.439-3.986-3.155-1.771-1.329-2.906-2.602-3.404-3.82-0.388-0.83-0.554-1.66-0.498-2.491 0.11-0.941 0.443-1.716 0.996-2.325-3.819-0.498-7.694-1.19-11.624-2.075v0.581c0.055 0.83 0.027 1.467-0.083 1.91-0.222 1.051-0.665 1.937-1.329 2.657-0.055 1.273-0.526 2.297-1.411 3.072-1.55 1.494-3.931 1.965-7.141 1.411-4.705-0.83-8.912-2.961-12.621-6.393-0.664-0.664-1.245-1.052-1.744-1.163-0.276-0.055-0.968 0.111-2.075 0.499l-9.051 4.649c-2.435 1.218-4.068 2.436-4.899 3.654-0.443 0.664-0.802 1.55-1.079 2.657 0 0.111-0.166 1.052-0.498 2.823-0.388 2.159-0.969 4.345-1.744 6.559-0.332 0.997-0.692 1.882-1.079 2.657 2.767 0.886 5.646 1.882 8.635 2.99l23.996 8.635c3.653 1.273 6.476 2.518 8.469 3.736 1.827 1.218 3.072 2.547 3.737 3.986 0.996 1.937 0.885 3.681-0.332 5.231-1.108 1.439-3.211 2.103-6.311 1.993-3.93-0.222-9.023-1.412-15.278-3.571-7.417-2.601-12.454-4.151-15.111-4.65-1.606-0.332-4.152-0.692-7.639-1.079-2.657-0.277-4.816-0.554-6.477-0.83z" fill="#FFEACE"/>
<path d="m243.78 280.32c-0.332-0.055-0.637-0.111-0.913-0.166 0 1.162-0.36 2.74-1.08 4.733-0.996 3.1-1.633 6.947-1.91 11.541-0.11 2.602-0.276 6.504-0.498 11.708-0.332 3.93-1.328 6.587-2.989 7.971-1.162 0.941-2.574 1.328-4.234 1.162-1.661-0.221-2.907-0.969-3.737-2.242-0.719-1.052-1.135-2.878-1.245-5.48v-4.567c-0.111 0.277-0.249 0.582-0.416 0.914-1.051 2.214-2.158 3.874-3.321 4.982l-2.159 1.992c-0.613 0.756-1.195 1.946-1.743 3.571 0.178 0.528 0.317 1.054 0.415 1.577 0.634 0.655 1.132 1.485 1.494 2.491 0.443 1.052 0.997 2.685 1.661 4.899l12.953 2.74c1.384 0.332 2.657 0.609 3.819 0.83 0.277-0.442 0.582-0.941 0.914-1.494 1.052-1.661 1.854-3.653 2.408-5.978 0.443-1.661 0.719-2.602 0.83-2.823 0.443-0.886 1.107-1.578 1.993-2.076 0.941-0.498 1.882-0.692 2.823-0.581 0.996 0.11 1.882 0.525 2.657 1.245 0.83 0.664 1.356 1.467 1.578 2.408 0.11 0.553 0.166 1.411 0.166 2.574 0 2.491 0.442 5.065 1.328 7.722 1.107 0.055 2.048 0.138 2.823 0.249 0.594 0.08 1.175 0.163 1.744 0.249 0.461-2.553 0.848-5.154 1.162-7.805 0.8-6.773 1.298-13.305 1.495-19.595-2.254 0.298-4.745-0.062-7.473-1.08-4.539-1.66-7.445-4.317-8.718-7.971-0.72-2.214-0.637-5.674 0.249-10.379 0.221-1.052 0.194-1.799-0.083-2.242-0.332-0.498-0.997-0.858-1.993-1.079zm-122.72 10.379c-0.498 1.384-0.692 3.764-0.581 7.141 0.277 8.413-0.194 16.468-1.412 24.162-0.058 0.352-0.114 0.685-0.166 0.996 0.752-0.291 1.527-0.568 2.325-0.83 0.111 0.055 0.194 0.111 0.249 0.166 2.27-0.609 4.207-0.637 5.813-0.083 0.553 0.221 1.383 0.609 2.491 1.162 0.221 0.056 1.273 0.166 3.155 0.332l2.325-5.397c0.996-1.716 2.491-2.491 4.483-2.324 0.886 0.055 1.689 0.359 2.408 0.913 0.775 0.553 1.329 1.245 1.661 2.076 0.055 0.055 0.221 0.609 0.498 1.66 0 0.166 0.249 1.024 0.747 2.574 0.166 0.388 0.305 0.775 0.415 1.163 0.167-0.056 0.305-0.083 0.416-0.083 3.21-0.277 5.286-0.498 6.227-0.665 1.716-0.276 4.041-0.913 6.975-1.909 2.546-0.775 4.345-1.55 5.397-2.325 0.941-0.775 1.688-1.356 2.242-1.744v-1.162c-0.111-0.332-0.249-0.692-0.416-1.08l-0.996-2.242c-0.664-1.66-0.996-4.317-0.996-7.971l-11.459-0.498c-1.051 0.443-2.325 0.664-3.819 0.664-4.595 0-8.995-1.273-13.202-3.819-3.488-2.048-6.947-5.065-10.379-9.05-1.163-1.44-2.104-2.325-2.823-2.657-0.376-0.154-0.736-0.32-1.08-0.499-0.188 0.434-0.354 0.877-0.498 1.329zm-31.137 17.104c-0.3135-0.347-0.6733-0.735-1.0794-1.162-1.3285-1.329-2.5186-2.325-3.5704-2.989l-3.9855-2.491c-0.4093-0.298-0.8245-0.602-1.2455-0.913-0.1844 0.738-0.2398 1.568-0.166 2.49 0.2767 2.104 0.4151 3.349 0.4151 3.737 0.0554 1.107-0.0553 2.74-0.3321 4.899-0.0554 0.443-0.083 1.799-0.083 4.068 0 1.606 0.083 2.657 0.2491 3.156 0.2767 0.996 0.8026 1.826 1.5776 2.49 0.8303 0.72 1.7713 1.108 2.823 1.163 0.9964 0.111 1.9651-0.111 2.9062-0.664 0.8856-0.554 1.5222-1.301 1.9097-2.242 0.3321-0.83 0.4705-1.965 0.4151-3.404-0.1107-1.938-0.1383-3.128-0.083-3.571l0.3321-1.577-0.083-2.99zm188.32-9.382c-1.273-0.83-2.906-2.159-4.899-3.986-1.605 2.104-2.961 3.709-4.068 4.816-0.33 0.319-0.662 0.623-0.997 0.913v0.333c0 1.383-0.055 2.435-0.166 3.155l-0.166 1.577c-0.166 1.716 0.471 3.128 1.91 4.235 1.328 1.052 2.851 1.356 4.567 0.913 1.605-0.498 2.74-1.577 3.404-3.238 0.221-0.719 0.332-2.131 0.332-4.234-0.035-1.431-7e-3 -2.926 0.083-4.484zm-95.652 30.057c0.332-0.609 0.636-1.19 0.913-1.743 0.166-0.277 0.332-0.526 0.498-0.748-2.878-3.598-5.369-6.836-7.473-9.714v0.498 5.48c0 1.439 0.056 2.519 0.166 3.238 0.111 0.941 0.443 2.325 0.997 4.152 0.387 1.66 0.36 3.044-0.083 4.151-0.166 0.388-0.332 0.775-0.498 1.163 0 0.11 0.027 0.249 0.083 0.415l0.166-0.166c0.885-0.72 1.743-1.688 2.574-2.906 0.442-0.609 0.885-1.19 1.328-1.744l1.163-2.076c0.055-0.055 0.11-0.055 0.166 0zm-55.798-165.98c-0.775 0.609-1.217 0.969-1.328 1.079-0.388 0.277-0.609 0.609-0.664 0.997-0.056 0.332 0.027 0.775 0.249 1.328 1.771 4.429 3.349 8.165 4.733 11.21 0.055-0.167 0.11-0.36 0.166-0.582 0.055-0.11 0.11-0.221 0.166-0.332-0.056-0.553-0.111-1.107-0.166-1.66-0.333-2.657-0.499-4.041-0.499-4.152-0.221-1.273-1.107-3.903-2.657-7.888zm-43.342-44.09c-0.2767 0.222-0.5812 0.388-0.9133 0.498l3.9855 4.235c0.6089 0.609 1.1071 0.969 1.4946 1.079 0.941 0.222 1.8544-0.221 2.74-1.328 0.8857-1.273 1.2178-2.989 0.9964-5.148-0.3875-2.546-0.6366-4.456-0.7473-5.729v-1.246c-0.4982 0.388-1.0517 0.831-1.6606 1.329-1.3285 1.162-2.5463 2.463-3.6534 3.902-0.8857 1.218-1.633 2.021-2.2419 2.408zm-26.155 28.148c0.1107 0.055 0.4151 0.083 0.9133 0.083 3.4873-0.498 7.2238-1.688 11.209-3.57 1.882-0.886 3.2659-1.606 4.1516-2.159 1.3285-0.775 3.0445-1.938 5.1479-3.488 2.4356-1.882 4.0963-3.099 4.9819-3.653-2.3249-0.886-4.3176-2.712-5.9783-5.48-0.3321-0.443-0.6089-0.72-0.8303-0.83l-0.6642-0.083-1.6607 0.083c-0.1107 0.055-0.4428 0.359-0.9963 0.913l-2.1589 2.076c-2.8784 2.435-5.1202 4.124-6.7255 5.065-0.8303 0.498-2.657 1.411-5.4801 2.74-2.3249 1.051-4.0962 2.02-5.314 2.906-0.3322 0.387-0.5259 0.609-0.5813 0.664-0.1107 0.277 0.0554 0.692 0.4982 1.246l2.8231 2.989c0.2768 0.276 0.4982 0.443 0.6643 0.498zm-32.133-23.913c-1.4392-0.831-2.6293-1.356-3.5704-1.578l-3.5703-0.498c-1.3285-0.221-2.574-0.637-3.7364-1.245-0.7197 6.365-0.8857 10.987-0.4982 13.866l0.4982 2.657c0.3874 1.827 1.107 4.096 2.1588 6.808 1.6606-0.332 3.9855-0.415 6.9746-0.249 3.3213 0.111 5.6739 0.083 7.0577-0.083-1.3838-1.494-2.3525-2.878-2.9061-4.151-0.7749-1.882-0.858-3.543-0.2491-4.982 0.2768-0.72 0.775-1.495 1.4946-2.325 1.8267-1.882 3.9578-3.128 6.3934-3.737-1.3838-0.83-2.823-1.466-4.3176-1.909l-2.1588-0.748c-0.7196-0.276-1.9098-0.885-3.5704-1.826zm8.3032-47.91c-0.2215 1.6606-0.3322 2.9338-0.3322 3.8195 0.1108 0.6089 0.2215 0.9687 0.3322 1.0794 0.1107 0.166 0.4982 0.4428 1.1624 0.8303l2.1588 1.9097c0.4982 0.4428 1.9928 1.3285 4.4837 2.657 1.9375 0.9411 3.3213 1.9928 4.1516 3.1552 0.1661 0.2768 0.3045 0.4152 0.4152 0.4152 0.0553 0 0.2491-0.1661 0.5812-0.4982 0.3321-0.8857 1.0794-1.6883 2.2419-2.4079 1.716-0.9964 2.6847-1.5776 2.9061-1.7437 0.2767-0.1107 0.4428-0.2768 0.4982-0.4982 0.1107-0.166 0.1107-0.4705 0-0.9133-0.775-3.3766-1.3009-7.0024-1.5776-10.877-1.9928-0.7749-3.515-1.3562-4.5668-1.7436-1.716-0.3875-2.9891-0.692-3.8194-0.9134-1.6053-0.4982-2.7954-0.858-3.5704-1.0794-1.3839-0.4428-2.6017-0.6366-3.6534-0.5812l-1.4115 7.3898zm207.25 36.616c-1.273 2.27-2.159 4.678-2.657 7.224-0.277 1.55-0.443 3.349-0.498 5.397 0.11 0.056 0.221 0.139 0.332 0.249 0.443 0.277 1.024 0.637 1.743 1.08 0-0.056 0.028-0.111 0.083-0.166 0.111-0.111 0.25-0.194 0.416-0.249 0.664-1.052 1.245-2.657 1.743-4.816 0.388-1.107 1.412-2.851 3.072-5.231l1.827-2.574c0.166-0.222 0.36-0.443 0.581-0.664-1.992-0.277-3.764-0.72-5.314-1.329-0.166-0.055-0.359-0.138-0.581-0.249-0.221 0.387-0.47 0.83-0.747 1.328zm-92.497 31.137c-0.775-0.332-1.357-0.332-1.744 0-0.222 0.222-0.388 0.692-0.498 1.412-0.332 4.373-0.194 8.884 0.415 13.534 0.332 2.38 0.747 4.096 1.245 5.148 0.111 0.277 0.277 0.609 0.499 0.996l0.581-0.332c0.609-0.276 1.051-0.609 1.328-0.996 0.332-0.498 0.36-1.439 0.083-2.823-0.387-1.938-0.498-3.958-0.332-6.062 0.055-0.83 0.139-1.577 0.249-2.241-0.277-2.823-0.332-5.536-0.166-8.137-0.719-0.222-1.273-0.388-1.66-0.499zm-7.888-34.209c-0.831-1.439-1.467-2.435-1.91-2.989-0.775-1.052-1.633-1.799-2.574-2.242-0.997-0.443-2.408-0.664-4.235-0.664-2.214 0-3.709-0.083-4.483-0.249-0.333-0.055-0.748-0.166-1.246-0.332-0.166 0.387-0.387 0.83-0.664 1.328-3.1 6.034-5.508 10.49-7.224 13.368-2.878 4.872-5.757 9.051-8.635 12.538-3.875 4.816-9.6043 10.379-17.188 16.69l-6.8086 5.729c-2.491 2.048-4.3177 3.349-5.4801 3.902-0.0554 0-0.0831 0.028-0.0831 0.083 1.4393-0.664 3.6258-1.743 6.5595-3.238 2.2696-1.162 4.29-2.02 6.0614-2.574v-0.083c0.166-0.055 0.3321-0.083 0.4981-0.083 0.4982-0.166 0.9687-0.304 1.4116-0.415 1.3838-0.277 2.6016-0.36 3.6534-0.249 2.2696-0.111 4.3456 0.11 6.2276 0.664 0.609 0.166 1.162 0.387 1.66 0.664 0.499-0.387 1.052-0.664 1.661-0.83 0.554-0.166 1.079-0.221 1.578-0.166 0-0.941-0.028-1.91-0.083-2.906-0.388-3.211-0.388-5.397 0-6.56 0.442-1.273 1.245-2.325 2.408-3.155 1.162-0.83 2.435-1.301 3.819-1.411 2.491-0.333 5.01 0.442 7.556 2.324-0.332-4.151-0.858-7.417-1.578-9.797-0.664-2.215-1.024-3.46-1.079-3.737-0.332-1.439-0.277-2.657 0.166-3.653 0.553-1.107 1.799-2.27 3.736-3.487 2.436-1.44 4.373-2.242 5.813-2.408 1.605-0.222 3.902 0.055 6.891 0.83 3.321 0.664 6.145 1.107 8.469 1.328 0.111 0 0.222 0.028 0.333 0.083-0.167-0.221-0.305-0.415-0.416-0.581-1.605-2.269-3.21-4.843-4.815-7.722zm139.49 34.874-9.798-0.831c-2.934-0.221-5.12-0.498-6.56-0.83-0.498-0.111-2.74-0.83-6.725-2.159-2.546-0.941-4.29-1.66-5.231-2.159-0.166-0.11-0.305-0.193-0.415-0.249v3.072c0 2.104-0.166 3.903-0.498 5.397-0.277 1.163-0.72 2.574-1.329 4.235l-1.661 4.235c-0.055 0.11-0.083 0.221-0.083 0.332 0.775-0.332 1.882-0.72 3.322-1.163 2.325-0.996 3.681-1.55 4.068-1.66 0.443-0.111 2.131-0.166 5.065-0.166 2.934-0.056 6.449-0.941 10.545-2.657 4.484-1.938 7.528-3.239 9.134-3.903 0-0.498 0.055-0.996 0.166-1.494zm-0.083-15.527c-2.159-0.775-4.373-1.91-6.643-3.405-3.376-2.214-8.054-6.144-14.032-11.79-0.111-0.055-0.194-0.139-0.249-0.249 0.166 0.553 0.276 1.162 0.332 1.826 0.055 0.443 0.083 1.606 0.083 3.488 0 2.214 0.166 4.041 0.498 5.48 0.221 1.162 0.526 2.048 0.913 2.657 0.443 0.664 1.052 1.245 1.827 1.744 1.605 1.051 4.29 1.965 8.054 2.74 2.546 0.442 4.345 0.498 5.397 0.166 1.218-0.332 2.491-1.218 3.82-2.657zm18.101-83.032c-0.775 1.1624-0.775 2.657 0 4.4837 0.442 0.9964 1.19 2.3803 2.241 4.1516 0.056 0.1661 0.526 1.8821 1.412 5.148 0.498 2.1034 1.301 3.5703 2.408 4.4006 0.72 0.6089 2.076 1.1625 4.068 1.6607 1.883 0.4428 3.211 0.9964 3.986 1.6606 0.886 0.775 1.716 2.2142 2.491 4.3177 0.83 2.4909 1.716 4.4006 2.657 5.7291 0.775 0.9964 1.578 1.6053 2.408 1.8267 1.771 0.4982 3.681-0.6365 5.729-3.4043 1.329-1.6606 1.937-3.0445 1.827-4.1515-0.111-1.2178-0.914-2.4633-2.408-3.7365-8.414-8.0264-17.354-15.388-26.819-22.086zm-10.379 1.4946v-2.1588c-1.661 1.2177-2.99 2.2141-3.986 2.9891-3.653 2.7124-6.061 4.7605-7.224 6.1443-2.435 2.8785-3.432 5.7569-2.989 8.6353 2.27-1.0517 4.761-1.4392 7.473-1.1624 0.996 0.1107 2.021 0.3044 3.072 0.5812 0.166-0.4428 0.36-0.9133 0.581-1.4115 2.049-4.4284 3.073-8.9675 3.073-13.617zm50.649 34.043c-0.166-0.4429-0.304-0.9687-0.415-1.5776-1.495 0.7749-2.602 1.4115-3.321 1.9097-1.274 0.941-2.519 2.4633-3.737 4.5667-0.719 1.2178-3.598 7.3345-8.635 18.35-3.377 7.418-7.058 12.87-11.043 16.358-0.333 0.332-0.692 0.636-1.08 0.913-0.166 0.554-0.332 1.107-0.498 1.661 0.277-0.277 0.554-0.526 0.83-0.748 0.332-0.332 2.353-1.965 6.062-4.899 1.55-1.217 2.657-2.186 3.321-2.906 0.498-0.498 0.941-0.913 1.328-1.245 1.495-1.495 3.183-3.294 5.065-5.397 4.263-4.705 7.03-8.5801 8.304-11.625 0.332-0.941 0.691-2.1311 1.079-3.5703-0.055-0.775 0.138-1.6607 0.581-2.6571 0.111-0.8303 0.249-1.6883 0.415-2.5739 0.443-2.491 1.08-4.207 1.91-5.148 0.111-0.1107 0.249-0.2214 0.415-0.3321-0.055-0.0554-0.055-0.1107 0-0.1661-0.221-0.2768-0.415-0.5812-0.581-0.9133z" fill="#A60F35"/>
<path d="m346.74 70.992c-0.775-2.2696-1.965-4.6221-3.57-7.0577-0.886-1.2732-2.242-3.0445-4.069-5.314-1.882-2.3803-3.238-4.1516-4.068-5.3141-2.325-3.7087-4.152-6.4488-5.48-8.2201-1.163-1.4946-3.017-3.5704-5.563-6.2274l-5.647-5.6461c-0.221-0.1661-0.415-0.3322-0.581-0.4982-1.107-1.3839-3.21-2.7124-6.31-3.9855-3.432-1.4393-6.117-2.2142-8.054-2.3249-2.27-0.1661-5.397 0.4705-9.383 1.9097-2.934 1.1071-5.48 2.3249-7.639 3.6534-1.217 0.775-2.684 1.8544-4.4 3.2382-1.827 1.6053-3.239 2.7954-4.235 3.5704-2.325 1.7713-4.069 3.1275-5.231 4.0685-1.993 1.6053-3.57 3.0999-4.733 4.4838-2.38 2.9891-3.819 6.4764-4.317 10.462-0.443 3.9856 0.166 7.6943 1.826 11.126 1.273 2.8784 3.017 4.4007 5.231 4.5667 0.997 0.0554 2.187-0.2767 3.571-0.9963 1.937-0.9411 3.127-1.4946 3.57-1.6607 1.937-0.5535 3.709-0.3598 5.314 0.5812 0.72 0.3875 1.384 0.9411 1.993 1.6607 0.553 0.7196 1.079 1.882 1.577 3.4873 0.554 1.7713 1.052 2.9891 1.495 3.6534-0.443 0.8857-1.356 1.882-2.74 2.9891-1.661 1.2178-2.712 2.1312-3.155 2.7401-0.388 0.6089-0.803 1.4669-1.246 2.574-0.498 1.3838-0.858 2.2972-1.079 2.74-0.941 1.6606-3.183 3.4597-6.726 5.3971-3.376 1.6606-5.923 2.823-7.639 3.4871-1.384-0.2212-3.183 0.139-5.397 1.08-1.162 0.166-2.491 0.304-3.985 0.415-2.713 0.277-4.899 0.304-6.56 0.083-2.325-0.222-4.262-0.941-5.812-2.159-0.443-0.4429-0.858-0.8303-1.245-1.1625 0.276-0.3321 0.498-0.6919 0.664-1.0794 0.332-0.7196 0.664-1.6883 0.996-2.9061 0.443-1.6606 0.72-2.657 0.831-2.9891 0.941-2.3249 1.577-4.0963 1.909-5.3141 0-0.0553 0.028-0.1107 0.083-0.166 0.222-0.7196 0.388-1.2732 0.498-1.6607 0.665-2.9337 1.799-5.7291 3.405-8.3862 0.775-1.3285 1.328-2.3248 1.66-2.9891 0.333-0.775 0.554-1.4669 0.665-2.0758 0.221-0.2214 0.442-0.4428 0.664-0.6642 0.941-0.9411 1.577-1.8267 1.91-2.657 0.553-1.55 0.387-2.9892-0.499-4.3177-0.332-0.4982-0.691-0.8857-1.079-1.1624-0.055-1.1071-0.249-2.3249-0.581-3.6534-0.72-3.2659-1.107-5.3971-1.163-6.3935-0.11-1.7713 0.139-4.1516 0.748-7.1407 0.719-3.4873 1.107-5.8676 1.162-7.1407 0.055-1.716 0.138-2.8231 0.249-3.3213 0.166-1.2178 0.554-2.1588 1.163-2.8231 0.775-0.8856 2.131-1.4945 4.068-1.8267 2.325-0.3874 3.847-0.7749 4.567-1.1624 1.882-1.1071 2.768-2.7677 2.657-4.9819-0.055-0.941-0.36-1.8267-0.913-2.657-0.609-0.8303-1.357-1.4669-2.242-1.9097 1.716-3.8749 2.74-7.8327 3.072-11.874 0.221-2.9891-0.36-5.0372-1.744-6.1443-1.218-0.99638-2.989-1.2455-5.314-0.74728-1.826 0.38748-4.179 1.3562-7.057 2.9061-3.266 1.8267-5.591 2.9615-6.975 3.4043-1.384 0.44284-3.072 0.80264-5.065 1.0794-0.554-0.6089-1.246-0.99638-2.076-1.1624-1.052-0.27677-2.629-0.19374-4.733 0.2491-4.594 0.99638-8.358 1.8544-11.292 2.574-2.214 0.27677-4.235 0.6089-6.061 0.99635-6.2 1.2732-11.597 3.1276-16.191 5.5631-0.167 0.0554-0.333 0.1108-0.499 0.1661-3.044 1.2178-5.092 2.574-6.144 4.0686-0.609 0.9963-0.913 2.0481-0.913 3.1552 0 0.2767 0.027 0.5535 0.083 0.8303-0.609 1.2178-0.72 2.657-0.332 4.3176 0.11 0.4429 0.304 0.9411 0.581 1.4946 0.11 1.2178 0.36 2.2142 0.747 2.9891 0.443 0.8304 1.135 1.6607 2.076 2.491 0.221 0.1661 1.024 0.8026 2.408 1.9097 1.494 1.6053 3.072 3.0999 4.733 4.4837 0.221 0.1661 0.415 0.3322 0.581 0.4982 0.443 0.4429 0.885 0.9134 1.328 1.4116 2.713 2.8784 4.927 4.9542 6.643 6.2273 1.882 1.4946 3.626 2.1589 5.231 1.9928 1.384-0.1661 2.685-0.9134 3.902-2.2419 0.72-0.7749 1.661-2.1311 2.823-4.0685 2.436-3.7641 5.564-7.0023 9.383-9.7147 3.819-2.657 7.916-4.5391 12.289-5.6462l-2.242 14.198c-0.775 4.8159-0.914 8.3862-0.415 10.711 0.221 0.9964 0.581 2.4633 1.079 4.4007 0.277 1.716 0.166 3.1552-0.332 4.3177-0.443 0.8856-1.329 1.9097-2.657 3.0721-2.823 2.2142-5.203 3.9025-7.141 5.065-0.111 0.0553-0.194 0.1107-0.249 0.166-0.387 0.1661-0.747 0.2491-1.079 0.2491-0.609 0-1.578-0.4151-2.906-1.2455-2.657-1.7159-5.01-2.8784-7.058-3.4873-2.325-0.7196-5.425-0.9964-9.3-0.8303-5.369 0.1661-8.524 0.2214-9.465 0.1661-1.55-0.1108-3.405-0.3598-5.563-0.7473-2.436-0.4982-4.29-0.858-5.564-1.0794-1.826-0.3322-3.957-0.5813-6.393-0.7473 0.055-0.4982 0.083-0.9964 0.083-1.4946 0.111-3.5427-0.111-6.7532-0.664-9.6317-0.72-4.2069-2.159-8.6906-4.318-13.451-1.439-3.2106-3.653-7.4175-6.642-12.621-1.827-3.3766-3.792-5.231-5.896-5.5631-1.383-0.2215-2.657 0.2214-3.819 1.3285-1.107 1.0517-1.605 2.2972-1.495 3.7364 0.056 0.7196 0.305 1.8544 0.748 3.4043 0.332 1.3285 0.166 2.2972-0.499 2.9061-0.442 0.4982-1.273 0.8026-2.491 0.9134l-12.454 1.7436c-4.539 0.6643-8.082 0.7473-10.628 0.2491-0.443-0.1107-2.325-0.6919-5.646-1.7437-2.27-0.7749-4.18-1.107-5.73-0.9963-2.601 0.166-5.12 1.4115-7.556 3.7364-1.162 1.1071-2.878 3.4043-5.147 6.8916l-7.39 11.708c-2.214 3.4873-3.681 6.3104-4.401 8.4692-0.941 2.9892-1.162 5.9783-0.664 8.9674 0.387 2.8231 1.467 4.8436 3.238 6.0613 0.996 0.7197 2.131 1.0241 3.404 0.9134s2.214-0.6643 2.823-1.6606c1.329 2.9338 4.65 4.4006 9.964 4.4006 3.1 0 5.065 0.0554 5.895 0.1661 2.215 0.2214 3.958 0.8857 5.231 1.9928 0.72 0.6089 1.107 1.2454 1.163 1.9097 0 0.2214-0.139 0.7473-0.415 1.5776-0.498 1.3285-0.72 2.6847-0.665 4.0686l-0.498-0.0831c-1.051-0.2214-2.684-0.6919-4.899-1.4115-2.103-0.7196-3.736-1.1901-4.898-1.4116-3.599-0.5535-7.888 0.0831-12.87 1.9098-2.547 0.8856-5.951 2.2972-10.213 4.2346-4.8158 2.1588-8.1924 3.6257-10.13 4.4005-8.0818 3.155-15.278 4.124-21.588 2.906-0.9964-0.221-1.8544-0.415-2.574-0.581 1.4946-2.657 2.7401-5.0095 3.7365-7.0576 2.1588-4.5391 3.7087-8.8568 4.6497-12.953 1.0518-4.7605 1.2732-9.3549 0.6643-13.783-0.6643-4.8712-2.2695-9.1058-4.8158-12.704-1.4393-2.0481-3.7641-4.5114-6.9747-7.3898-1.8267-1.6606-3.2936-2.8784-4.4007-3.6534-1.716-1.2178-3.3766-2.0481-4.9819-2.4909-2.7677-0.8304-5.9506-0.775-9.5486 0.166-6.6426 1.716-12.399 5.3694-17.271 10.96-2.491 2.7677-5.5631 7.3621-9.2165 13.783-2.1589 3.8194-3.6534 6.7255-4.4837 8.7183-1.4946 3.3212-2.408 6.4211-2.7401 9.2995-0.33213 3.2659 0.19374 5.7292 1.5776 7.3898 1.1625 1.2732 2.9061 2.2142 5.231 2.8231 3.1552 0.775 5.9783 0.775 8.4692 0 3.0445-0.8303 5.231-2.5186 6.5595-5.0649 0.5536 0.6089 1.6053 1.3008 3.1552 2.0758 1.4946 0.7196 2.5187 1.3838 3.0722 1.9927 1.716 1.7714 2.1035 4.8989 1.1625 9.383l-21.505-0.499c-0.7196 0-1.4116 0.028-2.0758 0.083-0.9411-0.664-2.1035-0.941-3.4874-0.83-1.3285 0.111-2.657 0.526-3.9855 1.246-2.491 1.217-4.3176 3.016-5.4801 5.397-1.3285 2.435-1.882 6.144-1.6606 11.126 0.22142 5.757 0.99638 11.846 2.3249 18.267 0.6089 2.712 1.2732 5.148 1.9928 7.307-0.11071 0.664-0.11071 1.356 0 2.075 0.44283 2.159 2.0758 4.65 4.8989 7.473 3.8748 3.986 7.03 6.643 9.4656 7.971 2.8784 1.606 6.4765 2.685 10.794 3.239 1.4392 0.166 5.2587 0.387 11.458 0.664 4.7051 0.166 11.79 0.443 21.256 0.83 8.1371-0.055 15.001-1.218 20.592-3.487 0.8303-0.332 2.5463-1.107 5.1479-2.325 2.1035-0.996 3.8195-1.716 5.148-2.159 0.7196-0.221 1.8267-0.526 3.3213-0.913 0.5535-0.166 1.0517-0.305 1.4945-0.415 0.1107-0.056 0.2215-0.056 0.3322 0-1.7714 1.66-2.6571 3.598-2.6571 5.812 0 0.166 0.0831 1.052 0.2491 2.657 0.1108 1.107 0.0554 1.993-0.166 2.657-0.3875 1.328-1.4946 2.685-3.3213 4.068-1.2178 0.997-2.2418 1.523-3.0722 1.578-0.5535 0.055-1.1901-0.055-1.9097-0.332-0.8857-0.388-1.5499-0.692-1.9927-0.913-1.2178-0.499-2.4633-0.72-3.7365-0.665-1.3285 0.056-2.4909 0.415-3.4873 1.08-2.2142 1.55-3.3766 4.262-3.4873 8.137 0 0.277 0.0276 1.827 0.083 4.65 0.0554 1.882-0.0277 3.404-0.2491 4.566-0.3875 2.27-1.4115 4.678-3.0722 7.224-0.2767 0.388-1.9097 2.519-4.8988 6.394-4.2623 5.59-5.7569 10.462-4.4837 14.613 0.7196 2.436 2.4079 4.733 5.0649 6.892 0.7749 0.664 1.5776 1.301 2.4079 1.909-0.2214 0.333-0.4428 0.72-0.6643 1.163-2.657 5.48-4.3176 9.798-4.9819 12.953-0.1107 0.553-0.3874 2.02-0.8303 4.401-0.3321 1.826-0.6642 3.293-0.9963 4.4-0.3875 1.107-1.0518 2.796-1.9928 5.065-0.6643 1.993-0.775 3.709-0.3321 5.148 0.4428 1.55 1.882 3.377 4.3176 5.48 0.6643 0.609 1.3285 1.135 1.9928 1.578-0.0554 2.325-0.4429 6.753-1.1625 13.285-0.4428 3.155-0.1107 5.508 0.9964 7.058 0.4982 0.719 1.1625 1.245 1.9928 1.577 0.3321 0.166 0.7196 0.36 1.1624 0.581 1.8821 0.941 2.9892 1.523 3.3213 1.744 0.4982 0.277 1.799 1.412 3.9025 3.404 0.166 0.166 0.3598 0.332 0.5812 0.499 0.4982 0.996 1.3839 1.716 2.657 2.158 0.1814 0.164 0.3475 0.33 0.4982 0.499 0.421 0.311 0.8362 0.615 1.2455 0.913l3.9855 2.491c1.0517 0.664 2.2418 1.66 3.5704 2.989 0.406 0.427 0.7658 0.815 1.0794 1.162 0.5885 0.546 1.0867 0.989 1.4945 1.329 0.4429 0.83 1.1348 1.439 2.0758 1.827 0.9964 0.442 1.9928 0.525 2.9892 0.249 1.1624-0.332 2.1588-1.052 2.9891-2.159 0.72-1.052 1.19-2.242 1.412-3.57 0.166-0.942 0.249-2.187 0.249-3.737-0.056-1.937-0.056-3.183 0-3.736 1.771 0.055 3.127 0 4.068-0.166 1.273-0.222 2.297-0.72 3.072-1.495 0.554-0.166 1.08-0.47 1.578-0.913 0.775-0.72 1.273-1.55 1.495-2.491l0.249-0.914 0.747-1.245c0.277-0.443 0.581-1.163 0.913-2.159l0.665-2.325c0-0.111 0.027-0.249 0.083-0.415 0.276-0.277 0.581-0.609 0.913-0.996 0.055-0.056 0.111-0.139 0.166-0.249 0.498 0.276 1.052 0.581 1.661 0.913 0.332 0.221 0.858 0.747 1.577 1.578 0.664 0.664 1.218 1.134 1.661 1.411 0.383 0.268 0.908 0.545 1.577 0.83 0.344 0.179 0.704 0.345 1.08 0.499 0.719 0.332 1.66 1.217 2.823 2.657 3.432 3.985 6.892 7.002 10.379 9.05 4.207 2.546 8.607 3.819 13.202 3.819 1.494 0 2.768-0.221 3.819-0.664l11.459 0.498c0 3.654 0.332 6.311 0.996 7.971l0.996 2.242c0.167 0.388 0.305 0.748 0.416 1.08v1.162c-0.554 0.388-1.301 0.969-2.242 1.744-1.052 0.775-2.851 1.55-5.397 2.325-2.934 0.996-5.259 1.633-6.975 1.909-0.941 0.167-3.017 0.388-6.227 0.665-0.111 0-0.249 0.027-0.415 0.083-0.111-0.388-0.25-0.775-0.416-1.163-0.498-1.55-0.747-2.408-0.747-2.574-0.277-1.051-0.443-1.605-0.498-1.66-0.332-0.831-0.886-1.523-1.661-2.076-0.719-0.554-1.522-0.858-2.408-0.913-1.992-0.167-3.487 0.608-4.483 2.324l-2.325 5.397c-1.882-0.166-2.934-0.276-3.155-0.332-1.108-0.553-1.938-0.941-2.491-1.162-1.606-0.554-3.543-0.526-5.813 0.083-0.055-0.055-0.138-0.111-0.249-0.166-0.798 0.262-1.573 0.539-2.325 0.83-3.005 1.278-5.551 2.939-7.639 4.982-1.217 1.273-2.158 2.242-2.823 2.906-1.107 1.107-2.131 1.938-3.072 2.491-0.443 0.277-1.826 0.858-4.151 1.744-1.7163 0.609-2.9618 1.356-3.7368 2.242-1.1624 1.273-1.5776 2.767-1.2454 4.483 0.2767 1.772 1.2454 2.934 2.9061 3.488 0.8861 0.387 1.9651 0.443 3.2381 0.166 0.443 0.221 0.996 0.47 1.661 0.747 2.767 0.941 5.092 1.467 6.974 1.578 1.218 0.166 2.574 0.193 4.069 0.083h0.747c0.72 0.166 2.408 0.47 5.065 0.913 2.214 0.332 4.041 0.72 5.48 1.162 0.609 0.167 1.384 0.443 2.325 0.831 0.111 0.166 0.249 0.332 0.415 0.498 0.665 0.775 1.661 1.412 2.989 1.91 1.163 0.387 2.325 0.664 3.488 0.83 0.719 0.443 1.66 0.747 2.823 0.913 2.325 0.388 5.203 0.111 8.635-0.83 0.343-0.091 0.703-0.201 1.08-0.332 1.858-0.479 4.349-1.17 7.472-2.076 0.609-0.111 1.495-0.277 2.657-0.498 1.052-0.221 1.91-0.526 2.574-0.913 1.44-0.775 2.574-2.048 3.405-3.82 0.664-1.55 1.024-3.266 1.079-5.148 0.055-0.775 0.028-1.799-0.083-3.072 0-0.055 0.028-0.111 0.083-0.166l1.91-2.159c0.166 0.775 0.332 1.495 0.498 2.159 0.277 1.218 0.803 2.989 1.578 5.314s1.3 4.069 1.577 5.231c0.831 3.044 1.19 6.283 1.08 9.715-0.034 0.637-0.062 1.218-0.083 1.743 0.045 1.243 0.183 2.212 0.415 2.906 0.332 0.942 0.941 1.716 1.826 2.325 0.111 0.111 0.25 0.222 0.416 0.332 2.767-0.664 5.009-1.134 6.725-1.411 3.211-0.554 7.141-1.024 11.791-1.412l2.491-0.166 1.328-0.913c0.166-0.111 0.305-0.194 0.415-0.249l-0.083 0.996 8.137-0.83c1.606-0.166 3.045-0.221 4.318-0.166l1.246-2.906 0.913-2.076c0.498-1.052 0.83-1.854 0.996-2.408l1.329-3.57c0.332-0.665 1.218-2.27 2.657-4.816 1.107-1.827 1.799-3.487 2.076-4.982 0.11-0.775 0.11-1.495 0-2.159 0.83 0.609 1.826 0.969 2.989 1.08 0.11 0 0.221 0.027 0.332 0.083l11.707 3.155c0.056 0 0.111 0.027 0.166 0.083 0.997 0.553 1.91 0.969 2.74 1.245 1.052 0.332 2.685 0.692 4.899 1.08 0.747 0.249 1.798 0.608 3.155 1.079 0.171 0.055 0.337 0.11 0.499 0.166 0.885 0.166 2.242 0.305 4.068 0.415 0.941 0.166 2.297 0.609 4.069 1.329 0.609 0.111 1.356 0.138 2.242 0.083l2.324-0.083c0.388 0 0.969 0.028 1.744 0.083 0.72 0 1.301-0.083 1.744-0.249 0.996-0.277 2.131-1.329 3.404-3.155 0.554-0.831 0.969-1.578 1.246-2.242 0.719-0.277 1.383-0.692 1.992-1.246 0.775-0.719 1.274-1.605 1.495-2.657 0.221-1.107 0.111-2.131-0.332-3.072-0.554-1.052-1.772-2.076-3.654-3.072-2.109-1.011-4.295-1.758-6.559-2.242-0.569-0.086-1.15-0.169-1.744-0.249-0.775-0.111-1.716-0.194-2.823-0.249-0.885-2.657-1.328-5.231-1.328-7.722 0-1.163-0.056-2.021-0.166-2.574-0.222-0.941-0.748-1.744-1.578-2.408-0.775-0.72-1.661-1.135-2.657-1.245-0.941-0.111-1.882 0.083-2.823 0.581-0.886 0.498-1.55 1.19-1.993 2.076-0.111 0.221-0.387 1.162-0.83 2.823-0.554 2.325-1.356 4.317-2.408 5.978-0.332 0.553-0.637 1.052-0.913 1.494-1.163-0.221-2.436-0.498-3.82-0.83l-12.953-2.74c-0.664-2.214-1.218-3.847-1.66-4.899-0.363-1.006-0.861-1.836-1.495-2.491-0.186-0.246-0.407-0.467-0.664-0.664 0.089-0.309 0.172-0.613 0.249-0.913 0.548-1.625 1.13-2.815 1.743-3.571l2.159-1.992c1.163-1.108 2.27-2.768 3.322-4.982 0.166-0.332 0.304-0.637 0.415-0.914v4.567c0.11 2.602 0.526 4.428 1.245 5.48 0.831 1.273 2.076 2.021 3.737 2.242 1.66 0.166 3.072-0.221 4.234-1.162 1.661-1.384 2.657-4.041 2.989-7.971 0.222-5.204 0.388-9.106 0.499-11.708 0.276-4.594 0.913-8.441 1.909-11.541 0.72-1.993 1.08-3.571 1.08-4.733 0.276 0.055 0.581 0.111 0.913 0.166 0.996 0.221 1.661 0.581 1.993 1.079 0.277 0.443 0.304 1.19 0.083 2.242-0.886 4.705-0.969 8.165-0.249 10.379 1.273 3.654 4.179 6.311 8.718 7.971 2.728 1.018 5.219 1.378 7.473 1.08 0.803-0.069 1.578-0.235 2.325-0.499 1.419-0.488 2.803-1.29 4.151-2.408 0.335-0.29 0.667-0.594 0.997-0.913 1.107-1.107 2.463-2.712 4.068-4.816 1.993 1.827 3.626 3.156 4.899 3.986 1.951 1.218 3.833 1.855 5.646 1.91 1.827 0.055 4.512-0.471 8.054-1.578 0.72-0.111 1.772-0.249 3.156-0.415 1.162-0.277 2.075-0.692 2.74-1.246 1.273-1.107 1.965-3.044 2.075-5.812 0.222-3.875-0.11-8.026-0.996-12.455-0.443-1.66-0.747-2.933-0.913-3.819-0.277-1.439-0.36-2.74-0.249-3.903 0.11-1.383 0.553-2.601 1.328-3.653 0.886-1.218 1.91-1.937 3.072-2.159 1.495 0.831 3.322 2.408 5.48 4.733 2.27 2.436 4.014 4.069 5.231 4.899 3.377 2.269 8.276 3.238 14.697 2.906 2.38-0.111 4.152-0.609 5.314-1.495 0.886-0.664 1.495-1.605 1.827-2.823 0.332-1.162 0.36-2.352 0.083-3.57-0.332-1.716-1.273-3.819-2.823-6.31l-7.805-13.036c-1.163-1.827-1.91-3.377-2.242-4.65s-0.249-3.404 0.249-6.394c0.554-3.044 1.052-5.369 1.495-6.974 0.774-2.547 1.743-4.678 2.906-6.394 0.83-1.273 2.933-3.404 6.31-6.393 2.878-2.325 5.093-3.764 6.643-4.318 0.608-0.166 1.549-0.443 2.823-0.83 0.996-0.388 1.771-0.913 2.325-1.578 0.775-1.107 0.996-2.823 0.664-5.148-0.831-4.483-2.131-8.524-3.903-12.122-1.328-2.879-2.933-4.456-4.816-4.733-1.494-0.222-3.127 0.387-4.898 1.827-0.886 0.885-1.55 1.522-1.993 1.909-0.775 0.72-1.495 1.246-2.159 1.578-1.605 0.941-4.013 1.411-7.224 1.411-4.262 0-7.888-0.138-10.877-0.415-2.602-0.11-4.622-0.581-6.061-1.411-1.605-0.997-2.879-2.713-3.82-5.148-0.83-2.713-1.467-4.788-1.909-6.228 1.992-1.55 3.432-3.21 4.317-4.981 0.886-1.716 1.246-3.515 1.08-5.398-0.111-1.992-0.831-3.57-2.159-4.732-1.661-1.55-4.152-2.215-7.473-1.993-2.048 0.166-3.986 0.581-5.812 1.245-0.886-2.546-1.855-4.622-2.906-6.227-0.388-0.554-0.748-1.079-1.08-1.578-0.055-0.719 0-1.3 0.166-1.743 0.111-0.332 0.471-0.803 1.08-1.412 1.494-1.384 2.767-2.325 3.819-2.823 0.609-0.277 1.689-0.636 3.238-1.079 1.44-0.332 2.491-0.72 3.156-1.163 0.11-0.055 0.249-0.138 0.415-0.249 0.664-0.387 1.356-0.996 2.076-1.827 0.775-0.83 2.048-2.407 3.819-4.732 1.605-1.993 2.934-3.515 3.986-4.567 0.387-0.388 1.688-1.55 3.902-3.487 2.436-2.159 4.594-4.567 6.477-7.224 0.498-0.72 0.885-1.356 1.162-1.91l0.249-0.249c1.329-0.83 2.629-1.744 3.903-2.74 3.155-2.436 6.864-5.923 11.126-10.462 4.982-5.314 8.358-9.825 10.13-13.534 1.051-2.1037 2.075-5.0098 3.072-8.7185 0.332-0.6089 0.636-1.2455 0.913-1.9098 2.048-4.5944 2.74-9.2441 2.076-13.949-0.332-2.2142-0.886-4.2623-1.661-6.1443zm-9.05 7.5559c0.111 0.6089 0.249 1.1347 0.415 1.5776 0.166 0.3321 0.36 0.6365 0.581 0.9133-0.055 0.0554-0.055 0.1107 0 0.1661-0.166 0.1107-0.304 0.2214-0.415 0.3321-0.83 0.941-1.467 2.657-1.91 5.148-0.166 0.8856-0.304 1.7436-0.415 2.5739-0.443 0.9964-0.636 1.8821-0.581 2.6571-0.387 1.4392-0.747 2.6293-1.079 3.5703-1.274 3.0445-4.041 6.9196-8.304 11.625-1.882 2.103-3.57 3.902-5.065 5.397-0.387 0.332-0.83 0.747-1.328 1.245-0.664 0.72-1.771 1.689-3.321 2.906-3.709 2.934-5.729 4.567-6.062 4.899-0.276 0.222-0.553 0.471-0.83 0.748 0.166-0.554 0.332-1.107 0.498-1.661 0.388-0.277 0.748-0.581 1.08-0.913 3.985-3.488 7.666-8.94 11.043-16.358 5.037-11.015 7.916-17.132 8.635-18.35 1.218-2.1034 2.463-3.6257 3.737-4.5667 0.719-0.4982 1.826-1.1348 3.321-1.9097zm-50.234-34.624v2.1588c0 4.6498-1.024 9.1888-3.072 13.617-0.222 0.4982-0.416 0.9687-0.582 1.4115-1.051-0.2768-2.075-0.4705-3.072-0.5812-2.712-0.2768-5.203 0.1107-7.473 1.1624-0.443-2.8784 0.554-5.7568 2.989-8.6353 1.163-1.3838 3.571-3.4319 7.224-6.1443 0.997-0.775 2.325-1.7713 3.986-2.9891zm10.379 5.1479c-0.775-1.8267-0.775-3.3212 0-4.4837 9.465 6.6979 18.405 14.06 26.819 22.086 1.494 1.2732 2.297 2.5187 2.408 3.7365 0.111 1.107-0.498 2.4909-1.827 4.1515-2.048 2.7678-3.958 3.9025-5.729 3.4043-0.83-0.2214-1.633-0.8303-2.408-1.8267-0.941-1.3285-1.827-3.2382-2.657-5.7291-0.775-2.1035-1.605-3.5427-2.491-4.3177-0.775-0.6642-2.103-1.2178-3.985-1.6606-1.993-0.4982-3.349-1.0518-4.069-1.6607-1.107-0.8303-1.91-2.2972-2.408-4.4006-0.886-3.2659-1.356-4.9819-1.411-5.148-1.052-1.7713-1.799-3.1552-2.242-4.1516zm-24.744 75.143c2.27 1.495 4.484 2.63 6.643 3.405-1.329 1.439-2.602 2.325-3.82 2.657-1.051 0.332-2.85 0.276-5.397-0.166-3.764-0.775-6.449-1.689-8.054-2.74-0.775-0.499-1.384-1.08-1.827-1.744-0.387-0.609-0.691-1.495-0.913-2.657-0.332-1.439-0.498-3.266-0.498-5.48 0-1.882-0.028-3.045-0.083-3.488-0.055-0.664-0.166-1.273-0.332-1.826 0.055 0.111 0.138 0.194 0.249 0.249 5.978 5.646 10.656 9.576 14.032 11.79zm-3.072 18.101 9.798 0.831c-0.111 0.498-0.166 0.996-0.166 1.494-1.606 0.664-4.65 1.965-9.134 3.903-4.096 1.716-7.611 2.601-10.545 2.657-2.934 0-4.622 0.055-5.065 0.166-0.387 0.11-1.743 0.664-4.068 1.66-1.439 0.443-2.547 0.831-3.322 1.163 0-0.111 0.028-0.222 0.084-0.332l1.66-4.235c0.609-1.661 1.052-3.072 1.329-4.235 0.332-1.494 0.498-3.293 0.498-5.397v-3.072c0.111 0.056 0.249 0.139 0.415 0.249 0.941 0.499 2.685 1.218 5.231 2.159 3.986 1.329 6.227 2.048 6.726 2.159 1.439 0.332 3.625 0.609 6.559 0.83zm5.148 57.624c-0.664-0.443-1.411-0.913-2.242-1.411 2.546-0.941 4.595-1.799 6.145-2.574 1.494-0.775 3.265-1.827 5.314-3.155 0.996-0.609 2.407-1.495 4.234-2.657 0.111 0.332 0.249 0.691 0.415 1.079 0.665 1.328 1.633 3.321 2.906 5.978 1.993 4.816 2.436 9.77 1.329 14.863-3.487-1.661-6.809-3.681-9.964-6.061-3.543-2.823-6.255-4.844-8.137-6.062zm3.321 27.899c-1.107-1.329-2.657-2.629-4.649-3.903 0.276-0.941 0.498-2.02 0.664-3.238 0.277-2.878 0.11-5.701-0.498-8.469l13.119 8.469c3.099 2.048 4.871 3.958 5.314 5.729 0.387 1.661-0.083 3.848-1.412 6.56-2.657 5.425-5.923 10.379-9.798 14.863 0.499-1.772 0.803-3.709 0.914-5.813 0.387-5.978-0.831-10.711-3.654-14.198zm50.317-17.105-3.238 2.491c-2.048 1.606-3.985 3.294-5.812 5.065-0.775 0.941-1.245 1.55-1.412 1.827-0.11 0.277-0.249 0.664-0.415 1.162-0.221 0.443-0.442 0.775-0.664 0.997-0.111 0.111-0.249 0.138-0.415 0.083-0.111 0-0.221-0.111-0.332-0.332l-3.986-10.047-0.498-1.91c-0.609-1.052-0.913-1.854-0.913-2.408l13.368-0.083c1.052-0.111 2.435-0.387 4.151-0.83 2.381-0.72 4.318-1.439 5.813-2.159-0.056 0.332 0.027 0.83 0.249 1.495-0.056 0.387-0.443 0.692-1.163 0.913-1.107 0.443-2.02 0.996-2.74 1.661-0.885 0.941-1.55 1.633-1.993 2.075zm-51.147 58.953c-0.111-0.609-0.055-1.08 0.166-1.412 0.111-0.166 0.443-0.387 0.996-0.664l2.824-1.162c0.276 0.664 0.83 1.383 1.66 2.158 0.498 0.388 1.218 0.997 2.159 1.827 0.498 0.498 0.803 0.914 0.913 1.246 0.222 0.498 0.36 1.3 0.415 2.408 0.167 0.442 0.499 1.024 0.997 1.743 0.055 0.056 0.221 0.526 0.498 1.412 0.498 1.439 0.747 2.214 0.747 2.325 0.166 0.775 0.305 1.965 0.415 3.57l0.416 1.329c0.221 0.885 0.276 2.269 0.166 4.151-1.55 0.222-2.685 0.526-3.405 0.913-1.051 0.443-1.633 0.665-1.743 0.665-0.443 0-1.052-0.249-1.827-0.748-2.214-1.494-3.626-2.767-4.235-3.819-0.276-0.609-0.498-1.079-0.664-1.412-0.332-0.553-0.664-0.941-0.996-1.162-0.443-0.221-0.775-0.415-0.997-0.581-0.387-0.222-0.608-0.471-0.664-0.748-0.055-0.221-0.028-0.664 0.083-1.328 0.277-1.827 0.554-3.183 0.831-4.069 0.553-1.439 0.913-2.518 1.079-3.238 0.111-0.498 0.166-1.633 0.166-3.404zm-26.238-253.41c0 0.4428-0.083 0.775-0.249 0.9964-0.222 0.2768-0.554 0.4705-0.997 0.5812-6.919 2.2142-11.292 3.7364-13.119 4.5668-2.103 0.941-5.646 2.9614-10.628 6.0613-2.823 1.6606-4.843 3.2659-6.061 4.8158-0.443 0.5535-1.135 1.6883-2.076 3.4043-0.83 1.4392-1.605 2.4909-2.325 3.1552-0.11-0.0554-0.249-0.1107-0.415-0.1661-0.941-0.8856-2.906-2.6293-5.895-5.231-2.546-2.2141-4.456-4.1515-5.729-5.8122-0.166-0.2214-0.305-0.4151-0.415-0.5812 0-0.8857 0.11-1.7437 0.332-2.574 0-0.0553 0.027-0.1107 0.083-0.166 0.221-0.1107 0.47-0.2215 0.747-0.3322 4.373-1.716 9.383-3.2936 15.029-4.7328 1.494-0.3875 3.266-0.8026 5.314-1.2454 1.052-0.1108 2.269-0.2215 3.653-0.3322l9.881-0.8303c2.989-0.2214 5.203-0.4428 6.643-0.6642 2.435-0.4429 4.539-1.1071 6.31-1.9928-0.055 0.1661-0.083 0.5259-0.083 1.0794zm-95.902 40.52c0.499 0.8303 0.969 1.9374 1.412 3.3212 0.221 0.775 0.581 1.9374 1.079 3.4874 0.056 0.166 0.139 0.3598 0.249 0.5812h-2.74c-2.435 0-4.29 0.2768-5.563 0.8303-0.885 0.3321-1.66 0.858-2.325 1.5776-0.664 0.775-1.024 1.633-1.079 2.574-0.055 1.0517 0.332 2.0481 1.162 2.9891 0.775 0.8857 1.744 1.4946 2.907 1.8267 1.383 0.3875 3.653 0.4152 6.808 0.083 6.477-0.5535 12.566-0.3044 18.267 0.7473 3.764 0.6643 6.255 1.8544 7.473 3.5704 0.553 0.6643 1.135 2.1311 1.744 4.4007 1.162 4.1516 2.74 8.0264 4.732 11.624 1.384 2.491 2.796 3.9855 4.235 4.4837 1.052 0.3875 2.131 0.3321 3.238-0.166 1.107-0.4429 1.91-1.1625 2.408-2.1589 0.72-1.5499 0.554-3.8748-0.498-6.9746l-3.986-11.79c8.47 0.3321 16.69 1.2731 24.661 2.8231-1.107 4.539-3.349 8.5522-6.726 12.04-1.937 1.7714-3.376 3.0999-4.317 3.9856-1.606 1.6052-2.713 3.1552-3.322 4.6501-0.498 1.273-0.775 2.906-0.83 4.899 0 1.107 0.028 2.795 0.083 5.064-0.055 1.052-0.166 2.602-0.332 4.65-0.111 1.827 0 3.349 0.332 4.567 0.443 1.55 1.329 2.823 2.657 3.819 1.439 0.997 2.851 1.246 4.235 0.748 1.273-0.498 2.242-1.606 2.906-3.322 0.055-0.166 0.498-1.799 1.328-4.898 1.273-4.595 4.678-8.94 10.213-13.036-0.221 2.214-0.387 4.705-0.498 7.472-0.332 7.252-0.886 12.594-1.661 16.026-0.719 3.265-1.134 5.507-1.245 6.725-0.111 2.491 0.443 4.484 1.661 5.978 1.494 1.772 3.708 2.713 6.642 2.823 3.875 0.167 7.335-1.079 10.379-3.736 0.443 1.329 0.332 2.906-0.332 4.733-0.388 1.052-1.107 2.574-2.159 4.567-0.941 1.992-1.799 5.148-2.574 9.465l-1.91 11.293c-0.553 2.767-0.47 4.898 0.25 6.393 0.885 1.771 2.85 3.1 5.895 3.985 2.989 0.831 5.535 0.886 7.639 0.167 2.989-0.941 5.341-3.073 7.057-6.394 0.997-1.882 1.993-4.982 2.989-9.299 1.716 1.162 2.796 3.348 3.239 6.559 0.11 0.886 0.193 2.159 0.249 3.82 0.111 1.494 0.332 2.74 0.664 3.736 0.277 0.886 0.692 1.688 1.246 2.408h-0.25c-1.937 0.498-4.262 1.356-6.974 2.574-2.989 1.384-5.259 2.38-6.809 2.989-2.048 0.886-4.677 1.854-7.888 2.906-1.052 0.332-2.02 0.637-2.906 0.913-1.052-3.764-3.017-7.085-5.895-9.963l-1.661-1.827c-0.277-0.443-0.636-1.163-1.079-2.159 0.055-0.609 0.166-1.245 0.332-1.91 0.443-1.66 0.692-2.795 0.747-3.404 0.222-1.605 0.111-3.653-0.332-6.144-0.332-2.657-1.079-4.484-2.242-5.48-0.885-0.72-1.965-0.997-3.238-0.831s-2.325 0.665-3.155 1.495c-1.605 1.605-2.297 3.819-2.076 6.642-4.207 0.056-9.355-0.581-15.444-1.909-10.185-2.214-15.305-3.322-15.361-3.322-4.096-0.608-6.891-1.134-8.386-1.577-1.716-0.554-3.017-0.941-3.902-1.163-1.495-0.332-2.796-0.304-3.903 0.083-1.605 0.554-2.629 1.661-3.072 3.322-0.332 1.217-0.277 2.297 0.166 3.238-0.166 0.664-0.277 1.384-0.332 2.159-0.056 0.443-0.083 0.885-0.083 1.328-1.938-0.498-3.764-1.384-5.48-2.657-1.052-0.83-1.744-1.66-2.076-2.491-0.222-0.553-0.388-1.716-0.498-3.487-0.166-3.1-0.609-5.978-1.329-8.635-0.11-0.388-0.221-0.748-0.332-1.08 0-0.277-0.028-0.526-0.083-0.747-0.055-0.83-0.083-2.629-0.083-5.397 0-2.214-0.138-3.986-0.415-5.314-0.554-1.827-1.246-3.1-2.076-3.82-0.664-0.498-1.993-1.051-3.985-1.66l-7.141-1.744c-3.045-0.664-5.231-0.581-6.56 0.249-1.217 0.775-2.103 2.491-2.657 5.148-0.609 3.045-0.968 6.228-1.079 9.549-0.277-1.495-0.747-3.183-1.412-5.065-1.273-3.598-1.992-6.144-2.158-7.639-0.111-1.771-0.222-3.1-0.333-3.986-0.166-1.605-0.525-2.878-1.079-3.819-0.387-0.775-0.415-1.273-0.083-1.495 0.221-0.055 0.498-0.027 0.83 0.083 2.381 0.775 6.2 1.384 11.459 1.827 4.76 0.332 8.275 0.194 10.545-0.415 1.882-0.554 3.349-1.356 4.4-2.408 1.384-1.384 1.993-2.934 1.827-4.65-0.111-1.273-0.747-2.352-1.91-3.238-0.609-0.443-1.245-0.72-1.909-0.83v-0.083c-0.443-0.941-1.107-2.048-1.993-3.322-1.439-1.882-2.214-2.933-2.325-3.155-0.664-0.941-1.522-2.325-2.574-4.151-1.107-1.938-1.937-3.322-2.491-4.1519-0.443-0.7196-0.886-1.3562-1.328-1.9097v-0.4152c0.11-1.6606-0.388-2.9891-1.495-3.9855l1.661-2.9891c4.04 0.2214 7.998 1.2454 11.873 3.0721 1.329 0.6643 2.27 1.1071 2.823 1.3285 1.107 0.3322 2.104 0.4152 2.989 0.2491 1.273-0.2767 2.242-1.0794 2.906-2.4079 0.609-1.3285 0.72-2.6293 0.333-3.9025-0.609-2.3802-2.408-4.1792-5.398-5.397-0.996-0.4429-2.241-0.8304-3.736-1.1625-1.716-0.3321-3.017-0.6089-3.902-0.8303-8.58-1.8821-15.915-5.9229-22.004-12.123-1.052-1.0518-1.577-2.0205-1.577-2.9061 0.332-0.5536 0.692-1.1625 1.079-1.8267 0.221-0.2768 0.443-0.5259 0.664-0.7473 1.163-1.2732 1.965-2.7954 2.408-4.5668 0.166-0.6642 0.277-1.3008 0.332-1.9097 0.498-1.1624 0.941-2.1588 1.329-2.9891 4.041 0.3321 7.999 1.024 11.873 2.0758 3.654 1.0517 6.311 1.1347 7.971 0.2491zm-17.104 48.49c0.443 0.554 1.079 1.55 1.91 2.989 1.605 2.879 3.21 5.453 4.815 7.722 0.111 0.166 0.25 0.36 0.416 0.581-0.111-0.055-0.222-0.083-0.333-0.083-2.324-0.221-5.148-0.664-8.469-1.328-2.989-0.775-5.286-1.052-6.891-0.83-1.44 0.166-3.377 0.968-5.813 2.408-1.937 1.217-3.183 2.38-3.736 3.487-0.443 0.996-0.498 2.214-0.166 3.653 0.055 0.277 0.415 1.522 1.079 3.737 0.72 2.38 1.246 5.646 1.578 9.797-2.546-1.882-5.065-2.657-7.556-2.324-1.384 0.11-2.657 0.581-3.819 1.411-1.163 0.83-1.966 1.882-2.408 3.155-0.388 1.163-0.388 3.349 0 6.56 0.055 0.996 0.083 1.965 0.083 2.906-0.499-0.055-1.024 0-1.578 0.166-0.609 0.166-1.162 0.443-1.661 0.83-0.498-0.277-1.051-0.498-1.66-0.664-1.882-0.554-3.958-0.775-6.2276-0.664-1.0517-0.111-2.2695-0.028-3.6534 0.249-0.4428 0.111-0.9133 0.249-1.4115 0.415-0.1661 0-0.3321 0.028-0.4982 0.083v0.083c-1.7713 0.554-3.7918 1.412-6.0613 2.574-2.9338 1.495-5.1203 2.574-6.5595 3.238 0-0.055 0.0277-0.083 0.083-0.083 1.1625-0.553 2.9892-1.854 5.4801-3.902l6.8086-5.729c7.5836-6.311 13.313-11.874 17.188-16.69 2.878-3.487 5.757-7.666 8.635-12.538 1.716-2.878 4.124-7.334 7.224-13.368 0.277-0.498 0.498-0.941 0.664-1.328 0.498 0.166 0.913 0.277 1.246 0.332 0.775 0.166 2.269 0.249 4.483 0.249 1.827 0 3.238 0.221 4.235 0.664 0.941 0.443 1.799 1.19 2.574 2.242zm8.054 37.198c0.387-0.332 0.969-0.332 1.744 0 0.387 0.111 0.941 0.277 1.66 0.499-0.166 2.601-0.11 5.314 0.166 8.137-0.11 0.664-0.193 1.411-0.249 2.241-0.166 2.104-0.055 4.124 0.332 6.062 0.277 1.384 0.249 2.325-0.083 2.823-0.276 0.387-0.719 0.72-1.328 0.996l-0.581 0.332c-0.222-0.387-0.388-0.719-0.499-0.996-0.498-1.052-0.913-2.768-1.245-5.148-0.609-4.65-0.747-9.161-0.415-13.534 0.11-0.72 0.277-1.19 0.498-1.412zm-11.458 11.044c0.11-0.167 0.193-0.333 0.249-0.499 0.276-0.609 0.498-1.217 0.664-1.826 0.111 3.21 0.47 6.559 1.079 10.047-1.162-2.713-1.799-4.512-1.909-5.398 0-0.941-0.028-1.716-0.083-2.324zm103.04-34.957c0.498-2.546 1.384-4.954 2.657-7.224 0.277-0.498 0.526-0.941 0.747-1.328 0.222 0.111 0.415 0.194 0.581 0.249 1.55 0.609 3.322 1.052 5.314 1.329-0.221 0.221-0.415 0.442-0.581 0.664l-1.826 2.574c-1.661 2.38-2.685 4.124-3.073 5.231-0.498 2.159-1.079 3.764-1.743 4.816-0.166 0.055-0.305 0.138-0.415 0.249-0.056 0.055-0.084 0.11-0.084 0.166-0.719-0.443-1.3-0.803-1.743-1.08-0.111-0.11-0.222-0.193-0.332-0.249 0.055-2.048 0.221-3.847 0.498-5.397zm-204.92-40.021c0-0.8857 0.1107-2.1589 0.3321-3.8195l1.4116-7.3898c1.0517-0.0554 2.2695 0.1384 3.6534 0.5812 0.7749 0.2214 1.965 0.5812 3.5703 1.0794 0.8303 0.2214 2.1035 0.5259 3.8195 0.9134 1.0517 0.3874 2.574 0.9687 4.5667 1.7436 0.2768 3.8748 0.8027 7.5006 1.5776 10.877 0.1107 0.4428 0.1107 0.7473 0 0.9133-0.0553 0.2214-0.2214 0.3875-0.4982 0.4982-0.2214 0.1661-1.1901 0.7473-2.9061 1.7437-1.1624 0.7196-1.9097 1.5222-2.2418 2.4079-0.3322 0.3321-0.5259 0.4982-0.5813 0.4982-0.1107 0-0.2491-0.1384-0.4151-0.4152-0.8303-1.1624-2.2142-2.2141-4.1516-3.1552-2.4909-1.3285-3.9855-2.2141-4.4837-2.657l-2.1588-1.9097c-0.6643-0.3875-1.0518-0.6643-1.1625-0.8303-0.1107-0.1107-0.2214-0.4705-0.3321-1.0794zm-11.541 42.512c0.941 0.222 2.1311 0.747 3.5704 1.578 1.6606 0.941 2.8507 1.55 3.5703 1.826l2.1588 0.748c1.4946 0.443 2.9338 1.079 4.3177 1.909-2.4356 0.609-4.5668 1.855-6.3935 3.737-0.7196 0.83-1.2177 1.605-1.4945 2.325-0.6089 1.439-0.5259 3.1 0.2491 4.982 0.5535 1.273 1.5222 2.657 2.9061 4.151-1.3839 0.166-3.7364 0.194-7.0577 0.083-2.9891-0.166-5.314-0.083-6.9747 0.249-1.0517-2.712-1.7713-4.981-2.1588-6.808l-0.4982-2.657c-0.3875-2.879-0.2214-7.501 0.4982-13.866 1.1625 0.608 2.4079 1.024 3.7364 1.245l3.5704 0.498zm36.617 25.574c-0.4982 0-0.8027-0.028-0.9134-0.083-0.166-0.055-0.3875-0.222-0.6642-0.498l-2.8231-2.989c-0.4428-0.554-0.6089-0.969-0.4982-1.246 0.0553-0.055 0.2491-0.277 0.5812-0.664 1.2178-0.886 2.9892-1.855 5.314-2.906 2.8231-1.329 4.6498-2.242 5.4801-2.74 1.6053-0.941 3.8472-2.63 6.7256-5.065l2.1588-2.076c0.5536-0.554 0.8857-0.858 0.9964-0.913l1.6606-0.083 0.6643 0.083c0.2214 0.11 0.4982 0.387 0.8303 0.83 1.6606 2.768 3.6534 4.594 5.9783 5.48-0.8857 0.554-2.5463 1.771-4.9819 3.653-2.1035 1.55-3.8195 2.713-5.148 3.488-0.8856 0.553-2.2695 1.273-4.1516 2.159-3.9855 1.882-7.7219 3.072-11.209 3.57zm24.328-27.733c0.3322-0.11 0.6366-0.276 0.9134-0.498 0.6089-0.387 1.3562-1.19 2.2418-2.408 1.1071-1.439 2.3249-2.74 3.6534-3.902 0.6089-0.498 1.1625-0.941 1.6607-1.329v1.246c0.1107 1.273 0.3598 3.183 0.7473 5.729 0.2214 2.159-0.1107 3.875-0.9964 5.148-0.8857 1.107-1.799 1.55-2.7401 1.328-0.3874-0.11-0.8856-0.47-1.4945-1.079l-3.9856-4.235zm35.952 35.455c0.166-2.325 0.332-4.124 0.498-5.397 1.218 1.494 2.574 2.823 4.069 3.985-0.387 0.222-0.803 0.471-1.245 0.748-0.388 0.276-0.775 0.581-1.163 0.913-0.387-0.111-0.803-0.194-1.245-0.249h-0.914zm6.975 9.216c0.111-0.11 0.553-0.47 1.328-1.079 1.55 3.986 2.436 6.615 2.657 7.888 0 0.111 0.166 1.495 0.499 4.152 0.055 0.553 0.11 1.107 0.166 1.66-0.056 0.111-0.111 0.222-0.166 0.332-0.056 0.222-0.111 0.415-0.166 0.582-1.384-3.045-2.962-6.781-4.733-11.21-0.222-0.553-0.305-0.996-0.249-1.328 0.055-0.388 0.276-0.72 0.664-0.997zm-7.556 11.376 3.819 9.05c0.72 1.661 1.357 2.768 1.91 3.321 0.111 0.111 0.249 0.222 0.415 0.333-0.332 0.885-0.775 1.965-1.328 3.238-0.443-0.166-0.83-0.332-1.163-0.498-1.439-0.665-3.182-1.689-5.231-3.073-2.823-1.882-4.539-2.989-5.148-3.321 2.27-2.159 4.373-4.954 6.311-8.386 0.111-0.221 0.249-0.443 0.415-0.664zm-7.39-8.054-0.249 0.581v-0.664c0.055 0.055 0.139 0.083 0.249 0.083zm-18.184 47.079c0.3321-0.72 0.6919-1.274 1.0794-1.661 0.3875-0.443 1.6606-1.273 3.8194-2.491 1.6607-1.107 2.4633-2.325 2.408-3.653 1.9369 0.719 4.5109 1.19 7.7219 1.411 0.554 0.056 1.079 0.083 1.578 0.083-3.875 2.104-7.473 5.065-10.794 8.885-0.6643 0.885-1.3008 1.3-1.9097 1.245-0.4982-0.055-1.0794-0.47-1.7437-1.245-0.7196-0.831-1.5499-1.467-2.4909-1.91 0.1107-0.222 0.2214-0.443 0.3321-0.664zm-15.195 26.653c0.9964-2.657 1.6883-4.65 2.0758-5.978 0.0553-0.167 0.1107-0.36 0.166-0.582 1.55 0.443 3.0445 0.665 4.4838 0.665h0.8303c0.1107 0.11 0.2214 0.249 0.3321 0.415 0.5535 0.609 1.3285 1.217 2.3249 1.826 0.6089 0.388 1.4946 0.886 2.657 1.495 1.2178 0.72 2.0204 1.495 2.4079 2.325 0.2768 0.775 0.3321 1.633 0.1661 2.574-0.3875 2.214-1.9098 4.594-4.5668 7.141-4.4283 4.262-9.5763 7.5-15.444 9.714-0.5535 0.222-0.9963 0.277-1.3285 0.166-0.7749-0.221-1.0517-0.941-0.8303-2.158 0.1661-0.665 0.5536-1.412 1.1625-2.242 0.3321-0.443 0.858-1.107 1.5776-1.993 1.1071-1.495 1.9374-3.626 2.4909-6.394 0.8857-4.262 1.3839-6.587 1.4946-6.974zm50.566-27.899c0.332-0.387 0.609-0.802 0.83-1.245 1.661 0.276 3.82 0.553 6.477 0.83 3.487 0.387 6.033 0.747 7.638 1.079 2.657 0.499 7.695 2.049 15.112 4.65 6.255 2.159 11.348 3.349 15.278 3.571 3.1 0.11 5.203-0.554 6.31-1.993 1.218-1.55 1.329-3.294 0.333-5.231-0.665-1.439-1.91-2.768-3.737-3.986-1.993-1.218-4.816-2.463-8.469-3.736l-23.996-8.635c-2.989-1.108-5.868-2.104-8.636-2.99 0.388-0.775 0.748-1.66 1.08-2.657 0.775-2.214 1.356-4.4 1.744-6.559 0.332-1.771 0.498-2.712 0.498-2.823 0.277-1.107 0.636-1.993 1.079-2.657 0.83-1.218 2.463-2.436 4.899-3.654l9.05-4.649c1.108-0.388 1.8-0.554 2.076-0.499 0.498 0.111 1.08 0.499 1.744 1.163 3.709 3.432 7.916 5.563 12.621 6.393 3.21 0.554 5.591 0.083 7.14-1.411 0.886-0.775 1.357-1.799 1.412-3.072 0.664-0.72 1.107-1.606 1.329-2.657 0.11-0.443 0.138-1.08 0.083-1.91v-0.581c3.93 0.885 7.805 1.577 11.624 2.075-0.554 0.609-0.886 1.384-0.996 2.325-0.056 0.831 0.11 1.661 0.498 2.491 0.498 1.218 1.633 2.491 3.404 3.82 2.325 1.716 3.654 2.767 3.986 3.155 0.332 0.332 0.885 0.996 1.66 1.993 0.665 0.885 1.218 1.55 1.661 1.992 1.882 1.661 4.373 2.381 7.473 2.159 1.771-0.055 4.4-0.415 7.888-1.079 0.885-0.111 2.214-0.249 3.985-0.415 1.606-0.166 2.934-0.415 3.986-0.748 0.332-0.11 0.636-0.221 0.913-0.332 0.222 0.166 0.443 0.36 0.664 0.582 1.44 1.66 2.464 3.57 3.073 5.729-5.979 2.435-13.728 6.172-23.249 11.209-4.041 2.159-6.947 3.792-8.719 4.899-3.155 1.993-5.756 4.041-7.805 6.144-2.601 2.602-3.487 4.982-2.657 7.141 0.886 2.103 3.128 3.21 6.726 3.321 1.771 0.056 3.598-0.028 5.48-0.249-1.162 0.609-2.214 1.246-3.155 1.91-2.602 1.827-5.065 4.262-7.39 7.307l-0.498-0.831c-0.83-1.162-2.104-2.186-3.82-3.072-1.937-0.996-4.345-1.688-7.223-2.076-1.44-0.221-3.598-0.387-6.477-0.498-8.635-0.443-15.112-0.526-19.429-0.249l-5.812 0.498c-3.322 0.388-5.453 0.692-6.394 0.914-2.657 0.83-4.65 1.383-5.978 1.66-0.443-0.498-0.997-0.885-1.661-1.162-1.162-0.609-2.518-0.775-4.068-0.498-1.163 0.221-2.491 0.664-3.986 1.328 0.886-1.218 1.827-2.408 2.823-3.57 1.107-1.163 1.855-2.048 2.242-2.657 0.72-1.052 1.052-2.104 0.996-3.156-0.055-0.941-0.442-1.826-1.162-2.657-0.664-0.774-1.467-1.328-2.408-1.66-1.55-0.554-3.515-0.664-5.895-0.332 0.332-0.665 1.024-1.19 2.076-1.578 0.608-0.166 1.522-0.415 2.74-0.747 1.162-0.332 2.158-0.941 2.989-1.827zm-25.242 32.964h0.332c-0.332 0.553-0.609 1.162-0.83 1.826 0.166-0.608 0.332-1.217 0.498-1.826zm18.35-0.249c0.055 0.332 0.111 0.636 0.166 0.913l1.495 4.235c0.885 2.324 1.467 4.262 1.743 5.812 0.222 1.218 0.526 2.989 0.914 5.314 0.166 0.498 0.387 0.969 0.664 1.411 0.055 0.388 0.166 0.803 0.332 1.246 0.111 0.166 0.194 0.332 0.249 0.498-1.771 0.221-3.238 0.388-4.4 0.498-0.222-0.332-0.471-0.609-0.748-0.83-0.775-0.664-1.633-1.107-2.574-1.329-1.384-4.705-1.19-9.299 0.582-13.783 0.498-1.052 0.83-1.827 0.996-2.325 0.277-0.609 0.47-1.162 0.581-1.66zm-19.844 15.527h-0.083c-1.2183 0.498-2.0486 1.439-2.4914 2.823-0.4982 1.383-0.4152 2.657 0.2491 3.819 0.6642 1.329 2.4633 2.574 5.3973 3.736 1.826 0.72 3.542 1.357 5.148 1.91-0.665 1.107-1.218 1.938-1.661 2.491-0.609 0.831-1.522 1.744-2.74 2.74-1.716 1.329-2.74 2.159-3.072 2.491-2.4911 2.27-3.4598 4.539-2.9062 6.809-1.3839 0.387-3.4597 0.249-6.2274-0.415-2.8785-0.72-4.9819-0.941-6.3104-0.665l-1.6607-13.866c-0.3321-2.934-0.9687-4.982-1.9097-6.144 4.2623-2.491 7.5005-4.65 9.7147-6.477 1.6053-1.328 3.0445-2.684 4.3177-4.068l1.6606 0.913c0.6642 0.388 1.0794 0.692 1.2455 0.913l0.9959 1.495c0.111 0.498 0.222 0.996 0.333 1.495zm157.93-57.126c0.885 0.277 1.55 0.636 1.993 1.079 0.608 0.609 1.134 1.605 1.577 2.989 1.495 3.986 2.187 7.196 2.076 9.632-0.055 0.387-0.138 0.969-0.249 1.744-2.38-1.052-4.484-1.855-6.311-2.408-3.321-1.052-8.552-1.91-15.693-2.574-6.421-0.554-11.209-0.609-14.364-0.166-0.111 0-0.249 0.027-0.415 0.083 3.543-1.772 6.532-3.155 8.967-4.152 2.879-1.107 8.11-2.74 15.693-4.899 1.55-0.443 3.46-0.996 5.729-1.66 0.277 0.055 0.609 0.166 0.997 0.332zm-54.22 35.122c4.761-0.996 8.691-1.965 11.791-2.906 3.321-0.996 5.673-1.993 7.057-2.989 2.436-1.827 3.654-3.986 3.654-6.477l19.927-0.581c1.495-0.11 2.74-0.027 3.737 0.249 1.328 0.388 2.242 1.135 2.74 2.242 0.166 0.498 0.249 1.218 0.249 2.159 0 5.757-0.554 11.541-1.661 17.354-0.443 2.712-0.692 4.428-0.747 5.148-0.166 1.937 0 3.598 0.498 4.981 0.277 0.775 0.36 1.329 0.249 1.661-0.166 0.388-0.692 0.747-1.577 1.08-2.215 0.719-6.338 1.549-12.372 2.49-4.207 0.72-7.528 1.135-9.964 1.246-3.709 0.221-7.03 0.028-9.964-0.581-1.494-0.332-3.708-1.052-6.642-2.159-2.879-1.052-5.093-1.771-6.643-2.159-2.878-0.498-5.009-0.941-6.393-1.328-2.38-0.609-4.207-1.578-5.48-2.907 3.819-1.549 6.172-5.258 7.057-11.126 0.222-2.048 0.665-3.404 1.329-4.068 0.498-0.499 1.55-0.941 3.155-1.329zm-65.761 3.072-0.249-0.249 12.372-0.83c7.583-0.443 13.728-0.581 18.433-0.415 0.498 0.11 0.996 0.221 1.494 0.332 1.107 0.111 2.27 0.277 3.488 0.498-2.215 3.432-4.456 6.006-6.726 7.722-2.159 1.661-5.037 3.211-8.635 4.65-4.207 1.55-7.335 2.74-9.383 3.57-4.816 2.436-8.469 4.096-10.96 4.982-0.664 0.221-1.467 0.471-2.408 0.747-0.166-0.719-0.387-1.356-0.664-1.909 0.055-0.443 0.111-0.886 0.166-1.329 1.771-0.055 3.183-0.969 4.234-2.74 0.222-0.387 0.443-0.83 0.665-1.328 0.332-0.775 0.609-1.689 0.83-2.74 0.388-1.716 0.554-3.156 0.498-4.318-0.166-2.38-1.218-4.595-3.155-6.643zm43.177 15.776c2.712 3.377 4.539 5.453 5.48 6.228 1.882 1.55 4.428 2.823 7.639 3.819 1.826 0.554 4.649 1.246 8.469 2.076 1.162 0.277 3.542 1.024 7.14 2.242 2.99 0.941 5.398 1.577 7.224 1.91 3.045 0.553 6.532 0.719 10.462 0.498 0.941-0.056 2.076-0.139 3.405-0.249-0.277 0.332-0.526 0.692-0.748 1.079l-1.162 2.823c-0.775 1.993-2.048 3.986-3.82 5.978-1.162 1.274-2.933 2.934-5.314 4.982-1.273-2.269-3.266-3.93-5.978-4.982-2.602-1.051-5.259-1.328-7.971-0.83-5.037 0.941-9.3 4.013-12.787 9.217-5.701-5.259-11.375-9.521-17.021-12.787-3.82-2.214-6.145-3.654-6.975-4.318-1.384-1.218-2.463-2.131-3.238-2.74-1.273-0.996-2.491-1.605-3.654-1.827-3.155-0.609-6.753 1.357-10.794 5.896l-4.4 4.898c-0.333 0.443-0.692 0.775-1.08 0.997-0.609 0.332-1.605 0.249-2.989-0.249-5.093-1.882-9.936-4.484-14.531-7.805 3.875-0.554 7.252-1.301 10.13-2.242 2.104-0.609 4.816-1.633 8.137-3.072l13.036-5.397c4.982-2.104 8.608-3.903 10.878-5.397 2.823-1.882 5.424-4.235 7.805-7.058-0.111 0.775-0.084 1.495 0.083 2.159 0.221 0.941 1.079 2.325 2.574 4.151zm1.411 68.917c-0.277 0.553-0.581 1.134-0.913 1.743-0.056-0.055-0.111-0.055-0.166 0l-1.163 2.076c-0.443 0.554-0.885 1.135-1.328 1.744-0.831 1.218-1.689 2.186-2.574 2.906l-0.166 0.166c-0.056-0.166-0.083-0.305-0.083-0.415 0.166-0.388 0.332-0.775 0.498-1.163 0.443-1.107 0.47-2.491 0.083-4.151-0.554-1.827-0.886-3.211-0.997-4.152-0.11-0.719-0.166-1.799-0.166-3.238v-5.48-0.498c2.104 2.878 4.595 6.116 7.473 9.714-0.166 0.222-0.332 0.471-0.498 0.748zm40.021-92.415-0.332 1.578-0.747 1.495c-0.443 0.885-0.664 1.965-0.664 3.238-0.277 4.705 0.609 9.216 2.657 13.534 0.941 2.103 2.048 3.515 3.321 4.235 1.384 0.719 3.017 0.885 4.899 0.498 2.823-0.443 5.369-1.606 7.639-3.488 2.325-1.882 3.958-4.179 4.899-6.891 0.442-1.273 0.885-3.183 1.328-5.729 0.443-2.823 0.498-4.927 0.166-6.311-0.332-1.273-0.885-2.518-1.66-3.736-1.44-2.048-2.962-3.238-4.567-3.571-0.72-0.166-2.27-0.055-4.65 0.333-3.155 0.276-5.508 0.581-7.058 0.913-1.328 0.277-2.408 0.692-3.238 1.245-1.052 0.665-1.716 1.55-1.993 2.657z" fill="#1c131e"/>
<path d="m100.88 260.97h0.083c-0.111-0.499-0.222-0.997-0.333-1.495l-0.9959-1.495c-0.1661-0.221-0.5812-0.525-1.2455-0.913l-1.6606-0.913c-1.2732 1.384-2.7124 2.74-4.3176 4.068-2.2142 1.827-5.4525 3.986-9.7148 6.477 0.9411 1.162 1.5777 3.21 1.9098 6.144l1.6606 13.866c1.3285-0.276 3.432-0.055 6.3104 0.665 2.7677 0.664 4.8435 0.802 6.2274 0.415-0.5536-2.27 0.4152-4.539 2.9062-6.809 0.332-0.332 1.356-1.162 3.072-2.491 1.218-0.996 2.131-1.909 2.74-2.74 0.443-0.553 0.997-1.384 1.661-2.491-1.606-0.553-3.322-1.19-5.148-1.909-2.934-1.163-4.733-2.408-5.3973-3.737-0.6642-1.162-0.7473-2.435-0.2491-3.819 0.4429-1.384 1.2732-2.325 2.4914-2.823zm-21.672-26.321c-0.3875 1.328-1.0794 3.321-2.0758 5.978-0.1107 0.387-0.6089 2.712-1.4945 6.974-0.5536 2.768-1.3839 4.899-2.491 6.394-0.7196 0.886-1.2455 1.55-1.5776 1.993-0.6089 0.83-0.9964 1.577-1.1624 2.242-0.2215 1.217 0.0553 1.937 0.8303 2.158 0.3321 0.111 0.7749 0.056 1.3285-0.166 5.8676-2.214 11.016-5.452 15.444-9.714 2.657-2.547 4.1792-4.927 4.5667-7.141 0.1661-0.941 0.1107-1.799-0.166-2.574-0.3875-0.83-1.1902-1.605-2.408-2.325-1.1624-0.609-2.0481-1.107-2.657-1.495-0.9964-0.609-1.7713-1.217-2.3249-1.826-0.1107-0.166-0.2214-0.305-0.3321-0.415h-0.8303c-1.4392 0-2.9338-0.222-4.4837-0.665-0.0554 0.222-0.1107 0.415-0.1661 0.582zm14.198-22.336c-0.3874 0.387-0.7473 0.941-1.0794 1.661-0.1107 0.221-0.2214 0.442-0.3321 0.664 0.941 0.443 1.7713 1.079 2.4909 1.91 0.6643 0.775 1.2455 1.19 1.7437 1.245 0.6089 0.055 1.2455-0.36 1.9097-1.245 3.3215-3.82 6.9195-6.781 10.794-8.885-0.499 0-1.024-0.027-1.578-0.083-3.21-0.221-5.784-0.692-7.7219-1.411 0.0554 1.328-0.7473 2.546-2.4079 3.653-2.1588 1.218-3.432 2.048-3.8195 2.491zm28.314-28.314-3.82-9.05c-0.166 0.221-0.304 0.443-0.415 0.664-1.937 3.432-4.041 6.227-6.31 8.386 0.608 0.332 2.324 1.439 5.147 3.321 2.049 1.384 3.792 2.408 5.231 3.073 0.333 0.166 0.72 0.332 1.163 0.498 0.553-1.273 0.996-2.353 1.328-3.238-0.166-0.111-0.304-0.222-0.415-0.333-0.553-0.553-1.19-1.66-1.909-3.321zm-2.741-35.039c-0.166 1.273-0.332 3.072-0.498 5.397h0.914c0.442 0.055 0.858 0.138 1.245 0.249 0.388-0.332 0.775-0.637 1.163-0.913 0.442-0.277 0.858-0.526 1.245-0.748-1.495-1.162-2.851-2.491-4.069-3.985zm16.275 4.068c-0.056 0.166-0.139 0.332-0.249 0.499 0.055 0.608 0.083 1.383 0.083 2.324 0.11 0.886 0.747 2.685 1.909 5.398-0.609-3.488-0.968-6.837-1.079-10.047-0.166 0.609-0.388 1.217-0.664 1.826zm21.671-92.912c-0.443-1.3838-0.913-2.4909-1.412-3.3212-1.66 0.8856-4.317 0.8026-7.971-0.2491-3.874-1.0518-7.832-1.7437-11.873-2.0758-0.388 0.8303-0.83 1.8267-1.329 2.9891-0.055 0.6089-0.166 1.2455-0.332 1.9097-0.443 1.7714-1.245 3.2936-2.408 4.5668-0.221 0.2214-0.443 0.4705-0.664 0.7473-0.387 0.6642-0.747 1.2731-1.079 1.8267 0 0.8856 0.526 1.8543 1.577 2.9061 6.089 6.1997 13.424 10.24 22.004 12.123 0.885 0.2214 2.186 0.4982 3.902 0.8303 1.495 0.3321 2.74 0.7196 3.737 1.1625 2.989 1.2178 4.788 3.0168 5.397 5.397 0.387 1.2732 0.276 2.574-0.333 3.9025-0.664 1.3285-1.632 2.1311-2.906 2.4079-0.885 0.1661-1.882 0.0831-2.989-0.2491-0.553-0.2214-1.494-0.6642-2.823-1.3285-3.875-1.8267-7.832-2.8507-11.873-3.0721l-1.661 2.9891c1.107 0.9964 1.605 2.3249 1.495 3.9855v0.4152c0.442 0.5535 0.885 1.1901 1.328 1.9097 0.554 0.8299 1.384 2.2139 2.491 4.1519 1.052 1.826 1.91 3.21 2.574 4.151 0.111 0.222 0.886 1.273 2.325 3.155 0.886 1.274 1.55 2.381 1.993 3.322v0.083c0.664 0.11 1.3 0.387 1.909 0.83 1.163 0.886 1.799 1.965 1.91 3.238 0.166 1.716-0.443 3.266-1.827 4.65-1.051 1.052-2.518 1.854-4.4 2.408-2.27 0.609-5.785 0.747-10.545 0.415-5.259-0.443-9.078-1.052-11.459-1.827-0.332-0.11-0.609-0.138-0.83-0.083-0.332 0.222-0.304 0.72 0.083 1.495 0.554 0.941 0.913 2.214 1.079 3.819 0.111 0.886 0.222 2.215 0.333 3.986 0.166 1.495 0.885 4.041 2.158 7.639 0.665 1.882 1.135 3.57 1.412 5.065 0.111-3.321 0.47-6.504 1.079-9.549 0.554-2.657 1.44-4.373 2.657-5.148 1.329-0.83 3.515-0.913 6.56-0.249l7.141 1.744c1.992 0.609 3.321 1.162 3.985 1.66 0.83 0.72 1.522 1.993 2.076 3.82 0.277 1.328 0.415 3.1 0.415 5.314 0 2.768 0.028 4.567 0.083 5.397 0.055 0.221 0.083 0.47 0.083 0.747 0.111 0.332 0.222 0.692 0.332 1.08 0.72 2.657 1.163 5.535 1.329 8.635 0.11 1.771 0.277 2.934 0.498 3.487 0.332 0.831 1.024 1.661 2.076 2.491 1.716 1.273 3.542 2.159 5.48 2.657 0-0.443 0.028-0.885 0.083-1.328 0.055-0.775 0.166-1.495 0.332-2.159-0.443-0.941-0.498-2.021-0.166-3.238 0.443-1.661 1.467-2.768 3.072-3.322 1.107-0.387 2.408-0.415 3.903-0.083 0.885 0.222 2.186 0.609 3.902 1.163 1.495 0.443 4.29 0.969 8.386 1.577 0.056 0 5.176 1.108 15.361 3.322 6.089 1.328 11.237 1.965 15.444 1.909-0.221-2.823 0.471-5.037 2.076-6.642 0.83-0.83 1.882-1.329 3.155-1.495s2.353 0.111 3.238 0.831c1.163 0.996 1.91 2.823 2.242 5.48 0.443 2.491 0.554 4.539 0.332 6.144-0.055 0.609-0.304 1.744-0.747 3.404-0.166 0.665-0.277 1.301-0.332 1.91 0.443 0.996 0.802 1.716 1.079 2.159l1.661 1.827c2.878 2.878 4.843 6.199 5.895 9.963 0.886-0.276 1.854-0.581 2.906-0.913 3.211-1.052 5.84-2.02 7.888-2.906 1.55-0.609 3.82-1.605 6.809-2.989 2.712-1.218 5.037-2.076 6.974-2.574h0.25c-0.554-0.72-0.969-1.522-1.246-2.408-0.332-0.996-0.553-2.242-0.664-3.736-0.055-1.661-0.139-2.934-0.249-3.82-0.443-3.211-1.522-5.397-3.238-6.559-0.997 4.317-1.993 7.417-2.99 9.299-1.716 3.321-4.068 5.453-7.057 6.394-2.104 0.719-4.65 0.664-7.639-0.167-3.045-0.885-5.01-2.214-5.895-3.985-0.72-1.495-0.803-3.626-0.25-6.393l1.91-11.293c0.775-4.317 1.633-7.473 2.574-9.465 1.052-1.993 1.772-3.515 2.159-4.567 0.664-1.827 0.775-3.404 0.332-4.733-3.044 2.657-6.504 3.903-10.379 3.736-2.934-0.11-5.148-1.051-6.642-2.823-1.218-1.494-1.772-3.487-1.661-5.978 0.111-1.218 0.526-3.46 1.245-6.725 0.775-3.432 1.329-8.774 1.661-16.026 0.111-2.767 0.277-5.258 0.498-7.472-5.535 4.096-8.939 8.441-10.213 13.036-0.83 3.099-1.273 4.732-1.328 4.898-0.664 1.716-1.633 2.824-2.906 3.322-1.384 0.498-2.796 0.249-4.235-0.748-1.328-0.996-2.214-2.269-2.657-3.819-0.332-1.218-0.443-2.74-0.332-4.567 0.166-2.048 0.277-3.598 0.332-4.65-0.055-2.269-0.083-3.957-0.083-5.064 0.055-1.993 0.332-3.626 0.83-4.899 0.609-1.4949 1.716-3.0449 3.322-4.6501 0.941-0.8857 2.38-2.2142 4.317-3.9856 3.377-3.4873 5.619-7.5005 6.726-12.04-7.971-1.55-16.191-2.491-24.661-2.8231l3.986 11.79c1.052 3.0998 1.218 5.4247 0.498 6.9746-0.498 0.9964-1.301 1.716-2.408 2.1589-1.107 0.4982-2.186 0.5535-3.238 0.166-1.439-0.4982-2.851-1.9927-4.235-4.4837-1.992-3.598-3.57-7.4728-4.732-11.624-0.609-2.2696-1.19-3.7364-1.744-4.4007-1.218-1.716-3.709-2.9061-7.473-3.5704-5.701-1.0517-11.79-1.3008-18.267-0.7473-3.155 0.3322-5.425 0.3045-6.808-0.083-1.163-0.3321-2.132-0.941-2.907-1.8267-0.83-0.941-1.217-1.9374-1.162-2.9891 0.055-0.941 0.415-1.799 1.079-2.574 0.665-0.7196 1.44-1.2455 2.325-1.5776 1.273-0.5535 3.128-0.8303 5.563-0.8303h2.74c-0.11-0.2214-0.193-0.4152-0.249-0.5812-0.498-1.55-0.858-2.7124-1.079-3.4874zm94.241-42.844c0.166-0.2214 0.249-0.5536 0.249-0.9964 0-0.5535 0.028-0.9133 0.083-1.0794-1.771 0.8857-3.875 1.5499-6.31 1.9928-1.44 0.2214-3.654 0.4428-6.643 0.6642l-9.881 0.8303c-1.384 0.1107-2.601 0.2214-3.653 0.3322-2.048 0.4428-3.82 0.8579-5.314 1.2454-5.646 1.4392-10.656 3.0168-15.029 4.7328-0.277 0.1107-0.526 0.2214-0.747 0.3322-0.055 0.0553-0.083 0.1107-0.083 0.166-0.222 0.8303-0.332 1.6883-0.332 2.574 0.11 0.1661 0.249 0.3598 0.415 0.5812 1.273 1.6607 3.183 3.5981 5.729 5.8122 2.989 2.6017 4.954 4.3454 5.895 5.231 0.166 0.0554 0.305 0.1107 0.415 0.1661 0.72-0.6643 1.495-1.716 2.325-3.1552 0.941-1.716 1.633-2.8508 2.076-3.4043 1.218-1.5499 3.238-3.1552 6.061-4.8158 4.982-3.0999 8.525-5.1203 10.629-6.0614 1.826-0.8303 6.199-2.3525 13.119-4.5667 0.442-0.1107 0.774-0.3044 0.996-0.5812zm26.653 251c-0.221 0.332-0.277 0.803-0.166 1.412 0 1.771-0.055 2.906-0.166 3.404-0.166 0.72-0.526 1.799-1.079 3.238-0.277 0.886-0.554 2.242-0.831 4.069-0.11 0.664-0.138 1.107-0.083 1.328 0.056 0.277 0.277 0.526 0.664 0.748 0.222 0.166 0.554 0.36 0.997 0.581 0.332 0.221 0.664 0.609 0.996 1.162 0.166 0.333 0.388 0.803 0.664 1.412 0.609 1.052 2.021 2.325 4.235 3.819 0.775 0.499 1.384 0.748 1.827 0.748 0.11 0 0.692-0.222 1.743-0.665 0.72-0.387 1.855-0.691 3.405-0.913 0.11-1.882 0.055-3.266-0.166-4.151l-0.415-1.329c-0.111-1.605-0.25-2.795-0.416-3.57 0-0.111-0.249-0.886-0.747-2.325-0.277-0.886-0.443-1.356-0.498-1.412-0.498-0.719-0.83-1.301-0.997-1.743-0.055-1.108-0.193-1.91-0.415-2.408-0.11-0.332-0.415-0.748-0.913-1.246-0.941-0.83-1.661-1.439-2.159-1.827-0.83-0.774-1.384-1.494-1.66-2.158l-2.824 1.162c-0.553 0.277-0.885 0.498-0.996 0.664zm47.743-55.05 3.239-2.491c0.442-0.442 1.107-1.134 1.992-2.075 0.72-0.665 1.633-1.218 2.74-1.661 0.72-0.221 1.107-0.526 1.163-0.913-0.222-0.665-0.305-1.163-0.249-1.495-1.495 0.72-3.432 1.439-5.813 2.159-1.716 0.443-3.099 0.719-4.151 0.83l-13.368 0.083c0 0.554 0.304 1.356 0.913 2.408l0.498 1.91 3.986 10.047c0.111 0.221 0.221 0.332 0.332 0.332 0.166 0.055 0.304 0.028 0.415-0.083 0.222-0.222 0.443-0.554 0.664-0.997 0.166-0.498 0.305-0.885 0.416-1.162 0.166-0.277 0.636-0.886 1.411-1.827 1.827-1.771 3.764-3.459 5.812-5.065zm-51.728 10.711c1.992 1.274 3.542 2.574 4.649 3.903 2.823 3.487 4.041 8.22 3.654 14.198-0.111 2.104-0.415 4.041-0.914 5.813 3.875-4.484 7.141-9.438 9.798-14.863 1.329-2.712 1.799-4.899 1.412-6.56-0.443-1.771-2.215-3.681-5.314-5.729l-13.119-8.469c0.609 2.768 0.775 5.591 0.498 8.469-0.166 1.218-0.388 2.297-0.664 3.238zm-0.914-25.407c0.831 0.498 1.578 0.968 2.242 1.411 1.882 1.218 4.594 3.239 8.137 6.062 3.155 2.38 6.477 4.4 9.964 6.061 1.107-5.093 0.664-10.047-1.329-14.863-1.273-2.657-2.241-4.65-2.906-5.978-0.166-0.388-0.304-0.747-0.415-1.079-1.827 1.162-3.238 2.048-4.234 2.657-2.049 1.328-3.82 2.38-5.314 3.155-1.55 0.775-3.598 1.633-6.145 2.574z" fill="#FBCDA4"/>
</svg>
