<?xml version="1.0" encoding="UTF-8"?>
<svg viewBox="0 0 351 354" xmlns="http://www.w3.org/2000/svg">
<path d="m236.25 261.53c-1.479 2.535-2.483 4.147-3.011 4.833-1.215 1.744-2.536 3.012-3.962 3.804-0.476 0.264-0.951 0.502-1.427 0.713-0.687 1.321-1.241 2.377-1.664 3.17-2.43 4.754-5.256 7.95-8.479 9.588-2.007 1.004-4.147 1.321-6.418 0.951-0.211-0.053-0.423-0.079-0.634-0.079-0.159 0.898-0.343 2.166-0.555 3.803-0.317 2.166-0.449 3.936-0.396 5.309 0.053 1.691 0.343 3.645 0.872 5.864 0.105 0.317 0.211 0.687 0.317 1.11 0.211 0.845 0.475 1.848 0.792 3.011 0.528 0.686 1.162 1.347 1.902 1.981 0.951 0.898 2.403 2.218 4.358 3.962 0.528 0.528 1.03 1.083 1.506 1.664 0.951 0.581 1.69 1.004 2.218 1.268 0.106 0.053 0.212 0.105 0.317 0.158 0.37 0.159 0.793 0.344 1.268 0.555l8.954 1.902c1.163 0.264 2.298 0.501 3.408 0.713 0.898 0.211 1.796 0.422 2.694 0.634 2.483-0.053 4.834 0.37 7.053 1.268 0.422 0.211 1.082 0.501 1.981 0.871 1.162 0.317 2.298 0.634 3.407 0.951 0.475 0 1.03 0.027 1.664 0.079 1.068 0 1.887 0.027 2.456 0.08 0.039-0.709 0.039-1.502 0-2.378-0.158-3.011-0.607-7.686-1.347-14.025-0.686-6.128-1.109-10.803-1.268-14.026-0.097-1.129-0.203-2.106-0.316-2.932-0.293-0.142-0.583-0.3-0.872-0.475-1.743-1.11-3.143-2.959-4.2-5.547-1.004-3.17-1.796-5.521-2.377-7.053-0.845-2.377-2.166-4.965-3.962-7.765-0.317-0.581-1.479-2.325-3.487-5.23-0.317 0.475-0.581 0.898-0.792 1.268zm-115.85 18.384-6.973 8.161c-2.219 2.642-3.935 4.57-5.151 5.785-2.588 2.641-4.516 4.675-5.784 6.102l-2.06 2.218c-0.027 0.795-0.054 1.614-0.08 2.457 0 1.902-0.026 4.781-0.079 8.637 0 2.325 0.027 3.804 0.079 4.438 0.053 0.422 0.106 0.818 0.159 1.188-0.053 3.011 0.37 5.309 1.268 6.894 0.208 0.378 0.446 0.722 0.713 1.03 1.414-0.797 3.289-1.352 5.626-1.664 1.321-0.158 3.355-0.37 6.102-0.634 3.275-0.581 6.761-2.034 10.459-4.358 0.687-0.423 1.664-1.083 2.932-1.981 0.898-0.687 1.981-1.479 3.249-2.377 0.951-0.74 2.008-1.532 3.17-2.377 0.37-0.265 0.713-0.529 1.03-0.793 2.272-1.743 4.622-3.434 7.052-5.071 1.215-1.215 2.853-2.351 4.913-3.408 4.121-2.06 8.057-3.328 11.807-3.803 0.423-0.264 0.819-0.502 1.189-0.713 1.638-0.951 2.826-1.744 3.566-2.378 1.215-1.003 2.06-2.06 2.535-3.169 0.423-1.057 0.608-2.351 0.555-3.883-0.053-0.74-0.106-1.4-0.158-1.981l-9.351-10.222c-0.211 0.898-0.845 1.954-1.902 3.169-1.215 1.48-1.981 2.536-2.298 3.17-0.528 1.109-0.95 2.906-1.267 5.389-0.582 2.113-1.876 3.777-3.883 4.992-1.955 1.268-4.015 1.743-6.181 1.426-1.796-0.264-3.592-1.083-5.388-2.456-0.951-0.74-2.457-2.14-4.517-4.2-3.275-3.381-6.868-6.789-10.777-10.222-0.158 0.211-0.343 0.422-0.555 0.634zm-64.74-234.71c-0.2113-0.2113-0.9773-0.766-2.298-1.664-0.7924-0.5811-1.3999-1.0302-1.8225-1.3471-0.7396-0.4226-1.4264-0.7132-2.0603-0.8717-0.8452-0.2113-2.1395-0.1056-3.8828 0.317-5.2828 1.3207-8.5316 3.3017-9.7467 5.9431 8.5052 5.9166 14.475 9.9579 17.908 12.124 0.7396-0.5283 1.3207-1.6113 1.7433-3.2489l1.5056-6.0223c0.317-1.3207 0.3962-2.3245 0.2377-3.0112-0.2113-0.7924-0.7396-1.532-1.5848-2.2188zm89.384 51.348c-4.701-3.1697-9.878-6.0488-15.531-8.6373-5.864-2.6414-10.988-4.0677-15.373-4.279-2.747-0.1585-6.867 0.2377-12.361 1.1886l-42.315 7.6864c-7.66 1.3206-13.075 2.2187-16.244 2.6942-6.0752 0.8452-11.543 1.2942-16.403 1.3471-0.2641 2.1131-0.898 3.9882-1.9017 5.6262 1.3206 0.845 3.0904 2.905 5.3091 6.181 1.9546 2.905 3.83 4.701 5.6261 5.388 0.9509 0.37 2.1395 0.555 3.5659 0.555 0.8452 0 2.0867-0.053 3.7243-0.159 1.1622-0.053 3.3281-0.026 6.4978 0.08 2.6942 0.105 4.8601 0.079 6.4977-0.08 2.6414-0.264 6.5506-1.241 11.728-2.932l18.067-5.943c5.1242-1.637 9.1655-2.668 12.124-3.09 4.5956-0.581 8.5576-0.106 11.887 1.426 2.43 1.11 5.177 3.249 8.241 6.419 3.803 3.962 6.339 6.418 7.607 7.369 0.264-1.162 0.237-2.615-0.079-4.358-0.423-1.902-0.714-3.355-0.872-4.358-0.74-4.544 0.211-8.373 2.853-11.49 1.373-1.5848 3.09-2.6678 5.15-3.2489 2.113-0.6339 4.094-0.5811 5.943 0.1585 0.74 0.3169 1.77 0.8452 3.091 1.5848 1.215 0.6339 2.271 0.9245 3.169 0.8717zm178.61-31.459c2.166-2.0075 3.46-3.2753 3.883-3.8036 1.267-1.5848 1.796-3.1433 1.584-4.6752-0.158-1.3736-1.135-2.9584-2.932-4.7545-8.61-9.192-17.855-17.908-27.734-26.15-2.958-2.43-5.441-3.7507-7.449-3.962-1.584-0.1585-3.328 0.1849-5.23 1.0301-0.95 0.4226-2.535 1.3471-4.754 2.7735-7.026 4.5959-14.739 8.241-23.138 10.935-0.423 0.4755-0.449 1.0566-0.08 1.7433 0.317 0.6868 0.819 1.083 1.506 1.1886 0.528 0.1585 1.162 0.1321 1.902-0.0792 0.158-0.0528 0.792-0.2905 1.902-0.7132 4.543-2.0074 9.376-2.7998 14.501-2.3772 5.969 0.5811 10.354 2.6942 13.154 6.3393 2.483 3.4866 3.381 8.4524 2.694 14.897-0.634 6.7619-2.272 12.23-4.913 16.403-4.702 7.66-13.26 12.996-25.674 16.007-10.619 2.6414-20.893 3.1961-30.825 1.6641-2.377 1.9018-4.173 3.3545-5.388 4.3582-5.6 4.7012-9.562 10.407-11.887 17.116l12.838-3.407c2.06-0.582 3.671-0.925 4.833-1.031 1.849-0.211 3.434-0.079 4.755 0.397 2.324 0.845 4.12 2.588 5.388 5.23 1.057 2.324 1.585 4.939 1.585 7.844 0 0.212-0.159 2.853-0.476 7.924-0.211 3.17-0.079 5.759 0.397 7.766 2.377-2.43 4.384-4.173 6.022-5.23 1.955-1.32 3.883-2.113 5.785-2.377 1.796-2.641 4.701-5.573 8.716-8.796 8.928-7.237 18.278-13.656 28.051-19.255 3.751-2.1663 6.155-3.5926 7.211-4.2794 2.695-1.7433 4.86-3.4866 6.498-5.2299 2.377-2.5357 5.23-7.1581 8.558-13.867 3.17-6.4978 6.075-11.041 8.717-13.629z" fill="#A60F35"/>
<path d="m346.55 44.801c-1.32-1.6904-3.46-3.9356-6.418-6.7355l-25.12-23.535c-4.437-4.1733-8.109-7.1845-11.014-9.0334-4.438-2.8527-8.769-4.3054-12.996-4.3583-3.856-0.05283-8.188 1.1358-12.995 3.5658-5.389 3.2225-9.43 5.5732-12.124 7.0524-4.966 2.747-10.249 4.8865-15.848 6.4185-2.747 0.7396-4.596 1.2943-5.547 1.6641-2.008 0.7396-3.54 1.7433-4.596 3.0112-1.849 2.2715-2.562 5.9166-2.14 10.935 0.582 5.7054 1.797 11.094 3.646 16.165 1.796 5.3356 4.358 8.8222 7.686 10.46 3.222 1.532 7.475 1.3471 12.758-0.5547 1.373-0.4754 3.407-1.2678 6.101-2.3772 2.43-0.8452 4.543-1.3471 6.34-1.5056 0.052 2.6942-0.899 5.2828-2.853 7.7657-1.743 2.1659-3.989 3.9356-6.736 5.3091-3.856 1.9018-8.478 3.0112-13.867 3.3281-3.222 0.1585-8.082 0-14.58-0.4754-0.37-0.0528-0.713-0.0793-1.03-0.0793 0-1.3735-0.08-3.0639-0.238-5.0714-0.317-3.1168-0.475-5.2563-0.475-6.4185 0.317-3.9621 0.475-6.9468 0.475-8.9543 0.106-3.4337-0.449-6.2072-1.664-8.3203-1.532-2.747-4.015-4.7016-7.449-5.8638-0.581-2.3772-1.003-4.279-1.268-5.7054-0.634-3.1168-0.977-5.8638-1.03-8.241 0-0.634 0.027-2.7471 0.08-6.3393 0.052-2.5886-0.053-4.6752-0.317-6.2601-0.582-3.064-1.797-5.3091-3.646-6.7355-1.32-0.95089-3.46-1.6376-6.418-2.0603-4.702-0.73959-8.426-1.1622-11.173-1.2679-4.121-0.10566-7.766 0.34338-10.935 1.3471-2.008 0.68675-5.204 2.1923-9.589 4.5167-2.218 1.215-3.856 2.2452-4.912 3.0904-1.691 1.3735-2.8 2.8791-3.329 4.5167-0.528 1.6376-0.475 3.6979 0.159 6.1808 0.37 1.3735 0.951 3.4338 1.743 6.1808 0.212 1.3207 0.317 2.9319 0.317 4.8337v1.3471c-1.637-3.4338-4.411-8.2939-8.32-14.58-1.902-3.064-3.54-5.1771-4.913-6.3393-1.902-1.6905-4.2-2.747-6.894-3.1697-2.641-0.42262-5.204-0.1849-7.686 0.71317-1.11 0.42261-2.589 1.1622-4.438 2.2187-2.007 1.1622-3.487 1.9547-4.437 2.3773-1.849 0.8452-4.649 1.6112-8.4 2.298-3.962 0.6867-6.788 1.3735-8.479 2.0602-3.328 1.3735-6.867 3.8828-10.618 7.5279-3.909 3.9093-6.419 7.6072-7.528 11.094-0.74 2.2187-0.924 4.4639-0.555 6.7355 0.317 2.3244 1.215 4.3054 2.695 5.9431 0.95 1.0037 2.298 1.9546 4.041 2.8526 1.004 0.5283 2.509 1.2679 4.517 2.2188 1.215 0.6339 2.826 1.6112 4.833 2.9319 2.219 1.4792 3.804 2.4829 4.755 3.0112 4.015 2.2187 7.607 3.0904 10.777 2.6149-0.846 1.9018-1.48 3.6979-1.902 5.3884-0.529-0.2113-1.004-0.4226-1.427-0.6339-3.909-1.6377-7.554-2.747-10.935-3.3281-3.751-0.634-8.003-0.7396-12.758-0.317-2.905 0.2641-7.184 0.8981-12.837 1.9018l-23.693 4.279c1.1622-2.6414 2.1923-5.5997 3.0904-8.875 1.4263-5.2299 2.1395-9.6938 2.1395-13.392 0-5.0186-1.1622-9.3241-3.4866-12.916-1.9018-2.7999-5.0451-5.679-9.4297-8.6373-5.2299-3.4338-9.9052-5.2563-14.026-5.4676-2.1659-0.1057-5.4148 0.3697-9.7466 1.4263-4.6489 1.1622-7.9242 2.3508-9.8259 3.5658-2.0603 1.3207-4.3847 3.4867-6.9733 6.4978-2.5885 2.9583-4.8337 5.7054-6.7354 8.2411-2.3773 3.1168-4.1998 5.8902-5.4677 8.3203-1.4263 2.747-2.298 5.3884-2.6149 7.9241-0.36979 3.0112 0.13207 5.5733 1.5056 7.6864 0.95085 1.532 2.298 2.6942 4.0412 3.4866 0.8453 0.4226 1.6905 0.7132 2.5358 0.8716 0.898 0.1585 1.8225 0.1585 2.7734 0 0.5811-0.0528 2.3772-0.5811 5.3884-1.5848 2.1659-0.6867 3.9356-0.8188 5.3091-0.3962 0.5811 0.1585 1.5849 0.7132 3.0112 1.6641 3.0112 2.1131 5.9959 4.3318 8.9542 6.6562-0.7395 0.1057-1.3735 0.1849-1.9017 0.2378-4.6489 0.6339-8.8486 0.9509-12.599 0.9509-3.6979-0.0529-5.8902-0.0793-6.577-0.0793-1.6376 0.1057-3.0904 0.3434-4.3582 0.7132-0.6868 0.1585-1.3207 0.3698-1.9018 0.6339-2.5357 1.0566-5.362 3.4866-8.4788 7.2902-2.9583 3.4338-4.6752 6.4978-5.1507 9.192-0.79241 3.8035 0.23773 7.8977 3.0904 12.283 1.0037 1.479 2.3508 3.196 4.0413 5.15l4.279 4.834c1.0037 1.215 2.3773 2.958 4.1206 5.23 0.1584 0.211 0.3433 0.449 0.5546 0.713 1.849 2.324 3.5923 4.121 5.23 5.388 3.6979 2.8 8.558 4.649 14.58 5.547 8.3996 1.268 17.697 0.819 27.893-1.347 7.1845-1.585 16.271-4.437 27.259-8.558 4.2262-1.637 7.4751-2.139 9.7464-1.505 1.585 0.369 3.17 1.294 4.755 2.773-1.744 0.845-3.381 1.823-4.913 2.932-0.951 0.053-1.9284 0.211-2.9322 0.475-3.8564 0.951-6.7354 2.378-8.6372 4.279-1.0566 1.057-2.3244 2.906-3.8036 5.547-5.494 9.351-11.833 17.83-19.018 25.437-2.6942 2.905-4.4903 4.886-5.3884 5.943-1.9017 2.377-3.2753 4.649-4.1205 6.815-1.0037 2.588-1.2414 5.229-0.7132 7.924 0.5283 2.905 1.849 5.071 3.9621 6.497 1.3207 0.846 3.4866 1.744 6.4978 2.695 0.7395 0.369 2.747 1.664 6.0223 3.882 2.7998 1.955 5.494 3.329 8.0826 4.121l-16.72 6.577c-5.9695 2.377-10.486 4.57-13.55 6.577-4.6488 3.011-7.8713 6.524-9.6674 10.539-2.2188 5.019-2.3244 10.354-0.317 16.007 1.7433 4.965 4.8865 9.377 9.4297 13.233 6.1808 5.336 13.867 8.849 23.059 10.539-0.0528 0.053-0.0792 0.132-0.0792 0.238-0.1056 0.37-0.317 1.347-0.6339 2.932-0.2113 1.215-0.4491 2.192-0.7132 2.932-0.1585 0.581-0.9773 2.377-2.4565 5.388-0.7924 1.585-1.532 3.407-2.2187 5.468-1.0566 3.116-1.3471 5.784-0.8717 8.003 0.3698 1.585 1.1094 3.011 2.2188 4.279 1.1094 1.215 2.43 2.06 3.962 2.536 0.5283 0.158 1.4528 0.369 2.7735 0.634 1.215 0.264 2.1395 0.528 2.7734 0.792 1.0037 0.423 2.1131 1.241 3.3281 2.457l0.0793 0.079c1.7961 1.849 2.8262 2.879 3.0904 3.09 1.7961 1.427 3.83 2.245 6.1015 2.457 2.3773 0.211 4.4904-0.238 6.3393-1.347 0.8981-0.529 1.8226-1.295 2.7738-2.298l0.317-0.397 2.06-2.218c1.268-1.427 3.196-3.461 5.784-6.102 1.216-1.215 2.932-3.143 5.151-5.785l6.973-8.161c0.212-0.212 0.397-0.423 0.555-0.634 3.909 3.433 7.502 6.841 10.777 10.222 2.06 2.06 3.566 3.46 4.517 4.2 1.796 1.373 3.592 2.192 5.388 2.456 2.166 0.317 4.226-0.158 6.181-1.426 2.007-1.215 3.302-2.879 3.883-4.993 0.317-2.482 0.739-4.279 1.267-5.388 0.317-0.634 1.083-1.69 2.298-3.17 1.057-1.215 1.691-2.271 1.902-3.169l9.351 10.222c0.053 0.581 0.105 1.241 0.158 1.981 0.053 1.532-0.132 2.826-0.555 3.883-0.475 1.109-1.32 2.166-2.535 3.169-0.74 0.634-1.928 1.427-3.566 2.378-0.37 0.211-0.766 0.449-1.189 0.713-3.75 0.475-7.686 1.743-11.807 3.803-2.06 1.057-3.698 2.193-4.913 3.408-2.43 1.637-4.78 3.328-7.052 5.071-0.317 0.264-0.66 0.528-1.03 0.793-1.162 0.845-2.219 1.637-3.17 2.377-1.268 0.898-2.351 1.69-3.249 2.377-1.268 0.898-2.245 1.558-2.932 1.981-3.698 2.324-7.184 3.777-10.459 4.358-2.747 0.264-4.781 0.476-6.102 0.634-2.337 0.312-4.212 0.867-5.626 1.664-0.029 0.039-0.055 0.065-0.079 0.08-1.532 0.95-2.721 2.298-3.5662 4.041-0.7924 1.69-1.083 3.434-0.8716 5.23 0.2641 1.796 1.0301 3.407 2.2978 4.833 1.268 1.427 2.774 2.378 4.517 2.853 0.845 0.211 2.245 0.37 4.2 0.476 1.796 0.052 3.169 0.237 4.12 0.554 0.528 0.159 1.374 0.581 2.536 1.268 0.845 1.268 1.955 2.245 3.328 2.932 1.796 0.898 3.804 1.189 6.022 0.872 0.898-0.106 1.77-0.291 2.615-0.555 1.11-0.423 2.193-0.951 3.249-1.585 0.845-0.528 2.087-1.426 3.725-2.694l0.079-0.079c1.532-1.268 2.773-2.166 3.724-2.694 1.585-0.899 3.857-1.665 6.815-2.298 3.486-0.793 5.811-1.4 6.973-1.823 2.43-0.951 5.151-2.668 8.162-5.151 1.902-1.584 3.46-2.852 4.675-3.803 0.687 2.324 1.347 4.094 1.981 5.309 0.951 1.796 2.087 3.222 3.408 4.279-0.265 1.268-0.397 2.509-0.397 3.724 0.053 2.061 0.476 3.883 1.268 5.468 0.581 1.109 1.374 2.087 2.377 2.932 2.219 1.849 4.94 2.588 8.162 2.219 3.17-0.37 5.943-1.823 8.321-4.359 0.316-0.317 0.607-0.634 0.871-0.951 0.793 0.212 1.559 0.291 2.298 0.238 1.004-0.053 1.955-0.317 2.853-0.792 0.528-0.317 1.03-0.687 1.505-1.11 1.215-1.056 2.166-2.377 2.853-3.962 0.845-2.166 1.268-5.362 1.268-9.588 0-3.434-0.291-6.075-0.872-7.924v-0.079c1.532 0.264 2.853 0.581 3.962 0.951 1.215 0.422 2.668 1.083 4.359 1.981 0.951 0.475 2.35 1.215 4.199 2.218 3.54 1.691 9.377 3.408 17.513 5.151 0.369 0.053 0.766 0.132 1.188 0.238 7.502 1.532 13.207 3.249 17.116 5.151 0.423 0.211 0.846 0.422 1.268 0.633 1.057 0.582 2.562 1.427 4.517 2.536 0.317 0.159 0.66 0.344 1.03 0.555 2.166 1.056 4.147 1.505 5.943 1.347 0.37-0.053 0.74-0.106 1.11-0.159 1.584 0.212 3.011 0.053 4.279-0.475 2.43-1.057 3.962-3.09 4.596-6.102 0.581-2.905 0.158-5.573-1.268-8.003-1.691-2.8-4.623-5.203-8.796-7.211-0.211-0.211-0.423-0.396-0.634-0.555-2.43-1.796-4.49-2.852-6.181-3.169h-0.079c-0.047-9e-3 -0.1-0.035-0.159-0.079-0.569-0.053-1.388-0.08-2.456-0.08-0.634-0.052-1.189-0.079-1.664-0.079-1.109-0.317-2.245-0.634-3.407-0.951-0.898-0.37-1.559-0.66-1.981-0.871-2.219-0.898-4.57-1.321-7.053-1.268-0.898-0.212-1.796-0.423-2.694-0.634-1.109-0.212-2.245-0.449-3.407-0.713l-8.955-1.902c-0.475-0.211-0.898-0.396-1.268-0.555-0.105-0.053-0.211-0.105-0.317-0.158-0.528-0.264-1.267-0.687-2.218-1.268-0.476-0.581-0.978-1.136-1.506-1.664-1.954-1.744-3.407-3.064-4.358-3.962-0.74-0.634-1.374-1.295-1.902-1.981-0.317-1.163-0.581-2.166-0.792-3.011-0.106-0.423-0.212-0.793-0.317-1.11-0.529-2.219-0.819-4.173-0.872-5.864-0.053-1.373 0.079-3.143 0.396-5.309 0.212-1.637 0.396-2.905 0.555-3.803 0.211 0 0.423 0.026 0.634 0.079 2.271 0.37 4.411 0.053 6.418-0.951 3.223-1.638 6.049-4.834 8.479-9.588 0.423-0.793 0.978-1.849 1.664-3.17 0.476-0.211 0.951-0.449 1.427-0.713 1.426-0.792 2.747-2.06 3.962-3.804 0.528-0.686 1.532-2.298 3.011-4.833 0.211-0.37 0.475-0.793 0.792-1.268 2.008 2.905 3.17 4.649 3.487 5.23 1.796 2.8 3.117 5.388 3.962 7.765 0.581 1.532 1.373 3.883 2.377 7.053 1.057 2.588 2.457 4.437 4.2 5.547 0.289 0.175 0.579 0.333 0.872 0.475 3.347 1.551 7.468 0.97 12.361-1.743 1.427-0.793 3.54-2.06 6.339-3.804 2.483-1.426 4.702-2.377 6.657-2.852 1.056-0.265 2.667-0.555 4.833-0.872 1.902-0.423 3.408-0.977 4.517-1.664 1.268-0.845 2.272-2.034 3.011-3.566 0.687-1.426 1.057-2.932 1.11-4.517 0.053-2.641-0.713-5.652-2.298-9.033-0.212-0.476-2.404-4.2-6.577-11.173-2.695-4.491-4.279-8.426-4.755-11.807-0.105-1.479-0.185-2.694-0.237-3.645 2.218-0.845 4.516-1.717 6.893-2.615 6.498-2.536 11.622-4.702 15.373-6.498 5.494-2.641 10.249-5.468 14.264-8.479 4.226-3.117 6.973-6.286 8.241-9.509 1.056-2.588 1.32-5.388 0.792-8.399-0.475-2.853-1.558-5.547-3.249-8.083-2.747-4.015-7.184-7.633-13.312-10.856-0.74-0.37-1.453-0.739-2.14-1.109-0.105-1.004-0.29-2.193-0.554-3.566-0.582-2.377-1.242-4.649-1.981-6.815-0.951-2.852-2.008-5.15-3.17-6.894-1.057-1.637-3.011-3.83-5.864-6.577-3.275-3.169-5.89-5.335-7.845-6.498-0.687-0.422-1.928-1.083-3.724-1.981-1.585-0.792-2.8-1.505-3.645-2.139-1.11-0.687-2.087-1.506-2.932-2.457 2.06-2.271 5.23-4.939 9.509-8.003 7.977-5.811 14.342-9.984 19.097-12.52 1.585-0.792 3.962-1.981 7.132-3.566 2.747-1.426 4.965-2.8 6.656-4.12 3.803-3.012 7.501-7.819 11.094-14.422 5.282-9.6146 8.346-15.029 9.192-16.244 0.792-1.1093 2.43-3.1696 4.912-6.1808 2.114-2.5885 3.698-4.7016 4.755-6.3392 3.487-5.3884 4.807-10.354 3.962-14.897-0.475-2.6942-1.743-5.3884-3.804-8.0826zm-19.017 16.482c-0.423 0.5283-1.717 1.7961-3.883 3.8036-2.642 2.5885-5.547 7.1316-8.717 13.629-3.328 6.7091-6.181 11.332-8.558 13.867-1.637 1.7433-3.803 3.4866-6.498 5.2299-1.056 0.6868-3.46 2.1131-7.211 4.2794-9.773 5.599-19.123 12.018-28.051 19.255-4.015 3.223-6.92 6.155-8.716 8.796-1.902 0.264-3.83 1.057-5.785 2.377-1.638 1.057-3.645 2.8-6.022 5.23-0.476-2.007-0.608-4.596-0.397-7.766 0.317-5.071 0.476-7.712 0.476-7.924 0-2.905-0.528-5.52-1.585-7.844-1.268-2.642-3.064-4.385-5.388-5.23-1.321-0.476-2.906-0.608-4.755-0.397-1.162 0.106-2.773 0.449-4.833 1.031l-12.838 3.407c2.325-6.709 6.287-12.415 11.887-17.116 1.215-1.0037 3.011-2.4564 5.388-4.3582 9.932 1.532 20.207 0.9773 30.825-1.6641 12.414-3.0112 20.972-8.3467 25.674-16.007 2.641-4.1733 4.279-9.641 4.913-16.403 0.687-6.4449-0.211-11.411-2.694-14.897-2.8-3.6451-7.185-5.7582-13.154-6.3393-5.125-0.4226-9.958 0.3698-14.501 2.3772-1.11 0.4227-1.744 0.6604-1.902 0.7132-0.74 0.2113-1.374 0.2377-1.902 0.0792-0.687-0.1056-1.189-0.5018-1.506-1.1886-0.369-0.6867-0.343-1.2678 0.08-1.7433 8.399-2.6942 16.112-6.3393 23.138-10.935 2.219-1.4264 3.804-2.3509 4.755-2.7735 1.901-0.8452 3.645-1.1886 5.229-1.0301 2.008 0.2113 4.491 1.532 7.449 3.962 9.879 8.2411 19.124 16.958 27.734 26.15 1.797 1.7961 2.774 3.3809 2.932 4.7545 0.212 1.532-0.317 3.0904-1.584 4.6752zm-46.436 128.53c-0.317-0.475-0.66-0.924-1.03-1.347 1.11 0.159 2.166 0.344 3.17 0.555 7.713 1.479 14.078 4.358 19.097 8.637-2.06 2.008-4.173 3.672-6.339 4.993-2.695 1.69-7 3.697-12.917 6.022-1.901 0.739-3.698 1.453-5.388 2.139 1.162-1.109 2.166-2.35 3.011-3.724 1.691-2.641 2.589-5.52 2.694-8.637 0.106-3.223-0.66-6.102-2.298-8.638zm0.396-21.315c0.212 0.264 0.423 0.581 0.634 0.951-7.871-1.268-16.35-1.532-25.436-0.793-2.483 0.211-4.939 0.502-7.369 0.872 0.052-0.159 0.105-0.317 0.158-0.476 0.264-0.634 0.925-2.509 1.981-5.626 1.638-4.86 3.407-8.373 5.309-10.539 0.317-0.37 1.03-1.056 2.14-2.06 2.06 2.271 4.543 4.543 7.448 6.815 1.532 1.162 5.336 3.777 11.411 7.844 1.902 1.216 3.143 2.219 3.724 3.012zm-23.217 69.494c0.634 4.543 1.981 8.928 4.041 13.154 0.951 1.849 2.377 4.173 4.279 6.973 0.687 1.11 0.872 1.929 0.555 2.457-0.159 0.264-0.555 0.528-1.189 0.792l-4.596 1.823-9.667-16.165c-1.691-2.747-3.143-4.623-4.358-5.627-0.106-0.105-0.212-0.184-0.317-0.237 3.539-0.898 7.29-1.955 11.252-3.17zm-62.918-203.25c-0.317-0.0528-0.607-0.0792-0.871-0.0792v-1.2679c0.105-4.9658 0.026-9.0599-0.238-12.282 3.487-0.7925 6.947-1.0038 10.381-0.634-0.317 3.6451 0.211 9.0071 1.584 16.086l1.902 9.9051c0.529 2.747 1.189 4.7809 1.981 6.1016 0.264 0.4754 0.581 0.9244 0.951 1.3471-0.37 0.898-0.871 1.7169-1.505 2.4564-1.004 1.1622-2.166 1.9811-3.487 2.4565-1.004 1.1094-2.192 2.2716-3.566 3.4866-3.275 2.9584-5.388 5.0186-6.339 6.1808-2.06 2.6414-3.355 5.2563-3.883 7.8449-0.792 3.6451-0.211 6.7619 1.743 9.3504 0.898 1.1622 2.061 2.0867 3.487 2.7735 1.373 0.6867 2.8 1.0037 4.279 0.9509 1.479-0.0529 2.932-0.4491 4.358-1.1887 1.321-0.6867 2.43-1.6376 3.328-2.8526 1.163-1.6905 1.902-2.6678 2.219-2.9319 0.581-0.4755 1.559-0.8981 2.932-1.2679-4.121 3.6451-7.052 6.6034-8.796 8.875-1.373 1.7961-3.275 4.8865-5.705 9.2712-2.853 5.1238-4.887 9.2708-6.102 12.441-1.796 4.755-2.641 9.192-2.535 13.313 0.211 5.124 1.849 8.769 4.913 10.935 3.486 2.377 8.293 2.324 14.421-0.159 1.532-0.634 3.857-1.637 6.974-3.011 2.694-1.056 5.098-1.585 7.211-1.585-0.37 9.773-0.291 19.573 0.237 29.399 0.212 3.803 0.661 6.894 1.347 9.271-0.052-0.053-0.079-0.106-0.079-0.158-1.162-2.325-2.166-4.095-3.011-5.31-2.113-2.958-5.388-5.811-9.826-8.558-2.905-1.637-5.388-3.064-7.449-4.279-0.581-0.739-1.267-1.373-2.06-1.901-0.951-0.687-1.954-1.136-3.011-1.348-1.796-1.215-3.222-2.007-4.279-2.377-1.796-0.634-3.671-0.66-5.626-0.079-1.955 0.528-3.54 1.532-4.755 3.011-0.211 0.264-0.396 0.555-0.554 0.872h-1.981l-12.124-0.079c-1.532 0-2.562-0.238-3.091-0.714-0.686-0.634-0.977-2.007-0.871-4.12 0.211-2.747 0-5.23-0.634-7.449-0.793-2.588-2.14-4.517-4.041-5.784-2.483-1.691-5.521-2.114-9.113-1.268-2.06 0.475-4.94 1.717-8.637 3.724l-1.744 0.951c0.264-0.951 0.476-1.955 0.634-3.011 0.211-1.585 0.317-4.121 0.317-7.607 0-3.381 0.159-5.943 0.476-7.687 0.369-0.053 2.905-0.343 7.607-0.871 3.064-0.37 5.547-0.846 7.448-1.427 2.642-0.792 4.94-1.954 6.894-3.486 2.113-1.744 3.513-3.778 4.2-6.102 0.687-2.536 0.476-5.2827-0.634-8.241-1.003-2.4829-2.588-4.9129-4.754-7.2902-2.906-3.2753-6.63-6.3657-11.173-9.2712-1.162-0.7396-2.51-1.5584-4.042-2.4565 0-0.1056 0.027-0.2113 0.08-0.3169 0.317-0.8453 0.845-2.7206 1.585-5.6261 0.792-2.6942 1.373-4.7017 1.743-6.0224 0.687-2.3772 1.083-4.4375 1.188-6.1808 0.212-3.5394-0.449-6.4449-1.981-8.7165-1.215-1.7961-3.037-3.2225-5.467-4.279-1.744-0.7924-4.068-1.4792-6.973-2.0603-3.646-0.7396-5.996-1.2678-7.053-1.5848-2.588-0.7924-4.649-1.8754-6.181-3.2489-0.475-0.4754-0.713-0.898-0.713-1.2678 0-0.4227 0.317-0.8453 0.951-1.2679 0.581-0.317 2.034-0.7132 4.358-1.1886 6.762-1.1094 13.181-3.2753 19.256-6.4978 2.377 3.2225 4.305 6.4714 5.784 9.7467 1.585 3.2224 2.431 4.9658 2.536 5.2299 0.581 1.0565 1.242 1.9546 1.981 2.6942 0.106 1.1094 0.423 2.1659 0.951 3.1696 0.793 1.4792 1.928 2.6678 3.407 3.5659 1.532 0.898 3.117 1.3471 4.755 1.3471 0.581 0 1.294-0.0793 2.139-0.2377 1.744 0.4754 3.83 0.6603 6.261 0.5546 0.739-0.0528 1.426-0.1056 2.06-0.1584 1.32 1.1622 2.826 1.9282 4.517 2.298 1.479 0.2641 2.958 0.1848 4.437-0.2378 1.479-0.4754 2.721-1.2414 3.724-2.298 0.264-0.2641 0.502-0.5282 0.714-0.7924 0.211 0.0529 0.422 0.0793 0.633 0.0793-0.105-0.1585-0.184-0.3434-0.237-0.5547 1.426-1.9546 1.954-4.2526 1.585-6.894-0.106-0.8452-0.397-1.9546-0.872-3.3281-0.634-1.6905-1.004-2.7999-1.109-3.3281-0.106-0.5283-0.185-1.1887-0.238-1.9811 0.211-1.215 0.502-2.3772 0.871-3.4866zm-65.849 53.171c5.653 2.5885 10.83 5.4676 15.531 8.6373-0.898 0.0528-1.954-0.2378-3.169-0.8717-1.321-0.7396-2.351-1.2678-3.091-1.5848-1.849-0.7396-3.83-0.7924-5.943-0.1585-2.06 0.5811-3.777 1.6641-5.15 3.2489-2.642 3.1173-3.593 6.9463-2.853 11.49 0.158 1.003 0.449 2.456 0.872 4.358 0.316 1.743 0.343 3.196 0.079 4.358-1.268-0.951-3.804-3.407-7.607-7.369-3.064-3.17-5.811-5.309-8.241-6.419-3.329-1.532-7.291-2.007-11.887-1.426-2.9583 0.422-6.9996 1.453-12.124 3.09l-18.067 5.943c-5.1771 1.691-9.0864 2.668-11.728 2.932-1.6377 0.159-3.8036 0.185-6.4978 0.08-3.1696-0.106-5.3356-0.133-6.4978-0.08-1.6376 0.106-2.8791 0.159-3.7243 0.159-1.4263 0-2.6149-0.185-3.5658-0.555-1.7962-0.687-3.6715-2.483-5.6262-5.388-2.2187-3.276-3.9884-5.336-5.3091-6.181 1.0037-1.638 1.6376-3.5131 1.9018-5.6262 4.8601-0.0529 10.328-0.5019 16.403-1.3471 3.1696-0.4755 8.5844-1.3735 16.244-2.6942l42.315-7.6864c5.494-0.9509 9.614-1.3471 12.361-1.1886 4.385 0.2113 9.509 1.6376 15.373 4.279zm-76.151-44.375c1.3207 0.898 2.0867 1.4527 2.298 1.664 0.8453 0.6868 1.3735 1.4264 1.5848 2.2188 0.1585 0.6867 0.0793 1.6905-0.2377 3.0112l-1.5056 6.0223c-0.4226 1.6376-1.0037 2.7206-1.7433 3.2489-3.4337-2.166-9.4032-6.2073-17.908-12.124 1.215-2.6414 4.4639-4.6224 9.7466-5.9431 1.7433-0.4226 3.0376-0.5283 3.8828-0.317 0.634 0.1585 1.3207 0.4491 2.0603 0.8717 0.4226 0.3169 1.0301 0.766 1.8225 1.3471zm51.983 105.71c1.109-0.528 2.43-1.479 3.962-2.853 1.743-1.637 2.984-2.694 3.724-3.169 0.581-0.37 1.823-1.004 3.724-1.902 1.585-0.792 2.774-1.506 3.566-2.14 0.159-0.158 0.344-0.29 0.555-0.396 1.004 0.687 2.034 1.374 3.09 2.061 1.585 1.003 3.117 1.796 4.596 2.377-2.271 1.215-3.935 2.192-4.992 2.932-1.796 1.268-3.17 2.641-4.121 4.12-1.32 2.06-2.086 4.596-2.297 7.607-0.106 1.796 0 4.517 0.316 8.162 0.106 1.691-0.079 2.853-0.554 3.487-0.423 0.581-1.189 1.03-2.298 1.347-3.276 1.162-5.415 1.954-6.419 2.377-2.271 1.057-4.094 2.298-5.467 3.724-1.955 2.061-3.3285 5.125-4.1209 9.192-1.5848-0.739-3.4338-1.4-5.5469-1.981-5.7582-1.584-9.5617-2.958-11.411-4.12-0.8981-0.687-1.3999-1.294-1.5056-1.823-0.0528-0.475 0.1849-1.135 0.7132-1.981 0.6867-0.898 1.6376-1.954 2.8527-3.169l3.0111-2.932c1.7962-1.796 4.2262-4.94 7.2902-9.43l6.1019-9.271c0.317-0.476 0.634-0.898 0.951-1.268 1.479 0 2.905-0.317 4.279-0.951zm15.372 62.759c-0.369-0.634-0.766-1.189-1.188-1.664 0.686-0.053 1.426-0.106 2.218-0.159 1.955-0.052 5.97-0.079 12.045-0.079 3.857 0.106 6.815-0.132 8.875-0.713 1.955-0.581 3.275-0.872 3.962-0.872 1.162-0.052 2.642 0.37 4.438 1.268 4.754 2.272 9.033 5.283 12.837 9.034 1.162 1.268 1.717 2.351 1.664 3.249-0.106 0.845-0.713 1.69-1.823 2.535-1.373 1.11-3.407 2.404-6.101 3.883-10.724 5.917-22.241 10.434-34.549 13.55-3.751 0.951-7.555 1.77-11.411 2.457 1.69-2.272 2.853-4.834 3.486-7.687 0.212-1.003 0.37-1.981 0.476-2.931 2.166-2.325 3.909-5.415 5.23-9.272 1.796-5.018 1.743-9.218-0.159-12.599zm-14.976 52.537c0.264 0.475 0.554 0.951 0.871 1.426-0.898 0.845-1.796 1.849-2.694 3.011-1.69 2.219-2.958 3.857-3.803 4.913-2.1134 2.8-4.4378 5.441-6.9735 7.924-0.8453 0.846-1.5585 1.242-2.1396 1.189-0.5282 0-0.9773-0.238-1.3471-0.713-0.3697-0.476-0.5546-1.004-0.5546-1.585 0-0.528 0.3169-1.611 0.9509-3.249 0.3697-0.898 0.8452-2.668 1.4263-5.309 0.5283-2.219 1.083-3.936 1.6641-5.151 0.1584-0.317 0.3697-0.686 0.6339-1.109 3.4866-0.264 7.4746-0.713 11.966-1.347zm90.81-96.357 3.566 1.743c1.796 0.845 3.222 1.69 4.279 2.536 2.166 1.637 4.464 4.569 6.894 8.795-8.981 4.332-17.275 9.641-24.882 15.928-3.434 2.747-6.313 5.494-8.637 8.241-2.324-2.272-5.177-4.517-8.558-6.736-8.558-5.652-16.535-9.244-23.931-10.776-5.864-1.268-12.203-1.479-19.018-0.634 1.849-0.634 3.249-1.083 4.2-1.347 2.166-0.581 3.698-1.083 4.596-1.506 1.69-0.634 3.064-1.453 4.121-2.456 1.743-1.691 2.694-3.83 2.852-6.419 0.159-2.588-0.528-4.807-2.06-6.656-1.374-1.268-2.351-2.272-2.932-3.011-1.004-1.427-1.268-2.747-0.792-3.962 0.317-0.793 1.267-1.612 2.852-2.457l10.619-5.467c0.581 3.116 1.954 5.943 4.12 8.478 2.166 2.536 4.728 4.359 7.687 5.468 1.796 0.687 3.882 1.136 6.26 1.347 1.426 0.159 3.565 0.264 6.418 0.317 4.807 0.053 8.4 0.026 10.777-0.079 3.962-0.159 7.501-0.555 10.618-1.189 0.317-0.053 0.634-0.105 0.951-0.158zm26.704 36.688c0.476 0.581 1.03 1.11 1.664 1.585 0.37 0.264 0.74 0.502 1.11 0.713 0.105 2.483 0.607 4.887 1.505 7.211 1.268 3.276 3.144 5.943 5.626 8.004 0.846 0.686 1.902 1.373 3.17 2.06-12.309 2.747-23.719 3.724-34.232 2.932-3.011-0.159-5.811-0.502-8.4-1.03-2.06-0.317-3.354-0.951-3.882-1.902-0.951-1.585-0.265-3.592 2.06-6.022 7.448-7.555 14.448-11.807 20.999-12.758 0.951-0.159 2.905-0.291 5.864-0.397 1.743-0.052 3.248-0.184 4.516-0.396zm-145.8 18.701c0.4047-0.141 0.8009-0.299 1.1886-0.475-0.8452 1.954-1.5584 4.147-2.1395 6.577-1.7961 7.079-1.6376 12.599 0.4755 16.561-1.4678-0.213-2.8678-0.53-4.1998-0.951-1.2266-0.349-2.3888-0.798-3.4866-1.347-2.2716-1.162-4.8601-2.985-7.7656-5.467-1.6377-1.427-2.4829-2.695-2.5358-3.804-0.2113-2.166 1.6377-3.962 5.5469-5.388 1.4068-0.503 5.7122-2.405 12.916-5.706zm88.908 21.791c4.121-2.271 7.528-4.569 10.222-6.893 2.061 1.848 4.57 3.433 7.528 4.754 4.649 2.007 10.592 3.143 17.829 3.407 5.547 0.212 11.279 0.053 17.196-0.475-0.898 1.215-1.823 2.747-2.774 4.596-1.901 3.751-3.328 6.207-4.279 7.369-2.694-2.377-5.599-3.671-8.716-3.883-1.638-0.158-3.249 0.053-4.834 0.634-1.585 0.582-2.905 1.48-3.962 2.695-0.792 0.898-1.479 2.06-2.06 3.486-0.159 0.37-0.608 1.691-1.347 3.962-1.48 4.755-3.487 9.483-6.023 14.184-0.369-0.264-0.713-0.501-1.03-0.713-0.898-1.162-1.954-2.166-3.169-3.011-0.529-0.37-1.031-0.687-1.506-0.951-4.332-4.12-7.713-9.06-10.143-14.818-0.845-2.06-1.373-3.302-1.585-3.724-0.686-1.374-1.452-2.457-2.298-3.249-1.954-1.902-4.49-2.641-7.607-2.219-2.958 0.37-5.52 1.559-7.686 3.566-1.796 1.638-3.487 3.856-5.072 6.656-1.69 3.434-2.984 5.97-3.882 7.607-0.423 0.951-0.925 1.453-1.506 1.506-0.475 0.053-1.057-0.211-1.743-0.792l-8.162-7.053c-0.74-0.581-1.4-1.162-1.981-1.743 14.369-3.592 27.232-8.558 38.59-14.898z" fill="#3F153D"/>
<path d="m176.58 238.47c-2.694 2.324-6.101 4.622-10.222 6.893-11.358 6.34-24.221 11.306-38.59 14.898 0.581 0.581 1.241 1.162 1.981 1.743l8.162 7.053c0.686 0.581 1.267 0.845 1.743 0.792 0.581-0.053 1.083-0.555 1.505-1.506 0.899-1.637 2.193-4.173 3.883-7.607 1.585-2.8 3.276-5.018 5.072-6.656 2.166-2.007 4.728-3.196 7.686-3.566 3.117-0.422 5.653 0.317 7.607 2.219 0.845 0.792 1.611 1.875 2.298 3.249 0.212 0.422 0.74 1.664 1.585 3.724 2.43 5.758 5.811 10.698 10.143 14.818 0.475 0.264 0.977 0.581 1.506 0.951 1.215 0.845 2.271 1.849 3.169 3.011 0.317 0.212 0.66 0.449 1.03 0.713 2.536-4.701 4.543-9.429 6.023-14.184 0.739-2.271 1.188-3.592 1.347-3.962 0.581-1.426 1.268-2.588 2.06-3.486 1.057-1.215 2.377-2.113 3.962-2.695 1.585-0.581 3.196-0.792 4.834-0.633 3.117 0.211 6.022 1.505 8.716 3.882 0.951-1.162 2.377-3.618 4.279-7.369 0.951-1.849 1.876-3.381 2.774-4.596-5.917 0.528-11.649 0.687-17.196 0.475-7.237-0.264-13.18-1.4-17.829-3.407-2.958-1.321-5.467-2.906-7.528-4.754zm-97.942-15.373c-0.3878 0.176-0.784 0.334-1.1886 0.475-7.2042 3.301-11.51 5.203-12.916 5.706-3.9093 1.426-5.7582 3.222-5.5469 5.388 0.0528 1.109 0.8981 2.377 2.5357 3.804 2.9055 2.482 5.4941 4.305 7.7656 5.467 1.0979 0.549 2.2601 0.998 3.4866 1.347 1.3321 0.421 2.732 0.738 4.1998 0.951-2.1131-3.962-2.2716-9.482-0.4754-16.561 0.5811-2.43 1.2942-4.623 2.1395-6.577zm146.28-16.641c-0.634-0.475-1.188-1.004-1.664-1.585-1.268 0.212-2.773 0.344-4.517 0.397-2.958 0.105-4.912 0.237-5.863 0.396-6.551 0.951-13.551 5.203-20.999 12.758-2.325 2.43-3.011 4.437-2.06 6.022 0.528 0.951 1.822 1.585 3.882 1.902 2.589 0.528 5.389 0.871 8.4 1.03 10.513 0.792 21.923-0.185 34.232-2.932-1.268-0.687-2.324-1.374-3.17-2.06-2.483-2.061-4.358-4.728-5.626-8.004-0.898-2.324-1.4-4.728-1.505-7.211-0.37-0.211-0.74-0.449-1.11-0.713zm-24.802-36.53-3.566-1.743c-0.317 0.053-0.634 0.105-0.951 0.158-3.117 0.634-6.656 1.03-10.618 1.189-2.377 0.105-5.97 0.132-10.777 0.079-2.853-0.053-4.992-0.158-6.419-0.317-2.377-0.211-4.463-0.66-6.26-1.347-2.958-1.109-5.52-2.932-7.686-5.468-2.166-2.535-3.539-5.362-4.12-8.478l-10.619 5.467c-1.585 0.845-2.535 1.664-2.852 2.457-0.476 1.215-0.212 2.535 0.792 3.962 0.581 0.739 1.558 1.743 2.932 3.011 1.532 1.849 2.219 4.068 2.06 6.656-0.158 2.589-1.109 4.728-2.853 6.419-1.056 1.003-2.43 1.822-4.12 2.456-0.898 0.423-2.43 0.925-4.596 1.506-0.951 0.264-2.351 0.713-4.2 1.347 6.815-0.845 13.154-0.634 19.018 0.634 7.396 1.532 15.373 5.124 23.931 10.777 3.381 2.218 6.233 4.463 8.558 6.735 2.324-2.747 5.203-5.494 8.637-8.241 7.607-6.287 15.901-11.596 24.882-15.928-2.43-4.226-4.728-7.158-6.894-8.795-1.057-0.846-2.483-1.691-4.279-2.536zm-80.588 40.413c0.422 0.475 0.819 1.03 1.188 1.664 1.902 3.381 1.955 7.581 0.159 12.599-1.321 3.857-3.064 6.947-5.23 9.272-0.106 0.95-0.264 1.928-0.476 2.931-0.634 2.853-1.796 5.415-3.486 7.687 3.856-0.687 7.66-1.506 11.411-2.457 12.308-3.116 23.825-7.633 34.549-13.55 2.694-1.479 4.728-2.773 6.101-3.883 1.11-0.845 1.717-1.69 1.823-2.535 0.053-0.898-0.502-1.981-1.664-3.249-3.804-3.751-8.083-6.762-12.837-9.034-1.797-0.898-3.276-1.32-4.438-1.268-0.687 0-2.007 0.291-3.962 0.872-2.06 0.581-5.019 0.819-8.875 0.713-6.075 0-10.09 0.027-12.045 0.079-0.792 0.053-1.532 0.106-2.218 0.159zm160.54-21.871c0.37 0.423 0.713 0.872 1.03 1.348 1.638 2.535 2.404 5.414 2.298 8.637-0.105 3.117-1.003 5.996-2.694 8.637-0.845 1.374-1.849 2.615-3.011 3.724 1.69-0.686 3.486-1.4 5.388-2.139 5.917-2.325 10.222-4.332 12.917-6.022 2.165-1.321 4.279-2.985 6.339-4.993-5.019-4.279-11.384-7.158-19.097-8.637-1.004-0.211-2.061-0.396-3.17-0.555zm-108.8 159.59c-0.792-1.585-1.215-3.407-1.268-5.468 0-1.215 0.132-2.456 0.396-3.724-1.32-1.057-2.456-2.483-3.407-4.279-0.634-1.215-1.294-2.985-1.981-5.309-1.215 0.951-2.773 2.219-4.675 3.803-3.011 2.483-5.732 4.2-8.162 5.151-1.162 0.423-3.487 1.03-6.973 1.823-2.959 0.634-5.23 1.399-6.815 2.298-0.951 0.528-2.192 1.426-3.724 2.694l-0.08 0.079c0.423 0.106 0.872 0.211 1.348 0.317 1.162 0.211 3.09 0.37 5.784 0.475 0.845 0.053 8.822 0.634 23.931 1.744 1.955 0.158 3.83 0.29 5.626 0.396zm59.669-1.506c1.109-0.211 2.139-0.422 3.09-0.634 3.328-0.792 8.162-2.562 14.501-5.309 0.264-0.105 0.502-0.185 0.713-0.237-3.909-1.902-9.614-3.619-17.116-5.151-0.422-0.106-0.819-0.185-1.188-0.238-8.136-1.743-13.973-3.46-17.513-5.151-1.849-1.003-3.249-1.743-4.199-2.218-1.691-0.898-3.144-1.559-4.359-1.981-1.109-0.37-2.43-0.687-3.962-0.951v0.079c0.581 1.849 0.872 4.49 0.872 7.924 0 4.226-0.423 7.422-1.268 9.588-0.687 1.585-1.638 2.906-2.853 3.962-0.475 0.423-0.977 0.793-1.505 1.11 0.37-0.053 0.739-0.106 1.109-0.159 3.117-0.317 5.679-0.502 7.687-0.554 0.633 0 5.52 0.132 14.659 0.396 4.385 0.105 8.162-0.053 11.332-0.476z" fill="#FFEACE"/>
<path d="m106.61 265.96c-0.317-0.475-0.607-0.951-0.871-1.426-4.491 0.634-8.479 1.083-11.966 1.347-0.2641 0.423-0.4754 0.792-0.6339 1.109-0.5811 1.215-1.1358 2.932-1.6641 5.151-0.5811 2.641-1.0565 4.411-1.4263 5.309-0.6339 1.638-0.9509 2.721-0.9509 3.249 0 0.581 0.1849 1.109 0.5547 1.585 0.3698 0.475 0.8188 0.713 1.3471 0.713 0.5811 0.053 1.2942-0.343 2.1395-1.189 2.5357-2.482 4.8601-5.124 6.9735-7.924 0.845-1.056 2.113-2.694 3.803-4.913 0.898-1.162 1.796-2.166 2.694-3.011zm2.695-119.58c-1.532 1.374-2.853 2.325-3.962 2.853-1.374 0.634-2.8 0.951-4.279 0.951-0.317 0.37-0.634 0.792-0.951 1.268l-6.1019 9.271c-3.064 4.49-5.494 7.634-7.2901 9.43l-3.0112 2.932c-1.215 1.215-2.1659 2.271-2.8527 3.169-0.5283 0.846-0.766 1.506-0.7132 1.981 0.1057 0.529 0.6076 1.136 1.5056 1.823 1.849 1.162 5.6526 2.536 11.411 4.12 2.1131 0.581 3.9621 1.242 5.5469 1.981 0.7924-4.067 2.1659-7.131 4.1209-9.192 1.373-1.426 3.196-2.667 5.467-3.724 1.004-0.423 3.144-1.215 6.419-2.377 1.109-0.317 1.875-0.766 2.298-1.347 0.475-0.634 0.66-1.796 0.554-3.487-0.316-3.645-0.422-6.366-0.316-8.162 0.211-3.011 0.977-5.547 2.298-7.607 0.95-1.479 2.324-2.852 4.12-4.12 1.057-0.74 2.721-1.717 4.992-2.932-1.479-0.581-3.011-1.374-4.596-2.377-1.056-0.687-2.086-1.374-3.09-2.061-0.211 0.106-0.396 0.238-0.555 0.396-0.792 0.634-1.981 1.348-3.566 2.14-1.901 0.898-3.143 1.532-3.724 1.902-0.74 0.475-1.981 1.532-3.724 3.169zm85.184-111.73c0.264 0 0.554 0.0264 0.871 0.0792-0.369 1.1094-0.66 2.2716-0.871 3.4866 0.053 0.7924 0.132 1.4528 0.238 1.9811 0.105 0.5282 0.475 1.6376 1.109 3.3281 0.475 1.3735 0.766 2.4829 0.872 3.3281 0.369 2.6414-0.159 4.9394-1.585 6.894 0.053 0.2113 0.132 0.3962 0.237 0.5547-0.211 0-0.422-0.0265-0.633-0.0793-0.212 0.2642-0.45 0.5283-0.714 0.7924-1.003 1.0566-2.245 1.8226-3.724 2.298-1.479 0.4226-2.958 0.5019-4.437 0.2378-1.691-0.3698-3.197-1.1358-4.517-2.298-0.634 0.0528-1.321 0.1056-2.06 0.1584-2.431 0.1057-4.517-0.0792-6.261-0.5546-0.845 0.1584-1.558 0.2377-2.139 0.2377-1.638 0-3.223-0.4491-4.754-1.3471-1.48-0.8981-2.615-2.0867-3.408-3.5659-0.528-1.0037-0.845-2.0602-0.951-3.1696-0.739-0.7396-1.4-1.6377-1.981-2.6942-0.105-0.2641-0.951-2.0075-2.535-5.2299-1.48-3.2753-3.408-6.5242-5.785-9.7467-6.075 3.2225-12.494 5.3884-19.256 6.4978-2.324 0.4754-3.777 0.8716-4.358 1.1886-0.634 0.4226-0.951 0.8452-0.951 1.2679 0 0.3698 0.238 0.7924 0.713 1.2678 1.532 1.3735 3.593 2.4565 6.181 3.2489 1.057 0.317 3.408 0.8452 7.053 1.5848 2.905 0.5811 5.23 1.2679 6.973 2.0603 2.43 1.0565 4.252 2.4829 5.467 4.279 1.532 2.2716 2.193 5.1771 1.981 8.7165-0.105 1.7433-0.501 3.8036-1.188 6.1808-0.37 1.3207-0.951 3.3282-1.743 6.0224-0.74 2.9055-1.268 4.7808-1.585 5.6261-0.053 0.1056-0.08 0.2113-0.08 0.3169 1.532 0.8981 2.88 1.7169 4.042 2.4565 4.543 2.9055 8.267 5.9959 11.173 9.2712 2.166 2.3773 3.751 4.8073 4.754 7.2902 1.11 2.9583 1.321 5.705 0.634 8.241-0.687 2.324-2.087 4.358-4.2 6.102-1.954 1.532-4.252 2.694-6.894 3.486-1.901 0.581-4.384 1.057-7.448 1.427-4.702 0.528-7.238 0.818-7.607 0.871-0.317 1.744-0.476 4.306-0.476 7.687 0 3.486-0.105 6.022-0.317 7.607-0.158 1.056-0.37 2.06-0.634 3.011l1.744-0.951c3.698-2.007 6.577-3.249 8.637-3.724 3.592-0.846 6.63-0.423 9.113 1.268 1.901 1.267 3.248 3.196 4.041 5.784 0.634 2.219 0.845 4.702 0.634 7.449-0.106 2.113 0.185 3.486 0.871 4.12 0.529 0.476 1.559 0.714 3.091 0.714l12.124 0.079h1.981c0.158-0.317 0.343-0.608 0.554-0.872 1.215-1.479 2.8-2.483 4.755-3.011 1.955-0.581 3.83-0.555 5.626 0.079 1.057 0.37 2.483 1.162 4.279 2.377 1.057 0.212 2.06 0.661 3.011 1.348 0.793 0.528 1.479 1.162 2.06 1.901 2.061 1.215 4.544 2.642 7.449 4.279 4.438 2.747 7.713 5.6 9.826 8.558 0.845 1.215 1.849 2.985 3.011 5.31 0 0.052 0.027 0.105 0.079 0.158-0.686-2.377-1.135-5.468-1.347-9.271-0.528-9.826-0.607-19.626-0.237-29.399-2.113 0-4.517 0.529-7.211 1.585-3.117 1.374-5.442 2.377-6.974 3.011-6.128 2.483-10.935 2.536-14.421 0.159-3.064-2.166-4.702-5.811-4.913-10.935-0.106-4.121 0.739-8.558 2.535-13.313 1.215-3.17 3.249-7.317 6.102-12.441 2.43-4.3847 4.332-7.4751 5.705-9.2712 1.744-2.2716 4.676-5.2299 8.796-8.875-1.373 0.3698-2.351 0.7924-2.932 1.2678-0.317 0.2642-1.056 1.2415-2.219 2.932-0.898 1.215-2.007 2.1659-3.328 2.8526-1.426 0.7396-2.879 1.1358-4.358 1.1887-1.479 0.0528-2.906-0.2642-4.279-0.9509-1.426-0.6868-2.589-1.6113-3.487-2.7735-1.954-2.5885-2.535-5.7053-1.743-9.3504 0.528-2.5886 1.823-5.2035 3.883-7.8449 0.951-1.1622 3.064-3.2225 6.339-6.1808 1.374-1.215 2.562-2.3772 3.566-3.4866 1.321-0.4754 2.483-1.2943 3.487-2.4565 0.634-0.7395 1.135-1.5584 1.505-2.4564-0.37-0.4227-0.687-0.8717-0.951-1.3471-0.792-1.3207-1.452-3.3546-1.981-6.1016l-1.902-9.9051c-1.373-7.0789-1.901-12.441-1.584-16.086-3.434-0.3698-6.894-0.1585-10.381 0.634 0.264 3.2224 0.343 7.3165 0.238 12.282v1.2679zm67.83 216.49c-2.06-4.226-3.407-8.611-4.041-13.154-3.962 1.215-7.713 2.272-11.252 3.17 0.105 0.053 0.211 0.132 0.317 0.237 1.215 1.004 2.667 2.88 4.358 5.627l9.667 16.165 4.596-1.823c0.634-0.264 1.03-0.528 1.189-0.792 0.317-0.528 0.132-1.347-0.555-2.457-1.902-2.8-3.328-5.124-4.279-6.973zm19.81-81.697c-0.211-0.37-0.422-0.687-0.634-0.951-0.581-0.793-1.822-1.796-3.724-3.012-6.075-4.067-9.879-6.682-11.411-7.844-2.905-2.272-5.388-4.544-7.448-6.815-1.11 1.004-1.823 1.69-2.14 2.06-1.902 2.166-3.671 5.679-5.309 10.539-1.056 3.117-1.717 4.992-1.981 5.626-0.053 0.159-0.106 0.317-0.158 0.476 2.43-0.37 4.886-0.661 7.369-0.872 9.086-0.739 17.565-0.475 25.436 0.793z" fill="#FBCDA4"/>
</svg>
