<?xml version="1.0" encoding="UTF-8"?>
<svg viewBox="0 0 370 383" xmlns="http://www.w3.org/2000/svg">
<path d="m162.97 360.36c-1.606 0.746-3.012 1.29-4.216 1.635-2.123 0.631-4.647 0.975-7.572 1.032-2.008 1.262-4.188 1.779-6.54 1.549 0.058 0.459 0.115 0.947 0.172 1.463 0.111 1.94-0.29 3.776-1.204 5.507 2.214-0.036 4.48-0.094 6.797-0.172 3.576-0.14 10.747-0.541 21.512-1.205 0.315-1.033 0.716-2.209 1.205-3.528 0.631-1.606 1.118-2.897 1.462-3.872-0.917-2.122-1.692-4.274-2.323-6.453-0.287 0.114-0.602 0.229-0.946 0.344-2.467 1.032-3.901 1.635-4.303 1.807-1.778 0.86-3.126 1.491-4.044 1.893zm96.028 0.344c-1.893-0.803-4.044-1.807-6.453-3.012-5.106-2.581-8.462-4.187-10.068-4.818-1.205-0.517-2.954-1.148-5.249-1.893-2.524-0.861-4.302-1.492-5.335-1.893-1.09-0.402-2.151-0.832-3.183-1.291 0.057 0.115 0.086 0.229 0.086 0.344 0.344 1.492 0.516 3.499 0.516 6.023l0.086 14.284c0.057 1.721 0.029 3.27-0.086 4.647v0.516c-0.217 0.092-0.446 0.178-0.688 0.258 1.725 0.158 3.704 0.1 5.937-0.172 0.803-0.115 2.868-0.488 6.195-1.119 6.837-1.249 13.635-1.88 20.393-1.893-1.367-1.544-2.198-3.466-2.495-5.765-0.23-1.434-0.115-2.839 0.344-4.216zm-59.716-89.402c-3.729-2.123-6.339-4.159-7.831-6.11-0.573-0.745-1.089-1.548-1.548-2.409-1.377 2.065-3.471 4.503-6.282 7.314-4.13 4.245-7.572 7.257-10.325 9.035-1.951 1.262-4.159 2.38-6.626 3.356 0.631 0.459 1.291 0.946 1.979 1.462 8.089 6.597 15.632 13.94 22.63 22.028 4.016-5.22 8.662-9.78 13.94-13.681 3.04-2.18 5.794-3.528 8.26-4.044 1.549-0.344 3.098-0.344 4.647 0 1.606 0.344 2.925 1.061 3.958 2.151 1.033 1.147 1.864 1.664 2.495 1.549 0.459-0.058 0.947-0.459 1.463-1.205l3.012-4.044c1.549-2.065 2.925-3.729 4.13-4.991-3.212-0.516-5.822-0.946-7.83-1.29-5.507-0.976-10.068-2.094-13.682-3.356-3.671-1.262-7.801-3.184-12.39-5.765zm-51.972-25.814c1.09 1.95 1.606 4.187 1.548 6.711-0.114 2.295-0.717 4.561-1.807 6.798-1.032 2.237-2.466 4.216-4.302 5.937-0.516 0.459-1.032 0.889-1.549 1.291 3.901-0.402 7.802-0.975 11.703-1.721 3.384-0.631 5.994-1.405 7.83-2.323 2.008-0.975 3.987-2.41 5.937-4.303 1.205-1.204 2.868-3.097 4.991-5.679 0.746-0.86 1.118-1.635 1.118-2.323 0-0.746-0.516-1.52-1.548-2.323-2.066-1.606-4.704-2.668-7.917-3.184-2.18-0.401-5.134-0.602-8.862-0.602l-8.433-0.086c0.516 0.573 0.946 1.176 1.291 1.807zm63.158 7.572c-0.058 0.344 0.287 0.717 1.032 1.118 4.131 1.951 7.658 3.385 10.584 4.303 2.295 0.573 4.991 1.118 8.088 1.635l19.361 3.269c1.95 0.459 3.556 0.574 4.818 0.345 1.894-0.173 3.27-0.918 4.131-2.238 0.287-0.401 0.602-1.118 0.946-2.151 0.287-1.032 0.574-1.778 0.861-2.237 0.229-0.459 0.688-1.004 1.376-1.635 0.689-0.688 1.148-1.233 1.377-1.635 0.689-1.09 1.033-2.667 1.033-4.732l0.344-7.486-4.647-3.614c0.058 0.401 0.086 0.831 0.086 1.29 0.115 7.458-1.979 13.137-6.281 17.038-2.352 2.179-5.163 3.384-8.432 3.614-3.442 0.229-6.282-0.66-8.519-2.668-2.811-2.524-4.331-6.654-4.561-12.391-0.057-1.606-0.028-3.069 0.086-4.388-1.434 0.688-3.04 1.377-4.818 2.065-4.761 2.008-7.859 3.385-9.293 4.13-3.385 1.836-5.909 3.958-7.572 6.368zm37.602-42.163c-0.918 0.459-2.122 0.918-3.614 1.377 5.106-0.574 9.895-0.115 14.37 1.376 2.065 0.689 4.274 1.664 6.625 2.926-0.057-0.115-0.114-0.229-0.172-0.344-1.548-4.188-2.667-7.515-3.355-9.982-0.345-1.089-0.66-2.208-0.947-3.355-2.352 1.606-4.188 2.839-5.507 3.7-2.811 1.893-5.277 3.327-7.4 4.302zm-134.23 55.242c1.089 0.516 2.839 0.832 5.248 0.946 1.033 0.058 2.037 0.086 3.012 0.086-2.467-1.606-4.331-3.872-5.593-6.797-0.688-1.664-1.09-3.299-1.205-4.905l-2.323 2.754c-1.262 1.663-1.922 2.925-1.979 3.786-0.057 1.778 0.889 3.155 2.84 4.13zm20.393-51.886c-0.058 0.115-1.607 2.495-4.647 7.142-0.229 0.286-0.43 0.602-0.602 0.946 0.057 0.172 0.143 0.373 0.258 0.603 1.663-0.058 3.671-0.058 6.023 0 3.499 0.057 8.748-0.029 15.747-0.259 6.195-0.057 11.386 0.287 15.574 1.033 5.564 0.975 10.498 2.811 14.8 5.507 4.819 2.983 8.261 6.74 10.326 11.272 0.229 0.459 0.43 0.947 0.602 1.463 1.95-2.868 4.589-5.622 7.916-8.261 2.237-1.778 5.593-4.073 10.068-6.883 9.694-6.081 17.381-10.097 23.06-12.047-0.573 0.115-1.176 0.23-1.807 0.344-7.113 1.377-12.419 3.213-15.918 5.507-1.721 1.262-3.012 2.18-3.873 2.754-1.491 1.032-2.839 1.749-4.044 2.151-2.237 0.631-4.503 0.459-6.797-0.516-2.238-1.033-3.93-2.582-5.077-4.647-1.09-2.008-1.492-4.216-1.205-6.625 0.287-2.41 1.176-4.532 2.668-6.368 1.893-2.18 4.962-4.159 9.207-5.937 6.482-2.754 13.394-4.933 20.737-6.54-0.172-0.114-0.316-0.229-0.43-0.344-0.861-0.688-2.037-1.807-3.528-3.356-1.549-1.606-2.725-2.753-3.528-3.442-2.295-1.95-5.22-3.642-8.777-5.076-1.95-0.803-5.22-1.865-9.809-3.184 0.287 1.721 0.172 3.471-0.344 5.249-0.517 1.721-1.406 3.184-2.668 4.388-1.262 1.262-2.753 2.151-4.474 2.668-1.721 0.573-3.442 0.688-5.163 0.344-1.262-0.23-2.84-0.803-4.733-1.721-2.352-1.147-3.929-1.864-4.732-2.151-2.008-0.689-5.134-1.09-9.379-1.205-4.303-0.115-7.429-0.487-9.379-1.118-2.18-0.689-4.102-1.721-5.765-3.098-0.804 0.975-1.607 2.208-2.41 3.7-0.918 1.778-1.749 3.212-2.495 4.302 2.409 0.631 4.302 1.176 5.679 1.635 1.721 0.574 4.876 1.864 9.465 3.872 3.958 1.664 7.171 2.84 9.637 3.528 3.327 0.918 5.077 1.405 5.249 1.463 2.008 0.688 3.614 1.52 4.819 2.495 1.319 1.147 2.294 2.582 2.925 4.303 0.631 1.72 0.775 3.441 0.431 5.162-0.287 1.721-1.033 3.27-2.238 4.647-1.147 1.377-2.552 2.38-4.216 3.011-2.581 0.976-6.195 0.832-10.842-0.43-3.327-0.918-6.597-2.036-9.809-3.356l-8.949-3.786c-4.073-1.663-8.346-3.04-12.821-4.13-3.04 3.155-4.618 4.819-4.732 4.991z" fill="#FFEACE"/>
<path d="m241.79 310.97c-0.517 3.844-1.348 6.626-2.496 8.347-1.147 1.778-2.753 3.069-4.818 3.872s-4.131 0.975-6.196 0.516c-0.688-0.172-1.376-0.402-2.065-0.688v1.29c0.172 0 0.316 0.029 0.43 0.086 1.779 0.459 4.159 1.377 7.142 2.754 3.213 1.549 5.536 2.553 6.97 3.011 0.631 0.173 2.409 0.631 5.335 1.377 2.18 0.574 3.929 1.147 5.249 1.721 0.746 0.402 1.835 1.004 3.27 1.807 1.262 0.746 2.38 1.233 3.355 1.463 0.402-1.721 1.406-3.155 3.012-4.302 1.492-1.09 3.184-1.693 5.077-1.807 1.651-0.065 3.458 0.222 5.421 0.86 0.864-4.893 0.864-9.741 0-14.542-0.038-0.197-0.096-0.397-0.172-0.602-0.29 0.046-0.606 0.075-0.947 0.086-2.868 0.115-5.908-1.004-9.121-3.356-3.614-3.04-6.339-5.249-8.174-6.625-1.09-0.804-3.012-2.094-5.765-3.873-0.861-0.516-1.664-1.032-2.41-1.548-0.401 0.573-0.717 1.09-0.946 1.548-0.861 1.607-1.578 4.475-2.151 8.605zm-112.2-8.346c-1.664-0.861-2.926-1.492-3.786-1.893-0.196-0.102-0.397-0.217-0.602-0.345-0.466 8.857-0.408 16.028 0.172 21.512 0.281 2.555 0.711 4.907 1.29 7.056 3.501-1.29 6.34-1.978 8.519-2.065 2.237-0.058 4.331 0.315 6.281 1.118 2.066 0.918 3.614 2.209 4.647 3.872 0.631 0.976 1.377 2.582 2.237 4.819 0.861 1.836 1.922 3.04 3.184 3.614 1.09 0.459 2.381 0.488 3.872 0.086 0.803-0.229 2.065-0.746 3.786-1.549 1.377-0.631 2.266-1.204 2.667-1.721 0.287-0.344 0.631-1.09 1.033-2.237 0.459-1.033 1.061-1.979 1.807-2.84l2.323-12.906c0.517-2.467 0.918-4.159 1.205-5.077 0.172-0.631 0.401-1.205 0.688-1.721-3.958-4.245-7.027-7.056-9.207-8.433-1.262 2.696-2.983 4.905-5.162 6.626-2.352 1.893-4.848 2.782-7.487 2.667-2.753-0.114-5.793-1.462-9.12-4.044-5.335-4.245-8.118-6.425-8.347-6.539zm-54.381-5.163c-0.9998-0.821-2.2045-1.711-3.6139-2.668-0.0191 1.09 0.0096 2.266 0.086 3.528 0.1721 2.754 0.4303 5.565 0.7744 8.433 0.6884 5.335 2.0652 9.035 4.1303 11.1 1.4341 1.434 3.2124 2.352 5.3349 2.753 2.1224 0.344 4.1015 0.115 5.9372-0.688 1.8356-0.803 3.3271-2.094 4.4744-3.872 0.7897-1.264 1.3059-2.583 1.5488-3.958-2.1724-0.702-4.2662-1.821-6.2814-3.356-1.6062-1.205-3.6713-3.069-6.1953-5.593-2.8109-2.696-4.876-4.589-6.1954-5.679zm225.44 6.711c-0.592 0.371-1.223 0.715-1.893 1.033-5.334 2.237-9.264 4.044-11.788 5.421-2.008 1.205-3.499 2.094-4.474 2.667-0.901 0.465-1.762 0.838-2.582 1.119l-0.516 2.495c-0.344 2.008-0.143 3.958 0.602 5.851 0.689 1.951 1.836 3.528 3.442 4.733 1.606 1.147 3.442 1.807 5.507 1.979 2.123 0.115 4.016-0.315 5.679-1.291 2.754-1.721 4.561-4.445 5.421-8.174 0.631-2.352 0.889-5.65 0.775-9.895l-0.086-3.7c0-0.849-0.029-1.595-0.087-2.238zm-181.3-194.55c-0.286 0.574-0.86 2.037-1.72 4.389-2.697 8.088-6.626 15.287-11.789 21.597-0.459 0.574-1.09 1.32-1.893 2.238 4.532 0.114 8.289 1.491 11.272 4.13 0.23 0.229 0.488 0.459 0.775 0.688 3.212-0.574 6.969-0.574 11.272 0-0.115-4.245 0.057-7.4 0.516-9.465 0.861-3.671 2.438-6.31 4.733-7.916 2.122-1.664 5.879-2.61 11.272-2.84l-5.593-12.563c-0.402-0.975-0.775-1.835-1.119-2.581-1.147-0.229-2.18-0.545-3.098-0.947-5.22-0.401-8.002-0.602-8.346-0.602-1.262 0-2.582 0.115-3.958 0.344-1.148 1.549-1.922 2.725-2.324 3.528zm-59.458 32.784c-1.1473 0.918-2.4667 1.807-3.9582 2.667 4.1876-0.114 9.2357-0.315 15.144-0.602 0.3442-2.581 1.5775-5.077 3.7-7.486 0.8031-0.975 1.893-2.036 3.2698-3.184 0.8031-0.631 1.979-1.606 3.5279-2.925 4.5318-3.958 8.4325-8.462 11.702-13.51-4.0729 1.893-6.2814 2.897-6.6256 3.012-1.0325 0.344-2.0938 0.688-3.1837 1.033-1.5488 2.696-3.9295 5.277-7.1419 7.744-4.5317 3.097-7.8302 5.507-9.8953 7.228-2.8109 2.811-4.9907 4.818-6.5395 6.023zm-37.774-26.933c-0.0573 0.459-0.1434 0.976-0.2581 1.549-0.5736 4.188-0.9178 8.404-1.0326 12.649 1.3768-0.344 2.9543-0.516 4.7326-0.516 0.4016 0 0.8031 0.028 1.2047 0.086 0.9751-0.746 2.1224-1.492 3.4418-2.237 4.0729-2.352 7.6581-4.389 10.756-6.11-5.7938-1.376-12.075-3.183-18.844-5.421zm15.23-53.52c-0.8605 0.2868-1.6062 0.6023-2.2372 0.9465-3.614 1.9504-6.3675 5.3062-8.2605 10.067 1.262 0.2869 3.9868 0.6597 8.1744 1.1186 3.3845 0.4016 6.0806 0.9179 8.0884 1.5489 2.7535 0.9178 6.769 3.2984 12.046 7.1418 0.4015-2.2945 0.6023-4.5891 0.6023-6.8837-0.631-0.1147-1.2907-0.2868-1.979-0.5163-1.8357-0.631-3.7861-1.9217-5.8512-3.8721-2.2372-2.2945-3.9581-3.9581-5.1628-4.9906l-3.3558-2.6675c-0.8031-0.6884-1.4915-1.3194-2.0651-1.893zm247.38 61.696c-0.861-1.836-2.352-3.557-4.475-5.163-0.975-0.688-3.011-1.922-6.109-3.7-1.663-0.975-3.098-1.95-4.302-2.926-2.409-0.172-5.106-0.315-8.089-0.43-3.097-0.172-5.42-0.43-6.969-0.774-1.262-0.287-2.381-0.66-3.356-1.119h-0.344c-0.918 0.172-1.951 0.172-3.098 0 0 1.721-0.029 3.557-0.086 5.507-0.115 6.425-0.115 11.071 0 13.94 1.836-0.344 4.216-1.004 7.142-1.979 3.384-1.205 5.736-1.979 7.056-2.324 6.023-1.491 10.755-0.917 14.197 1.721 3.442 2.639 5.278 7.142 5.507 13.51 0 0.803-0.086 3.327-0.258 7.572-0.057 1.262-0.086 2.409-0.086 3.442 0.057-0.345 0.144-0.689 0.258-1.033l1.463-6.281c0.688-2.524 1.233-4.331 1.635-5.421 0.115-0.344 0.258-0.66 0.43-0.947 0-0.287 0.029-0.602 0.086-0.946 0.402-3.041 0.603-5.192 0.603-6.454 0-2.409-0.402-4.474-1.205-6.195zm59.372-31.579c-4.704-0.1148-8.748 0.3441-12.133 1.3767-1.147 0.3442-2.753 0.9752-4.818 1.893-2.18 0.9179-3.786 1.5489-4.819 1.8931-2.409 0.8031-4.618 1.1472-6.625 1.0325-0.115 0.631-0.316 1.5775-0.603 2.8399-0.401 2.122-0.602 5.335-0.602 9.637l0.172 8.174c0.287 0.058 0.602 0.144 0.947 0.258 2.007 0.517 3.9 0.402 5.679-0.344 1.548-0.631 3.155-1.864 4.818-3.7 0.517-0.573 1.176-1.348 1.979-2.323 0.918-0.918 1.865-1.922 2.84-3.012 2.524-2.753 6.253-6.969 11.186-12.648 0.688-0.6884 1.291-1.3194 1.807-1.893-0.057-0.631-0.057-1.3194 0-2.0651 0.057-0.4016 0.115-0.7744 0.172-1.1186zm-37.688-44.486c0.631 0.631 1.979 2.1799 4.044 4.6465 1.721 2.0651 4.417 5.1341 8.088 9.207 2.926 3.614 4.905 7.0558 5.937 10.326 0.115 0.2294 0.201 0.4589 0.259 0.6884 1.663-0.9752 4.101-2.1225 7.313-3.4419h0.087c1.491-1.4341 2.724-2.4667 3.699-3.0977 0.976-0.6883 1.98-1.2333 3.012-1.6349-0.746-0.631-1.405-1.3193-1.979-2.0651-0.459-0.6883-1.09-1.8643-1.893-3.5279-0.746-1.5488-1.405-2.6961-1.979-3.4418-0.803-1.0326-2.295-2.2373-4.474-3.614-2.582-1.6062-4.532-2.8395-5.852-3.7-2.179-1.4915-3.958-2.9256-5.335-4.3023-0.803-0.8031-1.52-1.6062-2.151-2.4093-0.86 0.2868-1.749 0.6597-2.667 1.1186-2.983 1.3767-5.564 2.6387-7.744 3.786 0.573 0.4589 1.118 0.9465 1.635 1.4628z" fill="#A60F35"/>
<path d="m359.93 57.995c-2.697-7.2852-4.934-12.706-6.712-16.263-2.983-5.8512-6.367-10.555-10.154-14.112-3.671-3.4418-7.858-5.9659-12.562-7.5721-4.876-1.7209-9.666-2.1511-14.37-1.2907-3.27 0.5737-7.429 2.1225-12.477 4.6466-14.628 7.1131-25.154 14.886-31.579 23.319-4.245 5.6217-6.081 10.842-5.507 15.66 0.402 2.9256 1.75 5.3636 4.044 7.314 1.377 1.2046 2.811 1.9504 4.303 2.2372 1.491 0.631 3.327 0.9752 5.507 1.0325 1.721 0.1148 4.245 0.2008 7.572 0.2582 0.803 6.0232 0.143 11.874-1.979 17.554-3.385 0.3442-7.716 0.3728-12.993 0.086-7.515-0.4589-11.846-0.6884-12.993-0.6884-2.18-0.0573-4.073 0.0861-5.679 0.4303-1.721-1.262-3.041-2.2086-3.959-2.8396-0.688-0.5162-1.29-0.9465-1.807-1.2907 0.287-0.3441 0.574-0.6883 0.861-1.0325 6.425-8.2605 10.498-16.119 12.218-23.577 0.746-5.1627 1.578-8.9775 2.496-11.444 0.172-0.459 0.746-1.807 1.721-4.0442 0.745-1.6636 1.204-3.069 1.376-4.2163 0.23-1.1473 0.287-3.0116 0.173-5.593-0.115-2.4093 0-4.245 0.344-5.507 0.287-1.2047 0.889-2.6101 1.807-4.2163 0.459-0.8605 1.204-2.1798 2.237-3.9581 1.377-2.6388 2.036-5.3923 1.979-8.2605-0.057-3.155-1.004-5.7077-2.84-7.6581-1.663-1.7209-4.474-3.1264-8.432-4.2163-8.605-2.2946-18.242-3.155-28.912-2.5814-7.973 0.40155-17.668 1.6922-29.083 3.8721-4.36 0.8031-7.372 1.9791-9.035 3.5279-1.148 1.0326-1.951 2.2659-2.41 3.7-0.516 1.4915-0.659 2.9543-0.43 4.3884 0.172 1.0899 0.574 2.2659 1.205 3.5279 0.229 0.4015 0.86 1.4914 1.893 3.2697 5.449 8.49 9.953 15.202 13.509 20.135 2.926 3.9582 5.45 6.5396 7.572 7.7442 3.844 2.1799 8.375 2.6388 13.596 1.3768 2.983-0.6884 7.227-2.4954 12.734-5.421-0.344 4.3597-1.061 8.4899-2.151 12.391-2.811-2.5814-6.74-4.0155-11.788-4.3023-1.664-0.1147-3.786-0.1147-6.368 0-2.81 0.1721-4.933 0.2581-6.367 0.2581-4.13-0.0573-7.228-0.1147-9.293-0.1721-3.384 0-6.253 0.2295-8.605 0.6884-0.745-1.0899-1.319-2.1225-1.721-3.0977-0.975-2.0651-1.721-4.6465-2.237-7.7441-0.459-3.614-0.832-6.3101-1.118-8.0884-0.861-6.9411-2.582-12.018-5.163-15.23-1.778-2.2372-4.016-3.786-6.712-4.6465-2.811-0.9178-5.392-0.7744-7.744 0.4303-1.721 0.9178-3.098 2.3232-4.13 4.2162-0.975 1.721-1.52 3.6427-1.635 5.7652-9.982-1.7783-20.479 0.2294-31.493 6.0232-6.999 3.614-15.747 10.068-26.244 19.36-2.352 2.0651-4.073 3.8721-5.163 5.4209-1.606 2.2946-2.381 4.5318-2.323 6.7116 0.172 4.1876 3.126 7.945 8.862 11.272 1.492 0.8031 3.7 2.0078 6.626 3.614 2.467 1.5488 4.302 3.1837 5.507 4.9046-6.769 0.0574-15.517 2.6675-26.244 7.8303-12.219 5.8511-20.909 9.2643-26.072 10.239-0.0574 0-0.1147 0.029-0.1721 0.086 4.7039-11.3 6.138-22.946 4.3023-34.935-0.9752-6.8264-3.0116-12.534-6.1093-17.123-3.786-5.6791-8.5759-9.1783-14.37-10.498-2.352-0.5162-5.6217-0.6596-9.8093-0.4302-6.138 0.3442-10.957 1.1186-14.456 2.3233-4.4744 1.4914-8.6046 3.9868-12.391 7.486-3.2124 3.0403-6.1953 6.9411-8.9488 11.702-1.6062 2.7535-3.8147 7.1706-6.6256 13.251-0.9752 2.2372-1.6349 3.9295-1.9791 5.0767-0.63101 1.8931-0.86047 3.6427-0.68837 5.2489 0.28682 2.6961 1.6349 4.962 4.0442 6.7977 2.4093 1.893 4.962 2.61 7.6581 2.1511 0.9752-0.1147 2.3806-0.3729 4.2163-0.7744 0.7457-0.0574 1.6636 0.0574 2.7535 0.3442 0.5736 0.1147 1.4628 0.3442 2.6674 0.6884 1.1473 0.2868 4.1589 0.6596 9.0349 1.1186 3.7287 0.3441 6.5969 1.0899 8.6047 2.2372 1.0325 0.5736 2.2658 1.5488 3.7 2.9256-2.9256-0.8031-6.0233-1.7783-9.2931-2.9256-4.8759-1.7783-8.4899-2.7535-10.842-2.9256-4.4744-0.4016-7.945 0.717-10.412 3.3558-0.2294 0.2295-0.4589 0.4876-0.6883 0.7744-1.893 0.0574-3.5853 0.6597-5.0768 1.807-1.8357 1.377-3.2411 3.442-4.2163 6.195-0.63101 1.951-1.1186 4.561-1.4628 7.831-0.68837 6.367-1.0326 13.566-1.0326 21.597 0 5.507 0.63101 9.752 1.893 12.735 3.2124 7.687 11.071 12.821 23.577 15.402 6.8263 1.435 14.599 2.266 23.319 2.496 5.4496 0.115 13.28-0.058 23.491-0.516 6.0806-0.23 10.555-0.746 13.423-1.549 1.09-0.287 3.3845-1.062 6.8838-2.324 2.8108-0.975 5.1054-1.606 6.8837-1.893-1.09 1.492-3.3272 3.27-6.7117 5.335-3.3271 2.008-5.5356 3.844-6.6255 5.507-0.459 0.689-0.8031 1.406-1.0326 2.151-0.9178 0.574-1.8357 1.262-2.7535 2.066-1.262 1.147-2.3519 2.265-3.2697 3.355-0.8605-0.057-1.6062-0.086-2.2373-0.086-2.524 0-4.1302 0.029-4.8186 0.086-1.7783 0.115-3.3271 0.459-4.6465 1.033-1.4341 0.631-2.6674 1.549-3.7 2.753-1.0899 1.205-1.8356 2.553-2.2372 4.045-0.5163 2.065-0.4589 3.986 0.1721 5.765-0.3442 0.057-0.6884 0.143-1.0326 0.258-2.3519 0.631-5.2488 1.549-8.6907 2.753-3.5565 1.377-6.0232 2.783-7.4 4.217-2.7534 2.753-4.1302 7.543-4.1302 14.369 0.1147 8.49 1.1473 15.431 3.0977 20.824l1.9791 5.162c0.9178 2.926 1.6062 4.762 2.0651 5.507 1.0899 1.893 2.7535 3.385 4.9907 4.475 1.8356 0.86 3.8434 1.434 6.0232 1.721-0.1147 0.287-0.2007 0.573-0.2581 0.86-1.8357 6.712-2.983 13.71-3.4419 20.996-0.2294 4.13 0.1721 7.256 1.2047 9.379 1.0325 2.007 3.155 4.187 6.3674 6.539 1.4341 0.975 3.614 2.352 6.5396 4.13 0.9747 0.607 1.8639 1.18 2.6674 1.721 1.4095 0.957 2.6141 1.847 3.614 2.668 1.3193 1.09 3.3845 2.983 6.1953 5.679 2.524 2.524 4.5892 4.388 6.1954 5.593 2.0151 1.535 4.1089 2.654 6.2813 3.356 0.4287 0.174 0.8589 0.317 1.2907 0.43 2.9256 0.803 5.6216 0.774 8.0886-0.086 4.015-1.319 6.97-4.36 8.863-9.121 1.204-2.754 2.093-6.998 2.667-12.735 0.115-1.09 0.201-2.036 0.258-2.839 0.402 0.057 0.832 0.114 1.291 0.172 0.918 0.114 1.864 0.229 2.839 0.344-0.057 0.172-0.114 0.344-0.172 0.516-0.344 1.778-0.229 3.528 0.345 5.249 0.631 1.778 1.606 3.241 2.925 4.388 0.701 0.651 1.677 1.311 2.926 1.979 0.205 0.128 0.406 0.243 0.602 0.345 0.86 0.401 2.122 1.032 3.786 1.893 0.23 0.114 3.012 2.294 8.347 6.539 3.327 2.581 6.367 3.93 9.12 4.044 2.639 0.115 5.135-0.774 7.487-2.667 2.179-1.721 3.9-3.93 5.162-6.626 2.18 1.377 5.249 4.188 9.207 8.433-0.287 0.516-0.516 1.09-0.688 1.721-0.287 0.918-0.688 2.61-1.205 5.077l-2.323 12.906c-0.746 0.861-1.348 1.807-1.807 2.84-0.401 1.147-0.746 1.893-1.032 2.237-0.402 0.516-1.291 1.09-2.668 1.721-1.721 0.803-2.983 1.32-3.786 1.549-1.491 0.402-2.782 0.373-3.872-0.086-1.262-0.574-2.323-1.778-3.184-3.614-0.86-2.237-1.606-3.843-2.237-4.819-1.033-1.663-2.581-2.954-4.647-3.872-1.95-0.803-4.044-1.176-6.281-1.118-2.179 0.087-5.018 0.775-8.519 2.065-1.111 0.394-2.287 0.853-3.527 1.377l-13.424 5.507c-4.015 1.663-6.711 3.298-8.088 4.904-0.287 0.344-0.545 0.689-0.774 1.033-2.9261 1.778-5.192 3.413-6.7982 4.904-0.9178 0.861-2.0077 2.008-3.2697 3.442-1.8357 2.065-2.8682 3.241-3.0977 3.528-2.6961 2.811-4.3597 4.905-4.9907 6.282-0.8031 1.663-1.0899 3.47-0.8605 5.42 0.2295 2.008 0.8892 3.729 1.9791 5.163 1.1473 1.492 2.6101 2.61 4.3884 3.356 1.8356 0.746 3.6713 0.975 5.507 0.688 1.5488-0.229 3.1263-0.831 4.7325-1.807 0.6884 0.345 1.4341 0.632 2.2368 0.861 1.262 0.344 3.155 0.688 5.679 1.033l6.54 0.86c8.146 1.147 14.284 1.721 18.414 1.721 3.499 0 6.167-0.488 8.002-1.463 1.779-0.86 3.184-2.208 4.217-4.044 0.032-0.059 0.061-0.117 0.086-0.172 0.914-1.731 1.315-3.567 1.204-5.507-0.057-0.516-0.114-1.004-0.172-1.463 2.352 0.23 4.532-0.287 6.54-1.549 2.925-0.057 5.449-0.401 7.572-1.032 1.204-0.345 2.61-0.889 4.216-1.635 0.918-0.402 2.266-1.033 4.044-1.893 0.402-0.172 1.836-0.775 4.303-1.807 0.344-0.115 0.659-0.23 0.946-0.344 0.631 2.179 1.406 4.331 2.323 6.453-0.344 0.975-0.831 2.266-1.462 3.872-0.489 1.319-0.89 2.495-1.205 3.528-0.064 0.223-0.121 0.423-0.172 0.602 6.31 3.385 11.329 5.651 15.058 6.798 2.352 0.746 5.937 1.578 10.756 2.495 4.818 0.918 8.404 1.721 10.756 2.41 0.344 0.114 0.688 0.229 1.032 0.344 1.836-0.975 4.102-2.266 6.798-3.872 1.606-0.803 4.13-1.836 7.572-3.098 1.912-0.735 3.547-1.395 4.905-1.979 0.242-0.08 0.471-0.166 0.688-0.258v-0.516c0.115-1.377 0.143-2.926 0.086-4.647l-0.086-14.284c0-2.524-0.172-4.531-0.516-6.023 0-0.115-0.029-0.229-0.086-0.344 1.032 0.459 2.093 0.889 3.183 1.291 1.033 0.401 2.811 1.032 5.335 1.893 2.295 0.745 4.044 1.376 5.249 1.893 1.606 0.631 4.962 2.237 10.068 4.818 2.409 1.205 4.56 2.209 6.453 3.012-0.459 1.377-0.574 2.782-0.344 4.216 0.297 2.299 1.128 4.221 2.495 5.765 0.761 0.826 1.679 1.543 2.754 2.152 1.95 1.204 4.503 1.921 7.658 2.151 1.835 0.114 4.532 0.114 8.088 0 1.033 0 2.582 0.028 4.647 0.086 1.778-0.058 3.298-0.316 4.56-0.775 0.574-0.229 1.119-0.487 1.635-0.774 1.434 1.319 2.868 2.18 4.302 2.581 2.18 0.689 4.417 0.459 6.712-0.688 2.237-1.09 3.872-2.725 4.905-4.905 0.975-1.95 1.348-4.044 1.118-6.281-0.229-2.237-1.032-4.159-2.409-5.765-0.574-0.746-2.008-2.065-4.302-3.958l-2.238-2.152c0.173-0.86 0.23-1.749 0.173-2.667-0.115-3.901-1.492-6.769-4.131-8.605-1.032-0.688-2.409-1.262-4.13-1.721-2.008-0.401-3.499-0.745-4.474-1.032-1.434-0.402-3.098-1.119-4.991-2.151-2.065-1.205-3.643-2.094-4.733-2.668-1.698-0.949-3.304-1.695-4.818-2.237-1.963-0.638-3.769-0.925-5.421-0.86-1.893 0.114-3.585 0.717-5.077 1.807-1.606 1.147-2.61 2.581-3.012 4.302-0.975-0.23-2.093-0.717-3.355-1.463-1.434-0.803-2.524-1.405-3.27-1.807-1.319-0.574-3.069-1.147-5.249-1.721-2.926-0.746-4.704-1.204-5.335-1.377-1.434-0.458-3.757-1.462-6.97-3.011-2.983-1.377-5.363-2.295-7.141-2.754-0.115-0.057-0.259-0.086-0.431-0.086v-1.29c0.689 0.286 1.377 0.516 2.065 0.688 2.066 0.459 4.131 0.287 6.196-0.516s3.671-2.094 4.818-3.872c1.148-1.721 1.979-4.504 2.496-8.347 0.573-4.13 1.29-6.998 2.151-8.605 0.229-0.458 0.545-0.975 0.946-1.548 0.746 0.516 1.549 1.032 2.41 1.548 2.753 1.779 4.675 3.069 5.765 3.873 1.835 1.376 4.56 3.585 8.174 6.625 3.213 2.352 6.253 3.471 9.121 3.356 0.341-0.011 0.657-0.04 0.947-0.086 1.46-0.149 2.751-0.551 3.872-1.205 0.803 0.115 1.635 0.115 2.495 0 0.708-0.085 1.453-0.257 2.237-0.516 0.82-0.281 1.681-0.654 2.582-1.119 0.975-0.573 2.466-1.462 4.474-2.667 2.524-1.377 6.454-3.184 11.789-5.421 0.67-0.318 1.301-0.662 1.893-1.033 3.603-1.918 6.213-4.127 7.83-6.625 1.663-2.524 2.868-6.196 3.614-11.014 1.09-8.318 2.065-14.513 2.925-18.586 1.492-7.056 3.729-12.764 6.712-17.123 1.95-2.869 5.105-6.253 9.465-10.154 7.228-6.482 13.567-11.243 19.016-14.284 2.582-1.434 4.159-2.323 4.733-2.667 1.663-1.147 2.954-2.352 3.872-3.614 1.606-2.237 2.237-4.933 1.893-8.088-0.344-2.869-1.405-5.565-3.184-8.089-0.172-0.229-1.376-1.663-3.614-4.302-1.491-1.778-2.552-3.327-3.183-4.647-0.23-0.516-0.66-1.721-1.291-3.614-0.516-1.491-1.061-2.638-1.635-3.441-1.491-2.123-3.815-3.356-6.97-3.7-2.696-0.287-5.564 0.057-8.604 1.032-3.557 1.377-6.253 2.323-8.089 2.84-3.155 0.86-5.908 1.032-8.26 0.516-0.631-1.205-1.348-3.012-2.151-5.421-0.402-1.262-0.775-2.323-1.119-3.184 0.402-0.573 0.774-1.176 1.119-1.807 0.631-0.516 1.204-1.118 1.721-1.807 0.631-0.803 1.262-1.893 1.893-3.269 0.631-1.549 1.089-2.697 1.376-3.442 0.689-1.549 1.865-3.729 3.528-6.54 1.664-2.868 2.811-5.048 3.442-6.539 0.402-0.976 1.377-3.815 2.926-8.519 1.147-3.499 2.38-6.195 3.7-8.088 0.286-0.402 0.889-1.262 1.807-2.582 0.803-1.09 1.376-1.979 1.721-2.667 0.286-0.631 0.516-1.291 0.688-1.979 4.933-3.729 9.379-8.003 13.337-12.821 3.327-4.188 5.278-6.626 5.851-7.314 0.631-0.688 1.893-1.979 3.786-3.872 1.549-1.549 2.754-2.84 3.614-3.872 4.245-5.2205 6.368-11.272 6.368-18.156-0.058-2.1799-0.373-4.0729-0.947-5.6791-0.057-0.4589-0.114-0.8604-0.172-1.2046-0.401-1.8357-1.52-4.9047-3.356-9.207-0.86-1.7209-1.549-2.9543-2.065-3.7-0.803-2.6961-1.807-5.6791-3.011-8.9489zm-49.477-5.7651c-2.065-2.4666-3.413-4.0155-4.044-4.6465-0.517-0.5163-1.062-1.0039-1.635-1.4628 2.18-1.1473 4.761-2.4093 7.744-3.786 0.918-0.4589 1.807-0.8318 2.667-1.1186 0.631 0.8031 1.348 1.6062 2.152 2.4093 1.376 1.3767 3.155 2.8108 5.334 4.3023 1.32 0.8605 3.27 2.0938 5.852 3.7 2.179 1.3768 3.671 2.5814 4.474 3.614 0.574 0.7457 1.233 1.893 1.979 3.4418 0.803 1.6636 1.434 2.8396 1.893 3.5279 0.574 0.7458 1.233 1.4341 1.979 2.0651-1.032 0.4016-2.036 0.9466-3.011 1.6349-0.976 0.631-2.209 1.6636-3.7 3.0977h-0.086c-3.213 1.3194-5.651 2.4667-7.314 3.4419-0.058-0.2295-0.144-0.459-0.259-0.6884-1.032-3.2698-3.011-6.7116-5.937-10.326-3.671-4.0729-6.367-7.1419-8.088-9.207zm21.511 41.216c3.385-1.0325 7.429-1.4915 12.133-1.3767-0.057 0.3442-0.115 0.717-0.172 1.1186-0.057 0.7457-0.057 1.4341 0 2.0651-0.516 0.5736-1.119 1.2046-1.807 1.893-4.933 5.6795-8.662 9.8955-11.186 12.648-0.975 1.09-1.922 2.094-2.84 3.012-0.803 0.975-1.462 1.75-1.979 2.323-1.663 1.836-3.269 3.069-4.818 3.7-1.779 0.746-3.672 0.861-5.679 0.344-0.345-0.114-0.66-0.2-0.947-0.258l-0.172-8.174c0-4.302 0.201-7.515 0.602-9.637 0.287-1.2624 0.488-2.2089 0.603-2.8399 2.007 0.1147 4.216-0.2294 6.625-1.0325 1.033-0.3442 2.639-0.9752 4.819-1.8931 2.065-0.9178 3.671-1.5488 4.818-1.893zm-51.713 25.04c2.122 1.606 3.613 3.327 4.474 5.163 0.803 1.721 1.205 3.786 1.205 6.195 0 1.262-0.201 3.413-0.603 6.454-0.057 0.344-0.086 0.659-0.086 0.946-0.172 0.287-0.315 0.603-0.43 0.947-0.402 1.09-0.947 2.897-1.635 5.421l-1.463 6.281c-0.114 0.344-0.2 0.688-0.258 1.033 0-1.033 0.029-2.18 0.086-3.442 0.172-4.245 0.258-6.769 0.258-7.572-0.229-6.368-2.065-10.871-5.507-13.51-3.441-2.638-8.174-3.212-14.197-1.721-1.32 0.345-3.672 1.119-7.056 2.324-2.926 0.975-5.306 1.635-7.142 1.979-0.115-2.869-0.115-7.515 0-13.94 0.057-1.95 0.086-3.786 0.086-5.507 1.147 0.172 2.18 0.172 3.098 0h0.344c0.975 0.459 2.094 0.832 3.356 1.119 1.549 0.344 3.872 0.602 6.97 0.774 2.982 0.115 5.679 0.258 8.088 0.43 1.205 0.976 2.639 1.951 4.302 2.926 3.098 1.778 5.134 3.012 6.11 3.7zm50.853 89.661c2.352-0.402 3.757 0.057 4.216 1.376-2.466 3.27-6.625 7.113-12.476 11.53-0.459 0.345-0.918 0.718-1.377 1.119-0.516-1.491-1.262-3.556-2.237-6.195-0.976-2.582-1.664-4.503-2.066-5.765l13.94-2.065zm-34.333-10.584c-5.392-0.975-10.784-1.262-16.176-0.861-0.402-1.204-0.66-2.093-0.775-2.667-0.057-0.287-0.114-0.574-0.172-0.861 4.13-1.663 8.662-3.212 13.596-4.646 0.688 1.663 1.548 3.671 2.581 6.023 0.287 0.803 0.602 1.807 0.946 3.012zm2.324 22.888c0.172 0.459 0.373 0.947 0.602 1.463 0.975 2.409 1.578 4.56 1.807 6.453 0.172 1.607 0.143 4.073-0.086 7.4 0 2.066 0.258 3.815 0.774 5.249-0.975 0.402-2.151 1.033-3.528 1.893-3.786 2.467-8.461 5.88-14.025 10.24 0.287-2.065 0.574-4.417 0.86-7.056 0.172-1.664 0.287-3.155 0.345-4.474 0.458-0.517 0.889-1.062 1.29-1.635 1.205-1.779 1.807-3.672 1.807-5.679 0-0.746-0.201-2.381-0.602-4.905l-0.258-6.109c-0.115-1.721-0.402-3.643-0.861-5.765 1.32-0.058 2.266-0.058 2.84 0 2.524 0.114 4.675 0.573 6.453 1.376 0.517 0.23 1.377 0.746 2.582 1.549zm-9.035 65.051c-1.09 1.607-3.471 2.955-7.142 4.045-4.474 1.376-7.945 3.011-10.412 4.904-0.114-0.057-0.2-0.115-0.258-0.172-4.704-3.557-9.149-6.769-13.337-9.637 1.09-0.172 2.151-0.43 3.184-0.775 2.753-0.917 5.421-2.524 8.002-4.818 0.229 0.287 0.488 0.545 0.774 0.774 1.492 1.32 3.242 2.151 5.249 2.496 2.065 0.286 3.987 0 5.765-0.861 1.148-0.516 2.639-1.577 4.475-3.184 2.352-2.007 4.618-3.872 6.797-5.593-0.458 2.467-0.946 5.135-1.462 8.003-0.459 2.409-1.004 4.015-1.635 4.818zm-69.784-262.87c3.786-0.8604 8.117-1.3767 12.993-1.5488 2.983-0.1147 7.4-0.0861 13.251 0.086-5.966 3.3845-11.932 6.3388-17.897 8.8628-0.918 0.3442-1.578 0.4589-1.979 0.3442-0.574-0.1147-1.148-0.631-1.721-1.5488-1.377-2.1225-2.926-4.1876-4.647-6.1954zm-6.281 57.909c-0.172-1.7783-0.545-3.4992-1.119-5.1628 3.557-0.0573 7.63 0.0574 12.219 0.3442 0 1.8931 0.114 3.6427 0.344 5.2489-2.926 1.7209-5.765 4.1589-8.519 7.3139-3.499 4.0155-6.453 8.3465-8.863 12.993-2.065 3.786-2.954 7.027-2.667 9.723 0.287 2.983 1.778 5.421 4.474 7.314 2.754 1.836 5.507 2.295 8.261 1.377 2.926-0.975 5.88-4.159 8.863-9.551 0.057-0.173 0.143-0.316 0.258-0.431l0.172 14.198c0.115 4.13-0.029 7.199-0.43 9.207-0.115 0.516-0.517 2.151-1.205 4.905-0.516 1.95-0.803 3.585-0.86 4.904-0.115 3.27 0.946 6.024 3.183 8.261 1.951 1.893 4.503 2.954 7.658 3.183 2.754 0.23 5.651-0.172 8.691-1.204 0.746-0.23 3.442-1.32 8.089-3.27 3.327-1.319 6.109-2.151 8.346-2.495 0.172 3.499-0.086 8.174-0.774 14.025-0.861 6.884-1.32 11.559-1.377 14.026-0.115 1.663-0.057 3.184 0.172 4.56-2.524 1.32-4.905 2.696-7.142 4.131-0.86 0.573-1.635 1.118-2.323 1.634-0.631-2.007-1.864-3.671-3.7-4.99-0.516-0.402-1.348-0.918-2.495-1.549-1.205-0.688-2.066-1.233-2.582-1.635-0.574-0.402-2.094-1.836-4.56-4.302-2.869-2.811-6.454-5.278-10.756-7.4-3.27-1.549-7.4-3.098-12.391-4.647-4.13-1.147-7.084-2.294-8.863-3.442-0.803-0.459-2.065-1.376-3.786-2.753-1.549-1.262-2.811-2.151-3.786-2.668-2.065-1.032-4.302-1.434-6.711-1.204-2.467 0.172-4.618 0.975-6.454 2.409-1.836 1.377-3.212 3.184-4.13 5.421s-1.176 4.503-0.775 6.798h-10.067c-0.459-1.607-0.746-5.134-0.86-10.584-0.058-4.475-0.861-7.773-2.41-9.895-1.032-1.377-2.323-2.381-3.872-3.012v-0.43c1.492-0.459 2.696-1.09 3.614-1.893 1.951-1.664 3.184-4.303 3.7-7.917 0.459-3.843 0.029-7.543-1.291-11.1-0.688-1.835-1.95-4.245-3.786-7.228-2.007-3.269-3.355-5.679-4.044-7.227-0.115-0.287-0.258-0.631-0.43-1.033 0.344-0.172 0.688-0.344 1.033-0.516 1.548-0.861 2.782-2.065 3.7-3.614 0.917-1.6064 1.376-3.27 1.376-4.9909 0.058-1.7209-0.373-3.3845-1.29-4.9907-0.918-1.5488-2.123-2.7822-3.614-3.7-1.549-0.9178-3.614-1.4915-6.196-1.7209-0.287-0.8605-0.631-1.721-1.032-2.5814-1.549-3.2124-5.02-6.9124-10.412-11.1-5.622-4.4171-9.264-8.031-10.928-10.842 7.228-6.9411 15.747-11.473 25.556-13.595 1.319 1.3767 1.922 3.1837 1.807 5.4209-0.057 1.893-0.574 3.8721-1.549 5.9372-0.574 1.262-1.491 3.1264-2.753 5.593-0.976 2.1225-1.434 4.0442-1.377 5.7651 0 1.7783 0.516 3.4706 1.549 5.0768 1.032 1.6062 2.38 2.7822 4.044 3.5279 2.639 1.2046 5.937 1.2333 9.895 0.086 2.295-0.631 5.708-1.7496 10.24-3.3558 4.876-1.0899 8.547-0.3728 11.014 2.1512 0.975 1.0325 1.864 2.6961 2.667 4.9907 0.861 2.7535 1.578 4.5605 2.151 5.4209 1.607 2.6961 4.131 4.245 7.572 4.6465 3.442 0.4016 6.253-0.4876 8.433-2.6674 2.467-2.4667 3.499-5.7651 3.098-9.8954zm-67.805 79.766c-2.122 1.09-3.929 2.581-5.421 4.474-0.803 1.033-1.606 2.323-2.409 3.872-0.918 1.836-1.635 3.213-2.151 4.13-2.123 3.729-3.327 5.909-3.614 6.54-1.205 2.524-1.721 4.847-1.549 6.97 0 0.114 0.029 0.229 0.086 0.344-2.524-0.459-4.819-0.861-6.884-1.205-3.843-0.516-6.74-0.889-8.691-1.118-3.441-0.459-6.31-0.976-8.604-1.549-0.402-0.115-0.918-0.23-1.549-0.344 5.105-3.041 9.092-7.028 11.96-11.961 1.262-2.18 2.209-4.474 2.84-6.884h0.688c0.631 0 1.32 0.173 2.065 0.517 0.402 0.229 1.033 0.573 1.894 1.032 2.753 1.377 5.765 1.693 9.034 0.947 3.155-0.746 5.852-2.295 8.089-4.647 2.122-2.237 3.7-4.876 4.732-7.916-0.114 1.262-0.143 2.61-0.086 4.044 0.058 0.861 0.115 1.692 0.172 2.496-0.229 0.057-0.43 0.143-0.602 0.258zm-111.09-97.405c0.631-0.3442 1.3767-0.6597 2.2372-0.9465 0.5736 0.5736 1.262 1.2046 2.0651 1.893l3.3558 2.6675c1.2047 1.0325 2.9256 2.6961 5.1628 4.9906 2.0651 1.9504 4.0155 3.2411 5.8512 3.8721 0.6883 0.2295 1.348 0.4016 1.979 0.5163 0 2.2946-0.2007 4.5892-0.6023 6.8837-5.2775-3.8434-9.293-6.224-12.046-7.1418-2.0077-0.631-4.7039-1.1473-8.0884-1.5489-4.1876-0.4589-6.9124-0.8317-8.1744-1.1186 1.893-4.7612 4.6465-8.117 8.2605-10.067zm-13.251 54.123c0.1147-0.573 0.2008-1.09 0.2582-1.549 6.7689 2.238 13.05 4.045 18.844 5.421-3.0976 1.721-6.6829 3.758-10.756 6.11-1.3194 0.745-2.4666 1.491-3.4418 2.237-0.4016-0.058-0.8031-0.086-1.2047-0.086-1.7783 0-3.3558 0.172-4.7325 0.516 0.1147-4.245 0.4589-8.461 1.0325-12.649zm34.074 28.051c1.4915-0.86 2.8109-1.749 3.9582-2.667 1.5488-1.205 3.7287-3.212 6.5395-6.023 2.0651-1.721 5.3636-4.131 9.8954-7.228 3.2124-2.467 5.593-5.048 7.1418-7.744 1.0899-0.345 2.1512-0.689 3.1837-1.033 0.3442-0.115 2.5528-1.119 6.6256-3.012-3.2697 5.048-7.1705 9.552-11.702 13.51-1.5488 1.319-2.7248 2.294-3.5279 2.925-1.3768 1.148-2.4667 2.209-3.2698 3.184-2.1225 2.409-3.3558 4.905-3.7 7.486-5.9085 0.287-10.957 0.488-15.144 0.602zm61.696-31.062c0.86-2.352 1.434-3.815 1.721-4.389 0.401-0.803 1.175-1.979 2.323-3.528 1.377-0.229 2.696-0.344 3.958-0.344 0.344 0 3.126 0.201 8.346 0.602 0.918 0.402 1.951 0.718 3.098 0.947 0.344 0.746 0.717 1.606 1.119 2.581l5.593 12.563c-5.393 0.23-9.15 1.176-11.272 2.84-2.295 1.606-3.872 4.245-4.733 7.916-0.459 2.065-0.631 5.22-0.516 9.465-4.303-0.574-8.06-0.574-11.272 0-0.287-0.229-0.545-0.459-0.775-0.688-2.983-2.639-6.74-4.016-11.272-4.13 0.803-0.918 1.434-1.664 1.893-2.238 5.163-6.31 9.092-13.509 11.789-21.597zm-2.582 91.295c-0.516 0.688-1.004 1.405-1.463 2.151-0.631 0.975-1.176 1.951-1.634 2.926-3.5-1.377-6.683-2.237-9.552-2.582-0.344-0.057-0.659-0.086-0.946-0.086-0.746-0.516-1.6064-1.061-2.5816-1.635-2.0651-1.319-3.5852-2.352-4.5604-3.097-1.3194-1.148-2.4093-2.094-3.2698-2.84 0.5737 0.115 1.1473 0.258 1.7209 0.43 1.8357 0.459 4.5318 1.176 8.0889 2.152 3.441 0.86 8.174 1.721 14.197 2.581zm-43.625 11.53c2.3519 4.991 5.2488 9.494 8.6907 13.51-1.1473-0.459-2.4093-0.775-3.786-0.947-2.2946-0.287-5.1055-0.115-8.4326 0.516-1.4915 0.23-2.524 0.201-3.0977-0.086-0.631-0.287-1.1759-1.09-1.6349-2.409-1.1472-3.155-1.8356-7.601-2.0651-13.337 2.6962-1.262 5.507-1.979 8.4326-2.151 0.4015 1.491 1.0325 3.126 1.893 4.904zm8.8628 35.796c0.4589-1.205 0.8318-2.324 1.1186-3.356 0.8605-0.459 1.6636-1.061 2.4093-1.807 1.3768-1.32 2.2946-2.868 2.7535-4.647 0.4589-1.721 0.4589-3.499 0-5.335-0.1147-0.344-0.2008-0.659-0.2581-0.946 1.3767 1.262 2.8395 2.438 4.3883 3.528 2.1225 1.549 3.9295 2.524 5.421 2.925 0.631 0.172 1.262 0.316 1.893 0.431-2.352 2.868-4.1589 5.65-5.4209 8.346-0.2295 0.459-0.4303 0.918-0.6024 1.377-1.262-0.574-2.6101-0.889-4.0442-0.947-2.0077-0.114-3.8434 0.287-5.5069 1.205-1.2047 0.631-2.4667 1.635-3.7861 3.012 0.7458-1.664 1.2907-2.926 1.6349-3.786zm49.305-31.235c3.04-4.647 4.589-7.027 4.647-7.142 0.114-0.172 1.692-1.836 4.732-4.991 4.475 1.09 8.748 2.467 12.821 4.13l8.949 3.786c3.212 1.32 6.482 2.438 9.809 3.356 4.647 1.262 8.261 1.406 10.842 0.43 1.664-0.631 3.069-1.634 4.216-3.011 1.205-1.377 1.951-2.926 2.238-4.647 0.344-1.721 0.2-3.442-0.431-5.162-0.631-1.721-1.606-3.156-2.925-4.303-1.205-0.975-2.811-1.807-4.819-2.495-0.172-0.058-1.922-0.545-5.249-1.463-2.466-0.688-5.679-1.864-9.637-3.528-4.589-2.008-7.744-3.298-9.465-3.872-1.377-0.459-3.27-1.004-5.679-1.635 0.746-1.09 1.577-2.524 2.495-4.302 0.803-1.492 1.606-2.725 2.41-3.7 1.663 1.377 3.585 2.409 5.765 3.098 1.95 0.631 5.076 1.003 9.379 1.118 4.245 0.115 7.371 0.516 9.379 1.205 0.803 0.287 2.38 1.004 4.732 2.151 1.893 0.918 3.471 1.491 4.733 1.721 1.721 0.344 3.442 0.229 5.163-0.344 1.721-0.517 3.212-1.406 4.474-2.668 1.262-1.204 2.151-2.667 2.668-4.388 0.516-1.778 0.631-3.528 0.344-5.249 4.589 1.319 7.859 2.381 9.809 3.184 3.557 1.434 6.482 3.126 8.777 5.076 0.803 0.689 1.979 1.836 3.528 3.442 1.491 1.549 2.667 2.668 3.528 3.356 0.114 0.115 0.258 0.23 0.43 0.344-7.343 1.607-14.255 3.786-20.737 6.54-4.245 1.778-7.314 3.757-9.207 5.937-1.492 1.836-2.381 3.958-2.668 6.368-0.287 2.409 0.115 4.617 1.205 6.625 1.147 2.065 2.839 3.614 5.077 4.647 2.294 0.975 4.56 1.147 6.797 0.516 1.205-0.402 2.553-1.119 4.044-2.151 0.861-0.574 2.152-1.492 3.873-2.754 3.499-2.294 8.805-4.13 15.918-5.507 0.631-0.114 1.234-0.229 1.807-0.344-5.679 1.95-13.366 5.966-23.06 12.047-4.475 2.81-7.831 5.105-10.068 6.883-3.327 2.639-5.966 5.393-7.916 8.261-0.172-0.516-0.373-1.004-0.602-1.463-2.065-4.532-5.507-8.289-10.326-11.272-4.302-2.696-9.236-4.532-14.8-5.507-4.188-0.746-9.379-1.09-15.574-1.033-6.999 0.23-12.248 0.316-15.747 0.259-2.352-0.058-4.36-0.058-6.023 0-0.115-0.23-0.201-0.431-0.258-0.603 0.172-0.344 0.373-0.66 0.602-0.946zm-10.498 45.69c-2.409-0.114-4.159-0.43-5.248-0.946-1.951-0.975-2.897-2.352-2.84-4.13 0.057-0.861 0.717-2.123 1.979-3.786l2.323-2.754c0.115 1.606 0.517 3.241 1.205 4.905 1.262 2.925 3.126 5.191 5.593 6.797-0.975 0-1.979-0.028-3.012-0.086zm-27.018 5.421c0.4015 0.803 0.8604 1.607 1.3767 2.41 1.0326 1.606 2.2659 3.097 3.7 4.474l-0.5163 0.516c-1.4914 1.836-2.4379 3.901-2.8395 6.196-2.3519-2.639-4.9333-4.991-7.7442-7.056 0.5163-0.631 1.0899-1.348 1.7209-2.151 0.9752-1.09 2.4093-2.553 4.3024-4.389zm152.39-60.232c1.492-0.459 2.696-0.918 3.614-1.377 2.123-0.975 4.589-2.409 7.4-4.302 1.319-0.861 3.155-2.094 5.507-3.7 0.287 1.147 0.602 2.266 0.947 3.355 0.688 2.467 1.807 5.794 3.355 9.982 0.058 0.115 0.115 0.229 0.173 0.344-2.352-1.262-4.561-2.237-6.626-2.926-4.475-1.491-9.264-1.95-14.37-1.376zm-32.956 41.904c-0.745-0.401-1.09-0.774-1.032-1.118 1.663-2.41 4.187-4.532 7.572-6.368 1.434-0.745 4.532-2.122 9.293-4.13 1.778-0.688 3.384-1.377 4.818-2.065-0.114 1.319-0.143 2.782-0.086 4.388 0.23 5.737 1.75 9.867 4.561 12.391 2.237 2.008 5.077 2.897 8.519 2.668 3.269-0.23 6.08-1.435 8.432-3.614 4.302-3.901 6.396-9.58 6.281-17.038 0-0.459-0.028-0.889-0.086-1.29l4.647 3.614-0.344 7.486c0 2.065-0.344 3.642-1.033 4.732-0.229 0.402-0.688 0.947-1.377 1.635-0.688 0.631-1.147 1.176-1.376 1.635-0.287 0.459-0.574 1.205-0.861 2.237-0.344 1.033-0.659 1.75-0.946 2.151-0.861 1.32-2.237 2.065-4.13 2.238-1.263 0.229-2.869 0.114-4.819-0.345l-19.361-3.269c-3.097-0.517-5.793-1.062-8.088-1.635-2.926-0.918-6.453-2.352-10.584-4.303zm-62.642-1.979c0.058-2.524-0.458-4.761-1.548-6.711-0.345-0.631-0.775-1.234-1.291-1.807l8.432 0.086c3.729 0 6.683 0.201 8.863 0.602 3.213 0.516 5.851 1.578 7.917 3.184 1.032 0.803 1.548 1.577 1.548 2.323 0 0.688-0.372 1.463-1.118 2.323-2.123 2.582-3.786 4.475-4.991 5.679-1.95 1.893-3.929 3.328-5.937 4.303-1.836 0.918-4.446 1.692-7.83 2.323-3.901 0.746-7.802 1.319-11.703 1.721 0.517-0.402 1.033-0.832 1.549-1.291 1.836-1.721 3.27-3.7 4.302-5.937 1.09-2.237 1.693-4.503 1.807-6.798zm42.594 12.993c1.491 1.951 4.101 3.987 7.83 6.11 4.589 2.581 8.719 4.503 12.39 5.765 3.614 1.262 8.175 2.38 13.682 3.356 2.008 0.344 4.618 0.774 7.83 1.29-1.205 1.262-2.581 2.926-4.13 4.991l-3.012 4.044c-0.516 0.746-1.004 1.147-1.463 1.205-0.631 0.115-1.462-0.402-2.495-1.549-1.032-1.09-2.352-1.807-3.958-2.151-1.549-0.344-3.098-0.344-4.647 0-2.466 0.516-5.22 1.864-8.26 4.044-5.278 3.901-9.924 8.461-13.94 13.681-6.998-8.088-14.541-15.431-22.63-22.028-0.688-0.516-1.348-1.003-1.979-1.462 2.467-0.976 4.675-2.094 6.626-3.356 2.753-1.778 6.195-4.79 10.325-9.035 2.811-2.811 4.905-5.249 6.282-7.314 0.459 0.861 0.975 1.664 1.549 2.409z" fill="#1C131E"/>
<path d="m93.446 274.92c-0.5163-0.804-0.9752-1.607-1.3767-2.41-1.8931 1.836-3.3272 3.299-4.3024 4.389-0.631 0.803-1.2046 1.52-1.7209 2.151 2.8109 2.065 5.3923 4.417 7.7442 7.056 0.4015-2.295 1.3481-4.36 2.8395-6.196l0.5163-0.516c-1.4341-1.377-2.6674-2.868-3.7-4.474zm-12.046-25.642c-0.2868 1.032-0.6597 2.151-1.1186 3.356-0.3442 0.86-0.8892 2.122-1.6349 3.786 1.3194-1.377 2.5814-2.381 3.7861-3.012 1.6635-0.918 3.4992-1.319 5.5069-1.205 1.4341 0.058 2.7822 0.373 4.0442 0.947 0.1721-0.459 0.3729-0.918 0.6023-1.377 1.2621-2.696 3.069-5.478 5.421-8.346-0.631-0.115-1.262-0.259-1.8931-0.431-1.4914-0.401-3.2984-1.376-5.4209-2.925-1.5488-1.09-3.0116-2.266-4.3884-3.528 0.0574 0.287 0.1435 0.602 0.2582 0.946 0.4589 1.836 0.4589 3.614 0 5.335-0.4589 1.779-1.3768 3.327-2.7535 4.647-0.7457 0.745-1.5488 1.348-2.4093 1.807zm-1.2907-18.93c-3.4419-4.016-6.3388-8.519-8.6907-13.51-0.8605-1.778-1.4915-3.413-1.893-4.904-2.9256 0.172-5.7365 0.889-8.4326 2.151 0.2295 5.736 0.9178 10.182 2.0651 13.337 0.459 1.319 1.0039 2.122 1.6349 2.409 0.5737 0.287 1.6062 0.316 3.0977 0.086 3.3271-0.631 6.138-0.803 8.4325-0.516 1.3768 0.172 2.6388 0.488 3.7861 0.947zm33.472-22.889c0.459-0.746 0.947-1.463 1.463-2.151-6.023-0.86-10.756-1.721-14.197-2.581-3.5571-0.976-6.2532-1.693-8.0889-2.152-0.5736-0.172-1.1472-0.315-1.7209-0.43 0.8605 0.746 1.9504 1.692 3.2698 2.84 0.9752 0.745 2.4953 1.778 4.5604 3.097 0.9752 0.574 1.8356 1.119 2.5816 1.635 0.287 0 0.602 0.029 0.946 0.086 2.869 0.345 6.052 1.205 9.552 2.582 0.458-0.975 1.003-1.951 1.634-2.926zm27.191-42.679c1.492-1.893 3.299-3.384 5.421-4.474 0.172-0.115 0.373-0.201 0.602-0.258-0.057-0.804-0.114-1.635-0.172-2.496-0.057-1.434-0.028-2.782 0.086-4.044-1.032 3.04-2.61 5.679-4.732 7.916-2.237 2.352-4.934 3.901-8.089 4.647-3.269 0.746-6.281 0.43-9.035-0.947-0.86-0.459-1.491-0.803-1.893-1.032-0.745-0.344-1.434-0.517-2.065-0.517h-0.688c-0.631 2.41-1.578 4.704-2.84 6.884-2.868 4.933-6.855 8.92-11.96 11.961 0.631 0.114 1.147 0.229 1.549 0.344 2.294 0.573 5.163 1.09 8.604 1.549 1.951 0.229 4.848 0.602 8.691 1.118 2.065 0.344 4.36 0.746 6.884 1.205-0.057-0.115-0.086-0.23-0.086-0.344-0.172-2.123 0.344-4.446 1.549-6.97 0.287-0.631 1.491-2.811 3.614-6.54 0.516-0.917 1.233-2.294 2.151-4.13 0.803-1.549 1.606-2.839 2.409-3.872zm72.107-89.402c0.574 1.6636 0.947 3.3845 1.119 5.1628 0.401 4.1303-0.631 7.4287-3.098 9.8954-2.18 2.1798-4.991 3.069-8.433 2.6674-3.441-0.4015-5.965-1.9504-7.572-4.6465-0.573-0.8604-1.29-2.6674-2.151-5.4209-0.803-2.2946-1.692-3.9582-2.667-4.9907-2.467-2.524-6.138-3.2411-11.014-2.1512-4.532 1.6062-7.945 2.7248-10.24 3.3558-3.958 1.1473-7.256 1.1186-9.895-0.086-1.664-0.7457-3.012-1.9217-4.044-3.5279-1.033-1.6062-1.549-3.2985-1.549-5.0768-0.057-1.7209 0.401-3.6426 1.377-5.7651 1.262-2.4666 2.179-4.331 2.753-5.593 0.975-2.0651 1.492-4.0442 1.549-5.9372 0.115-2.2372-0.488-4.0442-1.807-5.4209-9.809 2.1224-18.328 6.6542-25.556 13.595 1.664 2.8109 5.306 6.4248 10.928 10.842 5.392 4.1876 8.863 7.8876 10.412 11.1 0.401 0.8604 0.745 1.7209 1.032 2.5814 2.582 0.2294 4.647 0.8031 6.196 1.7209 1.491 0.9178 2.696 2.1512 3.614 3.7 0.917 1.6062 1.348 3.2698 1.29 4.9907 0 1.7209-0.459 3.3845-1.376 4.9909-0.918 1.549-2.152 2.753-3.7 3.614-0.345 0.172-0.689 0.344-1.033 0.516 0.172 0.402 0.315 0.746 0.43 1.033 0.689 1.548 2.037 3.958 4.044 7.227 1.836 2.983 3.098 5.393 3.786 7.228 1.32 3.557 1.75 7.257 1.291 11.1-0.516 3.614-1.749 6.253-3.7 7.917-0.918 0.803-2.122 1.434-3.614 1.893v0.43c1.549 0.631 2.84 1.635 3.872 3.012 1.549 2.122 2.352 5.42 2.41 9.895 0.114 5.45 0.401 8.977 0.86 10.584h10.067c-0.401-2.295-0.143-4.561 0.775-6.798s2.294-4.044 4.13-5.421c1.836-1.434 3.987-2.237 6.454-2.409 2.409-0.23 4.646 0.172 6.711 1.204 0.975 0.517 2.237 1.406 3.786 2.668 1.721 1.377 2.983 2.294 3.786 2.753 1.779 1.148 4.733 2.295 8.863 3.442 4.991 1.549 9.121 3.098 12.391 4.647 4.302 2.122 7.887 4.589 10.756 7.4 2.466 2.466 3.986 3.9 4.56 4.302 0.516 0.402 1.377 0.947 2.582 1.635 1.147 0.631 1.979 1.147 2.495 1.549 1.836 1.319 3.069 2.983 3.7 4.99 0.688-0.516 1.463-1.061 2.323-1.634 2.237-1.435 4.618-2.811 7.142-4.131-0.23-1.376-0.287-2.897-0.172-4.56 0.057-2.467 0.516-7.142 1.377-14.026 0.688-5.851 0.946-10.526 0.774-14.025-2.237 0.344-5.019 1.176-8.346 2.495-4.647 1.95-7.343 3.04-8.089 3.27-3.04 1.032-5.937 1.434-8.691 1.204-3.155-0.229-5.707-1.29-7.658-3.183-2.237-2.237-3.298-4.991-3.183-8.261 0.057-1.319 0.344-2.954 0.86-4.904 0.688-2.754 1.09-4.389 1.205-4.905 0.401-2.008 0.545-5.077 0.43-9.207l-0.172-14.198c-0.115 0.115-0.201 0.258-0.258 0.431-2.983 5.392-5.938 8.576-8.863 9.551-2.754 0.918-5.507 0.459-8.261-1.377-2.696-1.893-4.187-4.331-4.474-7.314-0.287-2.696 0.602-5.937 2.667-9.723 2.41-4.6468 5.364-8.9778 8.863-12.993 2.754-3.155 5.593-5.593 8.519-7.3139-0.23-1.6062-0.344-3.3558-0.344-5.2489-4.589-0.2868-8.662-0.4015-12.219-0.3442zm20.393-54.295c-4.876 0.1721-9.207 0.6884-12.993 1.5488 1.721 2.0078 3.27 4.0729 4.647 6.1954 0.573 0.9178 1.147 1.4341 1.721 1.5488 0.401 0.1147 1.061 0 1.979-0.3442 5.965-2.524 11.931-5.4783 17.897-8.8628-5.851-0.1721-10.268-0.2007-13.251-0.086zm49.649 268.46c3.671-1.089 6.052-2.437 7.142-4.044 0.631-0.803 1.176-2.409 1.635-4.818 0.516-2.868 1.004-5.536 1.462-8.003-2.179 1.721-4.445 3.586-6.797 5.593-1.836 1.607-3.327 2.668-4.475 3.184-1.778 0.861-3.7 1.147-5.765 0.861-2.007-0.345-3.757-1.176-5.249-2.496-0.286-0.229-0.545-0.487-0.774-0.774-2.581 2.294-5.249 3.901-8.002 4.818-1.033 0.345-2.094 0.603-3.184 0.775 4.188 2.868 8.633 6.08 13.337 9.637 0.058 0.057 0.144 0.115 0.258 0.172 2.467-1.893 5.938-3.528 10.412-4.905zm16.779-67.632c-0.229-0.516-0.43-1.004-0.602-1.463-1.205-0.803-2.065-1.319-2.582-1.549-1.778-0.803-3.929-1.262-6.453-1.376-0.574-0.058-1.52-0.058-2.84 0 0.459 2.122 0.746 4.044 0.861 5.765l0.258 6.109c0.401 2.524 0.602 4.159 0.602 4.905 0 2.007-0.602 3.9-1.807 5.679-0.401 0.573-0.832 1.118-1.29 1.635-0.058 1.319-0.173 2.81-0.345 4.474-0.286 2.639-0.573 4.991-0.86 7.056 5.564-4.36 10.239-7.773 14.025-10.24 1.377-0.86 2.553-1.491 3.528-1.893-0.516-1.434-0.774-3.183-0.774-5.249 0.229-3.327 0.258-5.793 0.086-7.4-0.229-1.893-0.832-4.044-1.807-6.453zm-19.102-25.212c5.392-0.401 10.784-0.114 16.176 0.861-0.344-1.205-0.659-2.209-0.946-3.012-1.033-2.352-1.893-4.36-2.581-6.023-4.934 1.434-9.466 2.983-13.596 4.646 0.058 0.287 0.115 0.574 0.172 0.861 0.115 0.574 0.373 1.463 0.775 2.667zm54.725 12.821c-0.459-1.319-1.864-1.778-4.216-1.376l-13.94 2.065c0.402 1.262 1.09 3.183 2.066 5.765 0.975 2.639 1.721 4.704 2.237 6.195 0.459-0.401 0.918-0.774 1.377-1.119 5.851-4.417 10.01-8.26 12.476-11.53z" fill="#FBCDA4"/>
</svg>
