<svg xmlns="http://www.w3.org/2000/svg" width="136" height="103" viewBox="0 0 136 103" fill="none">
<g clip-path="url(#clip0_111_388)">
<path d="M129.45 37.9499C128.783 36.7165 127.983 35.3332 127.05 33.7999C126.85 33.4665 126.633 33.1665 126.4 32.8999L126.45 32.8499C126.383 32.7832 126.333 32.7499 126.3 32.7499C124.8 30.4499 123.583 28.6665 122.65 27.3999C120.85 25.2332 119 23.4999 117.1 22.1999C116.4 21.6999 115.417 21.1165 114.15 20.4499C112.717 19.6499 111.767 19.0999 111.3 18.7999C108.233 16.6665 105.95 15.1165 104.45 14.1499C101.717 12.3832 99.2333 11.3665 97 11.0999C96.8667 11.0665 96.7333 11.0499 96.6 11.0499C95.0667 10.4832 93.5333 9.93319 92 9.39986C87.6667 7.99986 83.1333 6.84986 78.4 5.94986C77.4 5.81652 76.2167 5.66652 74.85 5.49986C69.8167 4.03319 65.5833 3.09986 62.15 2.69986C58.4833 2.26652 52.95 2.26652 45.55 2.69986C38.1167 3.09986 32.5667 3.09986 28.9 2.69986C27.3333 2.53319 24.6167 2.04986 20.75 1.24986C17.35 0.616525 14.65 0.233191 12.65 0.099858C9.01666 -0.200142 6.15 0.233191 4.05 1.39986C2.68333 2.09986 1.65 3.11652 0.949997 4.44986C0.0833306 5.84986 -0.183336 7.24986 0.149997 8.64986C0.616664 11.2499 2.73333 13.2999 6.5 14.7999C7.46666 15.1999 8.95 15.7499 10.95 16.4499C12.5833 17.1165 13.8833 17.8999 14.85 18.7999C15.8833 19.6999 16.75 20.9499 17.45 22.5499C17.85 23.4499 18.3667 24.9165 19 26.9499L23.55 42.1499C25.6167 49.0499 27.55 54.3165 29.35 57.9499C31.6833 62.7165 34.5 66.4832 37.8 69.2499C39.7 71.4832 42.0667 73.5999 44.9 75.5999C48.7913 78.332 53.0746 80.5987 57.75 82.3999C58.8212 83.2904 60.1379 84.0404 61.7 84.6499C62.0643 85.0001 62.4977 85.3168 63 85.5999C63.6715 85.8217 64.4048 86.0384 65.2 86.2499C70.253 87.6229 74.4697 88.8062 77.85 89.7999C77.9155 89.8083 77.9822 89.8083 78.05 89.7999C79.1658 90.0389 80.3824 90.3056 81.7 90.5999C82.9579 90.67 84.2913 90.7867 85.7 90.9499C87.725 91.1659 89.675 91.4159 91.55 91.6999C91.894 91.6922 92.2607 91.6922 92.65 91.6999C96.5833 91.7665 99.2167 91.8665 100.55 91.9999C103.379 92.2249 105.845 92.6749 107.95 93.3499C108.682 93.4736 109.365 93.6236 110 93.7999C112.229 94.4022 114.529 95.5522 116.9 97.2499C117.086 97.3225 117.269 97.3892 117.45 97.4499C117.657 97.6769 117.874 97.9103 118.1 98.1499C119.076 98.9236 119.909 99.6902 120.6 100.45C121.76 101.282 123.01 101.899 124.35 102.3C125.04 102.66 125.673 102.81 126.25 102.75C128.18 103.076 129.813 102.86 131.15 102.1C131.505 101.696 131.855 101.263 132.2 100.8C133.685 99.6375 134.601 98.4542 134.95 97.2499C135.183 96.4165 135.217 95.3999 135.05 94.1999C134.947 93.6827 134.747 92.9827 134.45 92.0999C134.413 91.9213 134.38 91.7547 134.35 91.5999C134.308 91.3247 134.258 91.0581 134.2 90.7999C134.135 89.8638 134.035 88.8805 133.9 87.8499C133.6 86.0499 133.433 84.8999 133.4 84.3999V80.8999C133.4 80.3332 133.333 79.4499 133.2 78.2499C133.123 77.5751 133.056 76.9918 133 76.4999C132.987 75.6065 132.97 74.7065 132.95 73.7999C132.95 72.3759 133.033 71.2592 133.2 70.4499C133.218 69.1186 133.251 67.6186 133.3 65.9499C133.433 61.5832 133.633 58.2665 133.9 55.9999C134.167 53.4332 134.567 51.0665 135.1 48.8999C134.167 45.3332 132.283 41.6832 129.45 37.9499ZM87.05 18.9999C92.45 20.3665 95.35 21.1332 95.75 21.2999C98.2167 22.1332 100.85 23.3165 103.65 24.8499C105.383 25.7832 107.85 27.2665 111.05 29.2999C113.383 30.8332 115 32.1332 115.9 33.1999C116.633 34.0999 117.45 35.6332 118.35 37.7999C119.05 39.4999 119.7 41.2332 120.3 42.9999C120.533 44.7999 120.8 46.6165 121.1 48.4499C121.133 48.4832 121.183 48.5665 121.25 48.6999C121.15 54.4665 119.817 59.9832 117.25 65.2499C116.883 66.1499 116.3 67.2832 115.5 68.6499C115.033 69.1499 114.483 69.8832 113.85 70.8499C113.283 71.5832 112.717 72.2499 112.15 72.8499L112.1 72.8999C111.7 73.3665 111.283 73.7832 110.85 74.1499C110.35 74.5499 109.883 74.9332 109.45 75.2999C108.517 75.9332 107.95 76.3332 107.75 76.4999C107.55 76.6999 107.35 76.9165 107.15 77.1499C103.45 79.4832 98.8333 80.9499 93.3 81.5499C91.9333 81.1832 90.4167 80.9499 88.75 80.8499C88.0833 80.7832 85.8 80.7332 81.9 80.6999C78.9 80.6665 75.75 80.4332 72.45 79.9999C70.4833 79.7332 68.9333 79.4165 67.8 79.0499C66.7667 78.6832 65.0667 77.7832 62.7 76.3499C59.3667 74.2832 56.1667 72.4499 53.1 70.8499C51.6 70.0832 50.3667 69.5832 49.4 69.3499C49.0333 69.1165 48.6333 68.8832 48.2 68.6499C46.4333 67.7165 45.15 66.9832 44.35 66.4499C43.1167 65.6499 41.95 64.7332 40.85 63.6999C39.95 62.5665 39.25 61.4165 38.75 60.2499C38.15 58.8165 37.5 56.2499 36.8 52.5499C36.3667 50.3165 36.05 48.6499 35.85 47.5499C35.5167 45.5499 35.2833 43.8499 35.15 42.4499C34.85 38.0165 35.4833 33.6499 37.05 29.3499C37.3833 28.3832 37.7833 27.4332 38.25 26.4999C38.45 26.1665 38.6833 25.8499 38.95 25.5499C39.8167 24.1832 40.7833 22.5999 41.85 20.7999C42.55 19.8332 43.3167 18.9332 44.15 18.0999C45.1833 18.0332 46.3333 17.7165 47.6 17.1499C48.3333 16.7832 49.4 16.2165 50.8 15.4499C52.8 14.4499 54.9333 13.6499 57.2 13.0499C58.7667 13.3165 60.3333 13.5999 61.9 13.8999C68.9667 15.1999 73.5333 15.9999 75.6 16.2999C77.3 16.5332 78.9333 16.7165 80.5 16.8499C82.3 17.6499 84.4833 18.3665 87.05 18.9999ZM68.7 21.8999C67.4333 20.9332 65.9167 20.3165 64.15 20.0499C61.4833 19.5832 58.8667 19.9499 56.3 21.1499C53.6667 22.3165 51.7 24.0665 50.4 26.3999C50.0667 26.9999 49.6333 27.9332 49.1 29.1999V29.2499C48.3 30.1165 47.6333 31.2332 47.1 32.5999C46.7667 33.4999 46.3833 34.8665 45.95 36.6999C44.8833 41.3665 44.3333 44.8832 44.3 47.2499C44.2333 48.8165 44.4167 50.1165 44.85 51.1499C45.0833 51.6832 45.4167 52.2332 45.85 52.7999C46.2167 53.6999 46.75 54.5665 47.45 55.3999C48.7833 56.9665 50.4333 58.1165 52.4 58.8499C54.4 59.6165 56.4 59.8332 58.4 59.4999C59.7 59.3332 60.7 58.9165 61.4 58.2499C62.1 57.5832 62.6 56.6499 62.9 55.4499C63.4 53.6832 63.6 51.5499 63.5 49.0499C63.3 46.3165 63.1667 44.2165 63.1 42.7499V42.6999C63.2333 42.1665 63.4667 41.4999 63.8 40.6999C64.2 39.5999 64.45 38.9165 64.55 38.6499C64.55 38.6165 64.5667 38.5665 64.6 38.4999L67.1 35.6999C68.6667 33.9332 69.7833 32.4499 70.45 31.2499C71.45 29.3499 71.7667 27.5665 71.4 25.8999C71.0333 24.2332 70.1333 22.8999 68.7 21.8999ZM53.75 33.1499C54.0167 32.8499 54.25 32.5665 54.45 32.2999C54.6833 32.2665 54.9333 32.2499 55.2 32.2499C56.0333 32.2499 56.85 32.4665 57.65 32.8999C58.35 33.2665 58.95 33.7499 59.45 34.3499C59.2833 35.2499 59.1667 35.8165 59.1 36.0499C58.8667 36.8499 58.4167 38.0332 57.75 39.5999C57.5167 40.3665 57.2833 41.4665 57.05 42.8999C56.7833 44.4665 56.5667 45.5832 56.4 46.2499C56.2333 46.8499 56.0333 47.4332 55.8 47.9999C54.6667 48.5999 53.5 48.8165 52.3 48.6499C51.6 48.5499 50.9333 48.2999 50.3 47.8999C50.2 47.1999 50.2333 46.3165 50.4 45.2499L51.05 41.1999C51.3833 39.2665 51.6833 37.8499 51.95 36.9499C52.3833 35.4499 52.9833 34.1832 53.75 33.1499ZM100.25 34.1499C99.3833 33.2499 98.7 32.5999 98.2 32.1999C97.8667 31.8665 97.0167 31.2499 95.65 30.3499C94.7833 29.6832 94.1333 29.1832 93.7 28.8499C92.9 28.3499 92.2 27.9665 91.6 27.6999C90.8 27.3665 90 27.2499 89.2 27.3499C88.9667 27.2499 88.7167 27.1499 88.45 27.0499C85.8833 26.3165 83.8167 26.2832 82.25 26.9499C81.7167 27.1832 81.15 27.5332 80.55 27.9999C79.85 28.5332 79.3333 28.9332 79 29.1999C78.1333 29.7999 77.4833 30.2165 77.05 30.4499C76.2833 30.9832 75.6833 31.4665 75.25 31.8999C73.75 33.1665 72.5333 35.1165 71.6 37.7499C69.9 42.1165 69.2 46.6665 69.5 51.3999C69.6333 53.6665 70.0333 55.5332 70.7 56.9999C71 57.5665 71.4167 58.2832 71.95 59.1499C72.2833 59.5832 72.7667 60.2665 73.4 61.1999L75.15 64.3999C75.85 65.6665 76.5167 66.6499 77.15 67.3499C78.3833 68.7499 79.8833 69.8165 81.65 70.5499C83.3833 71.2499 85.1667 71.4999 87 71.2999C88.8333 71.1665 90.8333 70.5665 93 69.4999C95.1667 68.4999 96.85 67.4832 98.05 66.4499C98.8167 65.7832 99.6167 64.8999 100.45 63.7999L100.55 63.4999C101.85 62.0665 103.067 60.1499 104.2 57.7499C104.933 56.2832 105.433 55.0165 105.7 53.9499C105.867 53.3832 106.033 52.4999 106.2 51.2999C106.533 49.3665 106.733 47.8499 106.8 46.7499C106.867 45.0499 106.617 43.5832 106.05 42.3499C106.05 42.2165 106.017 42.0999 105.95 41.9999C105.683 39.6332 104.8 37.7665 103.3 36.3999C101.9 35.4665 100.883 34.7165 100.25 34.1499ZM82.4 36.6999C84.1333 35.2999 86.7 34.6332 90.1 34.6999C91.7 34.7665 92.95 34.9665 93.85 35.2999C95.15 35.7332 96.4 36.6165 97.6 37.9499C99.7 40.2832 100.833 42.9832 101 46.0499C101.133 48.2165 100.7 50.6999 99.7 53.4999C99.2 54.8332 98.7167 55.7999 98.25 56.3999C97.85 56.9665 96.9 57.7999 95.4 58.8999C94.6719 59.485 94.0385 59.985 93.5 60.3999C93.1134 60.7465 92.7801 61.0131 92.5 61.1999C91.7 61.8332 90.9 62.1999 90.1 62.2999C90.0612 62.3048 90.0112 62.3048 89.95 62.2999C88.84 62.6208 87.6566 62.7042 86.4 62.5499C84.8151 62.3859 83.4318 61.8859 82.25 61.0499C81.9902 60.8661 81.7402 60.6661 81.5 60.4499C81.4771 60.4299 81.4438 60.3966 81.4 60.3499C81.4 60.3499 81.3833 60.3332 81.35 60.2999C80.4155 59.4686 79.5655 58.3353 78.8 56.8999C77.3389 54.3276 76.5556 51.9276 76.45 49.6999C76.4417 49.5415 76.425 49.3749 76.4 49.1999C76.4165 49.175 76.4165 49.1417 76.4 49.0999C76.4134 49.0156 76.4134 48.9156 76.4 48.7999C76.4424 48.1308 76.5591 47.3808 76.75 46.5499C76.8404 46.2112 76.9404 45.8612 77.05 45.4999C77.1167 45.2332 77.2 44.9665 77.3 44.6999C77.3677 44.6756 77.4344 44.6423 77.5 44.5999C77.781 44.0247 78.1477 43.3414 78.6 42.5499C78.9667 41.8499 79.5167 40.7999 80.25 39.3999C80.9167 38.2332 81.6333 37.3332 82.4 36.6999ZM85.85 43.0999C84.8833 44.1999 84.4333 46.0832 84.5 48.7499C84.5 50.6832 84.75 52.1165 85.25 53.0499C86.05 54.5832 87.3333 55.4665 89.1 55.6999C90.8 55.8665 92.2667 55.3499 93.5 54.1499C94.9333 52.7165 95.65 50.4332 95.65 47.2999C95.65 44.7332 95.1833 42.7999 94.25 41.4999C93.6167 40.6332 92.7833 40.0665 91.75 39.7999C90.6833 39.4665 89.7333 39.5832 88.9 40.1499C88.6333 40.3165 88.3333 40.5832 88 40.9499L87.15 41.8999C86.55 42.3999 86.1167 42.7999 85.85 43.0999Z" fill="#121416"/>
</g>
<defs>
<clipPath id="clip0_111_388">
<rect width="136" height="103" fill="white"/>
</clipPath>
</defs>
</svg>