<svg xmlns="http://www.w3.org/2000/svg" width="159" height="290" viewBox="0 0 159 290" fill="none">
<path d="M119.4 228.3C119.033 227.633 118.483 227.167 117.75 226.9C117.05 226.7 116.35 226.733 115.65 227C115.117 227.267 114.683 227.65 114.35 228.15C114.017 228.683 113.867 229.25 113.9 229.85C113.933 230.417 114.133 230.95 114.5 231.45C114.867 231.95 115.333 232.3 115.9 232.5C116.467 232.667 117.05 232.667 117.65 232.5C118.25 232.333 118.733 232.033 119.1 231.6C119.467 231.133 119.683 230.6 119.75 230C119.817 229.367 119.7 228.8 119.4 228.3ZM93.1 234.7C93.1 233.633 93 232.7 92.8 231.9C92.7334 231.567 92.6667 231.3 92.6 231.1C92.4667 230.8 92.3 230.533 92.1 230.3C91.8333 229.867 91.5 229.5 91.1 229.2C90.2 228.467 89.15 228.2 87.95 228.4C87.1833 228.567 86.5167 228.917 85.95 229.45C85.3833 229.983 85 230.583 84.8 231.25C84.5 231.617 84.25 232.1 84.05 232.7C83.9167 233.267 83.85 234.133 83.85 235.3V238.55C83.8167 238.617 83.8 238.7 83.8 238.8C83.3667 241.6 83.2167 245.3 83.35 249.9C83.35 250.8 83.45 251.567 83.65 252.2C83.6167 252.567 83.6333 252.967 83.7 253.4C83.8 254.233 84.0167 254.983 84.35 255.65C84.3833 255.683 84.4167 255.733 84.45 255.8C84.4833 255.967 84.5333 256.15 84.6 256.35C85.0667 257.883 85.7667 259.233 86.7 260.4C87.7333 261.7 88.9167 262.617 90.25 263.15C91.3833 263.65 92.8333 263.933 94.6 264C95.6 264.033 97.1167 264.05 99.15 264.05C100.917 264.183 102.233 264.533 103.1 265.1C104.267 265.833 105.283 267.133 106.15 269C106.883 270.5 107.9 273.183 109.2 277.05C110.4 280.517 111.5 283.15 112.5 284.95C113.8 287.35 115.3 288.867 117 289.5C117.9 289.833 119.017 289.933 120.35 289.8C121.083 289.733 122.2 289.567 123.7 289.3C123.867 289.267 124.983 289.133 127.05 288.9C128.417 288.767 129.533 288.567 130.4 288.3C133.033 287.567 134.7 286.2 135.4 284.2C135.6 283.6 135.717 282.817 135.75 281.85C135.817 280.483 135.867 279.7 135.9 279.5C136.1 278 136.983 275.917 138.55 273.25C140.417 270.117 141.933 267.867 143.1 266.5C143.333 266.233 144 265.483 145.1 264.25C145.9 263.317 146.517 262.533 146.95 261.9C147.75 260.733 148.367 259.383 148.8 257.85C149.167 256.583 149.233 255.367 149 254.2C148.733 252.9 148.117 251.967 147.15 251.4C146.117 250.833 145.017 250.883 143.85 251.55C142.683 252.217 142.1 253.133 142.1 254.3C142.1 254.767 142.167 255.467 142.3 256.4C142.333 257.2 142.15 257.767 141.75 258.1C141.35 258.467 140.667 258.617 139.7 258.55C137.633 258.45 136.033 258.267 134.9 258C133.167 257.567 131.8 256.833 130.8 255.8C130 254.967 129.15 253.4 128.25 251.1C127.15 248.467 125.933 246.017 124.6 243.75C122.8 240.717 120.967 238.617 119.1 237.45C116.633 235.917 113.383 235.367 109.35 235.8C107.45 235.933 106.033 236.367 105.1 237.1C104.5 237.567 103.967 238.217 103.5 239.05C103.267 239.483 102.917 240.267 102.45 241.4C101.583 243.433 100.633 245.25 99.6 246.85C98.7333 246.317 98.0667 245.9 97.6 245.6C96.1667 244.567 95.0667 243.167 94.3 241.4C94.1667 241.067 94.0667 240.8 94 240.6L93.75 239.55L93.7 239.15C93.4 237.783 93.2 236.75 93.1 236.05C93.1 235.983 93.1 235.917 93.1 235.85C93.1 235.417 93.1 235.033 93.1 234.7ZM108.8 242.7C109.167 242.4 109.75 242.15 110.55 241.95C112.917 241.55 114.883 241.917 116.45 243.05C117.35 243.683 118.183 244.667 118.95 246C119.383 246.733 119.983 247.9 120.75 249.5C121.15 250.267 121.75 251.4 122.55 252.9C122.883 253.633 123.333 254.783 123.9 256.35C125.033 258.783 126.85 260.733 129.35 262.2C131.783 263.6 134.4 264.333 137.2 264.4L132.5 271.8C130.7 274.6 129.817 276.883 129.85 278.65C129.883 279.05 129.917 279.633 129.95 280.4C129.917 281.067 129.733 281.567 129.4 281.9C129.067 282.233 128.433 282.467 127.5 282.6L120.85 283.5C119.95 283.633 119.267 283.567 118.8 283.3C118.367 283.1 117.95 282.583 117.55 281.75C117.383 281.383 116.083 277.867 113.65 271.2C112.117 266.967 110.35 263.75 108.35 261.55C106.983 260.017 105.567 259.033 104.1 258.6C103.333 258.367 102.117 258.233 100.45 258.2C98.7833 258.133 97.55 257.967 96.75 257.7C101.217 255.4 104.867 251 107.7 244.5C108.133 243.533 108.5 242.933 108.8 242.7ZM120.7 277.1C120.867 277.967 121.4 278.617 122.3 279.05C123.2 279.517 124.033 279.533 124.8 279.1C125.3 278.8 125.75 278.317 126.15 277.65C126.383 277.25 126.7 276.633 127.1 275.8C127.467 275.167 128.067 274.317 128.9 273.25C129.767 272.15 130.367 271.317 130.7 270.75C131.467 269.483 131.7 268.35 131.4 267.35C131.2 266.383 130.6 265.733 129.6 265.4C128.633 265.067 127.75 265.2 126.95 265.8C126.65 266 126.217 266.5 125.65 267.3L122.25 272.4C120.917 274.333 120.4 275.9 120.7 277.1ZM119.35 263.35C118.717 263.75 118.15 264.45 117.65 265.45C117.05 266.75 116.633 267.567 116.4 267.9L115.75 268.75C115.483 269.117 115.317 269.467 115.25 269.8C114.983 270.633 115.017 271.4 115.35 272.1C115.817 273.033 116.617 273.583 117.75 273.75C118.717 273.85 119.517 273.633 120.15 273.1C120.417 272.867 120.75 272.45 121.15 271.85L123.3 268C123.6 267.467 123.783 267.033 123.85 266.7C124.017 266.133 124 265.55 123.8 264.95C123.567 264.35 123.217 263.867 122.75 263.5C122.25 263.133 121.683 262.933 121.05 262.9C120.417 262.9 119.85 263.05 119.35 263.35ZM114.4 253.8C114.067 254.1 113.6 254.833 113 256C112.333 257.333 111.983 258.067 111.95 258.2C111.617 259.033 111.517 259.8 111.65 260.5C111.85 261.4 112.383 262.067 113.25 262.5C114.117 262.867 114.967 262.85 115.8 262.45C116.367 262.183 116.867 261.717 117.3 261.05C117.533 260.717 117.867 260.067 118.3 259.1C118.7 258.267 118.95 257.683 119.05 257.35C119.283 256.717 119.35 256.117 119.25 255.55C119.083 254.383 118.45 253.6 117.35 253.2C116.217 252.8 115.233 253 114.4 253.8ZM112.35 244.2C111.75 244.233 111.133 244.517 110.5 245.05C110.1 245.45 109.667 246 109.2 246.7L108.1 248.8L105.4 252.65C105.167 253.25 105.133 253.9 105.3 254.6C105.467 255.267 105.8 255.8 106.3 256.2C106.8 256.6 107.4 256.817 108.1 256.85C108.767 256.85 109.367 256.667 109.9 256.3C110.3 255.967 110.65 255.567 110.95 255.1C112.35 253.2 113.6 251.433 114.7 249.8L115.25 248.9C115.817 247.767 115.8 246.683 115.2 245.65C114.9 245.15 114.483 244.767 113.95 244.5C113.417 244.233 112.883 244.133 112.35 244.2ZM106.05 213C105.717 212.267 105.433 211.75 105.2 211.45C104.533 210.717 103.767 210.383 102.9 210.45C101.967 210.517 101.233 210.917 100.7 211.65C100.067 212.517 99.9334 213.583 100.3 214.85C100.5 215.55 101.017 216.533 101.85 217.8C102.383 218.533 102.783 219.117 103.05 219.55C103.183 219.75 103.667 220.717 104.5 222.45C105.033 223.617 105.6 224.5 106.2 225.1C106.6 225.5 107.083 225.867 107.65 226.2C108.583 226.867 109.35 227.267 109.95 227.4C110.617 227.567 111.283 227.517 111.95 227.25C112.617 226.983 113.133 226.583 113.5 226.05C113.867 225.483 114.017 224.833 113.95 224.1C113.85 223.4 113.55 222.817 113.05 222.35C112.817 222.15 112.433 221.917 111.9 221.65C111.333 221.383 110.95 221.167 110.75 221C110.417 220.7 110.1 220.267 109.8 219.7C109.533 219.033 109.317 218.533 109.15 218.2C108.85 217.567 108.333 216.7 107.6 215.6C106.867 214.433 106.35 213.567 106.05 213ZM126.9 227.8C127.133 226.6 126.867 225.583 126.1 224.75C125.467 224.117 124.633 223.85 123.6 223.95C122.7 224.083 121.933 224.533 121.3 225.3C120.4 226.433 120.183 227.617 120.65 228.85C120.85 229.45 121.217 229.95 121.75 230.35C122.25 230.75 122.817 230.967 123.45 231C124.35 231 125.117 230.683 125.75 230.05C126.35 229.45 126.733 228.7 126.9 227.8ZM131 193.6C130.8 193.767 130.583 194.017 130.35 194.35C129.917 194.983 129.6 196.1 129.4 197.7C129.333 199.2 129.4 200.233 129.6 200.8C129.867 201.533 130.367 202.183 131.1 202.75C131.8 203.25 132.55 203.6 133.35 203.8C134.15 204 134.767 204.083 135.2 204.05C136.233 204.017 137.133 203.683 137.9 203.05C138.367 202.783 138.867 202.45 139.4 202.05C143.967 198.717 147.3 195.85 149.4 193.45C149.533 193.283 149.683 193.133 149.85 193C149.983 193.367 150.083 193.667 150.15 193.9C150.75 195.867 151.083 198.4 151.15 201.5C151.15 201.633 151.167 201.783 151.2 201.95C150.533 202.15 149.85 202.533 149.15 203.1C148.417 203.7 147.617 204.5 146.75 205.5C145.783 206.633 145.05 207.467 144.55 208C144.083 208.5 143.417 209.167 142.55 210C141.75 208.367 140.5 207.283 138.8 206.75C137.467 206.35 136.3 206.433 135.3 207C134.367 207.533 133.717 208.5 133.35 209.9C133.15 210.8 133.117 212 133.25 213.5C133.517 216.267 134.283 218.1 135.55 219C135.617 219.033 135.683 219.083 135.75 219.15C135.917 219.75 136.283 220.25 136.85 220.65C137.75 221.317 138.717 221.433 139.75 221C140.217 220.8 140.667 220.467 141.1 220C141.2 219.9 141.583 219.45 142.25 218.65C142.95 217.817 144.1 216.7 145.7 215.3C147.333 213.833 148.483 212.717 149.15 211.95C149.583 211.517 150.183 210.817 150.95 209.85C151.683 209.017 152.35 208.383 152.95 207.95C153.15 207.817 153.467 207.6 153.9 207.3C154 207.233 154.1 207.167 154.2 207.1C154.8 207.167 155.383 207.017 155.95 206.65C156.683 206.217 157.167 205.55 157.4 204.65C157.467 204.25 157.467 203.667 157.4 202.9L156.75 196.1C156.517 194.133 156 192.15 155.2 190.15C155.067 189.85 154.95 189.567 154.85 189.3C154.85 189.033 154.8 188.767 154.7 188.5L154.35 187.6L154.2 186.75C154.1 186.317 153.95 185.933 153.75 185.6C153.617 185.367 153.483 185.15 153.35 184.95C153.25 184.65 153.183 184.383 153.15 184.15C153.017 184.217 152.883 184.283 152.75 184.35C152.583 184.217 152.433 184.117 152.3 184.05C151.633 183.65 150.95 183.533 150.25 183.7C149.617 183.833 149.017 184.183 148.45 184.75L147 186.25L146.1 186.95C145.667 187.317 145.267 187.717 144.9 188.15C144.533 188.583 144.283 188.983 144.15 189.35C144.017 189.75 143.95 190.133 143.95 190.5C143.483 191 142.9 191.55 142.2 192.15C141.033 193.15 139.917 194.083 138.85 194.95C138.817 194.917 138.783 194.883 138.75 194.85L137.5 193.9L136.2 193.25C135.367 192.883 134.483 192.7 133.55 192.7C132.55 192.767 131.7 193.067 131 193.6ZM118.3 197.8C117.233 197.333 116.067 197.233 114.8 197.5C113.633 197.767 112.517 198.267 111.45 199C109.483 200.4 108.083 202.233 107.25 204.5C106.783 205.733 106.633 206.833 106.8 207.8C107.033 209.067 107.667 209.967 108.7 210.5C109.567 210.867 110.417 210.85 111.25 210.45C112.083 210.017 112.583 209.35 112.75 208.45C112.783 207.617 112.85 207 112.95 206.6C113.183 205.433 114 204.45 115.4 203.65C115.667 203.517 115.9 203.467 116.1 203.5C116.2 203.533 116.367 203.717 116.6 204.05C116.833 204.35 117.25 204.733 117.85 205.2C118.217 205.7 118.45 206.317 118.55 207.05C118.717 208.15 118.617 209.233 118.25 210.3C118.083 210.833 117.783 211.5 117.35 212.3C116.85 213.233 116.533 213.883 116.4 214.25C115.933 215.417 115.717 216.567 115.75 217.7C115.817 218.933 116.183 219.983 116.85 220.85C117.683 221.85 118.65 222.3 119.75 222.2C120.65 222.1 121.367 221.683 121.9 220.95C122.4 220.183 122.517 219.367 122.25 218.5C121.95 217.6 121.8 217.133 121.8 217.1C121.767 216.767 121.867 216.417 122.1 216.05C122.2 215.817 122.4 215.483 122.7 215.05C124.167 212.75 124.767 209.983 124.5 206.75C124.333 204.85 123.85 203.3 123.05 202.1C122.717 201.6 122.117 200.917 121.25 200.05C120.15 198.883 119.167 198.133 118.3 197.8ZM120.35 162.5C119.75 163.333 119.567 164.367 119.8 165.6C119.933 166.367 120.333 167.367 121 168.6C122.4 171.433 123.633 173.533 124.7 174.9C124.233 175.167 123.65 175.467 122.95 175.8C121.817 176.3 121.033 176.7 120.6 177C120 177.367 119.567 177.767 119.3 178.2C119.067 178.6 118.85 179.167 118.65 179.9C118.517 180.833 118.467 181.5 118.5 181.9C118.5 182.433 118.583 183 118.75 183.6L119.4 185.25C120 186.45 120.55 187.3 121.05 187.8C121.717 188.433 122.617 188.917 123.75 189.25C125.417 189.85 127.167 190.117 129 190.05C130.067 190.05 130.933 189.883 131.6 189.55C132.467 189.15 133.417 188.183 134.45 186.65C134.817 186.183 135.1 185.7 135.3 185.2C135.5 184.633 135.6 183.9 135.6 183C135.6 181.9 135.5 181.1 135.3 180.6C135.2 180.3 134.883 179.683 134.35 178.75C133.617 177.617 132.967 176.817 132.4 176.35C132.2 176.183 132.033 176.05 131.9 175.95C131.9 175.783 131.883 175.617 131.85 175.45C131.65 174.45 131.133 173.4 130.3 172.3C130.167 172.1 130.033 171.933 129.9 171.8C129.8 171.733 129.7 171.667 129.6 171.6C128.967 171.2 128.5 170.767 128.2 170.3C128 170.067 127.817 169.75 127.65 169.35C127.45 168.983 127.267 168.467 127.1 167.8L126.9 167.25L126.6 166.8C126.2 166.333 125.933 165.883 125.8 165.45C125.633 164.95 125.6 164.417 125.7 163.85C125.633 163.583 125.567 163.367 125.5 163.2C125.133 162.1 124.35 161.467 123.15 161.3C121.983 161.2 121.05 161.6 120.35 162.5ZM126.05 183.65C125.083 183.25 124.6 182.65 124.6 181.85C125.067 181.417 125.933 181 127.2 180.6C127.4 180.467 127.6 180.417 127.8 180.45C127.933 180.45 128.083 180.533 128.25 180.7C128.65 181.1 129.017 181.633 129.35 182.3C129.517 182.467 129.583 182.65 129.55 182.85C129.55 183.05 129.467 183.233 129.3 183.4L128.9 183.8L128.45 183.85C127.35 183.917 126.55 183.85 126.05 183.65ZM136.5 134.3C136.3 134.733 136.05 135.433 135.75 136.4C135.583 136.9 135.317 137.517 134.95 138.25L134.45 139.4C134.15 140.267 134.1 141.067 134.3 141.8C134.467 142.367 134.767 142.833 135.2 143.2C135.667 143.6 136.167 143.833 136.7 143.9C137.267 143.967 137.817 143.883 138.35 143.65C138.883 143.417 139.3 143.067 139.6 142.6L140.35 141C140.85 141.8 141.583 142.933 142.55 144.4L143.85 146.5C144.783 148.033 145.417 149.333 145.75 150.4C145.917 150.9 146.133 151.65 146.4 152.65C146.7 153.483 147.1 154.117 147.6 154.55C148.5 155.35 149.55 155.517 150.75 155.05C151.083 154.883 151.4 154.667 151.7 154.4C151.867 154.4 152.05 154.383 152.25 154.35C153.083 154.25 153.917 153.95 154.75 153.45C156.05 152.717 157 151.817 157.6 150.75C158.333 149.517 158.55 148.25 158.25 146.95C158.183 146.617 158.017 146.233 157.75 145.8C157.317 145.133 156.433 144.567 155.1 144.1L153.8 143.85C153.367 143.817 152.933 143.817 152.5 143.85C152.1 143.917 151.733 144.033 151.4 144.2C151.067 144.333 150.683 144.55 150.25 144.85C150.15 144.917 150.05 144.983 149.95 145.05C148.883 142.983 147.55 140.817 145.95 138.55C145.05 137.25 144.483 136.383 144.25 135.95C143.883 135.017 143.6 134.317 143.4 133.85C143.033 133.083 142.6 132.517 142.1 132.15C141.233 131.517 140.283 131.383 139.25 131.75C139.183 131.783 139.133 131.817 139.1 131.85C138.6 131.95 138.133 132.183 137.7 132.55C137.233 132.95 136.833 133.533 136.5 134.3ZM20.2 85.1C19.4 85.1 18.7834 85.2 18.35 85.4C18.1834 85.4666 18.0167 85.55 17.85 85.65L17.2 86.2C17.0334 86.3666 16.85 86.6166 16.65 86.95C16.3833 87.5833 16.3667 88.45 16.6 89.55C16.7333 90.2166 16.8667 90.7 17 91L17.65 92C17.7167 92.1 17.9667 92.6333 18.4 93.6C18.8334 94.7 19.0834 95.3833 19.15 95.65L19.5 96.85C19.8 97.5166 20.3 98.0333 21 98.4C21.7334 98.8 22.4667 98.9166 23.2 98.75C24.2 98.55 25.0334 97.95 25.7 96.95C26.2334 96.0833 26.55 95.0666 26.65 93.9V91.6C26.55 90.8 26.4834 90.3333 26.45 90.2C26.4167 90.1333 26.3834 90.05 26.35 89.95L26.3 89.9C25.8 89.3666 25.4667 89 25.3 88.8C25.0333 88.4666 24.65 87.9 24.15 87.1C24.1167 87.0333 24.0833 86.9833 24.05 86.95C23.85 86.7166 23.65 86.5166 23.45 86.35C22.75 85.8166 22.35 85.5333 22.25 85.5C21.7167 85.2333 21.0334 85.1 20.2 85.1ZM85.2 74.6C84.5 73.8333 83.65 72.6166 82.65 70.95C80.3834 67.0833 77.8167 62.95 74.95 58.55C72.9833 55.6833 71.1667 53.0166 69.5 50.55C69.1 50.25 68.7167 49.8833 68.35 49.45C66.3833 47.2166 64.25 44.2166 61.95 40.45C59.45 36.1833 57.5167 33.0166 56.15 30.95C55.45 29.8833 54.0667 27.8666 52 24.9C50.2333 22.3666 48.8833 20.3166 47.95 18.75C46.1167 15.85 44.7333 13.05 43.8 10.35L42.45 7.54995C41.6833 5.84995 41.2167 4.73329 41.05 4.19995L40.65 1.74995C40.4834 1.64995 40.3333 1.54995 40.2 1.44995C39.8667 1.24995 39.4334 1.11662 38.9 1.04995C37.9 0.883287 37 1.09995 36.2 1.69995C36 1.86662 35.8333 2.04995 35.7 2.24995C35.5 2.31662 35.3167 2.39995 35.15 2.49995C34.5167 2.83329 34.05 3.28329 33.75 3.84995C33.5833 4.24995 33.4667 4.74995 33.4 5.34995C33.2334 7.41662 33.55 9.96662 34.35 13L34.85 14.65L36.25 17.75C36.3833 18.05 36.5167 18.3166 36.65 18.55C36.85 19.1833 37.0667 19.7833 37.3 20.35C39.1 23.15 40.5167 25.2166 41.55 26.55C42.4833 27.6833 43.0333 28.6666 43.2 29.5C44.8 32 45.9833 34.0833 46.75 35.75C46.8167 35.8166 46.8833 35.8833 46.95 35.95C47.3167 36.3833 47.8167 36.9333 48.45 37.6C48.45 37.9 48.4667 38.2166 48.5 38.55C48.8667 39.0166 49.3334 39.5666 49.9 40.2C50.7 41.1333 51.3 41.9666 51.7 42.7C51.3667 43.4 51.2333 44.5166 51.3 46.05C51.3333 47.3833 51.2 48.4 50.9 49.1C50.8334 49.1 50.7667 49.0833 50.7 49.05C49.6 48.7833 48.6667 48.7666 47.9 49C47.4667 48.6666 47.1 48.4 46.8 48.2C46.6667 48.1333 46.55 48.0666 46.45 48V47.95C45.55 47.25 44.7834 46.6166 44.15 46.05C43.6834 45.65 43.2667 45.2833 42.9 44.95C42.7 44.95 42.5167 44.9333 42.35 44.9C41.75 44.8333 40.9167 44.4333 39.85 43.7L35.7 40.85C34.2667 40.15 33.2167 39.5833 32.55 39.15C31.8167 38.75 30.9833 38.1666 30.05 37.4L27.55 35.45C26.8167 34.85 26.1834 34.3 25.65 33.8C25.05 33.6333 24.5167 33.5666 24.05 33.6C22.9833 33.1 21.6334 32.5333 20 31.9C19.4334 31.8666 18.9167 31.8166 18.45 31.75C15.4834 31.4833 12.9833 30.9166 10.95 30.05C9.51668 29.45 7.88335 28.55 6.05002 27.35C5.35002 26.9166 4.75002 26.5166 4.25002 26.15C3.98335 26.1833 3.71668 26.25 3.45002 26.35C1.81668 27.0166 1.00002 28.8166 1.00002 31.75C1.06668 34.0166 1.55002 35.7 2.45002 36.8C3.18335 37.7 4.38335 38.3833 6.05002 38.85C6.75002 39.05 7.70002 39.3166 8.90002 39.65C8.90002 39.6833 8.91668 39.7166 8.95002 39.75C9.08335 39.75 9.21668 39.75 9.35002 39.75C9.65002 39.85 9.95002 39.9333 10.25 40L12.4 41C13.2333 41.4 13.9667 41.6666 14.6 41.8C15 41.9 15.4167 41.9333 15.85 41.9C16.0167 41.9333 16.1833 41.9666 16.35 42C17.05 42.1666 18.0834 42.3666 19.45 42.6C21.4167 43.0666 23.4834 43.9666 25.65 45.3C26.85 46.0666 28.7 47.4 31.2 49.3C33.7334 51.2333 36.3167 53.1333 38.95 55C38.9167 55.2333 38.9167 55.4666 38.95 55.7C38.9833 56 39.2833 56.5833 39.85 57.45C40.35 58.25 40.7 59.1333 40.9 60.1L40.95 60.05L40.45 60.7L39.7 62.15C39.5333 62.5166 39.3833 62.85 39.25 63.15C38.55 63.2166 37.7167 63.1333 36.75 62.9C35.5833 62.6333 34.6167 62.5333 33.85 62.6C33.25 62.1666 32.75 61.8166 32.35 61.55C32.1834 61.5833 32 61.6166 31.8 61.65C31.4 61.7166 30.7667 61.6833 29.9 61.55L20.65 59.95C20.55 59.95 20.45 59.9333 20.35 59.9L18.3 61C16.8 61.8 15.4333 62.5166 14.2 63.15C13.8667 63.3833 13.5 63.6166 13.1 63.85C12.0333 64.5166 10.6167 65.2 8.85002 65.9C6.85002 67 4.63335 68.0166 2.20002 68.95C2.06668 69.0166 1.93335 69.0666 1.80002 69.1C1.46668 69.7333 1.23335 70.4166 1.10002 71.15C0.93335 72.15 0.966683 73.0666 1.20002 73.9C1.56668 74.9333 2.11668 75.65 2.85002 76.05C3.38335 76.3833 4.06668 76.5833 4.90002 76.65C5.23335 76.65 5.96668 76.6333 7.10002 76.6C7.93335 76.5666 9.20002 76.5333 10.9 76.5C11.3 76.4666 11.6833 76.4166 12.05 76.35C12.9167 75.85 13.9 75.1333 15 74.2C15.2333 73.9666 15.4667 73.7666 15.7 73.6C15.7333 73.5 15.7667 73.4166 15.8 73.35C16.0333 73.2166 16.3167 73.1 16.65 73C16.7833 72.9 16.9167 72.8333 17.05 72.8L21.8 70.85C22 71.05 22.2334 71.3333 22.5 71.7V70.6C23 70.6 23.6334 70.6333 24.4 70.7L29.25 71.35L30.3 71.8C31.4667 72.3666 32.2667 72.6833 32.7 72.75C32.9334 72.7833 33.1667 72.7833 33.4 72.75C33.9334 72.9833 34.3667 73.1166 34.7 73.15C35.0333 73.1833 35.3833 73.1666 35.75 73.1C36.0833 73.2666 36.35 73.4833 36.55 73.75C36.9167 74.1833 37.1333 74.6833 37.2 75.25C37.2333 75.55 37.25 75.8333 37.25 76.1C36.85 76.2 36.4 76.4 35.9 76.7C35.3 77.1 34.85 77.3833 34.55 77.55C34.35 77.65 34.15 77.7666 33.95 77.9C33.85 78.0666 33.7333 78.2333 33.6 78.4C33.5333 78.4 33.4667 78.4 33.4 78.4C32.7 78.5 32.05 78.7 31.45 79L30.2 79.55C29.8334 79.65 29.5333 79.7333 29.3 79.8C29.2333 79.8 29.1667 79.8 29.1 79.8C27.9667 80.4 26.6167 80.95 25.05 81.45C24.8833 81.8166 24.8167 82.2166 24.85 82.65C24.9167 83.25 25.1334 83.8 25.5 84.3C25.8667 84.8 26.3334 85.1333 26.9 85.3C27 85.3333 27.1167 85.3666 27.25 85.4C27.3834 85.6666 27.5834 85.9333 27.85 86.2C28.8167 87.1666 29.8334 87.7166 30.9 87.85C31.1667 87.9166 31.7 87.95 32.5 87.95C32.5 87.9833 32.5334 88.0333 32.6 88.1H33L33.4 87.95C33.5667 87.95 33.7833 87.95 34.05 87.95C34.3167 87.85 34.6167 87.75 34.95 87.65C35.9833 87.3166 36.8 87.05 37.4 86.85C37.4334 86.8166 37.4667 86.7833 37.5 86.75C37.5333 86.75 37.5667 86.7666 37.6 86.8C38.2333 86.6 38.5667 86.4833 38.6 86.45C39.2333 86.35 39.8 86.3333 40.3 86.4C40.4333 86.3666 40.5667 86.3333 40.7 86.3C41.1333 86.2333 41.5667 86.1833 42 86.15C42.5333 86.35 43.15 86.6 43.85 86.9C44.05 86.9666 44.5667 87.1 45.4 87.3C45.6334 87.3333 45.85 87.3833 46.05 87.45C46.1167 87.5166 46.2 87.5833 46.3 87.65C46.4 87.65 46.5 87.6666 46.6 87.7C47 87.7666 47.45 87.9666 47.95 88.3C48.25 88.4666 48.6833 88.7333 49.25 89.1L51.3 89.9C51.7667 90.1 52.6167 90.5666 53.85 91.3V91.2C53.85 90.3 53.9333 89.65 54.1 89.25C54.1 89.2166 54.1167 89.1833 54.15 89.15L51.5 83.75C51.4333 83.5166 51.4 83.2833 51.4 83.05C51.1 82.8833 50.75 82.7166 50.35 82.55C50.0167 82.4166 49.6 82.2833 49.1 82.15L47.05 80.3C46.85 80.1333 46.6833 79.9833 46.55 79.85C46.5167 79.8166 46.4833 79.8 46.45 79.8C45.5833 79.6333 44.8333 79.0833 44.2 78.15C43.7667 77.5833 43.3667 76.7333 43 75.6C41.9 72.2333 41.5 69.35 41.8 66.95C42 65.8166 42.3333 64.6 42.8 63.3C43.1667 62.2333 43.5833 61.4 44.05 60.8C44.75 59.9333 45.5334 59.45 46.4 59.35C46.5334 59.3166 46.65 59.3166 46.75 59.35C47.2833 58.9833 47.9333 58.7166 48.7 58.55C49.2667 58.3833 49.9333 58.2833 50.7 58.25C50.9667 58.25 51.6333 58.25 52.7 58.25C53.8333 58.3166 54.5833 58.4166 54.95 58.55C55.25 58.65 56.05 59.1 57.35 59.9C58.9833 60.9 60.0167 61.6 60.45 62C61.0167 62.4666 61.8 63.25 62.8 64.35L63.4 64.95C63.6 65.05 63.8167 65.15 64.05 65.25L67.65 66.45C68.4167 66.7166 69.1 67 69.7 67.3C70.1667 67.6 70.6 67.8666 71 68.1C71.1667 68.2 71.3167 68.3166 71.45 68.45C72.4833 69.3166 73.1334 69.8166 73.4 69.95C73.9334 70.1833 74.4334 70.2833 74.9 70.25C75.3 71.0166 75.3 71.8166 74.9 72.65C74.7 73.15 74.3667 73.5666 73.9 73.9C73.4667 74.2 72.9833 74.3666 72.45 74.4C71.9167 74.4333 71.2667 74.3333 70.5 74.1C67.3667 73.2 64.3 72.0166 61.3 70.55C61.1667 70.4833 61.0334 70.4166 60.9 70.35C60.3667 70.1833 59.8333 69.8833 59.3 69.45C59.1667 69.35 59.0334 69.2333 58.9 69.1C58.4334 68.8 58.05 68.5 57.75 68.2C57.2833 67.7666 56.9 67.3333 56.6 66.9L56.55 66.85C56.0833 66.4166 55.3833 65.9 54.45 65.3C53.9167 64.9 53.4333 64.6333 53 64.5C52.7667 64.4333 52.5 64.4 52.2 64.4C52.0333 64.4666 51.8833 64.5666 51.75 64.7C51.0833 64.5333 50.45 64.5833 49.85 64.85C49.5167 65.25 49.1167 65.5333 48.65 65.7C48.45 65.9666 48.2667 66.25 48.1 66.55C48.0667 66.5833 48.05 66.6166 48.05 66.65C47.75 67.7833 47.6833 68.9666 47.85 70.2C47.9833 70.6 48.1667 71.05 48.4 71.55C48.6667 72.2166 48.9 72.7 49.1 73C49.4667 73.5 50.0833 74.1833 50.95 75.05L51.5 76.05C51.5333 76.0833 51.5667 76.1333 51.6 76.2C51.6333 76.2 51.6667 76.2166 51.7 76.25C52.0667 76.55 52.65 76.9333 53.45 77.4C53.55 77.3666 53.6667 77.35 53.8 77.35C54.5 77.35 55.35 77.6 56.35 78.1C58.2167 78.9666 59.5 79.8166 60.2 80.65L60.75 81.4C60.9833 81.4666 61.2 81.5666 61.4 81.7C61.7 81.9 62.25 82.5666 63.05 83.7C63.45 84.2666 64.1167 85.05 65.05 86.05C65.7834 86.85 66.6833 87.7166 67.75 88.65C68.8833 89.6166 69.5667 90.4166 69.8 91.05C70.2 92.15 70.0167 93.1333 69.25 94C69.05 94.2 68.85 94.3833 68.65 94.55L68.7 95.25C68.7333 95.4166 68.8333 95.65 69 95.95L69.8 97.75H69.85C69.9833 98.0166 70.3334 98.6 70.9 99.5C72.1334 101.467 73.1834 103.85 74.05 106.65C74.4167 107.783 74.8667 109.417 75.4 111.55C75.4334 115.983 75.2667 119.917 74.9 123.35C74.6 126.383 73.85 130.783 72.65 136.55C72.4834 137.283 72.35 137.95 72.25 138.55C69.5833 142.717 67.65 145.9 66.45 148.1L64 152.85C60.6667 159.283 57.0167 165.283 53.05 170.85C50.3167 173.817 47.15 177.45 43.55 181.75C40.2833 185.617 38.05 188.667 36.85 190.9C34.3833 195.533 33.3833 200.467 33.85 205.7C33.9833 207.3 34.3667 208.517 35 209.35C35.4 209.883 36 210.367 36.8 210.8C36.9 210.867 37.6 211.2 38.9 211.8C41 212.733 43.5167 214.433 46.45 216.9C46.65 216.967 46.8834 217.05 47.15 217.15C47.5167 217.283 48.4167 217.8 49.85 218.7C52.85 220.733 54.9667 222.2 56.2 223.1C58.2 224.6 59.9334 226.05 61.4 227.45C61.7 227.617 61.9833 227.767 62.25 227.9C62.4833 228.033 62.7667 228.183 63.1 228.35C63.9333 228.65 64.85 228.983 65.85 229.35C68.25 230.15 70.0833 230.517 71.35 230.45C72.15 230.383 73.05 230.167 74.05 229.8C74.3834 229.667 75.2333 229.3 76.6 228.7C78.4333 227.933 79.45 227.5 79.65 227.4C80.8167 226.9 81.7834 226.35 82.55 225.75C83.35 225.15 84.1667 224.317 85 223.25C85.4 222.75 86.1 221.783 87.1 220.35C87.4333 219.85 88.9167 217.717 91.55 213.95C93.35 211.35 94.8167 209.2 95.95 207.5C99.15 202.7 103.7 195 109.6 184.4C110.167 183.4 110.533 182.667 110.7 182.2C111.033 181.333 111.183 180.533 111.15 179.8C111.083 178.467 110.417 177.183 109.15 175.95C108.983 175.75 107.75 174.75 105.45 172.95C104.517 172.217 103.3 171.1 101.8 169.6C100.2 168 99.0167 166.883 98.25 166.25C96.05 164.383 92.8 162.417 88.5 160.35C88.2667 160.15 88.0167 159.967 87.75 159.8C87.65 159.733 87.0834 159.433 86.05 158.9C84.05 157.867 82.45 156.467 81.25 154.7C81.1833 153.3 81.1667 151.867 81.2 150.4C81.2 149.033 81.35 147.85 81.65 146.85C82.15 145.65 82.5167 144.75 82.75 144.15C83.05 142.983 83.3 142.1 83.5 141.5C83.6 141.233 83.8833 140.667 84.35 139.8C84.8167 139.7 85.3 139.583 85.8 139.45C86.1667 139.35 86.5 139.233 86.8 139.1C87.7667 139.733 88.4334 140.4 88.8 141.1C88.9667 141.367 89.1667 141.817 89.4 142.45C89.6 143.017 89.8 143.45 90 143.75C90.1 143.917 90.2167 144.083 90.35 144.25C90.35 144.317 90.35 144.383 90.35 144.45C90.35 144.583 90.3167 145.283 90.25 146.55C90.1833 147.383 90.2 148.083 90.3 148.65C90.3667 149.017 90.4667 149.367 90.6 149.7C90.3667 151.8 90.2833 153.433 90.35 154.6C90.45 156.1 90.8667 157.133 91.6 157.7C91.9 158.367 92.4667 158.983 93.3 159.55C94.5667 160.35 95.8167 160.7 97.05 160.6C98.6167 160.433 99.6833 159.717 100.25 158.45C100.517 157.817 100.583 156.783 100.45 155.35L100.2 153.1C100.333 152.667 100.417 152.217 100.45 151.75C100.517 151.283 100.55 150.417 100.55 149.15L100.35 138.2C100.35 137.067 100.267 136.1 100.1 135.3C100.133 135.267 100.15 135.233 100.15 135.2C100.55 134.633 100.783 133.8 100.85 132.7C101.45 132.4 102.1 132.2 102.8 132.1C103.3 132.067 103.717 132.067 104.05 132.1C104.55 133.067 105.433 133.967 106.7 134.8C107.4 135.267 108.483 135.933 109.95 136.8C110.983 137.533 111.9 138.433 112.7 139.5L113.8 140.95C114.2 141.417 114.883 142.033 115.85 142.8C116.717 143.667 117.217 144.15 117.35 144.25C117.517 144.35 117.683 144.45 117.85 144.55C118.317 144.983 118.817 145.483 119.35 146.05C119.917 146.55 120.5 146.967 121.1 147.3C121.733 148.233 122.417 149.283 123.15 150.45C124.75 152.983 125.95 154.85 126.75 156.05C127.05 156.483 127.333 156.9 127.6 157.3C127.633 157.333 127.667 157.367 127.7 157.4V157.45C127.933 157.817 128.15 158.167 128.35 158.5C128.65 159.033 128.967 159.7 129.3 160.5C129.6 160.933 129.933 161.417 130.3 161.95C130.467 162.083 130.75 162.35 131.15 162.75L130.3 163.55C129.867 163.883 129.567 164.167 129.4 164.4C129.2 164.667 129.033 165 128.9 165.4C128.767 166 128.817 166.6 129.05 167.2C129.283 167.8 129.65 168.283 130.15 168.65C130.65 169.017 131.233 169.2 131.9 169.2C132.533 169.2 133.117 169.033 133.65 168.7L134.45 167.95C134.583 168.183 134.683 168.45 134.75 168.75C134.75 168.783 134.767 168.833 134.8 168.9C134.833 169.033 134.867 169.183 134.9 169.35C135.067 169.75 135.167 170.15 135.2 170.55L135.25 171.85C135.283 172.217 135.367 172.567 135.5 172.9C135.633 174.067 135.967 175.5 136.5 177.2C136.533 177.333 136.583 177.467 136.65 177.6C136.617 177.633 136.6 177.667 136.6 177.7C136.5 178.367 136.6 178.967 136.9 179.5C137 179.667 137.133 179.85 137.3 180.05C137.333 180.117 137.35 180.183 137.35 180.25C137.383 180.217 137.417 180.2 137.45 180.2C137.55 180.333 137.683 180.483 137.85 180.65C139.65 182.35 141.767 183.433 144.2 183.9C144.267 183.9 144.333 183.917 144.4 183.95C144.467 183.983 144.55 184.033 144.65 184.1C144.617 184.067 144.6 184.033 144.6 184C144.867 184.033 145.133 184.05 145.4 184.05C146.033 184.017 146.6 183.783 147.1 183.35C147.633 182.917 147.967 182.4 148.1 181.8C148.233 181.333 148.25 180.883 148.15 180.45C148.083 180.383 148.017 180.317 147.95 180.25C147.217 179.283 146.65 178.583 146.25 178.15L146.2 178.1C146.033 178.033 145.883 177.967 145.75 177.9L144.25 177.45C143.65 177.217 143.2 177.067 142.9 177C142.8 176.9 142.7 176.817 142.6 176.75C142.4 176.05 142.167 175.2 141.9 174.2C141.667 173.233 141.533 172.6 141.5 172.3C141.5 171.8 141.5 171.433 141.5 171.2C141.467 170.767 141.417 170.417 141.35 170.15C141.317 169.983 141.267 169.817 141.2 169.65C141.133 169.35 141.067 169.05 141 168.75C140.7 167.417 140 165.567 138.9 163.2C138.767 162.833 138.6 162.417 138.4 161.95C138.333 161.517 138.167 160.933 137.9 160.2C137.433 159 136.967 157.833 136.5 156.7L136.45 156.65V156.6C136.217 156.1 136 155.617 135.8 155.15C136.3 154.817 137 154.367 137.9 153.8C139.167 153 140.15 152.3 140.85 151.7C141.55 151.067 142.017 150.5 142.25 150C142.517 149.433 142.583 148.833 142.45 148.2C142.317 147.567 142.017 147.05 141.55 146.65C141.117 146.217 140.583 145.967 139.95 145.9C139.317 145.8 138.733 145.883 138.2 146.15C137.967 146.283 137.517 146.6 136.85 147.1C136.183 147.667 135.35 148.267 134.35 148.9C133.917 149.167 133.517 149.417 133.15 149.65L131.5 146.35C130.2 143.717 129.05 141.767 128.05 140.5L126.45 138.6C126.317 138.433 125.867 137.75 125.1 136.55C124.5 135.583 123.8 134.567 123 133.5C122.4 132.633 121.817 132.067 121.25 131.8C121.217 131.767 121.167 131.75 121.1 131.75C121.033 131.683 120.967 131.617 120.9 131.55C120.267 130.717 119.467 129.733 118.5 128.6L106.75 114.75C103.117 106.25 99.5 98.7666 95.9 92.3C95.2334 91.1 94.5667 90.3 93.9 89.9C93.8334 89.4333 93.7167 88.9666 93.55 88.5C93.25 87.5333 92.6667 86.3 91.8 84.8L86.55 75.8C86.0834 75.4666 85.6333 75.0666 85.2 74.6ZM72.6 160.8C72.9333 160.833 73.2834 160.983 73.65 161.25C73.8834 161.417 74.2167 161.65 74.65 161.95C74.75 161.983 75.1334 162.15 75.8 162.45C76.3 162.617 76.65 162.833 76.85 163.1C76.95 163.2 77.1667 163.583 77.5 164.25C77.6 164.383 77.7 164.517 77.8 164.65C77.8 164.683 77.8 164.717 77.8 164.75C77.8 165.45 77.4333 166.333 76.7 167.4C76.1333 168.367 75.5667 169.033 75 169.4C74.2667 169.8 73.7334 170.133 73.4 170.4C73.1 170.667 72.75 171.1 72.35 171.7C71.85 172.6 71.4667 173.267 71.2 173.7C70.7333 174.467 70.25 175.067 69.75 175.5C68.95 176.1 68.35 176.567 67.95 176.9C67.55 177.233 67.0834 177.717 66.55 178.35C66.15 179.083 65.8 179.717 65.5 180.25C64.3667 182.183 62.2333 184.65 59.1 187.65L52.75 193.8C51.2833 195.2 50.2 196.1 49.5 196.5C48.9 196.833 48.4167 197.117 48.05 197.35C47.95 197.25 47.8333 197.15 47.7 197.05C45.4333 195.15 43.5667 193.8 42.1 193C45.5333 188.367 49.1833 183.9 53.05 179.6C53.0833 179.567 53.1167 179.55 53.15 179.55C53.2834 179.517 53.4167 179.483 53.55 179.45C53.8167 178.95 54.2167 178.4 54.75 177.8C55.4833 176.933 56.0667 176.317 56.5 175.95C56.7 175.783 56.9833 175.55 57.35 175.25C57.6167 174.85 57.9 174.433 58.2 174C61.2 170.867 64.3167 167.8 67.55 164.8C68.8167 163.633 69.7 162.767 70.2 162.2C70.2 162.1 70.2167 162.017 70.25 161.95C70.5833 161.717 70.8834 161.517 71.15 161.35C71.7167 160.983 72.2 160.8 72.6 160.8ZM74.2 179.6C75.9667 177.633 77.0167 176.467 77.35 176.1L79.75 173C80.6833 171.767 81.5334 170.8 82.3 170.1C82.6667 169.767 83.2333 169.283 84 168.65C84.6667 168.083 85.1834 167.567 85.55 167.1C85.85 166.7 86.0833 166.3 86.25 165.9C89.0167 167.3 90.9333 168.383 92 169.15C93.3667 170.117 95.0333 171.533 97 173.4L103.9 179.65C104.233 179.983 104.433 180.267 104.5 180.5C104.567 180.767 104.467 181.167 104.2 181.7C99.2333 190.833 94.4667 198.867 89.9 205.8L85.2 212.8C84.1333 214.333 83.3334 215.433 82.8 216.1C81.8334 217.267 80.8334 218.167 79.8 218.8C79.4334 217.7 78.7333 216.667 77.7 215.7C77 215.033 75.95 214.25 74.55 213.35C69.3167 209.817 65.1167 207.267 61.95 205.7C59.95 204.8 58.4667 204.133 57.5 203.7C57.2667 203.6 57.05 203.5 56.85 203.4C56.95 203.067 57.0333 202.8 57.1 202.6C57.2667 202.2 57.55 201.667 57.95 201C58.2167 200.6 58.4333 200.267 58.6 200C59.0333 199.633 59.6 199.167 60.3 198.6C62.7667 196.433 64.4334 194.75 65.3 193.55C65.8334 192.817 66.4 191.867 67 190.7C67.3667 190.067 67.8834 189.083 68.55 187.75C70.1167 184.817 72 182.1 74.2 179.6ZM97.95 180.85C97.7833 179.183 97.2667 177.833 96.4 176.8C95.5667 175.733 94.2 174.9 92.3 174.3C90.8667 173.833 89.5167 173.617 88.25 173.65C86.7833 173.717 85.5834 174.15 84.65 174.95C83.6167 175.817 82.8 177.517 82.2 180.05C81.6667 182.417 81.6167 184.233 82.05 185.5C82.25 186.1 82.6167 186.783 83.15 187.55C83.7834 188.517 84.4 189.283 85 189.85C86.2667 190.983 87.8167 191.55 89.65 191.55C91.4834 191.517 93.0833 190.983 94.45 189.95C95.7833 188.917 96.75 187.567 97.35 185.9C97.95 184.267 98.15 182.583 97.95 180.85ZM88.35 179.25C89.05 178.983 89.7334 178.983 90.4 179.25C90.9667 179.483 91.4167 179.9 91.75 180.5C91.8833 180.6 91.9667 180.683 92 180.75C92.0667 180.85 92.1 181 92.1 181.2C92.3 181.733 92.3667 182.3 92.3 182.9C92.3 183.467 92.1667 184.017 91.9 184.55C91.4 185.45 90.6333 185.95 89.6 186.05C88.7667 186.183 87.9667 185.967 87.2 185.4C86.4667 184.833 86.0167 184.117 85.85 183.25C85.7167 182.417 85.9 181.6 86.4 180.8C86.9 180 87.55 179.483 88.35 179.25ZM70.85 192.9C69.2167 193.933 68.0833 195.267 67.45 196.9C66.95 198.2 66.8167 199.583 67.05 201.05C67.05 201.083 67.05 201.117 67.05 201.15C67.0834 201.35 67.1333 201.583 67.2 201.85C67.2667 202.183 67.3667 202.517 67.5 202.85C67.9333 204.05 68.5334 205.167 69.3 206.2C69.4334 206.433 69.5667 206.633 69.7 206.8C69.9667 207.133 70.3334 207.483 70.8 207.85C70.8667 207.883 70.9167 207.917 70.95 207.95C73.45 210.15 75.9834 211.017 78.55 210.55C80.8834 210.083 82.75 208.6 84.15 206.1C84.9834 204.6 85.4667 203 85.6 201.3C85.7 199.533 85.3834 197.933 84.65 196.5C83.85 194.967 82.65 193.733 81.05 192.8C79.4834 191.867 77.8167 191.4 76.05 191.4C74.1834 191.4 72.45 191.9 70.85 192.9ZM75.9 196.95C76.5334 196.683 77.2 196.667 77.9 196.9C78.6334 197.133 79.1667 197.55 79.5 198.15C79.8333 198.683 80 199.317 80 200.05C80.1333 201.65 79.6834 202.833 78.65 203.6C78.0834 204.033 77.25 204.283 76.15 204.35C75.05 204.35 74.1834 204.083 73.55 203.55C72.95 203.083 72.6 202.433 72.5 201.6C72.4 200.867 72.5334 200.2 72.9 199.6V199.55C73 199.217 73.1833 198.9 73.45 198.6C73.4833 198.567 73.5333 198.533 73.6 198.5C73.9333 198.067 74.3334 197.783 74.8 197.65C75.2334 197.317 75.6 197.083 75.9 196.95Z" fill="#A9B5C5"/>
</svg>