
<svg xmlns="http://www.w3.org/2000/svg" version="1.1" xmlns:xlink="http://www.w3.org/1999/xlink" preserveAspectRatio="none" x="0px" y="0px" width="1280px" height="631px" viewBox="50 10 400 100">
<defs>
<g id="Layer0_0_FILL">
<path fill="#29292C" stroke="none" d="
M 649.9 -3
Q 649.7068359375 -2.8009765625 649.5 -2.65 646.2 -0.225 642.9 2.15
L 635.35 6.7
Q 634.8951171875 6.971875 634.45 7.2 631.2375 8.7375 628 10.25 627.8140625 10.3365234375 627.6 10.4 626.95 10.6875 626.3 10.95 626.173828125 10.999609375 626.05 11.05 625.425 11.2875 624.8 11.5 624.574609375 11.5958984375 624.35 11.65
L 624.35 11.65
Q 622.9759765625 12.1798828125 621.5 12.65 618.34765625 13.6626953125 614.85 14.5
L 612.6 15
Q 606.839453125 16.3248046875 600.2 17.15
L 600.2 17.15
Q 599.751953125 17.244140625 599.3 17.3 595.65 17.7 571.35 19.55 560.154296875 20.3814453125 546.1 22.1
L 546.15 22.05
Q 526.40625 24.4830078125 501 28.6 496.2439453125 30.987109375 494.95 31.6 492.653125 32.6787109375 490.4 33.7 488.291796875 34.659765625 486.2 35.55
L 486.2 35.55
Q 485.7630859375 35.76796875 485.3 35.95 472.6875 40.8625 460.05 45.75 458.0546875 46.40078125 456.1 47 455.6921875 47.1251953125 455.25 47.25 454.825 47.3875 454.35 47.5 453.92421875 47.6490234375 453.45 47.75 445.3125 49.775 437.15 51.75 436.6068359375 51.8755859375 436.05 51.95 436.0498046875 51.98671875 436 52 435.8328125 52.0888671875 435.65 52.15 435.4998046875 52.2439453125 435.35 52.3 434.9345703125 52.5138671875 434.5 52.7 434.25078125 52.8224609375 433.95 52.95 433.7583984375 53.0455078125 433.55 53.15 430.264453125 54.5798828125 426.9 55.85 423.8375 56.9375 420.75 58 420.077734375 58.248046875 419.4 58.45 417.75 58.975 416.1 59.45 415.6390625 59.616796875 415.15 59.75 414.9888671875 59.7966796875 414.8 59.85 413.9740234375 60.080078125 413.15 60.3 404.5138671875 62.59140625 396.05 63.65
L 381.05 64.55 374 64.3
Q 372.5419921875 64.1923828125 371.05 64.05 370.6515625 64.0103515625 370.2 63.95
L 360.65 62.55
Q 357.7064453125 61.8419921875 355.1 61.2
L 352.4 60.55
Q 352.2509765625 60.537890625 352.1 60.5
L 351.8 60.4
Q 351.335546875 60.311328125 350.85 60.2
L 350.85 60.2
Q 350.724609375 60.1705078125 350.6 60.15 347.2048828125 59.3427734375 344.65 58.75 343.712890625 58.5361328125 342.9 58.35 332.35 55.95 324.95 56.15 318.9677734375 56.3345703125 311.95 58.15
L 308.3 59.15
Q 308.2486328125 59.2025390625 308.15 59.2 308.0931640625 59.25078125 308 59.25
L 306.85 59.65
Q 306.3025390625 59.830078125 305.55 60.1 305.4875 60.122265625 305.4 60.15 302.33671875 61.2443359375 295.95 63.75 295.05703125 64.09765625 294.1 64.45 291.894921875 65.3375 289.35 66.35
L 289.25 66.4
Q 289.0841796875 66.4572265625 288.9 66.5
L 284.2 68.35
Q 283.8484375 68.4703125 283.5 68.6
L 283.5 68.6
Q 282.6501953125 68.9287109375 281.75 69.25
L 273.65 72.1
Q 266.4025390625 74.5896484375 259.15 76.65 254.4150390625 77.998828125 249.65 79.15 238.761328125 81.8837890625 227.95 83.65 203.5642578125 87.61328125 177 87.05
L 147 85.05
Q 146.330078125 84.9779296875 145.65 84.9
L 139 84.05
Q 136.5642578125 83.7599609375 134.1 83.4 133.15703125 83.2685546875 132.2 83.1 127.534375 82.4244140625 122.8 81.6 111.5 79.6 89 74.7 82.45 73.35 79.4 73.3 75.65 73.25 70.65 74.5 64.9 76.15 62 76.9 54.7 78.55 51 79.35 44.45 80.85 40.3 82.6 36.4 84.3 32 87.25 29.4556640625 88.96171875 25 92.35 26.2048828125 93.0271484375 27.55 93.6
L 27.2 93.7
Q 23.4115234375 95.018359375 19.65 96.5 11.7388671875 102.43203125 5.3 106.45 3.2970703125 112.8650390625 2.35 117.05 1.7255859375 119.9041015625 1.25 122.95
L 2.85 122.95
Q 2.3724609375 124.434765625 2.25 124.9 1.45 128.2 1.15 134.3 0.15 152.15 -0.05 160.95 -0.1328125 164.19765625 -0.15 167
L -0.55 167
Q -1.9 175.9 -1.85 186.45 -1.8 192.05 -1.35 199.15 -0.95 205.05 -0.25 211.95 0.6 220.45 2.35 237.4 3.15 246.85 4.05 266.25 4.4 273.75 4.75 279.85 1.05 282.1 -0.1 285.95 -1.1 289.25 -0.05 293.95 1.3 294.65 2.75 295.85 4.4 297.2 7.55 300.1 11.55 303.25 17.6 304.6 22.05 305.65 28.8 305.85 49.3 306.55 69.55 302.55 73.9 301.7 78.2 300.65
L 78.25 300.65
Q 78.7 300.5 79.2 300.4 79.675 300.275 80.15 300.15 92.95 296.8 105.1 291.55 105.9 291.2 106.7 290.85 107.6 290.45 108.5 290.05 108.55 290.05 108.6 290 109.95 289.4 111.5 288.65 119.5 284.85 131.7 278.15 136.7 275.4 140.85 273.15 149.95 268.2 154.7 265.95 167.8 259.7 179.1 256.7 192.65 253.15 204.8 253.95 211.5 254.45 221.45 256.7 237.15 260.35 238 260.5 241.2 261.1 244.4 261.6 254.25 262.95 263.8 262.75 272.55 262.55 281.1 261 293.05 258.8 311.35 252 311.9 251.8 312.45 251.6 312.95 251.4 313.45 251.25
L 320.75 248.55
Q 321.65 248.2 322.55 247.9 331.125 244.875 339.7 241.85 340.5 241.6 341.15 241.4 341.35 241.35 341.55 241.3 348.15 239.35 354.9 237.95 356 237.75 357.1 237.55 357.2 237.5 357.25 237.5 363.05 236.4 368.9 235.75 381.65 234.25 394.8 234.8 400.15 235.05 428 238.05 435.1 238.85 441.3 239.2 447.825 239.325 454.35 239.45 457.95 239.35 461.15 239.05 466.9 238.5 473.95 237.15 478.25 236.3 486.6 234.35
L 527.2 225
Q 539.3 222.2 549.1 220.35 550.1 219.85 551.25 219.4 553.35 218.5 557.2 216.95 558.175 216.525 559.15 216.1 562.4 214.7 567.25 212.2 569.2 211.15 571.45 210 571.65 209.85 571.85 209.75 580.55 205.1 584.5 203.25 590 200.7 595.1 199.15 598.85 198 602.4 197.45 614.3 193.1 632 194 636.9 194.25 648.15 195.4 658.55 196.4 664.25 196.6 667.9 196.75 670.5 196.85 677.05 197.05 677.25 197.05 683.1 197.55 687.5 199.15 688.6 199.55 689.65 200.05 692.65 201.45 698.35 205.1 703.5 208.1 707.45 208.2 707.65 208.2 707.9 208.2 706.6 203.1 705.95 200.4 705.8 199.8 705.65 199.15 704.1302734375 192.482421875 703.5 184.55 705.5572265625 180.993359375 705.65 175.05 705.75 168.55 704 162.3 703.2 159.6 702.8 158.25 702.1 155.85 701.85 154.15 701.4 151.05 701.9 146.7 702.7 141.75 703 139.25 703.45 136 703.8 129.7 704.0185546875 125.6716796875 704.25 122.95
L 705 122.95
Q 705.0671875 118.921875 705.2 114.6 705.4267578125 113.009375 705.45 112.8 705.551953125 111.08671875 705.45 109.55 705.8810546875 100.578125 706.7 90.45 707.55 79.95 709.85 57.2
L 712.95 27.4
Q 713.10234375 25.9732421875 713.2 24.7 715.5259765625 22.0583984375 715.75 18.55 716.3 10.9 707.3 3.45 692.7 -8.55 669.2 -11.8 665.2580078125 -12.3505859375 660.75 -12.7 659.140625 -11.04296875 657.55 -9.55 654.788671875 -6.9703125 652 -4.65 651.8708984375 -4.542578125 651.75 -4.45 651.0625 -3.875 650.35 -3.35 650.1529296875 -3.153515625 649.9 -3 Z"/>
</g>
</defs>

<g transform="matrix( 1, 0, 0, 1, 0,0) ">
<use xlink:href="#Layer0_0_FILL"/>
</g>
</svg>
