
<svg xmlns="http://www.w3.org/2000/svg" version="1.1" xmlns:xlink="http://www.w3.org/1999/xlink" preserveAspectRatio="none" x="0px" y="0px" width="1280px" height="631px" viewBox="0 0 1280 631">
<defs>
<g id="Layer0_0_FILL">
<path fill="#333333" stroke="none" d="
M 274.15 69.9
Q 268.85 66.45 261.5 64.65 255.85 63.2 247.75 62.5 222.4 60.45 202.2 65.75 193.15 68.15 191.25 68.45 184.95 69.55 180.3 68.15 179.15 57.85 178.55 52.7 177.55 43.5 176.2 37.4 172.35 19.7 162.7 9.85 157 4.1 149.6 1.6 141.75 -1.1 134.45 0.75 129.5 2.05 124.6 5.5 120.7 8.25 116.25 12.85 108.05 21.15 104.05 28.95 101.65 33.6 97.65 47 94.15 58.6 90.15 64.4 81.5 63.05 64.15 58.85 48.8 55.85 38.3 58.25 27.7 60.7 16.1 69.7 3.05 79.75 0.6 90.3 -1.15 97.9 2.15 106 5.2 113.55 11.55 119.3 16.95 124.25 25 128.2 30.65 130.95 40.1 134.3 51.8 138.5 55.35 139.95 58.9 141.45 62.05 143.05 57.35 147.05 55.3 151.95 54.2 154.6 53.25 159.75 52.2 165.25 51.35 167.6 50.3 170.35 47.9 174.25 44.4 179.85 43.95 180.7 40.3 187.35 38.65 196.15 37.4 203.2 37.25 212.65 37.15 220.55 38.45 225.4 40.35 232.45 45.2 235.95 50.2 239.55 57.6 239.1 60.5 238.95 64.05 238.05 66.2 237.55 70.3 236.25 79.15 233.35 85.2 230.75 85.35 230.7 85.55 230.6 87.3 230.35 89.15 229.85 100.6 226.8 107.65 217.65 108.15 217 108.75 216.2 121.8 204.55 131.5 186.1 135.45 180.85 136.55 176.15 143.1 199.1 148.45 214.2 150.55 220.25 152.35 223.75 154.9 228.8 158.3 231.95 161.3 234.8 166.8 237.55 169.9 239.1 176.05 242.2 178.95 243.85 184.55 247.45 189.6 250.35 193.65 250.85 202.65 251.95 212.3 243.6 220.9 236.15 224 226.9 227.15 217.6 225 204.1 223.2 192.95 217.1 175.35 209.6 153.75 207.8 146.9 206.75 142.8 207.9 140.85 208.75 139.5 210.65 138.75 211.8 138.25 214.2 137.8 230.05 135.05 244.9 128.45 259.75 121.85 272.4 111.9 277.95 107.55 281.05 103.65 285.15 98.55 286.05 93.2 287.15 86.65 283.6 80 280.25 73.85 274.15 69.9 Z"/>
</g>
</defs>

<g transform="matrix( 1, 0, 0, 1, 0,0) ">
<use xlink:href="#Layer0_0_FILL"/>
</g>
</svg>
