<svg xmlns="http://www.w3.org/2000/svg" width="162" height="256" viewBox="0 0 162 256" fill="none">
<g clip-path="url(#clip0_115_411)">
<path d="M88.35 221.25C87.55 220.583 86.45 220.217 85.05 220.15C82.85 220.017 81.1833 220.567 80.05 221.8C79.3833 222.5 78.9 223.533 78.6 224.9C78.3667 226.133 78.3667 227.167 78.6 228C79 229.267 79.8833 230.217 81.25 230.85C82.35 231.35 83.65 231.517 85.15 231.35C86.65 231.183 87.8167 230.75 88.65 230.05C88.85 230.25 89.0833 230.517 89.35 230.85C90.15 231.717 90.6833 232.467 90.95 233.1C91.0167 233.233 91.1167 233.55 91.25 234.05C91.3167 234.283 91.4 234.483 91.5 234.65C91.3 234.617 91.1 234.6 90.9 234.6C89.9 234.2 89.15 233.95 88.65 233.85C87.5833 233.783 86.7667 233.7 86.2 233.6C85.4667 233.433 84.9167 233.3 84.55 233.2C83.9167 233.067 83.3667 233.05 82.9 233.15C82.2 233.283 81.5167 233.717 80.85 234.45C80.6833 233.95 80.4167 233.533 80.05 233.2C79.4833 232.7 78.8167 232.417 78.05 232.35C76.65 232.283 75.65 232.733 75.05 233.7L74.1 235.25C73.8667 235.683 73.75 236.167 73.75 236.7C73.65 237.5 73.7333 238.217 74 238.85C74.1667 239.317 74.5333 239.833 75.1 240.4C75.6667 240.967 76.2833 241.45 76.95 241.85C76.5833 242.45 76.05 243.15 75.35 243.95C74.4167 244.983 73.8 245.933 73.5 246.8C73.0333 248.033 73.1167 249.117 73.75 250.05C74.15 250.683 74.75 251.067 75.55 251.2C76.35 251.333 77.0667 251.183 77.7 250.75C78.1667 250.45 78.7667 249.717 79.5 248.55C79.9333 247.983 80.6 247.133 81.5 246C82.0667 245.233 82.5167 244.517 82.85 243.85C82.95 243.85 83.05 243.85 83.15 243.85C83.6833 243.85 84.2 243.667 84.7 243.3C85.2 242.967 85.55 242.533 85.75 242C85.95 241.5 86 240.967 85.9 240.4C85.8667 240.167 85.8 239.933 85.7 239.7C86.4667 239.7 87.2 239.8 87.9 240C87.9333 240 87.9667 240.017 88 240.05L88.15 240.8C87.65 241.3 87.4 241.95 87.4 242.75C87.4 243.75 87.8 244.517 88.6 245.05C88.6667 245.083 88.7333 245.133 88.8 245.2L89.45 249.45C89.5833 250.75 89.6667 251.467 89.7 251.6C89.8333 252.367 90.1 252.983 90.5 253.45C90.9 253.95 91.4333 254.283 92.1 254.45C92.7333 254.65 93.35 254.633 93.95 254.4C94.55 254.167 95.0333 253.767 95.4 253.2C95.8 252.633 95.9833 252.033 95.95 251.4C95.7167 250.433 95.55 249.7 95.45 249.2C95.35 248.333 95.2667 247.683 95.2 247.25C95.1333 246.75 95.0167 246.05 94.85 245.15C95.0167 245.35 95.1833 245.517 95.35 245.65C95.8167 245.983 96.3333 246.167 96.9 246.2C97.5 246.233 98.05 246.117 98.55 245.85C99.0167 245.583 99.4 245.183 99.7 244.65C100 244.117 100.133 243.583 100.1 243.05C100.067 242.65 99.9667 242.167 99.8 241.6C99.5667 240.933 99.4 240.433 99.3 240.1C99.2 239.7 99.1167 239.1 99.05 238.3C99.05 237.933 98.9333 237.083 98.7 235.75C98.3667 234.317 97.9833 233.25 97.55 232.55L97 231.75C96.1667 229.95 95.65 228.583 95.45 227.65C95.2833 226.817 95.15 226.3 95.05 226.1C94.65 225.2 94.0167 224.65 93.15 224.45C92.5833 224.317 92.05 224.35 91.55 224.55C91.0833 224.083 90.7167 223.7 90.45 223.4C89.85 222.767 89.4167 222.333 89.15 222.1C88.9167 221.767 88.65 221.483 88.35 221.25ZM111.35 190.75C111.217 191.65 111.583 192.567 112.45 193.5C112.65 193.7 113.033 194.05 113.6 194.55C114.1 194.95 114.467 195.3 114.7 195.6C115.267 196.233 115.817 197.15 116.35 198.35C117.083 200.017 117.533 200.983 117.7 201.25C118.333 202.417 119.433 203.75 121 205.25C122.9 207.15 124.1 208.417 124.6 209.05C124.633 209.083 124.667 209.117 124.7 209.15H124.65C123.95 209.483 123.433 209.733 123.1 209.9C122.533 210.233 122.117 210.6 121.85 211C121.483 211.867 121.2 212.517 121 212.95C120.4 213.817 119.967 214.483 119.7 214.95C118.9 216.35 118.467 218.5 118.4 221.4C118.4 221.667 118.417 221.917 118.45 222.15C118.317 222.35 118.217 222.583 118.15 222.85C118.017 223.317 117.933 224.033 117.9 225L117.55 226.45C117.483 226.683 117.417 227.417 117.35 228.65C117.317 229.917 117.067 231.15 116.6 232.35C116.333 233.15 115.917 234.35 115.35 235.95C115.183 236.683 115.1 237.833 115.1 239.4C115.1 241.1 115.317 242.317 115.75 243.05C116.017 243.483 116.15 243.767 116.15 243.9C116.183 244.133 116.1 244.483 115.9 244.95C115.7 245.383 115.633 245.717 115.7 245.95L111.95 246.8C110.883 247.1 110.167 247.367 109.8 247.6C108.867 248.233 108.433 249.083 108.5 250.15C108.567 251.283 109.05 252.117 109.95 252.65C110.617 253.05 111.533 253.25 112.7 253.25C114.3 253.317 115.883 253.217 117.45 252.95C119.35 252.683 120.567 252.033 121.1 251C121.3 250.6 121.433 249.817 121.5 248.65C121.533 248.25 121.667 247.183 121.9 245.45L124 231.6C124.233 231.767 124.467 231.95 124.7 232.15C126.067 233.283 127.467 234.567 128.9 236L132.05 239.05C133.35 240.35 134.183 241.233 134.55 241.7C135.017 242.233 135.683 243.083 136.55 244.25C137.517 245.383 138.05 246.033 138.15 246.2L139 248.05C138.833 248.183 138.683 248.317 138.55 248.45C138.117 248.95 137.9 249.567 137.9 250.3C137.9 251.033 138.117 251.65 138.55 252.15C139.017 252.65 139.883 253.067 141.15 253.4C143.017 253.767 144.817 253.883 146.55 253.75C147.717 253.683 148.55 253.4 149.05 252.9C149.75 252.233 149.983 251.3 149.75 250.1C149.517 249.167 149.067 248.467 148.4 248C147.9 247.7 147.267 247.483 146.5 247.35C145.467 245.817 143.517 243.267 140.65 239.7C137.95 236.4 136.033 233.6 134.9 231.3C134.333 230.167 133.783 229.433 133.25 229.1C132.617 228.833 132.167 228.6 131.9 228.4C131.433 228.033 131.133 227.417 131 226.55C130.933 225.55 130.833 224.817 130.7 224.35C130.167 223.217 129.867 222.35 129.8 221.75C129.633 220.583 130.2 219.45 131.5 218.35C131.8 218.117 132.333 217.733 133.1 217.2C133.8 216.733 134.317 216.333 134.65 216C135.617 215.067 136.217 214.05 136.45 212.95C136.883 212.883 137.3 212.8 137.7 212.7C139.3 212.3 140.65 211.517 141.75 210.35C142.883 209.217 143.5 207.917 143.6 206.45C143.7 205.35 143.433 204.267 142.8 203.2C142.233 202.2 141.45 201.35 140.45 200.65C139.783 200.183 139 199.817 138.1 199.55C138.233 198.15 138.133 196.733 137.8 195.3C138.667 194.867 139.517 194.583 140.35 194.45C140.883 194.383 141.683 194.283 142.75 194.15C143.683 194.017 144.383 193.717 144.85 193.25C145.317 192.817 145.583 192.25 145.65 191.55C145.75 190.883 145.617 190.267 145.25 189.7C144.983 189.267 144.417 188.75 143.55 188.15C142.917 187.717 142.35 187.433 141.85 187.3C141.383 187.2 140.45 187.183 139.05 187.25C137.05 187.083 135.567 187.083 134.6 187.25C133.8 187.417 133.1 187.717 132.5 188.15C131.867 188.65 131.483 189.25 131.35 189.95C131.317 190.117 131.317 190.483 131.35 191.05C131.35 191.517 131.3 191.867 131.2 192.1C131.2 192.133 130.983 192.467 130.55 193.1C129.883 194.067 129.55 195.767 129.55 198.2V199.55C128.85 200.017 128.283 200.717 127.85 201.65C127.817 201.717 127.783 201.783 127.75 201.85L126.8 200.4C125.967 199.433 125.35 198.717 124.95 198.25C124.217 197.383 123.733 196.583 123.5 195.85C124 195.717 124.483 195.383 124.95 194.85C125.217 194.55 125.583 194.05 126.05 193.35C126.75 192.483 127.117 192.017 127.15 191.95C127.483 191.283 127.55 190.583 127.35 189.85C127.117 189.05 126.683 188.483 126.05 188.15C125.55 187.883 124.7 187.75 123.5 187.75H119.9C117.633 187.75 115.95 187.85 114.85 188.05C113.95 188.217 113.217 188.483 112.65 188.85C111.883 189.383 111.45 190.017 111.35 190.75ZM52.45 188.65C52.1167 189.217 51.95 189.817 51.95 190.45C51.95 191.117 52.1167 191.7 52.45 192.2C53.0833 193.067 54.1167 193.567 55.55 193.7C56.35 193.767 57.5333 193.75 59.1 193.65C60.5667 193.65 61.5167 193.617 61.95 193.55C63.3167 193.25 64.2833 192.55 64.85 191.45C65.1167 190.917 65.2333 190.333 65.2 189.7C65.1333 189.033 64.9 188.467 64.5 188C64.1333 187.6 63.5167 187.217 62.65 186.85C60.35 186.05 58.1167 185.917 55.95 186.45C54.2167 186.883 53.05 187.617 52.45 188.65ZM20.8 189.25C20.6333 189.85 20.6667 190.467 20.9 191.1C21.1667 191.7 21.5833 192.15 22.15 192.45C22.2833 192.517 22.6333 192.65 23.2 192.85C23.6333 193.017 23.95 193.2 24.15 193.4C24.5833 193.8 24.8667 194.533 25 195.6C24.2333 197.8 23.8833 200.65 23.95 204.15C23.95 205.983 24.1 207.4 24.4 208.4C24.7 209.5 25.3167 210.817 26.25 212.35L28.5 216.3C28.8667 216.9 29.0833 217.417 29.15 217.85C29.2167 218.217 29.1667 218.733 29 219.4C28.8667 220.1 28.8 220.617 28.8 220.95C28.8333 221.717 29.2 222.783 29.9 224.15C30.0333 224.483 30.1667 225 30.3 225.7C30.4333 226.133 30.5833 226.5 30.75 226.8C30.7833 227.433 30.95 228.183 31.25 229.05C32.1167 231.15 33.1667 232.983 34.4 234.55C35 235.35 35.6167 236.017 36.25 236.55L34.5 237.5C33.4333 238.1 32.7833 238.683 32.55 239.25C32.5167 239.35 32.4667 239.6 32.4 240C32.3667 240.333 32.3 240.583 32.2 240.75C32 241.117 31.5167 241.467 30.75 241.8C29.6833 242.267 28.9167 242.667 28.45 243C27.6833 243.567 27.1833 244.217 26.95 244.95C26.85 245.317 26.7333 245.883 26.6 246.65C26.4333 247.083 26.0667 247.683 25.5 248.45C25.0333 249.35 25.0333 250.25 25.5 251.15C25.5667 251.283 25.65 251.417 25.75 251.55C25.7833 251.717 25.8333 251.867 25.9 252C26.3333 252.867 27.45 253.55 29.25 254.05C31.7167 254.717 33.5833 255.15 34.85 255.35C36.4167 255.617 37.65 255.6 38.55 255.3C39.1833 255.1 39.7167 254.75 40.15 254.25C40.5833 253.717 40.8 253.15 40.8 252.55C40.8 251.55 40.35 250.767 39.45 250.2C38.7167 249.733 37.8 249.5 36.7 249.5C36.1667 249.567 35.7333 249.517 35.4 249.35C35.1 249.083 34.8667 248.867 34.7 248.7L34.8 248.6C37.7667 246.4 40.15 244.8 41.95 243.8L45.25 242.15C45.5833 242.017 46.05 241.8 46.65 241.5C47.1833 241.233 47.6 240.933 47.9 240.6C48.4333 240.067 48.95 239.233 49.45 238.1C49.5167 237.933 49.5833 237.767 49.65 237.6C50.35 238.067 51.3833 238.65 52.75 239.35C52.85 239.417 52.9333 239.467 53 239.5C53.9 241.533 54.7333 243.25 55.5 244.65C55.5333 245.283 55.6833 245.983 55.95 246.75C56.0833 247.083 56.2167 247.4 56.35 247.7C55.7833 248 55.35 248.333 55.05 248.7C54.4833 249.4 54.3 250.25 54.5 251.25C54.7 252.25 55.2 253 56 253.5C56.5667 253.867 57.2833 254.1 58.15 254.2C58.35 254.233 59.15 254.267 60.55 254.3C61.6167 254.3 62.4167 254.25 62.95 254.15C63.85 253.983 64.55 253.583 65.05 252.95C65.5833 252.117 65.6333 250.967 65.2 249.5C64.9667 248.533 64.6333 247.817 64.2 247.35C64.2 246.95 64.1333 246.533 64 246.1C63.9333 245.867 63.6 245.017 63 243.55C62.7333 242.95 62.4 242.017 62 240.75C61.6667 239.583 61.4167 238.7 61.25 238.1C60.9167 237.033 60.6 236.15 60.3 235.45C59.9667 234.717 59.3667 233.65 58.5 232.25C58.2333 231.783 57.9833 231.333 57.75 230.9C57.35 230.6 56.9 230.283 56.4 229.95C54.8 228.883 53.6167 227.983 52.85 227.25C52.4167 227.017 51.95 226.75 51.45 226.45C50.75 226.05 50.1833 225.733 49.75 225.5C48.3167 224.9 47.2667 224.417 46.6 224.05C45.5333 223.383 44.7167 222.883 44.15 222.55C43.45 222.183 42.9333 221.883 42.6 221.65C41.5667 220.983 40.9 220.2 40.6 219.3L40.55 219.25C40.1167 218.617 39.7333 218.083 39.4 217.65C39.5333 217.183 39.65 216.65 39.75 216.05C39.95 214.717 40.0667 213.967 40.1 213.8C40.4333 212.267 41.2 210.417 42.4 208.25C43.0667 208.383 43.8167 208.483 44.65 208.55C47.65 208.683 49.9833 208.183 51.65 207.05C53.5167 205.75 54.6667 203.867 55.1 201.4C55.5 199.033 55.0833 197.133 53.85 195.7C53.05 194.767 51.85 194.083 50.25 193.65C49.8833 193.55 48.4333 193.3 45.9 192.9C44.8333 192.733 44.15 192.65 43.85 192.65C43.05 192.617 42.3667 192.7 41.8 192.9C41.2 193.133 40.4667 193.717 39.6 194.65C38.5333 195.717 37.8667 196.6 37.6 197.3C37.5 197.6 37.4333 198.083 37.4 198.75C37.1 199.15 36.85 199.483 36.65 199.75C35.95 200.65 35.1333 201.35 34.2 201.85C33.9333 201.483 33.8667 201 34 200.4C34.0333 200.333 34.2167 199.817 34.55 198.85C34.85 197.817 34.8833 196.8 34.65 195.8C35.5833 195.767 36.3167 195.317 36.85 194.45C37.4167 193.583 37.5167 192.717 37.15 191.85C37.05 191.583 36.8333 191.217 36.5 190.75C36.1667 190.283 35.95 189.917 35.85 189.65C35.6833 188.817 35.5 188.233 35.3 187.9C34.7667 187.033 33.5667 186.6 31.7 186.6L26.8 186.55C25.2 186.55 24.0333 186.683 23.3 186.95C21.9667 187.383 21.1333 188.15 20.8 189.25ZM7.84999 166.85C7.84999 166.883 7.84999 166.917 7.84999 166.95C7.84999 167.017 7.84999 167.083 7.84999 167.15C7.84999 167.183 7.84999 167.217 7.84999 167.25C7.61666 167.283 7.41666 167.35 7.24999 167.45C6.34999 167.983 5.76666 168.883 5.49999 170.15C5.49999 170.25 5.49999 170.35 5.49999 170.45C5.49999 170.583 5.49999 170.717 5.49999 170.85C5.49999 171.017 5.49999 171.167 5.49999 171.3C5.49999 171.433 5.49999 171.567 5.49999 171.7C5.49999 171.833 5.49999 171.967 5.49999 172.1C5.49999 172.267 5.49999 172.417 5.49999 172.55C5.49999 172.683 5.49999 172.817 5.49999 172.95C5.49999 173.083 5.49999 173.217 5.49999 173.35C5.49999 173.483 5.49999 173.633 5.49999 173.8C5.49999 173.933 5.49999 174.067 5.49999 174.2C5.49999 174.333 5.49999 174.467 5.49999 174.6C5.49999 174.733 5.49999 174.867 5.49999 175C5.49999 175.167 5.49999 175.317 5.49999 175.45C5.49999 175.583 5.49999 175.717 5.49999 175.85C5.49999 175.95 5.49999 176.05 5.49999 176.15L5.54999 176.7C5.64999 177.333 5.66666 178.317 5.59999 179.65C5.59999 180.85 5.89999 181.75 6.49999 182.35C6.96666 182.817 7.64999 183.1 8.54999 183.2C8.58332 183.267 8.63332 183.333 8.69999 183.4C34.0667 183.4 59.4167 183.4 84.75 183.4C88.3167 183.067 92.1 182.817 96.1 182.65C100.4 182.45 106.467 182.283 114.3 182.15L140.15 181.65C147.45 181.517 152.917 181.2 156.55 180.7C159.217 180.3 160.85 179.433 161.45 178.1C161.783 177.333 161.867 176.367 161.7 175.2C161.633 174.933 161.583 174.683 161.55 174.45C161.75 172.983 161.817 171.683 161.75 170.55C161.683 169.617 161.5 168.783 161.2 168.05C161.167 166.817 160.933 165.85 160.5 165.15C159.933 164.183 158.95 163.517 157.55 163.15C156.65 162.917 155.383 162.817 153.75 162.85L9.59999 166.7C8.96666 166.733 8.38332 166.783 7.84999 166.85ZM70.1 66.1L69.6 61.85C69.4 60.2833 69.0333 59.2 68.5 58.6C67.8333 57.9 66.7833 57.5 65.35 57.4C64.9833 57.2 64.6 57.0833 64.2 57.05C63.8 57.0167 63.3167 57.0667 62.75 57.2C62.1167 57.3667 61.6333 57.4667 61.3 57.5C60.8333 57.5667 60.2167 57.5833 59.45 57.55C58.5167 57.5167 57.8833 57.5167 57.55 57.55C55.9833 57.6833 54.9667 58.2667 54.5 59.3C54.4 59.5 54.3167 60 54.25 60.8C54.0833 64.4667 54.4 67.9167 55.2 71.15C55.8333 71.45 56.45 71.9167 57.05 72.55C58.2833 73.7167 59.8167 75.8333 61.65 78.9C62.7167 80.6667 63.0833 82.05 62.75 83.05C62.55 83.75 62 84.4333 61.1 85.1C60.0667 85.7667 59.3167 86.2833 58.85 86.65C58.75 86.7167 58.25 87.2167 57.35 88.15C57.0833 88.3833 56.8333 88.6 56.6 88.8C56.7333 92.6 56.8 97.4667 56.8 103.4V129.3L61.15 134.1C62.3833 135.467 62.9833 136.633 62.95 137.6C62.9167 138.667 62.2833 139.633 61.05 140.5C60.6833 140.733 60.15 141.017 59.45 141.35C58.6833 141.717 58.15 141.983 57.85 142.15C57.4833 142.417 57.1333 142.683 56.8 142.95V156.3C56.6667 156.6 56.5833 156.95 56.55 157.35C56.45 158.283 56.7 159.05 57.3 159.65C57.9 160.25 58.8833 160.583 60.25 160.65C60.8167 160.683 61.6667 160.617 62.8 160.45C63.9333 160.317 64.7833 160.25 65.35 160.25C65.75 160.25 66.3667 160.283 67.2 160.35C67.9333 160.35 68.55 160.267 69.05 160.1C70.0167 159.833 70.7 159.283 71.1 158.45C71.1667 158.45 71.25 158.467 71.35 158.5C71.35 158.167 71.3667 157.833 71.4 157.5C71.4 157.2 71.4167 156.917 71.45 156.65C71.5167 153.217 71.4667 149.15 71.3 144.45C70.9667 135.783 70.8 130.75 70.8 129.35C70.9667 120.683 70.95 114.233 70.75 110L70.4 104.25C70.3333 102.55 70.3 99.9167 70.3 96.35V81.45C70.3 77.3167 70.2 73.9333 70 71.3C70.1 70.9 70.1667 70.3833 70.2 69.75C70.2667 68.3167 70.2333 67.1 70.1 66.1ZM39.15 60.45C39.05 59.5167 38.7167 58.8 38.15 58.3C37.6167 57.8333 36.5833 57.6 35.05 57.6C34.35 57.6 33.8333 57.6333 33.5 57.7L32.3 57.95C31.9 58.05 31.4667 58.0667 31 58L27.5 57.95C26.4667 57.95 25.7667 58.0333 25.4 58.2C24.8333 58.4333 24.4 58.8333 24.1 59.4C23.7667 59.9667 23.6167 60.5667 23.65 61.2L23.9 62.7C23.9333 63.2333 23.9167 64.05 23.85 65.15C23.85 65.5833 23.9333 66.05 24.1 66.55C24.1333 66.65 24.1833 66.7667 24.25 66.9C24.25 67.0667 24.2667 67.25 24.3 67.45L24.55 69.55C24.4833 71.2833 24.45 73.25 24.45 75.45C24.3833 88.55 24.4333 98.4333 24.6 105.1C25.0333 105.6 25.6167 106.167 26.35 106.8C27.6167 107.9 28.4167 108.617 28.75 108.95C29.55 109.817 30.1167 110.733 30.45 111.7C30.8167 112.833 30.8 113.867 30.4 114.8C30.1333 115.4 29.6833 116 29.05 116.6C28.25 117.233 27.65 117.717 27.25 118.05C26.4167 118.983 25.7167 119.75 25.15 120.35C25.1833 121.383 25.2167 122.45 25.25 123.55L26.35 155.85C26.05 156.35 25.8667 156.867 25.8 157.4C25.7667 158.067 25.9667 158.7 26.4 159.3C26.8333 159.9 27.3667 160.283 28 160.45C28.3667 160.517 29.0667 160.517 30.1 160.45C32.2667 160.183 34.7333 160.05 37.5 160.05C38.2667 160.05 38.8333 160 39.2 159.9C39.8 159.733 40.3 159.383 40.7 158.85C41.1 158.317 41.3167 157.733 41.35 157.1C41.35 156.467 41.1667 155.883 40.8 155.35L40.75 155.3C40.75 155.133 40.75 154.983 40.75 154.85C41.0167 149.75 41.2 145.85 41.3 143.15C41.4667 139.017 41.3667 132.133 41 122.5L40.2 100.8C39.9 91.1667 39.7333 84.9167 39.7 82.05C39.6667 77.5167 39.6333 74.75 39.6 73.75C39.5333 71.5833 39.4333 69.7 39.3 68.1C39.3333 67 39.2833 65.7833 39.15 64.45C39.1833 63.9833 39.2 63.4333 39.2 62.8C39.2 61.5 39.1833 60.7167 39.15 60.45ZM102.25 67.4C102.683 66.4667 103.167 65.6833 103.7 65.05C103.467 62.15 103.083 60 102.55 58.6C101.983 57.2 101.15 56.5 100.05 56.5C99.2167 56.5 97.7833 56.6333 95.75 56.9C93.9167 57.3333 92.4667 57.4 91.4 57.1C89.8333 56.8333 88.7667 57.2667 88.2 58.4C87.3 60.4 86.7333 63.8 86.5 68.6C86.4 70.6 86.3833 74.4333 86.45 80.1L88 148C88.1 151.667 88.2667 154.45 88.5 156.35C88.3667 156.617 88.2667 156.95 88.2 157.35C88.1333 157.917 88.2167 158.483 88.45 159.05C88.7167 159.583 89.1 159.983 89.6 160.25C90.1 160.55 90.9167 160.733 92.05 160.8L96.7 161.2C99.2667 161.4 100.967 161 101.8 160C102.2 159.5 102.417 158.917 102.45 158.25C102.95 156.517 103.35 154.433 103.65 152C103.917 149.6 104.05 145.5 104.05 139.7V81.15C103.45 80.65 102.817 80.1833 102.15 79.75C101.25 79.1833 100.767 78.8833 100.7 78.85C100.167 78.45 99.7833 78.0333 99.55 77.6C99.15 76.8333 99.0833 75.9 99.35 74.8C99.4833 74.3 99.8333 73.3667 100.4 72C101.167 69.9333 101.783 68.4 102.25 67.4ZM119.55 59.05C119.45 59.5833 119.4 60.4 119.4 61.5C119.4 63.1 119.433 64.05 119.5 64.35C119.567 64.55 119.65 64.8 119.75 65.1C119.617 67.2 119.667 68.85 119.9 70.05C119.967 70.4833 120.083 71.1167 120.25 71.95V73.2C120.25 73.4333 120.267 73.6667 120.3 73.9C120.033 80.1 120.033 88.3833 120.3 98.75C120.367 101.783 120.433 104.6 120.5 107.2L122.4 109.2C123.367 110.167 124.05 110.783 124.45 111.05C124.583 111.15 124.967 111.367 125.6 111.7C126.067 111.967 126.433 112.217 126.7 112.45C127.167 112.917 127.483 113.5 127.65 114.2C127.783 114.867 127.733 115.517 127.5 116.15C127.1 117.15 125.983 118.167 124.15 119.2C122.817 119.967 121.65 120.55 120.65 120.95C120.617 122.883 120.583 124.567 120.55 126C120.517 126.7 120.383 129.383 120.15 134.05C120.017 137.183 119.933 139.817 119.9 141.95C119.767 148.383 120.133 153.15 121 156.25C120.867 156.65 120.817 157.1 120.85 157.6C120.917 158.667 121.433 159.45 122.4 159.95C122.767 160.117 123.217 160.217 123.75 160.25C123.983 160.25 124.467 160.233 125.2 160.2C126.167 160.167 127.6 160.217 129.5 160.35C130.867 160.417 131.9 160.183 132.6 159.65C132.767 159.55 132.917 159.433 133.05 159.3H133.25C134.017 158.633 134.583 157.45 134.95 155.75C135.583 152.783 135.833 147.533 135.7 140L134.85 80.25C134.783 76.0167 134.633 72.6333 134.4 70.1C134.433 69.4667 134.433 68.7667 134.4 68C134.3 66.4667 134.233 65.3167 134.2 64.55C134.2 63.8167 134.183 63.2667 134.15 62.9C134.15 62.8667 134.15 62.8333 134.15 62.8C134.25 61.9333 134.267 61.0167 134.2 60.05C134.067 59.05 133.833 58.3 133.5 57.8C132.767 56.6333 131.467 55.9833 129.6 55.85C127.567 56.0167 126.05 56.1167 125.05 56.15C123.65 56.15 122.867 56.1667 122.7 56.2C121.833 56.2667 121.15 56.5167 120.65 56.95C120.083 57.4833 119.717 58.1833 119.55 59.05ZM124.6 23.35C124.4 22.35 124.267 21.6 124.2 21.1C124.067 20.4667 124 19.5167 124 18.25C115.667 15.0833 108.5 12.0333 102.5 9.1C99.6667 7.66667 97.75 6.73333 96.75 6.3C95.6833 5.86667 94.6667 5.5 93.7 5.2H93.65C93.5167 5.13333 93.4 5.08333 93.3 5.05H93.2C93.1333 5.01667 93.0833 5 93.05 5C92.9833 5 92.9333 4.98333 92.9 4.95C92.1 4.71667 91.35 4.53333 90.65 4.4C90.3833 4.36667 90.0667 4.31667 89.7 4.25C88 3.65 86.7667 3.25 86 3.05C85.5333 2.98333 85.1167 2.91667 84.75 2.85C83.8167 2.41667 82.7167 1.95 81.45 1.45C78.8833 0.483333 76.9667 0 75.7 0C75.0667 0 74.3833 0.0666667 73.65 0.2C73.4833 0.2 73.3 0.2 73.1 0.2C72.9 0.166667 72.6833 0.166667 72.45 0.2C72.25 0.233333 71.9667 0.3 71.6 0.4C71.5333 0.4 71.45 0.4 71.35 0.4C70.5833 0.4 69.65 0.583333 68.55 0.95C68.2833 1.01667 68.05 1.1 67.85 1.2C66.9833 1.26667 66.0833 1.45 65.15 1.75C63.9833 2.11667 62.5167 2.75 60.75 3.65C56.85 5.58333 52.1667 8.2 46.7 11.5C40.6333 15.2667 36.05 18.05 32.95 19.85C31.7167 20.5833 30.5 21.3 29.3 22C29.4667 22.8667 29.4667 24 29.3 25.4L28.25 36.95C28.1167 38.55 27.7333 39.6333 27.1 40.2C26.6667 40.6 26.1167 40.8167 25.45 40.85C24.8167 40.8833 24.2167 40.75 23.65 40.45C22.8167 40.0167 21.9 39.2167 20.9 38.05L16.45 33.15C15.35 31.9167 14.6 30.8667 14.2 30C11.0333 31.5667 7.81666 33.0833 4.54999 34.55C2.51666 35.4833 1.39999 36.4833 1.19999 37.55C1.13332 37.85 1.11666 38.15 1.14999 38.45C1.01666 39.25 0.966657 40.2833 0.99999 41.55L1.14999 46.85C1.21666 48.1833 1.44999 49.1 1.84999 49.6C2.41666 50.3 3.61666 50.6833 5.44999 50.75C8.08332 50.7833 15.6833 51.1167 28.25 51.75C37.55 52.25 45.15 52.3167 51.05 51.95C53.5833 51.7833 57.35 51.4667 62.35 51C68.25 50.5 75.5167 50.1667 84.15 50C94.45 49.7 106.8 49.4667 121.2 49.3C126.767 49.2333 130.933 49.15 133.7 49.05C137.867 48.85 142.1 48.6 146.4 48.3L155.35 47.7C157.25 47.5667 158.533 47.1667 159.2 46.5C159.967 45.7 160.317 44.3333 160.25 42.4C160.15 39.6333 159.833 37 159.3 34.5C158.967 32.7333 158.35 31.5333 157.45 30.9C157.417 30.9 157.4 30.8833 157.4 30.85C156.767 30.1167 155.667 29.4667 154.1 28.9C148.933 27.1 144.35 25.5 140.35 24.1L139.35 25.45C138.283 26.8833 137.483 27.8333 136.95 28.3C135.783 29.2 134.917 29.9 134.35 30.4L131.1 34C130.367 34.9 129.65 35.5 128.95 35.8C128.35 36 127.733 35.9833 127.1 35.75C126.467 35.5167 125.983 35.1333 125.65 34.6C125.317 34.0333 125.15 33.2667 125.15 32.3C125.217 31.2 125.217 30.3833 125.15 29.85C124.85 28.55 124.667 27.5667 124.6 26.9C124.567 26.5333 124.567 25.9333 124.6 25.1C124.667 24.3333 124.667 23.75 124.6 23.35ZM82 17.25C83.5 18.3833 84.7 19.7 85.6 21.2C86.6 22.8333 87.1167 24.5167 87.15 26.25C87.1833 26.9833 87.1 28.0833 86.9 29.55C86.7 31.15 86.4667 32.3333 86.2 33.1C85.7 34.3667 84.9667 35.4833 84 36.45C82.9 37.5833 81.7333 38.3167 80.5 38.65C80.1 38.75 79.55 38.8333 78.85 38.9C77.9167 38.9667 77.3667 39.0167 77.2 39.05C75.8 39.3833 74.7333 39.5833 74 39.65C71.9333 39.9167 69.6667 39.4333 67.2 38.2C64.7667 37.0333 63.1333 35.5833 62.3 33.85C61.5667 32.25 61.45 30.4667 61.95 28.5C62.0833 27.9 62.3833 26.95 62.85 25.65C63.25 24.45 63.6167 23.5833 63.95 23.05C64.2833 22.4833 65.1167 21.5333 66.45 20.2C67.8833 18.8333 68.9167 17.9 69.55 17.4C70.7833 16.4333 71.9833 15.7667 73.15 15.4C75.05 14.7667 76.9333 14.7833 78.8 15.45C79.9 15.8167 80.9667 16.4167 82 17.25Z" fill="#121416"/>
</g>
<defs>
<clipPath id="clip0_115_411">
<rect width="162" height="256" fill="white"/>
</clipPath>
</defs>
</svg>